M48
; DRILL file {KiCad (6.0.2-0)} date Friday, 22 April 2022 at 07:09:06 pm
; FORMAT={-:-/ absolute / metric / decimal}
; #@! TF.CreationDate,2022-04-22T19:09:06+09:30
; #@! TF.GenerationSoftware,Kicad,Pcbnew,(6.0.2-0)
; #@! TF.FileFunction,Plated,1,2,PTH
FMAT,2
METRIC
; #@! TA.AperFunction,Plated,PTH,ViaDrill
T1C0.400
; #@! TA.AperFunction,Plated,PTH,ComponentDrill
T2C0.500
; #@! TA.AperFunction,Plated,PTH,ComponentDrill
T3C0.700
; #@! TA.AperFunction,Plated,PTH,ComponentDrill
T4C0.800
; #@! TA.AperFunction,Plated,PTH,ComponentDrill
T5C0.900
; #@! TA.AperFunction,Plated,PTH,ComponentDrill
T6C1.000
; #@! TA.AperFunction,Plated,PTH,ComponentDrill
T7C1.100
%
G90
G05
T1
X32.64Y-69.64
X35.14Y-73.64
X35.64Y-56.14
X38.14Y-83.621
X39.14Y-60.64
X39.64Y-65.14
X40.14Y-55.64
X40.14Y-58.14
X42.64Y-80.14
X43.64Y-60.64
X44.14Y-59.14
X45.14Y-85.64
X45.64Y-72.64
X47.14Y-64.64
X47.64Y-43.64
X47.64Y-81.14
X48.14Y-59.64
X48.64Y-55.64
X49.64Y-60.14
X51.14Y-44.14
X51.64Y-41.64
X52.64Y-54.14
X52.652Y-75.628
X54.399Y-68.576
X57.14Y-65.14
X58.14Y-76.64
X59.64Y-35.64
X60.64Y-73.64
X61.64Y-68.14
X63.14Y-66.14
X63.14Y-74.64
X63.64Y-68.64
X63.64Y-72.64
X67.14Y-74.64
X69.14Y-76.64
T2
X70.94Y-37.59
X70.94Y-40.59
X70.94Y-43.59
T3
X70.94Y-34.39
X70.94Y-46.89
T4
X34.14Y-46.64
X34.14Y-81.845
X34.14Y-84.345
X36.14Y-70.57
X36.14Y-78.19
X36.64Y-46.64
X38.68Y-70.57
X38.68Y-78.19
X41.22Y-70.57
X41.22Y-78.19
X42.33Y-57.64
X43.76Y-70.57
X43.76Y-78.19
X45.64Y-74.64
X46.3Y-70.57
X46.3Y-78.19
X48.84Y-70.57
X48.84Y-78.19
X49.95Y-57.64
X50.64Y-74.64
X51.38Y-70.57
X51.38Y-78.19
X52.33Y-57.64
X53.92Y-70.57
X53.92Y-78.19
X56.46Y-70.57
X56.46Y-78.19
X59.0Y-70.57
X59.0Y-78.19
X59.95Y-57.64
X61.54Y-70.57
X61.54Y-78.19
X62.14Y-82.435
X62.14Y-84.935
X64.08Y-70.57
X64.08Y-78.19
X66.62Y-70.57
X66.62Y-78.19
X69.14Y-50.02
X69.14Y-57.64
X69.16Y-70.57
X69.16Y-78.19
X73.14Y-70.64
X73.14Y-75.64
T5
X33.365Y-63.64
X35.905Y-63.64
T6
X32.14Y-75.865
X32.14Y-78.405
X49.34Y-34.64
X51.88Y-34.64
X54.42Y-34.64
X56.96Y-34.64
X70.14Y-62.115
X70.14Y-64.655
X70.14Y-67.195
X72.68Y-62.115
X72.68Y-64.655
X72.68Y-67.195
T7
X32.89Y-52.39
X32.89Y-58.89
X37.39Y-52.39
X37.39Y-58.89
X39.14Y-62.89
X39.14Y-67.39
X45.64Y-62.89
X45.64Y-67.39
X49.39Y-62.89
X49.39Y-67.39
X55.89Y-62.89
X55.89Y-67.39
X59.64Y-62.89
X59.64Y-67.39
X66.14Y-62.89
X66.14Y-67.39
T0
M30
