%TF.GenerationSoftware,KiCad,Pcbnew,(6.0.2-0)*%
%TF.CreationDate,2022-04-22T19:08:37+09:30*%
%TF.ProjectId,scrambler,73637261-6d62-46c6-9572-2e6b69636164,1.0*%
%TF.SameCoordinates,Original*%
%TF.FileFunction,Other,User*%
%FSLAX46Y46*%
G04 Gerber Fmt 4.6, Leading zero omitted, Abs format (unit mm)*
G04 Created by KiCad (PCBNEW (6.0.2-0)) date 2022-04-22 19:08:37*
%MOMM*%
%LPD*%
G01*
G04 APERTURE LIST*
%ADD10C,0.050000*%
G04 APERTURE END LIST*
D10*
%TO.C,SW1*%
X38890000Y-51140000D02*
X38890000Y-60140000D01*
X31390000Y-60140000D02*
X31390000Y-51140000D01*
X38890000Y-51140000D02*
X38890000Y-50890000D01*
X38640000Y-60390000D02*
X38890000Y-60390000D01*
X38640000Y-60390000D02*
X31640000Y-60390000D01*
X31390000Y-51140000D02*
X31390000Y-50890000D01*
X31390000Y-50890000D02*
X31640000Y-50890000D01*
X31640000Y-50890000D02*
X38640000Y-50890000D01*
X38890000Y-50890000D02*
X38640000Y-50890000D01*
X38890000Y-60390000D02*
X38890000Y-60140000D01*
X31640000Y-60390000D02*
X31390000Y-60390000D01*
X31390000Y-60390000D02*
X31390000Y-60140000D01*
%TO.C,C3*%
X74640000Y-69590000D02*
X71640000Y-69590000D01*
X74640000Y-76690000D02*
X74640000Y-69590000D01*
X71640000Y-69590000D02*
X71640000Y-76690000D01*
X71640000Y-76690000D02*
X74640000Y-76690000D01*
%TO.C,SW4*%
X58140000Y-61640000D02*
X58140000Y-61390000D01*
X67390000Y-68890000D02*
X67640000Y-68890000D01*
X67640000Y-68890000D02*
X67640000Y-68640000D01*
X67390000Y-61390000D02*
X67640000Y-61390000D01*
X58390000Y-61390000D02*
X67390000Y-61390000D01*
X58140000Y-61390000D02*
X58390000Y-61390000D01*
X58140000Y-68640000D02*
X58140000Y-61640000D01*
X58140000Y-68890000D02*
X58390000Y-68890000D01*
X67640000Y-61390000D02*
X67640000Y-61640000D01*
X58140000Y-68640000D02*
X58140000Y-68890000D01*
X67390000Y-68890000D02*
X58390000Y-68890000D01*
X67640000Y-61640000D02*
X67640000Y-68640000D01*
%TO.C,C1*%
X36890000Y-83095113D02*
G75*
G03*
X36890000Y-83095113I-2750000J0D01*
G01*
%TO.C,C2*%
X64890000Y-83684888D02*
G75*
G03*
X64890000Y-83684888I-2750000J0D01*
G01*
%TO.C,R3*%
X51000000Y-59140000D02*
X51000000Y-56140000D01*
X51000000Y-56140000D02*
X41280000Y-56140000D01*
X41280000Y-59140000D02*
X51000000Y-59140000D01*
X41280000Y-56140000D02*
X41280000Y-59140000D01*
%TO.C,SW3*%
X57390000Y-61390000D02*
X57390000Y-61640000D01*
X47890000Y-61640000D02*
X47890000Y-61390000D01*
X47890000Y-68640000D02*
X47890000Y-61640000D01*
X48140000Y-61390000D02*
X57140000Y-61390000D01*
X47890000Y-61390000D02*
X48140000Y-61390000D01*
X57390000Y-68890000D02*
X57390000Y-68640000D01*
X47890000Y-68890000D02*
X48140000Y-68890000D01*
X57140000Y-68890000D02*
X57390000Y-68890000D01*
X57140000Y-61390000D02*
X57390000Y-61390000D01*
X57390000Y-61640000D02*
X57390000Y-68640000D01*
X47890000Y-68640000D02*
X47890000Y-68890000D01*
X57140000Y-68890000D02*
X48140000Y-68890000D01*
%TO.C,SW5*%
X37640000Y-61640000D02*
X37640000Y-61390000D01*
X37640000Y-68640000D02*
X37640000Y-68890000D01*
X47140000Y-61640000D02*
X47140000Y-68640000D01*
X46890000Y-68890000D02*
X47140000Y-68890000D01*
X46890000Y-68890000D02*
X37890000Y-68890000D01*
X37640000Y-68890000D02*
X37890000Y-68890000D01*
X37640000Y-68640000D02*
X37640000Y-61640000D01*
X47140000Y-61390000D02*
X47140000Y-61640000D01*
X47140000Y-68890000D02*
X47140000Y-68640000D01*
X37640000Y-61390000D02*
X37890000Y-61390000D01*
X37890000Y-61390000D02*
X46890000Y-61390000D01*
X46890000Y-61390000D02*
X47140000Y-61390000D01*
%TO.C,C5*%
X38140000Y-46640000D02*
G75*
G03*
X38140000Y-46640000I-2750000J0D01*
G01*
%TO.C,U1*%
X41090000Y-84340000D02*
X45190000Y-84340000D01*
X45190000Y-80940000D02*
X41090000Y-80940000D01*
X45190000Y-84340000D02*
X45190000Y-80940000D01*
X41090000Y-80940000D02*
X41090000Y-84340000D01*
%TO.C,C4*%
X44590000Y-73140000D02*
X44590000Y-76140000D01*
X51690000Y-73140000D02*
X44590000Y-73140000D01*
X44590000Y-76140000D02*
X51690000Y-76140000D01*
X51690000Y-76140000D02*
X51690000Y-73140000D01*
%TO.C,R2*%
X51280000Y-56140000D02*
X51280000Y-59140000D01*
X61000000Y-56140000D02*
X51280000Y-56140000D01*
X51280000Y-59140000D02*
X61000000Y-59140000D01*
X61000000Y-59140000D02*
X61000000Y-56140000D01*
%TO.C,REF\u002A\u002A*%
X75090000Y-83640000D02*
G75*
G03*
X75090000Y-83640000I-3450000J0D01*
G01*
%TO.C,R1*%
X67640000Y-48970000D02*
X67640000Y-58690000D01*
X70640000Y-58690000D02*
X70640000Y-48970000D01*
X70640000Y-48970000D02*
X67640000Y-48970000D01*
X67640000Y-58690000D02*
X70640000Y-58690000D01*
%TO.C,D1*%
X37065000Y-65890000D02*
X37065000Y-61390000D01*
X37065000Y-61390000D02*
X32215000Y-61390000D01*
X32215000Y-65890000D02*
X37065000Y-65890000D01*
X32215000Y-61390000D02*
X32215000Y-65890000D01*
%TO.C,BT1*%
X30340000Y-74065000D02*
X30340000Y-80215000D01*
X33940000Y-74065000D02*
X30340000Y-74065000D01*
X33940000Y-80215000D02*
X33940000Y-74065000D01*
X30340000Y-80215000D02*
X33940000Y-80215000D01*
%TO.C,J3*%
X47190000Y-88340000D02*
X47190000Y-81840000D01*
X56590000Y-88340000D02*
X47190000Y-88340000D01*
X47190000Y-81840000D02*
X56590000Y-81840000D01*
X56590000Y-81840000D02*
X56590000Y-88340000D01*
%TO.C,J1*%
X58740000Y-36440000D02*
X58740000Y-32840000D01*
X47540000Y-32840000D02*
X47540000Y-36440000D01*
X47540000Y-36440000D02*
X58740000Y-36440000D01*
X58740000Y-32840000D02*
X47540000Y-32840000D01*
%TO.C,REF\u002A\u002A*%
X37090000Y-35640000D02*
G75*
G03*
X37090000Y-35640000I-3450000J0D01*
G01*
%TO.C,U2*%
X34540000Y-69040000D02*
X34540000Y-79740000D01*
X70790000Y-69040000D02*
X34540000Y-69040000D01*
X70790000Y-79740000D02*
X70790000Y-69040000D01*
X34540000Y-79740000D02*
X70790000Y-79740000D01*
%TO.C,J2*%
X74490000Y-68965000D02*
X74490000Y-60315000D01*
X68340000Y-68965000D02*
X74490000Y-68965000D01*
X74490000Y-60315000D02*
X68340000Y-60315000D01*
X68340000Y-60315000D02*
X68340000Y-68965000D01*
%TD*%
M02*
