%TF.GenerationSoftware,KiCad,Pcbnew,(6.0.2-0)*%
%TF.CreationDate,2022-04-22T19:08:38+09:30*%
%TF.ProjectId,scrambler,73637261-6d62-46c6-9572-2e6b69636164,1.0*%
%TF.SameCoordinates,Original*%
%TF.FileFunction,AssemblyDrawing,Top*%
%FSLAX46Y46*%
G04 Gerber Fmt 4.6, Leading zero omitted, Abs format (unit mm)*
G04 Created by KiCad (PCBNEW (6.0.2-0)) date 2022-04-22 19:08:38*
%MOMM*%
%LPD*%
G01*
G04 APERTURE LIST*
%ADD10C,0.150000*%
%ADD11C,0.060000*%
%ADD12C,0.100000*%
G04 APERTURE END LIST*
D10*
%TO.C,SW1*%
X40042380Y-56592380D02*
X39566190Y-56925714D01*
X40042380Y-57163809D02*
X39042380Y-57163809D01*
X39042380Y-56782857D01*
X39090000Y-56687619D01*
X39137619Y-56640000D01*
X39232857Y-56592380D01*
X39375714Y-56592380D01*
X39470952Y-56640000D01*
X39518571Y-56687619D01*
X39566190Y-56782857D01*
X39566190Y-57163809D01*
X39518571Y-56163809D02*
X39518571Y-55830476D01*
X40042380Y-55687619D02*
X40042380Y-56163809D01*
X39042380Y-56163809D01*
X39042380Y-55687619D01*
X39994761Y-55306666D02*
X40042380Y-55163809D01*
X40042380Y-54925714D01*
X39994761Y-54830476D01*
X39947142Y-54782857D01*
X39851904Y-54735238D01*
X39756666Y-54735238D01*
X39661428Y-54782857D01*
X39613809Y-54830476D01*
X39566190Y-54925714D01*
X39518571Y-55116190D01*
X39470952Y-55211428D01*
X39423333Y-55259047D01*
X39328095Y-55306666D01*
X39232857Y-55306666D01*
X39137619Y-55259047D01*
X39090000Y-55211428D01*
X39042380Y-55116190D01*
X39042380Y-54878095D01*
X39090000Y-54735238D01*
X39518571Y-54306666D02*
X39518571Y-53973333D01*
X40042380Y-53830476D02*
X40042380Y-54306666D01*
X39042380Y-54306666D01*
X39042380Y-53830476D01*
X39042380Y-53544761D02*
X39042380Y-52973333D01*
X40042380Y-53259047D02*
X39042380Y-53259047D01*
X35544761Y-56973333D02*
X35592380Y-56830476D01*
X35592380Y-56592380D01*
X35544761Y-56497142D01*
X35497142Y-56449523D01*
X35401904Y-56401904D01*
X35306666Y-56401904D01*
X35211428Y-56449523D01*
X35163809Y-56497142D01*
X35116190Y-56592380D01*
X35068571Y-56782857D01*
X35020952Y-56878095D01*
X34973333Y-56925714D01*
X34878095Y-56973333D01*
X34782857Y-56973333D01*
X34687619Y-56925714D01*
X34640000Y-56878095D01*
X34592380Y-56782857D01*
X34592380Y-56544761D01*
X34640000Y-56401904D01*
X34592380Y-56068571D02*
X35592380Y-55830476D01*
X34878095Y-55640000D01*
X35592380Y-55449523D01*
X34592380Y-55211428D01*
X35592380Y-54306666D02*
X35592380Y-54878095D01*
X35592380Y-54592380D02*
X34592380Y-54592380D01*
X34735238Y-54687619D01*
X34830476Y-54782857D01*
X34878095Y-54878095D01*
%TO.C,C3*%
X75997142Y-72830476D02*
X76044761Y-72878095D01*
X76092380Y-73020952D01*
X76092380Y-73116190D01*
X76044761Y-73259047D01*
X75949523Y-73354285D01*
X75854285Y-73401904D01*
X75663809Y-73449523D01*
X75520952Y-73449523D01*
X75330476Y-73401904D01*
X75235238Y-73354285D01*
X75140000Y-73259047D01*
X75092380Y-73116190D01*
X75092380Y-73020952D01*
X75140000Y-72878095D01*
X75187619Y-72830476D01*
X73497142Y-73306666D02*
X73544761Y-73354285D01*
X73592380Y-73497142D01*
X73592380Y-73592380D01*
X73544761Y-73735238D01*
X73449523Y-73830476D01*
X73354285Y-73878095D01*
X73163809Y-73925714D01*
X73020952Y-73925714D01*
X72830476Y-73878095D01*
X72735238Y-73830476D01*
X72640000Y-73735238D01*
X72592380Y-73592380D01*
X72592380Y-73497142D01*
X72640000Y-73354285D01*
X72687619Y-73306666D01*
X72592380Y-72973333D02*
X72592380Y-72354285D01*
X72973333Y-72687619D01*
X72973333Y-72544761D01*
X73020952Y-72449523D01*
X73068571Y-72401904D01*
X73163809Y-72354285D01*
X73401904Y-72354285D01*
X73497142Y-72401904D01*
X73544761Y-72449523D01*
X73592380Y-72544761D01*
X73592380Y-72830476D01*
X73544761Y-72925714D01*
X73497142Y-72973333D01*
%TO.C,SW4*%
X60342380Y-69994761D02*
X60485238Y-70042380D01*
X60723333Y-70042380D01*
X60818571Y-69994761D01*
X60866190Y-69947142D01*
X60913809Y-69851904D01*
X60913809Y-69756666D01*
X60866190Y-69661428D01*
X60818571Y-69613809D01*
X60723333Y-69566190D01*
X60532857Y-69518571D01*
X60437619Y-69470952D01*
X60390000Y-69423333D01*
X60342380Y-69328095D01*
X60342380Y-69232857D01*
X60390000Y-69137619D01*
X60437619Y-69090000D01*
X60532857Y-69042380D01*
X60770952Y-69042380D01*
X60913809Y-69090000D01*
X61247142Y-69042380D02*
X61485238Y-70042380D01*
X61675714Y-69328095D01*
X61866190Y-70042380D01*
X62104285Y-69042380D01*
X62247142Y-70137619D02*
X63009047Y-70137619D01*
X63247142Y-70042380D02*
X63247142Y-69042380D01*
X63628095Y-69042380D01*
X63723333Y-69090000D01*
X63770952Y-69137619D01*
X63818571Y-69232857D01*
X63818571Y-69375714D01*
X63770952Y-69470952D01*
X63723333Y-69518571D01*
X63628095Y-69566190D01*
X63247142Y-69566190D01*
X64675714Y-69375714D02*
X64675714Y-70042380D01*
X64247142Y-69375714D02*
X64247142Y-69899523D01*
X64294761Y-69994761D01*
X64390000Y-70042380D01*
X64532857Y-70042380D01*
X64628095Y-69994761D01*
X64675714Y-69947142D01*
X65104285Y-69994761D02*
X65199523Y-70042380D01*
X65390000Y-70042380D01*
X65485238Y-69994761D01*
X65532857Y-69899523D01*
X65532857Y-69851904D01*
X65485238Y-69756666D01*
X65390000Y-69709047D01*
X65247142Y-69709047D01*
X65151904Y-69661428D01*
X65104285Y-69566190D01*
X65104285Y-69518571D01*
X65151904Y-69423333D01*
X65247142Y-69375714D01*
X65390000Y-69375714D01*
X65485238Y-69423333D01*
X65961428Y-70042380D02*
X65961428Y-69042380D01*
X66390000Y-70042380D02*
X66390000Y-69518571D01*
X66342380Y-69423333D01*
X66247142Y-69375714D01*
X66104285Y-69375714D01*
X66009047Y-69423333D01*
X65961428Y-69470952D01*
X61556666Y-65544761D02*
X61699523Y-65592380D01*
X61937619Y-65592380D01*
X62032857Y-65544761D01*
X62080476Y-65497142D01*
X62128095Y-65401904D01*
X62128095Y-65306666D01*
X62080476Y-65211428D01*
X62032857Y-65163809D01*
X61937619Y-65116190D01*
X61747142Y-65068571D01*
X61651904Y-65020952D01*
X61604285Y-64973333D01*
X61556666Y-64878095D01*
X61556666Y-64782857D01*
X61604285Y-64687619D01*
X61651904Y-64640000D01*
X61747142Y-64592380D01*
X61985238Y-64592380D01*
X62128095Y-64640000D01*
X62461428Y-64592380D02*
X62699523Y-65592380D01*
X62890000Y-64878095D01*
X63080476Y-65592380D01*
X63318571Y-64592380D01*
X64128095Y-64925714D02*
X64128095Y-65592380D01*
X63890000Y-64544761D02*
X63651904Y-65259047D01*
X64270952Y-65259047D01*
%TO.C,C1*%
X37675714Y-84499874D02*
X38342380Y-84499874D01*
X37294761Y-84737970D02*
X38009047Y-84976065D01*
X38009047Y-84357017D01*
X38247142Y-83976065D02*
X38294761Y-83928446D01*
X38342380Y-83976065D01*
X38294761Y-84023684D01*
X38247142Y-83976065D01*
X38342380Y-83976065D01*
X37342380Y-83595112D02*
X37342380Y-82928446D01*
X38342380Y-83357017D01*
X37675714Y-82118922D02*
X38342380Y-82118922D01*
X37675714Y-82547493D02*
X38199523Y-82547493D01*
X38294761Y-82499874D01*
X38342380Y-82404636D01*
X38342380Y-82261779D01*
X38294761Y-82166541D01*
X38247142Y-82118922D01*
X37818571Y-81309398D02*
X37818571Y-81642732D01*
X38342380Y-81642732D02*
X37342380Y-81642732D01*
X37342380Y-81166541D01*
X34497142Y-83261779D02*
X34544761Y-83309398D01*
X34592380Y-83452255D01*
X34592380Y-83547493D01*
X34544761Y-83690351D01*
X34449523Y-83785589D01*
X34354285Y-83833208D01*
X34163809Y-83880827D01*
X34020952Y-83880827D01*
X33830476Y-83833208D01*
X33735238Y-83785589D01*
X33640000Y-83690351D01*
X33592380Y-83547493D01*
X33592380Y-83452255D01*
X33640000Y-83309398D01*
X33687619Y-83261779D01*
X34592380Y-82309398D02*
X34592380Y-82880827D01*
X34592380Y-82595113D02*
X33592380Y-82595113D01*
X33735238Y-82690351D01*
X33830476Y-82785589D01*
X33878095Y-82880827D01*
%TO.C,C2*%
X58175714Y-85089649D02*
X58842380Y-85089649D01*
X57794761Y-85327745D02*
X58509047Y-85565840D01*
X58509047Y-84946792D01*
X58747142Y-84565840D02*
X58794761Y-84518221D01*
X58842380Y-84565840D01*
X58794761Y-84613459D01*
X58747142Y-84565840D01*
X58842380Y-84565840D01*
X57842380Y-84184887D02*
X57842380Y-83518221D01*
X58842380Y-83946792D01*
X58175714Y-82708697D02*
X58842380Y-82708697D01*
X58175714Y-83137268D02*
X58699523Y-83137268D01*
X58794761Y-83089649D01*
X58842380Y-82994411D01*
X58842380Y-82851554D01*
X58794761Y-82756316D01*
X58747142Y-82708697D01*
X58318571Y-81899173D02*
X58318571Y-82232507D01*
X58842380Y-82232507D02*
X57842380Y-82232507D01*
X57842380Y-81756316D01*
X62497142Y-83851554D02*
X62544761Y-83899173D01*
X62592380Y-84042030D01*
X62592380Y-84137268D01*
X62544761Y-84280126D01*
X62449523Y-84375364D01*
X62354285Y-84422983D01*
X62163809Y-84470602D01*
X62020952Y-84470602D01*
X61830476Y-84422983D01*
X61735238Y-84375364D01*
X61640000Y-84280126D01*
X61592380Y-84137268D01*
X61592380Y-84042030D01*
X61640000Y-83899173D01*
X61687619Y-83851554D01*
X61687619Y-83470602D02*
X61640000Y-83422983D01*
X61592380Y-83327745D01*
X61592380Y-83089649D01*
X61640000Y-82994411D01*
X61687619Y-82946792D01*
X61782857Y-82899173D01*
X61878095Y-82899173D01*
X62020952Y-82946792D01*
X62592380Y-83518221D01*
X62592380Y-82899173D01*
%TO.C,R3*%
X45449523Y-60462380D02*
X44878095Y-60462380D01*
X45163809Y-60462380D02*
X45163809Y-59462380D01*
X45068571Y-59605238D01*
X44973333Y-59700476D01*
X44878095Y-59748095D01*
X46068571Y-59462380D02*
X46163809Y-59462380D01*
X46259047Y-59510000D01*
X46306666Y-59557619D01*
X46354285Y-59652857D01*
X46401904Y-59843333D01*
X46401904Y-60081428D01*
X46354285Y-60271904D01*
X46306666Y-60367142D01*
X46259047Y-60414761D01*
X46163809Y-60462380D01*
X46068571Y-60462380D01*
X45973333Y-60414761D01*
X45925714Y-60367142D01*
X45878095Y-60271904D01*
X45830476Y-60081428D01*
X45830476Y-59843333D01*
X45878095Y-59652857D01*
X45925714Y-59557619D01*
X45973333Y-59510000D01*
X46068571Y-59462380D01*
X46830476Y-60462380D02*
X46830476Y-59462380D01*
X47401904Y-60462380D02*
X46973333Y-59890952D01*
X47401904Y-59462380D02*
X46830476Y-60033809D01*
X45973333Y-56842380D02*
X45640000Y-56366190D01*
X45401904Y-56842380D02*
X45401904Y-55842380D01*
X45782857Y-55842380D01*
X45878095Y-55890000D01*
X45925714Y-55937619D01*
X45973333Y-56032857D01*
X45973333Y-56175714D01*
X45925714Y-56270952D01*
X45878095Y-56318571D01*
X45782857Y-56366190D01*
X45401904Y-56366190D01*
X46306666Y-55842380D02*
X46925714Y-55842380D01*
X46592380Y-56223333D01*
X46735238Y-56223333D01*
X46830476Y-56270952D01*
X46878095Y-56318571D01*
X46925714Y-56413809D01*
X46925714Y-56651904D01*
X46878095Y-56747142D01*
X46830476Y-56794761D01*
X46735238Y-56842380D01*
X46449523Y-56842380D01*
X46354285Y-56794761D01*
X46306666Y-56747142D01*
%TO.C,SW3*%
X50092380Y-69994761D02*
X50235238Y-70042380D01*
X50473333Y-70042380D01*
X50568571Y-69994761D01*
X50616190Y-69947142D01*
X50663809Y-69851904D01*
X50663809Y-69756666D01*
X50616190Y-69661428D01*
X50568571Y-69613809D01*
X50473333Y-69566190D01*
X50282857Y-69518571D01*
X50187619Y-69470952D01*
X50140000Y-69423333D01*
X50092380Y-69328095D01*
X50092380Y-69232857D01*
X50140000Y-69137619D01*
X50187619Y-69090000D01*
X50282857Y-69042380D01*
X50520952Y-69042380D01*
X50663809Y-69090000D01*
X50997142Y-69042380D02*
X51235238Y-70042380D01*
X51425714Y-69328095D01*
X51616190Y-70042380D01*
X51854285Y-69042380D01*
X51997142Y-70137619D02*
X52759047Y-70137619D01*
X52997142Y-70042380D02*
X52997142Y-69042380D01*
X53378095Y-69042380D01*
X53473333Y-69090000D01*
X53520952Y-69137619D01*
X53568571Y-69232857D01*
X53568571Y-69375714D01*
X53520952Y-69470952D01*
X53473333Y-69518571D01*
X53378095Y-69566190D01*
X52997142Y-69566190D01*
X54425714Y-69375714D02*
X54425714Y-70042380D01*
X53997142Y-69375714D02*
X53997142Y-69899523D01*
X54044761Y-69994761D01*
X54140000Y-70042380D01*
X54282857Y-70042380D01*
X54378095Y-69994761D01*
X54425714Y-69947142D01*
X54854285Y-69994761D02*
X54949523Y-70042380D01*
X55140000Y-70042380D01*
X55235238Y-69994761D01*
X55282857Y-69899523D01*
X55282857Y-69851904D01*
X55235238Y-69756666D01*
X55140000Y-69709047D01*
X54997142Y-69709047D01*
X54901904Y-69661428D01*
X54854285Y-69566190D01*
X54854285Y-69518571D01*
X54901904Y-69423333D01*
X54997142Y-69375714D01*
X55140000Y-69375714D01*
X55235238Y-69423333D01*
X55711428Y-70042380D02*
X55711428Y-69042380D01*
X56140000Y-70042380D02*
X56140000Y-69518571D01*
X56092380Y-69423333D01*
X55997142Y-69375714D01*
X55854285Y-69375714D01*
X55759047Y-69423333D01*
X55711428Y-69470952D01*
X51306666Y-65544761D02*
X51449523Y-65592380D01*
X51687619Y-65592380D01*
X51782857Y-65544761D01*
X51830476Y-65497142D01*
X51878095Y-65401904D01*
X51878095Y-65306666D01*
X51830476Y-65211428D01*
X51782857Y-65163809D01*
X51687619Y-65116190D01*
X51497142Y-65068571D01*
X51401904Y-65020952D01*
X51354285Y-64973333D01*
X51306666Y-64878095D01*
X51306666Y-64782857D01*
X51354285Y-64687619D01*
X51401904Y-64640000D01*
X51497142Y-64592380D01*
X51735238Y-64592380D01*
X51878095Y-64640000D01*
X52211428Y-64592380D02*
X52449523Y-65592380D01*
X52640000Y-64878095D01*
X52830476Y-65592380D01*
X53068571Y-64592380D01*
X53354285Y-64592380D02*
X53973333Y-64592380D01*
X53640000Y-64973333D01*
X53782857Y-64973333D01*
X53878095Y-65020952D01*
X53925714Y-65068571D01*
X53973333Y-65163809D01*
X53973333Y-65401904D01*
X53925714Y-65497142D01*
X53878095Y-65544761D01*
X53782857Y-65592380D01*
X53497142Y-65592380D01*
X53401904Y-65544761D01*
X53354285Y-65497142D01*
%TO.C,SW5*%
X39842380Y-69994761D02*
X39985238Y-70042380D01*
X40223333Y-70042380D01*
X40318571Y-69994761D01*
X40366190Y-69947142D01*
X40413809Y-69851904D01*
X40413809Y-69756666D01*
X40366190Y-69661428D01*
X40318571Y-69613809D01*
X40223333Y-69566190D01*
X40032857Y-69518571D01*
X39937619Y-69470952D01*
X39890000Y-69423333D01*
X39842380Y-69328095D01*
X39842380Y-69232857D01*
X39890000Y-69137619D01*
X39937619Y-69090000D01*
X40032857Y-69042380D01*
X40270952Y-69042380D01*
X40413809Y-69090000D01*
X40747142Y-69042380D02*
X40985238Y-70042380D01*
X41175714Y-69328095D01*
X41366190Y-70042380D01*
X41604285Y-69042380D01*
X41747142Y-70137619D02*
X42509047Y-70137619D01*
X42747142Y-70042380D02*
X42747142Y-69042380D01*
X43128095Y-69042380D01*
X43223333Y-69090000D01*
X43270952Y-69137619D01*
X43318571Y-69232857D01*
X43318571Y-69375714D01*
X43270952Y-69470952D01*
X43223333Y-69518571D01*
X43128095Y-69566190D01*
X42747142Y-69566190D01*
X44175714Y-69375714D02*
X44175714Y-70042380D01*
X43747142Y-69375714D02*
X43747142Y-69899523D01*
X43794761Y-69994761D01*
X43890000Y-70042380D01*
X44032857Y-70042380D01*
X44128095Y-69994761D01*
X44175714Y-69947142D01*
X44604285Y-69994761D02*
X44699523Y-70042380D01*
X44890000Y-70042380D01*
X44985238Y-69994761D01*
X45032857Y-69899523D01*
X45032857Y-69851904D01*
X44985238Y-69756666D01*
X44890000Y-69709047D01*
X44747142Y-69709047D01*
X44651904Y-69661428D01*
X44604285Y-69566190D01*
X44604285Y-69518571D01*
X44651904Y-69423333D01*
X44747142Y-69375714D01*
X44890000Y-69375714D01*
X44985238Y-69423333D01*
X45461428Y-70042380D02*
X45461428Y-69042380D01*
X45890000Y-70042380D02*
X45890000Y-69518571D01*
X45842380Y-69423333D01*
X45747142Y-69375714D01*
X45604285Y-69375714D01*
X45509047Y-69423333D01*
X45461428Y-69470952D01*
X41056666Y-65544761D02*
X41199523Y-65592380D01*
X41437619Y-65592380D01*
X41532857Y-65544761D01*
X41580476Y-65497142D01*
X41628095Y-65401904D01*
X41628095Y-65306666D01*
X41580476Y-65211428D01*
X41532857Y-65163809D01*
X41437619Y-65116190D01*
X41247142Y-65068571D01*
X41151904Y-65020952D01*
X41104285Y-64973333D01*
X41056666Y-64878095D01*
X41056666Y-64782857D01*
X41104285Y-64687619D01*
X41151904Y-64640000D01*
X41247142Y-64592380D01*
X41485238Y-64592380D01*
X41628095Y-64640000D01*
X41961428Y-64592380D02*
X42199523Y-65592380D01*
X42390000Y-64878095D01*
X42580476Y-65592380D01*
X42818571Y-64592380D01*
X43675714Y-64592380D02*
X43199523Y-64592380D01*
X43151904Y-65068571D01*
X43199523Y-65020952D01*
X43294761Y-64973333D01*
X43532857Y-64973333D01*
X43628095Y-65020952D01*
X43675714Y-65068571D01*
X43723333Y-65163809D01*
X43723333Y-65401904D01*
X43675714Y-65497142D01*
X43628095Y-65544761D01*
X43532857Y-65592380D01*
X43294761Y-65592380D01*
X43199523Y-65544761D01*
X43151904Y-65497142D01*
%TO.C,C5*%
X31818571Y-50747142D02*
X31770952Y-50794761D01*
X31628095Y-50842380D01*
X31532857Y-50842380D01*
X31390000Y-50794761D01*
X31294761Y-50699523D01*
X31247142Y-50604285D01*
X31199523Y-50413809D01*
X31199523Y-50270952D01*
X31247142Y-50080476D01*
X31294761Y-49985238D01*
X31390000Y-49890000D01*
X31532857Y-49842380D01*
X31628095Y-49842380D01*
X31770952Y-49890000D01*
X31818571Y-49937619D01*
X32009047Y-50937619D02*
X32770952Y-50937619D01*
X33009047Y-50842380D02*
X33009047Y-49842380D01*
X33390000Y-49842380D01*
X33485238Y-49890000D01*
X33532857Y-49937619D01*
X33580476Y-50032857D01*
X33580476Y-50175714D01*
X33532857Y-50270952D01*
X33485238Y-50318571D01*
X33390000Y-50366190D01*
X33009047Y-50366190D01*
X34151904Y-50842380D02*
X34056666Y-50794761D01*
X34009047Y-50747142D01*
X33961428Y-50651904D01*
X33961428Y-50366190D01*
X34009047Y-50270952D01*
X34056666Y-50223333D01*
X34151904Y-50175714D01*
X34294761Y-50175714D01*
X34390000Y-50223333D01*
X34437619Y-50270952D01*
X34485238Y-50366190D01*
X34485238Y-50651904D01*
X34437619Y-50747142D01*
X34390000Y-50794761D01*
X34294761Y-50842380D01*
X34151904Y-50842380D01*
X35056666Y-50842380D02*
X34961428Y-50794761D01*
X34913809Y-50699523D01*
X34913809Y-49842380D01*
X35866190Y-50842380D02*
X35866190Y-50318571D01*
X35818571Y-50223333D01*
X35723333Y-50175714D01*
X35532857Y-50175714D01*
X35437619Y-50223333D01*
X35866190Y-50794761D02*
X35770952Y-50842380D01*
X35532857Y-50842380D01*
X35437619Y-50794761D01*
X35390000Y-50699523D01*
X35390000Y-50604285D01*
X35437619Y-50509047D01*
X35532857Y-50461428D01*
X35770952Y-50461428D01*
X35866190Y-50413809D01*
X36342380Y-50842380D02*
X36342380Y-50175714D01*
X36342380Y-50366190D02*
X36390000Y-50270952D01*
X36437619Y-50223333D01*
X36532857Y-50175714D01*
X36628095Y-50175714D01*
X36961428Y-50842380D02*
X36961428Y-50175714D01*
X36961428Y-49842380D02*
X36913809Y-49890000D01*
X36961428Y-49937619D01*
X37009047Y-49890000D01*
X36961428Y-49842380D01*
X36961428Y-49937619D01*
X37342380Y-50175714D02*
X37866190Y-50175714D01*
X37342380Y-50842380D01*
X37866190Y-50842380D01*
X38628095Y-50794761D02*
X38532857Y-50842380D01*
X38342380Y-50842380D01*
X38247142Y-50794761D01*
X38199523Y-50699523D01*
X38199523Y-50318571D01*
X38247142Y-50223333D01*
X38342380Y-50175714D01*
X38532857Y-50175714D01*
X38628095Y-50223333D01*
X38675714Y-50318571D01*
X38675714Y-50413809D01*
X38199523Y-50509047D01*
X39532857Y-50842380D02*
X39532857Y-49842380D01*
X39532857Y-50794761D02*
X39437619Y-50842380D01*
X39247142Y-50842380D01*
X39151904Y-50794761D01*
X39104285Y-50747142D01*
X39056666Y-50651904D01*
X39056666Y-50366190D01*
X39104285Y-50270952D01*
X39151904Y-50223333D01*
X39247142Y-50175714D01*
X39437619Y-50175714D01*
X39532857Y-50223333D01*
X35223333Y-46997142D02*
X35175714Y-47044761D01*
X35032857Y-47092380D01*
X34937619Y-47092380D01*
X34794761Y-47044761D01*
X34699523Y-46949523D01*
X34651904Y-46854285D01*
X34604285Y-46663809D01*
X34604285Y-46520952D01*
X34651904Y-46330476D01*
X34699523Y-46235238D01*
X34794761Y-46140000D01*
X34937619Y-46092380D01*
X35032857Y-46092380D01*
X35175714Y-46140000D01*
X35223333Y-46187619D01*
X36128095Y-46092380D02*
X35651904Y-46092380D01*
X35604285Y-46568571D01*
X35651904Y-46520952D01*
X35747142Y-46473333D01*
X35985238Y-46473333D01*
X36080476Y-46520952D01*
X36128095Y-46568571D01*
X36175714Y-46663809D01*
X36175714Y-46901904D01*
X36128095Y-46997142D01*
X36080476Y-47044761D01*
X35985238Y-47092380D01*
X35747142Y-47092380D01*
X35651904Y-47044761D01*
X35604285Y-46997142D01*
%TO.C,U1*%
X36806666Y-85492380D02*
X36806666Y-84492380D01*
X37140000Y-85206666D01*
X37473333Y-84492380D01*
X37473333Y-85492380D01*
X38520952Y-85397142D02*
X38473333Y-85444761D01*
X38330476Y-85492380D01*
X38235238Y-85492380D01*
X38092380Y-85444761D01*
X37997142Y-85349523D01*
X37949523Y-85254285D01*
X37901904Y-85063809D01*
X37901904Y-84920952D01*
X37949523Y-84730476D01*
X37997142Y-84635238D01*
X38092380Y-84540000D01*
X38235238Y-84492380D01*
X38330476Y-84492380D01*
X38473333Y-84540000D01*
X38520952Y-84587619D01*
X38949523Y-85492380D02*
X38949523Y-84492380D01*
X39330476Y-84492380D01*
X39425714Y-84540000D01*
X39473333Y-84587619D01*
X39520952Y-84682857D01*
X39520952Y-84825714D01*
X39473333Y-84920952D01*
X39425714Y-84968571D01*
X39330476Y-85016190D01*
X38949523Y-85016190D01*
X39854285Y-84492380D02*
X40520952Y-84492380D01*
X40092380Y-85492380D01*
X40806666Y-84492380D02*
X41425714Y-84492380D01*
X41092380Y-84873333D01*
X41235238Y-84873333D01*
X41330476Y-84920952D01*
X41378095Y-84968571D01*
X41425714Y-85063809D01*
X41425714Y-85301904D01*
X41378095Y-85397142D01*
X41330476Y-85444761D01*
X41235238Y-85492380D01*
X40949523Y-85492380D01*
X40854285Y-85444761D01*
X40806666Y-85397142D01*
X41997142Y-84920952D02*
X41901904Y-84873333D01*
X41854285Y-84825714D01*
X41806666Y-84730476D01*
X41806666Y-84682857D01*
X41854285Y-84587619D01*
X41901904Y-84540000D01*
X41997142Y-84492380D01*
X42187619Y-84492380D01*
X42282857Y-84540000D01*
X42330476Y-84587619D01*
X42378095Y-84682857D01*
X42378095Y-84730476D01*
X42330476Y-84825714D01*
X42282857Y-84873333D01*
X42187619Y-84920952D01*
X41997142Y-84920952D01*
X41901904Y-84968571D01*
X41854285Y-85016190D01*
X41806666Y-85111428D01*
X41806666Y-85301904D01*
X41854285Y-85397142D01*
X41901904Y-85444761D01*
X41997142Y-85492380D01*
X42187619Y-85492380D01*
X42282857Y-85444761D01*
X42330476Y-85397142D01*
X42378095Y-85301904D01*
X42378095Y-85111428D01*
X42330476Y-85016190D01*
X42282857Y-84968571D01*
X42187619Y-84920952D01*
X42711428Y-84492380D02*
X43330476Y-84492380D01*
X42997142Y-84873333D01*
X43140000Y-84873333D01*
X43235238Y-84920952D01*
X43282857Y-84968571D01*
X43330476Y-85063809D01*
X43330476Y-85301904D01*
X43282857Y-85397142D01*
X43235238Y-85444761D01*
X43140000Y-85492380D01*
X42854285Y-85492380D01*
X42759047Y-85444761D01*
X42711428Y-85397142D01*
X44282857Y-85492380D02*
X43711428Y-85492380D01*
X43997142Y-85492380D02*
X43997142Y-84492380D01*
X43901904Y-84635238D01*
X43806666Y-84730476D01*
X43711428Y-84778095D01*
X44711428Y-85111428D02*
X45473333Y-85111428D01*
X45901904Y-84587619D02*
X45949523Y-84540000D01*
X46044761Y-84492380D01*
X46282857Y-84492380D01*
X46378095Y-84540000D01*
X46425714Y-84587619D01*
X46473333Y-84682857D01*
X46473333Y-84778095D01*
X46425714Y-84920952D01*
X45854285Y-85492380D01*
X46473333Y-85492380D01*
X46901904Y-85111428D02*
X47663809Y-85111428D01*
X48330476Y-84492380D02*
X48520952Y-84492380D01*
X48616190Y-84540000D01*
X48711428Y-84635238D01*
X48759047Y-84825714D01*
X48759047Y-85159047D01*
X48711428Y-85349523D01*
X48616190Y-85444761D01*
X48520952Y-85492380D01*
X48330476Y-85492380D01*
X48235238Y-85444761D01*
X48140000Y-85349523D01*
X48092380Y-85159047D01*
X48092380Y-84825714D01*
X48140000Y-84635238D01*
X48235238Y-84540000D01*
X48330476Y-84492380D01*
X49044761Y-84492380D02*
X49616190Y-84492380D01*
X49330476Y-85492380D02*
X49330476Y-84492380D01*
D11*
X42835238Y-82420952D02*
X42835238Y-82744761D01*
X42854285Y-82782857D01*
X42873333Y-82801904D01*
X42911428Y-82820952D01*
X42987619Y-82820952D01*
X43025714Y-82801904D01*
X43044761Y-82782857D01*
X43063809Y-82744761D01*
X43063809Y-82420952D01*
X43463809Y-82820952D02*
X43235238Y-82820952D01*
X43349523Y-82820952D02*
X43349523Y-82420952D01*
X43311428Y-82478095D01*
X43273333Y-82516190D01*
X43235238Y-82535238D01*
D10*
%TO.C,C4*%
X48449523Y-77497142D02*
X48401904Y-77544761D01*
X48259047Y-77592380D01*
X48163809Y-77592380D01*
X48020952Y-77544761D01*
X47925714Y-77449523D01*
X47878095Y-77354285D01*
X47830476Y-77163809D01*
X47830476Y-77020952D01*
X47878095Y-76830476D01*
X47925714Y-76735238D01*
X48020952Y-76640000D01*
X48163809Y-76592380D01*
X48259047Y-76592380D01*
X48401904Y-76640000D01*
X48449523Y-76687619D01*
X47973333Y-74997142D02*
X47925714Y-75044761D01*
X47782857Y-75092380D01*
X47687619Y-75092380D01*
X47544761Y-75044761D01*
X47449523Y-74949523D01*
X47401904Y-74854285D01*
X47354285Y-74663809D01*
X47354285Y-74520952D01*
X47401904Y-74330476D01*
X47449523Y-74235238D01*
X47544761Y-74140000D01*
X47687619Y-74092380D01*
X47782857Y-74092380D01*
X47925714Y-74140000D01*
X47973333Y-74187619D01*
X48830476Y-74425714D02*
X48830476Y-75092380D01*
X48592380Y-74044761D02*
X48354285Y-74759047D01*
X48973333Y-74759047D01*
%TO.C,R2*%
X56020952Y-60462380D02*
X55449523Y-60462380D01*
X55735238Y-60462380D02*
X55735238Y-59462380D01*
X55640000Y-59605238D01*
X55544761Y-59700476D01*
X55449523Y-59748095D01*
X56449523Y-60462380D02*
X56449523Y-59462380D01*
X56544761Y-60081428D02*
X56830476Y-60462380D01*
X56830476Y-59795714D02*
X56449523Y-60176666D01*
X55973333Y-58092380D02*
X55640000Y-57616190D01*
X55401904Y-58092380D02*
X55401904Y-57092380D01*
X55782857Y-57092380D01*
X55878095Y-57140000D01*
X55925714Y-57187619D01*
X55973333Y-57282857D01*
X55973333Y-57425714D01*
X55925714Y-57520952D01*
X55878095Y-57568571D01*
X55782857Y-57616190D01*
X55401904Y-57616190D01*
X56354285Y-57187619D02*
X56401904Y-57140000D01*
X56497142Y-57092380D01*
X56735238Y-57092380D01*
X56830476Y-57140000D01*
X56878095Y-57187619D01*
X56925714Y-57282857D01*
X56925714Y-57378095D01*
X56878095Y-57520952D01*
X56306666Y-58092380D01*
X56925714Y-58092380D01*
%TO.C,REF\u002A\u002A*%
X62520952Y-88292380D02*
X62520952Y-87292380D01*
X62854285Y-88006666D01*
X63187619Y-87292380D01*
X63187619Y-88292380D01*
X63806666Y-88292380D02*
X63711428Y-88244761D01*
X63663809Y-88197142D01*
X63616190Y-88101904D01*
X63616190Y-87816190D01*
X63663809Y-87720952D01*
X63711428Y-87673333D01*
X63806666Y-87625714D01*
X63949523Y-87625714D01*
X64044761Y-87673333D01*
X64092380Y-87720952D01*
X64140000Y-87816190D01*
X64140000Y-88101904D01*
X64092380Y-88197142D01*
X64044761Y-88244761D01*
X63949523Y-88292380D01*
X63806666Y-88292380D01*
X64997142Y-87625714D02*
X64997142Y-88292380D01*
X64568571Y-87625714D02*
X64568571Y-88149523D01*
X64616190Y-88244761D01*
X64711428Y-88292380D01*
X64854285Y-88292380D01*
X64949523Y-88244761D01*
X64997142Y-88197142D01*
X65473333Y-87625714D02*
X65473333Y-88292380D01*
X65473333Y-87720952D02*
X65520952Y-87673333D01*
X65616190Y-87625714D01*
X65759047Y-87625714D01*
X65854285Y-87673333D01*
X65901904Y-87768571D01*
X65901904Y-88292380D01*
X66235238Y-87625714D02*
X66616190Y-87625714D01*
X66378095Y-87292380D02*
X66378095Y-88149523D01*
X66425714Y-88244761D01*
X66520952Y-88292380D01*
X66616190Y-88292380D01*
X66949523Y-88292380D02*
X66949523Y-87625714D01*
X66949523Y-87292380D02*
X66901904Y-87340000D01*
X66949523Y-87387619D01*
X66997142Y-87340000D01*
X66949523Y-87292380D01*
X66949523Y-87387619D01*
X67425714Y-87625714D02*
X67425714Y-88292380D01*
X67425714Y-87720952D02*
X67473333Y-87673333D01*
X67568571Y-87625714D01*
X67711428Y-87625714D01*
X67806666Y-87673333D01*
X67854285Y-87768571D01*
X67854285Y-88292380D01*
X68759047Y-87625714D02*
X68759047Y-88435238D01*
X68711428Y-88530476D01*
X68663809Y-88578095D01*
X68568571Y-88625714D01*
X68425714Y-88625714D01*
X68330476Y-88578095D01*
X68759047Y-88244761D02*
X68663809Y-88292380D01*
X68473333Y-88292380D01*
X68378095Y-88244761D01*
X68330476Y-88197142D01*
X68282857Y-88101904D01*
X68282857Y-87816190D01*
X68330476Y-87720952D01*
X68378095Y-87673333D01*
X68473333Y-87625714D01*
X68663809Y-87625714D01*
X68759047Y-87673333D01*
X69235238Y-88292380D02*
X69235238Y-87292380D01*
X69235238Y-87768571D02*
X69806666Y-87768571D01*
X69806666Y-88292380D02*
X69806666Y-87292380D01*
X70425714Y-88292380D02*
X70330476Y-88244761D01*
X70282857Y-88197142D01*
X70235238Y-88101904D01*
X70235238Y-87816190D01*
X70282857Y-87720952D01*
X70330476Y-87673333D01*
X70425714Y-87625714D01*
X70568571Y-87625714D01*
X70663809Y-87673333D01*
X70711428Y-87720952D01*
X70759047Y-87816190D01*
X70759047Y-88101904D01*
X70711428Y-88197142D01*
X70663809Y-88244761D01*
X70568571Y-88292380D01*
X70425714Y-88292380D01*
X71330476Y-88292380D02*
X71235238Y-88244761D01*
X71187619Y-88149523D01*
X71187619Y-87292380D01*
X72092380Y-88244761D02*
X71997142Y-88292380D01*
X71806666Y-88292380D01*
X71711428Y-88244761D01*
X71663809Y-88149523D01*
X71663809Y-87768571D01*
X71711428Y-87673333D01*
X71806666Y-87625714D01*
X71997142Y-87625714D01*
X72092380Y-87673333D01*
X72140000Y-87768571D01*
X72140000Y-87863809D01*
X71663809Y-87959047D01*
X72330476Y-88387619D02*
X73092380Y-88387619D01*
X73235238Y-87292380D02*
X73854285Y-87292380D01*
X73520952Y-87673333D01*
X73663809Y-87673333D01*
X73759047Y-87720952D01*
X73806666Y-87768571D01*
X73854285Y-87863809D01*
X73854285Y-88101904D01*
X73806666Y-88197142D01*
X73759047Y-88244761D01*
X73663809Y-88292380D01*
X73378095Y-88292380D01*
X73282857Y-88244761D01*
X73235238Y-88197142D01*
X74282857Y-88197142D02*
X74330476Y-88244761D01*
X74282857Y-88292380D01*
X74235238Y-88244761D01*
X74282857Y-88197142D01*
X74282857Y-88292380D01*
X74711428Y-87387619D02*
X74759047Y-87340000D01*
X74854285Y-87292380D01*
X75092380Y-87292380D01*
X75187619Y-87340000D01*
X75235238Y-87387619D01*
X75282857Y-87482857D01*
X75282857Y-87578095D01*
X75235238Y-87720952D01*
X74663809Y-88292380D01*
X75282857Y-88292380D01*
X75711428Y-88292380D02*
X75711428Y-87625714D01*
X75711428Y-87720952D02*
X75759047Y-87673333D01*
X75854285Y-87625714D01*
X75997142Y-87625714D01*
X76092380Y-87673333D01*
X76140000Y-87768571D01*
X76140000Y-88292380D01*
X76140000Y-87768571D02*
X76187619Y-87673333D01*
X76282857Y-87625714D01*
X76425714Y-87625714D01*
X76520952Y-87673333D01*
X76568571Y-87768571D01*
X76568571Y-88292380D01*
X77044761Y-88292380D02*
X77044761Y-87625714D01*
X77044761Y-87720952D02*
X77092380Y-87673333D01*
X77187619Y-87625714D01*
X77330476Y-87625714D01*
X77425714Y-87673333D01*
X77473333Y-87768571D01*
X77473333Y-88292380D01*
X77473333Y-87768571D02*
X77520952Y-87673333D01*
X77616190Y-87625714D01*
X77759047Y-87625714D01*
X77854285Y-87673333D01*
X77901904Y-87768571D01*
X77901904Y-88292380D01*
X78140000Y-88387619D02*
X78901904Y-88387619D01*
X79140000Y-88292380D02*
X79140000Y-87292380D01*
X79473333Y-88006666D01*
X79806666Y-87292380D01*
X79806666Y-88292380D01*
X80187619Y-87292380D02*
X80806666Y-87292380D01*
X80473333Y-87673333D01*
X80616190Y-87673333D01*
X80711428Y-87720952D01*
X80759047Y-87768571D01*
X80806666Y-87863809D01*
X80806666Y-88101904D01*
X80759047Y-88197142D01*
X80711428Y-88244761D01*
X80616190Y-88292380D01*
X80330476Y-88292380D01*
X80235238Y-88244761D01*
X80187619Y-88197142D01*
X70306666Y-84092380D02*
X69973333Y-83616190D01*
X69735238Y-84092380D02*
X69735238Y-83092380D01*
X70116190Y-83092380D01*
X70211428Y-83140000D01*
X70259047Y-83187619D01*
X70306666Y-83282857D01*
X70306666Y-83425714D01*
X70259047Y-83520952D01*
X70211428Y-83568571D01*
X70116190Y-83616190D01*
X69735238Y-83616190D01*
X70735238Y-83568571D02*
X71068571Y-83568571D01*
X71211428Y-84092380D02*
X70735238Y-84092380D01*
X70735238Y-83092380D01*
X71211428Y-83092380D01*
X71973333Y-83568571D02*
X71640000Y-83568571D01*
X71640000Y-84092380D02*
X71640000Y-83092380D01*
X72116190Y-83092380D01*
X72640000Y-83092380D02*
X72640000Y-83330476D01*
X72401904Y-83235238D02*
X72640000Y-83330476D01*
X72878095Y-83235238D01*
X72497142Y-83520952D02*
X72640000Y-83330476D01*
X72782857Y-83520952D01*
X73401904Y-83092380D02*
X73401904Y-83330476D01*
X73163809Y-83235238D02*
X73401904Y-83330476D01*
X73640000Y-83235238D01*
X73259047Y-83520952D02*
X73401904Y-83330476D01*
X73544761Y-83520952D01*
%TO.C,R1*%
X71057619Y-54520476D02*
X71010000Y-54472857D01*
X70962380Y-54377619D01*
X70962380Y-54139523D01*
X71010000Y-54044285D01*
X71057619Y-53996666D01*
X71152857Y-53949047D01*
X71248095Y-53949047D01*
X71390952Y-53996666D01*
X71962380Y-54568095D01*
X71962380Y-53949047D01*
X71962380Y-53520476D02*
X70962380Y-53520476D01*
X71581428Y-53425238D02*
X71962380Y-53139523D01*
X71295714Y-53139523D02*
X71676666Y-53520476D01*
X69592380Y-53996666D02*
X69116190Y-54330000D01*
X69592380Y-54568095D02*
X68592380Y-54568095D01*
X68592380Y-54187142D01*
X68640000Y-54091904D01*
X68687619Y-54044285D01*
X68782857Y-53996666D01*
X68925714Y-53996666D01*
X69020952Y-54044285D01*
X69068571Y-54091904D01*
X69116190Y-54187142D01*
X69116190Y-54568095D01*
X69592380Y-53044285D02*
X69592380Y-53615714D01*
X69592380Y-53330000D02*
X68592380Y-53330000D01*
X68735238Y-53425238D01*
X68830476Y-53520476D01*
X68878095Y-53615714D01*
%TO.C,D1*%
X33992142Y-67052380D02*
X33515952Y-67052380D01*
X33515952Y-66052380D01*
X34325476Y-66528571D02*
X34658809Y-66528571D01*
X34801666Y-67052380D02*
X34325476Y-67052380D01*
X34325476Y-66052380D01*
X34801666Y-66052380D01*
X35230238Y-67052380D02*
X35230238Y-66052380D01*
X35468333Y-66052380D01*
X35611190Y-66100000D01*
X35706428Y-66195238D01*
X35754047Y-66290476D01*
X35801666Y-66480952D01*
X35801666Y-66623809D01*
X35754047Y-66814285D01*
X35706428Y-66909523D01*
X35611190Y-67004761D01*
X35468333Y-67052380D01*
X35230238Y-67052380D01*
%TO.C,BT1*%
X30663809Y-80187380D02*
X31282857Y-80187380D01*
X30949523Y-80568333D01*
X31092380Y-80568333D01*
X31187619Y-80615952D01*
X31235238Y-80663571D01*
X31282857Y-80758809D01*
X31282857Y-80996904D01*
X31235238Y-81092142D01*
X31187619Y-81139761D01*
X31092380Y-81187380D01*
X30806666Y-81187380D01*
X30711428Y-81139761D01*
X30663809Y-81092142D01*
X31711428Y-81092142D02*
X31759047Y-81139761D01*
X31711428Y-81187380D01*
X31663809Y-81139761D01*
X31711428Y-81092142D01*
X31711428Y-81187380D01*
X32092380Y-80187380D02*
X32759047Y-80187380D01*
X32330476Y-81187380D01*
X32997142Y-80187380D02*
X33330476Y-81187380D01*
X33663809Y-80187380D01*
X32068571Y-77920714D02*
X32116190Y-77777857D01*
X32163809Y-77730238D01*
X32259047Y-77682619D01*
X32401904Y-77682619D01*
X32497142Y-77730238D01*
X32544761Y-77777857D01*
X32592380Y-77873095D01*
X32592380Y-78254047D01*
X31592380Y-78254047D01*
X31592380Y-77920714D01*
X31640000Y-77825476D01*
X31687619Y-77777857D01*
X31782857Y-77730238D01*
X31878095Y-77730238D01*
X31973333Y-77777857D01*
X32020952Y-77825476D01*
X32068571Y-77920714D01*
X32068571Y-78254047D01*
X31592380Y-77396904D02*
X31592380Y-76825476D01*
X32592380Y-77111190D02*
X31592380Y-77111190D01*
X32592380Y-75968333D02*
X32592380Y-76539761D01*
X32592380Y-76254047D02*
X31592380Y-76254047D01*
X31735238Y-76349285D01*
X31830476Y-76444523D01*
X31878095Y-76539761D01*
%TO.C,J3*%
X47366190Y-88542380D02*
X47366190Y-89351904D01*
X47413809Y-89447142D01*
X47461428Y-89494761D01*
X47556666Y-89542380D01*
X47747142Y-89542380D01*
X47842380Y-89494761D01*
X47890000Y-89447142D01*
X47937619Y-89351904D01*
X47937619Y-88542380D01*
X48366190Y-89494761D02*
X48509047Y-89542380D01*
X48747142Y-89542380D01*
X48842380Y-89494761D01*
X48890000Y-89447142D01*
X48937619Y-89351904D01*
X48937619Y-89256666D01*
X48890000Y-89161428D01*
X48842380Y-89113809D01*
X48747142Y-89066190D01*
X48556666Y-89018571D01*
X48461428Y-88970952D01*
X48413809Y-88923333D01*
X48366190Y-88828095D01*
X48366190Y-88732857D01*
X48413809Y-88637619D01*
X48461428Y-88590000D01*
X48556666Y-88542380D01*
X48794761Y-88542380D01*
X48937619Y-88590000D01*
X49699523Y-89018571D02*
X49842380Y-89066190D01*
X49890000Y-89113809D01*
X49937619Y-89209047D01*
X49937619Y-89351904D01*
X49890000Y-89447142D01*
X49842380Y-89494761D01*
X49747142Y-89542380D01*
X49366190Y-89542380D01*
X49366190Y-88542380D01*
X49699523Y-88542380D01*
X49794761Y-88590000D01*
X49842380Y-88637619D01*
X49890000Y-88732857D01*
X49890000Y-88828095D01*
X49842380Y-88923333D01*
X49794761Y-88970952D01*
X49699523Y-89018571D01*
X49366190Y-89018571D01*
X50128095Y-89637619D02*
X50890000Y-89637619D01*
X51461428Y-89018571D02*
X51604285Y-89066190D01*
X51651904Y-89113809D01*
X51699523Y-89209047D01*
X51699523Y-89351904D01*
X51651904Y-89447142D01*
X51604285Y-89494761D01*
X51509047Y-89542380D01*
X51128095Y-89542380D01*
X51128095Y-88542380D01*
X51461428Y-88542380D01*
X51556666Y-88590000D01*
X51604285Y-88637619D01*
X51651904Y-88732857D01*
X51651904Y-88828095D01*
X51604285Y-88923333D01*
X51556666Y-88970952D01*
X51461428Y-89018571D01*
X51128095Y-89018571D01*
X51890000Y-89637619D02*
X52651904Y-89637619D01*
X52890000Y-89542380D02*
X52890000Y-88542380D01*
X53223333Y-89256666D01*
X53556666Y-88542380D01*
X53556666Y-89542380D01*
X54032857Y-89542380D02*
X54032857Y-88875714D01*
X54032857Y-88542380D02*
X53985238Y-88590000D01*
X54032857Y-88637619D01*
X54080476Y-88590000D01*
X54032857Y-88542380D01*
X54032857Y-88637619D01*
X54937619Y-89494761D02*
X54842380Y-89542380D01*
X54651904Y-89542380D01*
X54556666Y-89494761D01*
X54509047Y-89447142D01*
X54461428Y-89351904D01*
X54461428Y-89066190D01*
X54509047Y-88970952D01*
X54556666Y-88923333D01*
X54651904Y-88875714D01*
X54842380Y-88875714D01*
X54937619Y-88923333D01*
X55366190Y-89542380D02*
X55366190Y-88875714D01*
X55366190Y-89066190D02*
X55413809Y-88970952D01*
X55461428Y-88923333D01*
X55556666Y-88875714D01*
X55651904Y-88875714D01*
X56128095Y-89542380D02*
X56032857Y-89494761D01*
X55985238Y-89447142D01*
X55937619Y-89351904D01*
X55937619Y-89066190D01*
X55985238Y-88970952D01*
X56032857Y-88923333D01*
X56128095Y-88875714D01*
X56270952Y-88875714D01*
X56366190Y-88923333D01*
X56413809Y-88970952D01*
X56461428Y-89066190D01*
X56461428Y-89351904D01*
X56413809Y-89447142D01*
X56366190Y-89494761D01*
X56270952Y-89542380D01*
X56128095Y-89542380D01*
X51556666Y-85142380D02*
X51556666Y-85856666D01*
X51509047Y-85999523D01*
X51413809Y-86094761D01*
X51270952Y-86142380D01*
X51175714Y-86142380D01*
X51937619Y-85142380D02*
X52556666Y-85142380D01*
X52223333Y-85523333D01*
X52366190Y-85523333D01*
X52461428Y-85570952D01*
X52509047Y-85618571D01*
X52556666Y-85713809D01*
X52556666Y-85951904D01*
X52509047Y-86047142D01*
X52461428Y-86094761D01*
X52366190Y-86142380D01*
X52080476Y-86142380D01*
X51985238Y-86094761D01*
X51937619Y-86047142D01*
%TO.C,J1*%
X59647142Y-40473333D02*
X59694761Y-40520952D01*
X59742380Y-40663809D01*
X59742380Y-40759047D01*
X59694761Y-40901904D01*
X59599523Y-40997142D01*
X59504285Y-41044761D01*
X59313809Y-41092380D01*
X59170952Y-41092380D01*
X58980476Y-41044761D01*
X58885238Y-40997142D01*
X58790000Y-40901904D01*
X58742380Y-40759047D01*
X58742380Y-40663809D01*
X58790000Y-40520952D01*
X58837619Y-40473333D01*
X59742380Y-39901904D02*
X59694761Y-39997142D01*
X59647142Y-40044761D01*
X59551904Y-40092380D01*
X59266190Y-40092380D01*
X59170952Y-40044761D01*
X59123333Y-39997142D01*
X59075714Y-39901904D01*
X59075714Y-39759047D01*
X59123333Y-39663809D01*
X59170952Y-39616190D01*
X59266190Y-39568571D01*
X59551904Y-39568571D01*
X59647142Y-39616190D01*
X59694761Y-39663809D01*
X59742380Y-39759047D01*
X59742380Y-39901904D01*
X59075714Y-39140000D02*
X59742380Y-39140000D01*
X59170952Y-39140000D02*
X59123333Y-39092380D01*
X59075714Y-38997142D01*
X59075714Y-38854285D01*
X59123333Y-38759047D01*
X59218571Y-38711428D01*
X59742380Y-38711428D01*
X59075714Y-38235238D02*
X59742380Y-38235238D01*
X59170952Y-38235238D02*
X59123333Y-38187619D01*
X59075714Y-38092380D01*
X59075714Y-37949523D01*
X59123333Y-37854285D01*
X59218571Y-37806666D01*
X59742380Y-37806666D01*
X59837619Y-37568571D02*
X59837619Y-36806666D01*
X58742380Y-36378095D02*
X58742380Y-36282857D01*
X58790000Y-36187619D01*
X58837619Y-36140000D01*
X58932857Y-36092380D01*
X59123333Y-36044761D01*
X59361428Y-36044761D01*
X59551904Y-36092380D01*
X59647142Y-36140000D01*
X59694761Y-36187619D01*
X59742380Y-36282857D01*
X59742380Y-36378095D01*
X59694761Y-36473333D01*
X59647142Y-36520952D01*
X59551904Y-36568571D01*
X59361428Y-36616190D01*
X59123333Y-36616190D01*
X58932857Y-36568571D01*
X58837619Y-36520952D01*
X58790000Y-36473333D01*
X58742380Y-36378095D01*
X59742380Y-35092380D02*
X59742380Y-35663809D01*
X59742380Y-35378095D02*
X58742380Y-35378095D01*
X58885238Y-35473333D01*
X58980476Y-35568571D01*
X59028095Y-35663809D01*
X59742380Y-34759047D02*
X59075714Y-34235238D01*
X59075714Y-34759047D02*
X59742380Y-34235238D01*
X58742380Y-33663809D02*
X58742380Y-33568571D01*
X58790000Y-33473333D01*
X58837619Y-33425714D01*
X58932857Y-33378095D01*
X59123333Y-33330476D01*
X59361428Y-33330476D01*
X59551904Y-33378095D01*
X59647142Y-33425714D01*
X59694761Y-33473333D01*
X59742380Y-33568571D01*
X59742380Y-33663809D01*
X59694761Y-33759047D01*
X59647142Y-33806666D01*
X59551904Y-33854285D01*
X59361428Y-33901904D01*
X59123333Y-33901904D01*
X58932857Y-33854285D01*
X58837619Y-33806666D01*
X58790000Y-33759047D01*
X58742380Y-33663809D01*
X59075714Y-32473333D02*
X59742380Y-32473333D01*
X58694761Y-32711428D02*
X59409047Y-32949523D01*
X59409047Y-32330476D01*
X59837619Y-32187619D02*
X59837619Y-31425714D01*
X59742380Y-31187619D02*
X58742380Y-31187619D01*
X59456666Y-30854285D01*
X58742380Y-30520952D01*
X59742380Y-30520952D01*
X59742380Y-29616190D02*
X59218571Y-29616190D01*
X59123333Y-29663809D01*
X59075714Y-29759047D01*
X59075714Y-29949523D01*
X59123333Y-30044761D01*
X59694761Y-29616190D02*
X59742380Y-29711428D01*
X59742380Y-29949523D01*
X59694761Y-30044761D01*
X59599523Y-30092380D01*
X59504285Y-30092380D01*
X59409047Y-30044761D01*
X59361428Y-29949523D01*
X59361428Y-29711428D01*
X59313809Y-29616190D01*
X59742380Y-28997142D02*
X59694761Y-29092380D01*
X59599523Y-29140000D01*
X58742380Y-29140000D01*
X59694761Y-28235238D02*
X59742380Y-28330476D01*
X59742380Y-28520952D01*
X59694761Y-28616190D01*
X59599523Y-28663809D01*
X59218571Y-28663809D01*
X59123333Y-28616190D01*
X59075714Y-28520952D01*
X59075714Y-28330476D01*
X59123333Y-28235238D01*
X59218571Y-28187619D01*
X59313809Y-28187619D01*
X59409047Y-28663809D01*
X52816666Y-34092380D02*
X52816666Y-34806666D01*
X52769047Y-34949523D01*
X52673809Y-35044761D01*
X52530952Y-35092380D01*
X52435714Y-35092380D01*
X53816666Y-35092380D02*
X53245238Y-35092380D01*
X53530952Y-35092380D02*
X53530952Y-34092380D01*
X53435714Y-34235238D01*
X53340476Y-34330476D01*
X53245238Y-34378095D01*
%TO.C,REF\u002A\u002A*%
X24520952Y-40292380D02*
X24520952Y-39292380D01*
X24854285Y-40006666D01*
X25187619Y-39292380D01*
X25187619Y-40292380D01*
X25806666Y-40292380D02*
X25711428Y-40244761D01*
X25663809Y-40197142D01*
X25616190Y-40101904D01*
X25616190Y-39816190D01*
X25663809Y-39720952D01*
X25711428Y-39673333D01*
X25806666Y-39625714D01*
X25949523Y-39625714D01*
X26044761Y-39673333D01*
X26092380Y-39720952D01*
X26140000Y-39816190D01*
X26140000Y-40101904D01*
X26092380Y-40197142D01*
X26044761Y-40244761D01*
X25949523Y-40292380D01*
X25806666Y-40292380D01*
X26997142Y-39625714D02*
X26997142Y-40292380D01*
X26568571Y-39625714D02*
X26568571Y-40149523D01*
X26616190Y-40244761D01*
X26711428Y-40292380D01*
X26854285Y-40292380D01*
X26949523Y-40244761D01*
X26997142Y-40197142D01*
X27473333Y-39625714D02*
X27473333Y-40292380D01*
X27473333Y-39720952D02*
X27520952Y-39673333D01*
X27616190Y-39625714D01*
X27759047Y-39625714D01*
X27854285Y-39673333D01*
X27901904Y-39768571D01*
X27901904Y-40292380D01*
X28235238Y-39625714D02*
X28616190Y-39625714D01*
X28378095Y-39292380D02*
X28378095Y-40149523D01*
X28425714Y-40244761D01*
X28520952Y-40292380D01*
X28616190Y-40292380D01*
X28949523Y-40292380D02*
X28949523Y-39625714D01*
X28949523Y-39292380D02*
X28901904Y-39340000D01*
X28949523Y-39387619D01*
X28997142Y-39340000D01*
X28949523Y-39292380D01*
X28949523Y-39387619D01*
X29425714Y-39625714D02*
X29425714Y-40292380D01*
X29425714Y-39720952D02*
X29473333Y-39673333D01*
X29568571Y-39625714D01*
X29711428Y-39625714D01*
X29806666Y-39673333D01*
X29854285Y-39768571D01*
X29854285Y-40292380D01*
X30759047Y-39625714D02*
X30759047Y-40435238D01*
X30711428Y-40530476D01*
X30663809Y-40578095D01*
X30568571Y-40625714D01*
X30425714Y-40625714D01*
X30330476Y-40578095D01*
X30759047Y-40244761D02*
X30663809Y-40292380D01*
X30473333Y-40292380D01*
X30378095Y-40244761D01*
X30330476Y-40197142D01*
X30282857Y-40101904D01*
X30282857Y-39816190D01*
X30330476Y-39720952D01*
X30378095Y-39673333D01*
X30473333Y-39625714D01*
X30663809Y-39625714D01*
X30759047Y-39673333D01*
X31235238Y-40292380D02*
X31235238Y-39292380D01*
X31235238Y-39768571D02*
X31806666Y-39768571D01*
X31806666Y-40292380D02*
X31806666Y-39292380D01*
X32425714Y-40292380D02*
X32330476Y-40244761D01*
X32282857Y-40197142D01*
X32235238Y-40101904D01*
X32235238Y-39816190D01*
X32282857Y-39720952D01*
X32330476Y-39673333D01*
X32425714Y-39625714D01*
X32568571Y-39625714D01*
X32663809Y-39673333D01*
X32711428Y-39720952D01*
X32759047Y-39816190D01*
X32759047Y-40101904D01*
X32711428Y-40197142D01*
X32663809Y-40244761D01*
X32568571Y-40292380D01*
X32425714Y-40292380D01*
X33330476Y-40292380D02*
X33235238Y-40244761D01*
X33187619Y-40149523D01*
X33187619Y-39292380D01*
X34092380Y-40244761D02*
X33997142Y-40292380D01*
X33806666Y-40292380D01*
X33711428Y-40244761D01*
X33663809Y-40149523D01*
X33663809Y-39768571D01*
X33711428Y-39673333D01*
X33806666Y-39625714D01*
X33997142Y-39625714D01*
X34092380Y-39673333D01*
X34140000Y-39768571D01*
X34140000Y-39863809D01*
X33663809Y-39959047D01*
X34330476Y-40387619D02*
X35092380Y-40387619D01*
X35235238Y-39292380D02*
X35854285Y-39292380D01*
X35520952Y-39673333D01*
X35663809Y-39673333D01*
X35759047Y-39720952D01*
X35806666Y-39768571D01*
X35854285Y-39863809D01*
X35854285Y-40101904D01*
X35806666Y-40197142D01*
X35759047Y-40244761D01*
X35663809Y-40292380D01*
X35378095Y-40292380D01*
X35282857Y-40244761D01*
X35235238Y-40197142D01*
X36282857Y-40197142D02*
X36330476Y-40244761D01*
X36282857Y-40292380D01*
X36235238Y-40244761D01*
X36282857Y-40197142D01*
X36282857Y-40292380D01*
X36711428Y-39387619D02*
X36759047Y-39340000D01*
X36854285Y-39292380D01*
X37092380Y-39292380D01*
X37187619Y-39340000D01*
X37235238Y-39387619D01*
X37282857Y-39482857D01*
X37282857Y-39578095D01*
X37235238Y-39720952D01*
X36663809Y-40292380D01*
X37282857Y-40292380D01*
X37711428Y-40292380D02*
X37711428Y-39625714D01*
X37711428Y-39720952D02*
X37759047Y-39673333D01*
X37854285Y-39625714D01*
X37997142Y-39625714D01*
X38092380Y-39673333D01*
X38139999Y-39768571D01*
X38139999Y-40292380D01*
X38139999Y-39768571D02*
X38187619Y-39673333D01*
X38282857Y-39625714D01*
X38425714Y-39625714D01*
X38520952Y-39673333D01*
X38568571Y-39768571D01*
X38568571Y-40292380D01*
X39044761Y-40292380D02*
X39044761Y-39625714D01*
X39044761Y-39720952D02*
X39092380Y-39673333D01*
X39187619Y-39625714D01*
X39330476Y-39625714D01*
X39425714Y-39673333D01*
X39473333Y-39768571D01*
X39473333Y-40292380D01*
X39473333Y-39768571D02*
X39520952Y-39673333D01*
X39616190Y-39625714D01*
X39759047Y-39625714D01*
X39854285Y-39673333D01*
X39901904Y-39768571D01*
X39901904Y-40292380D01*
X40139999Y-40387619D02*
X40901904Y-40387619D01*
X41139999Y-40292380D02*
X41139999Y-39292380D01*
X41473333Y-40006666D01*
X41806666Y-39292380D01*
X41806666Y-40292380D01*
X42187619Y-39292380D02*
X42806666Y-39292380D01*
X42473333Y-39673333D01*
X42616190Y-39673333D01*
X42711428Y-39720952D01*
X42759047Y-39768571D01*
X42806666Y-39863809D01*
X42806666Y-40101904D01*
X42759047Y-40197142D01*
X42711428Y-40244761D01*
X42616190Y-40292380D01*
X42330476Y-40292380D01*
X42235238Y-40244761D01*
X42187619Y-40197142D01*
X32306666Y-36092380D02*
X31973333Y-35616190D01*
X31735238Y-36092380D02*
X31735238Y-35092380D01*
X32116190Y-35092380D01*
X32211428Y-35140000D01*
X32259047Y-35187619D01*
X32306666Y-35282857D01*
X32306666Y-35425714D01*
X32259047Y-35520952D01*
X32211428Y-35568571D01*
X32116190Y-35616190D01*
X31735238Y-35616190D01*
X32735238Y-35568571D02*
X33068571Y-35568571D01*
X33211428Y-36092380D02*
X32735238Y-36092380D01*
X32735238Y-35092380D01*
X33211428Y-35092380D01*
X33973333Y-35568571D02*
X33640000Y-35568571D01*
X33640000Y-36092380D02*
X33640000Y-35092380D01*
X34116190Y-35092380D01*
X34640000Y-35092380D02*
X34640000Y-35330476D01*
X34401904Y-35235238D02*
X34640000Y-35330476D01*
X34878095Y-35235238D01*
X34497142Y-35520952D02*
X34640000Y-35330476D01*
X34782857Y-35520952D01*
X35401904Y-35092380D02*
X35401904Y-35330476D01*
X35163809Y-35235238D02*
X35401904Y-35330476D01*
X35640000Y-35235238D01*
X35259047Y-35520952D02*
X35401904Y-35330476D01*
X35544761Y-35520952D01*
%TO.C,U2*%
X71656666Y-79546666D02*
X71656666Y-79070476D01*
X71942380Y-79641904D02*
X70942380Y-79308571D01*
X71942380Y-78975238D01*
X70942380Y-78784761D02*
X70942380Y-78213333D01*
X71942380Y-78499047D02*
X70942380Y-78499047D01*
X71942380Y-77880000D02*
X71275714Y-77880000D01*
X71370952Y-77880000D02*
X71323333Y-77832380D01*
X71275714Y-77737142D01*
X71275714Y-77594285D01*
X71323333Y-77499047D01*
X71418571Y-77451428D01*
X71942380Y-77451428D01*
X71418571Y-77451428D02*
X71323333Y-77403809D01*
X71275714Y-77308571D01*
X71275714Y-77165714D01*
X71323333Y-77070476D01*
X71418571Y-77022857D01*
X71942380Y-77022857D01*
X71894761Y-76165714D02*
X71942380Y-76260952D01*
X71942380Y-76451428D01*
X71894761Y-76546666D01*
X71799523Y-76594285D01*
X71418571Y-76594285D01*
X71323333Y-76546666D01*
X71275714Y-76451428D01*
X71275714Y-76260952D01*
X71323333Y-76165714D01*
X71418571Y-76118095D01*
X71513809Y-76118095D01*
X71609047Y-76594285D01*
X71275714Y-75260952D02*
X72085238Y-75260952D01*
X72180476Y-75308571D01*
X72228095Y-75356190D01*
X72275714Y-75451428D01*
X72275714Y-75594285D01*
X72228095Y-75689523D01*
X71894761Y-75260952D02*
X71942380Y-75356190D01*
X71942380Y-75546666D01*
X71894761Y-75641904D01*
X71847142Y-75689523D01*
X71751904Y-75737142D01*
X71466190Y-75737142D01*
X71370952Y-75689523D01*
X71323333Y-75641904D01*
X71275714Y-75546666D01*
X71275714Y-75356190D01*
X71323333Y-75260952D01*
X71942380Y-74356190D02*
X71418571Y-74356190D01*
X71323333Y-74403809D01*
X71275714Y-74499047D01*
X71275714Y-74689523D01*
X71323333Y-74784761D01*
X71894761Y-74356190D02*
X71942380Y-74451428D01*
X71942380Y-74689523D01*
X71894761Y-74784761D01*
X71799523Y-74832380D01*
X71704285Y-74832380D01*
X71609047Y-74784761D01*
X71561428Y-74689523D01*
X71561428Y-74451428D01*
X71513809Y-74356190D01*
X70942380Y-73975238D02*
X70942380Y-73356190D01*
X71323333Y-73689523D01*
X71323333Y-73546666D01*
X71370952Y-73451428D01*
X71418571Y-73403809D01*
X71513809Y-73356190D01*
X71751904Y-73356190D01*
X71847142Y-73403809D01*
X71894761Y-73451428D01*
X71942380Y-73546666D01*
X71942380Y-73832380D01*
X71894761Y-73927619D01*
X71847142Y-73975238D01*
X71037619Y-72975238D02*
X70990000Y-72927619D01*
X70942380Y-72832380D01*
X70942380Y-72594285D01*
X70990000Y-72499047D01*
X71037619Y-72451428D01*
X71132857Y-72403809D01*
X71228095Y-72403809D01*
X71370952Y-72451428D01*
X71942380Y-73022857D01*
X71942380Y-72403809D01*
X71370952Y-71832380D02*
X71323333Y-71927619D01*
X71275714Y-71975238D01*
X71180476Y-72022857D01*
X71132857Y-72022857D01*
X71037619Y-71975238D01*
X70990000Y-71927619D01*
X70942380Y-71832380D01*
X70942380Y-71641904D01*
X70990000Y-71546666D01*
X71037619Y-71499047D01*
X71132857Y-71451428D01*
X71180476Y-71451428D01*
X71275714Y-71499047D01*
X71323333Y-71546666D01*
X71370952Y-71641904D01*
X71370952Y-71832380D01*
X71418571Y-71927619D01*
X71466190Y-71975238D01*
X71561428Y-72022857D01*
X71751904Y-72022857D01*
X71847142Y-71975238D01*
X71894761Y-71927619D01*
X71942380Y-71832380D01*
X71942380Y-71641904D01*
X71894761Y-71546666D01*
X71847142Y-71499047D01*
X71751904Y-71451428D01*
X71561428Y-71451428D01*
X71466190Y-71499047D01*
X71418571Y-71546666D01*
X71370952Y-71641904D01*
X71561428Y-71022857D02*
X71561428Y-70260952D01*
X71942380Y-69784761D02*
X70942380Y-69784761D01*
X70942380Y-69403809D01*
X70990000Y-69308571D01*
X71037619Y-69260952D01*
X71132857Y-69213333D01*
X71275714Y-69213333D01*
X71370952Y-69260952D01*
X71418571Y-69308571D01*
X71466190Y-69403809D01*
X71466190Y-69784761D01*
X52102380Y-75141904D02*
X52911904Y-75141904D01*
X53007142Y-75094285D01*
X53054761Y-75046666D01*
X53102380Y-74951428D01*
X53102380Y-74760952D01*
X53054761Y-74665714D01*
X53007142Y-74618095D01*
X52911904Y-74570476D01*
X52102380Y-74570476D01*
X52197619Y-74141904D02*
X52150000Y-74094285D01*
X52102380Y-73999047D01*
X52102380Y-73760952D01*
X52150000Y-73665714D01*
X52197619Y-73618095D01*
X52292857Y-73570476D01*
X52388095Y-73570476D01*
X52530952Y-73618095D01*
X53102380Y-74189523D01*
X53102380Y-73570476D01*
%TO.C,J2*%
X67314761Y-69691666D02*
X67790952Y-69691666D01*
X67219523Y-69977380D02*
X67552857Y-68977380D01*
X67886190Y-69977380D01*
X68076666Y-68977380D02*
X68410000Y-69977380D01*
X68743333Y-68977380D01*
X69648095Y-69977380D02*
X69314761Y-69501190D01*
X69076666Y-69977380D02*
X69076666Y-68977380D01*
X69457619Y-68977380D01*
X69552857Y-69025000D01*
X69600476Y-69072619D01*
X69648095Y-69167857D01*
X69648095Y-69310714D01*
X69600476Y-69405952D01*
X69552857Y-69453571D01*
X69457619Y-69501190D01*
X69076666Y-69501190D01*
X70076666Y-69596428D02*
X70838571Y-69596428D01*
X71314761Y-69977380D02*
X71314761Y-68977380D01*
X71743333Y-69929761D02*
X71886190Y-69977380D01*
X72124285Y-69977380D01*
X72219523Y-69929761D01*
X72267142Y-69882142D01*
X72314761Y-69786904D01*
X72314761Y-69691666D01*
X72267142Y-69596428D01*
X72219523Y-69548809D01*
X72124285Y-69501190D01*
X71933809Y-69453571D01*
X71838571Y-69405952D01*
X71790952Y-69358333D01*
X71743333Y-69263095D01*
X71743333Y-69167857D01*
X71790952Y-69072619D01*
X71838571Y-69025000D01*
X71933809Y-68977380D01*
X72171904Y-68977380D01*
X72314761Y-69025000D01*
X72743333Y-69977380D02*
X72743333Y-68977380D01*
X73124285Y-68977380D01*
X73219523Y-69025000D01*
X73267142Y-69072619D01*
X73314761Y-69167857D01*
X73314761Y-69310714D01*
X73267142Y-69405952D01*
X73219523Y-69453571D01*
X73124285Y-69501190D01*
X72743333Y-69501190D01*
X73743333Y-69596428D02*
X74505238Y-69596428D01*
X75410000Y-68977380D02*
X75219523Y-68977380D01*
X75124285Y-69025000D01*
X75076666Y-69072619D01*
X74981428Y-69215476D01*
X74933809Y-69405952D01*
X74933809Y-69786904D01*
X74981428Y-69882142D01*
X75029047Y-69929761D01*
X75124285Y-69977380D01*
X75314761Y-69977380D01*
X75410000Y-69929761D01*
X75457619Y-69882142D01*
X75505238Y-69786904D01*
X75505238Y-69548809D01*
X75457619Y-69453571D01*
X75410000Y-69405952D01*
X75314761Y-69358333D01*
X75124285Y-69358333D01*
X75029047Y-69405952D01*
X74981428Y-69453571D01*
X74933809Y-69548809D01*
X70862380Y-64988333D02*
X71576666Y-64988333D01*
X71719523Y-65035952D01*
X71814761Y-65131190D01*
X71862380Y-65274047D01*
X71862380Y-65369285D01*
X70957619Y-64559761D02*
X70910000Y-64512142D01*
X70862380Y-64416904D01*
X70862380Y-64178809D01*
X70910000Y-64083571D01*
X70957619Y-64035952D01*
X71052857Y-63988333D01*
X71148095Y-63988333D01*
X71290952Y-64035952D01*
X71862380Y-64607380D01*
X71862380Y-63988333D01*
D12*
%TO.C,SW1*%
X32140000Y-52640000D02*
X38140000Y-52640000D01*
X32140000Y-55640000D02*
X32140000Y-52640000D01*
X32140000Y-58640000D02*
X32140000Y-55640000D01*
X38140000Y-52640000D02*
X38140000Y-58640000D01*
X38140000Y-58640000D02*
X32140000Y-58640000D01*
X37155564Y-55640000D02*
G75*
G03*
X37155564Y-55640000I-2015564J0D01*
G01*
%TO.C,C3*%
X74390000Y-76140000D02*
X74390000Y-70140000D01*
X71890000Y-70140000D02*
X71890000Y-76140000D01*
X74390000Y-70140000D02*
X71890000Y-70140000D01*
X71890000Y-76140000D02*
X74390000Y-76140000D01*
%TO.C,SW4*%
X65890000Y-68140000D02*
X59890000Y-68140000D01*
X59890000Y-62140000D02*
X62890000Y-62140000D01*
X65890000Y-62140000D02*
X65890000Y-68140000D01*
X59890000Y-68140000D02*
X59890000Y-62140000D01*
X62890000Y-62140000D02*
X65890000Y-62140000D01*
X64905564Y-65140000D02*
G75*
G03*
X64905564Y-65140000I-2015564J0D01*
G01*
%TO.C,C1*%
X32802500Y-84978718D02*
X33302500Y-84978718D01*
X33052500Y-85228718D02*
X33052500Y-84728718D01*
X36640000Y-83095113D02*
G75*
G03*
X36640000Y-83095113I-2500000J0D01*
G01*
%TO.C,C2*%
X63477500Y-81801283D02*
X62977500Y-81801283D01*
X63227500Y-81551283D02*
X63227500Y-82051283D01*
X64640000Y-83684888D02*
G75*
G03*
X64640000Y-83684888I-2500000J0D01*
G01*
%TO.C,R3*%
X49950000Y-57640000D02*
X49290000Y-57640000D01*
X42990000Y-56390000D02*
X42990000Y-58890000D01*
X49290000Y-58890000D02*
X49290000Y-56390000D01*
X42990000Y-58890000D02*
X49290000Y-58890000D01*
X42330000Y-57640000D02*
X42990000Y-57640000D01*
X49290000Y-56390000D02*
X42990000Y-56390000D01*
%TO.C,SW3*%
X49640000Y-68140000D02*
X49640000Y-62140000D01*
X55640000Y-62140000D02*
X55640000Y-68140000D01*
X55640000Y-68140000D02*
X49640000Y-68140000D01*
X52640000Y-62140000D02*
X55640000Y-62140000D01*
X49640000Y-62140000D02*
X52640000Y-62140000D01*
X54655564Y-65140000D02*
G75*
G03*
X54655564Y-65140000I-2015564J0D01*
G01*
%TO.C,SW5*%
X42390000Y-62140000D02*
X45390000Y-62140000D01*
X45390000Y-62140000D02*
X45390000Y-68140000D01*
X39390000Y-62140000D02*
X42390000Y-62140000D01*
X45390000Y-68140000D02*
X39390000Y-68140000D01*
X39390000Y-68140000D02*
X39390000Y-62140000D01*
X44405564Y-65140000D02*
G75*
G03*
X44405564Y-65140000I-2015564J0D01*
G01*
%TO.C,C5*%
X33506395Y-45302500D02*
X33506395Y-45802500D01*
X33256395Y-45552500D02*
X33756395Y-45552500D01*
X37890000Y-46640000D02*
G75*
G03*
X37890000Y-46640000I-2500000J0D01*
G01*
%TO.C,U1*%
X43940000Y-81190000D02*
X43940000Y-84090000D01*
X43940000Y-84090000D02*
X42340000Y-84090000D01*
X42340000Y-84090000D02*
X42340000Y-81590000D01*
X42340000Y-81590000D02*
X42740000Y-81190000D01*
X42740000Y-81190000D02*
X43940000Y-81190000D01*
%TO.C,C4*%
X51140000Y-75890000D02*
X51140000Y-73390000D01*
X45140000Y-75890000D02*
X51140000Y-75890000D01*
X51140000Y-73390000D02*
X45140000Y-73390000D01*
X45140000Y-73390000D02*
X45140000Y-75890000D01*
%TO.C,R2*%
X52990000Y-58890000D02*
X59290000Y-58890000D01*
X59290000Y-58890000D02*
X59290000Y-56390000D01*
X59950000Y-57640000D02*
X59290000Y-57640000D01*
X59290000Y-56390000D02*
X52990000Y-56390000D01*
X52990000Y-56390000D02*
X52990000Y-58890000D01*
X52330000Y-57640000D02*
X52990000Y-57640000D01*
%TO.C,R1*%
X67890000Y-56980000D02*
X70390000Y-56980000D01*
X70390000Y-50680000D02*
X67890000Y-50680000D01*
X69140000Y-50020000D02*
X69140000Y-50680000D01*
X69140000Y-57640000D02*
X69140000Y-56980000D01*
X67890000Y-50680000D02*
X67890000Y-56980000D01*
X70390000Y-56980000D02*
X70390000Y-50680000D01*
%TO.C,D1*%
X33135000Y-62473810D02*
X33135000Y-64806190D01*
X33134445Y-64805476D02*
G75*
G03*
X33135000Y-62473810I1500555J1165476D01*
G01*
X36135000Y-63640000D02*
G75*
G03*
X36135000Y-63640000I-1500000J0D01*
G01*
%TO.C,BT1*%
X31505000Y-74595000D02*
X33410000Y-74595000D01*
X30870000Y-75230000D02*
X31505000Y-74595000D01*
X30870000Y-79675000D02*
X30870000Y-75230000D01*
X33410000Y-79675000D02*
X30870000Y-79675000D01*
X33410000Y-74595000D02*
X33410000Y-79675000D01*
%TO.C,J3*%
X55640000Y-87840000D02*
X48140000Y-87840000D01*
X48140000Y-87840000D02*
X48140000Y-82840000D01*
X48640000Y-87140000D02*
X55140000Y-87140000D01*
X48140000Y-82840000D02*
X55640000Y-82840000D01*
X55640000Y-82840000D02*
X55640000Y-87840000D01*
%TO.C,J1*%
X58230000Y-35910000D02*
X48705000Y-35910000D01*
X58230000Y-33370000D02*
X58230000Y-35910000D01*
X48705000Y-35910000D02*
X48070000Y-35275000D01*
X48070000Y-35275000D02*
X48070000Y-33370000D01*
X48070000Y-33370000D02*
X58230000Y-33370000D01*
%TO.C,U2*%
X70490000Y-69300000D02*
X34810000Y-69300000D01*
X70490000Y-79460000D02*
X70490000Y-69300000D01*
X34810000Y-69300000D02*
X34810000Y-79460000D01*
X34870000Y-76555000D02*
X34870000Y-71205000D01*
X34810000Y-79460000D02*
X70490000Y-79460000D01*
X70430000Y-71205000D02*
X70430000Y-77555000D01*
X34870000Y-71205000D02*
X70430000Y-71205000D01*
X70430000Y-77555000D02*
X35870000Y-77555000D01*
X35870000Y-77555000D02*
X34870000Y-76555000D01*
%TO.C,J2*%
X73950000Y-68465000D02*
X68870000Y-68465000D01*
X73950000Y-60845000D02*
X73950000Y-68465000D01*
X70140000Y-60845000D02*
X73950000Y-60845000D01*
X68870000Y-68465000D02*
X68870000Y-62115000D01*
X68870000Y-62115000D02*
X70140000Y-60845000D01*
%TD*%
M02*
