%TF.GenerationSoftware,KiCad,Pcbnew,(6.0.2-0)*%
%TF.CreationDate,2022-04-22T19:08:34+09:30*%
%TF.ProjectId,scrambler,73637261-6d62-46c6-9572-2e6b69636164,1.0*%
%TF.SameCoordinates,Original*%
%TF.FileFunction,Soldermask,Top*%
%TF.FilePolarity,Negative*%
%FSLAX46Y46*%
G04 Gerber Fmt 4.6, Leading zero omitted, Abs format (unit mm)*
G04 Created by KiCad (PCBNEW (6.0.2-0)) date 2022-04-22 19:08:34*
%MOMM*%
%LPD*%
G01*
G04 APERTURE LIST*
G04 Aperture macros list*
%AMRoundRect*
0 Rectangle with rounded corners*
0 $1 Rounding radius*
0 $2 $3 $4 $5 $6 $7 $8 $9 X,Y pos of 4 corners*
0 Add a 4 corners polygon primitive as box body*
4,1,4,$2,$3,$4,$5,$6,$7,$8,$9,$2,$3,0*
0 Add four circle primitives for the rounded corners*
1,1,$1+$1,$2,$3*
1,1,$1+$1,$4,$5*
1,1,$1+$1,$6,$7*
1,1,$1+$1,$8,$9*
0 Add four rect primitives between the rounded corners*
20,1,$1+$1,$2,$3,$4,$5,0*
20,1,$1+$1,$4,$5,$6,$7,0*
20,1,$1+$1,$6,$7,$8,$9,0*
20,1,$1+$1,$8,$9,$2,$3,0*%
G04 Aperture macros list end*
%ADD10C,2.000000*%
%ADD11C,1.600000*%
%ADD12R,1.600000X1.600000*%
%ADD13O,1.600000X1.600000*%
%ADD14RoundRect,0.150000X-0.512500X-0.150000X0.512500X-0.150000X0.512500X0.150000X-0.512500X0.150000X0*%
%ADD15C,3.200000*%
%ADD16R,1.800000X1.800000*%
%ADD17C,1.800000*%
%ADD18R,1.700000X1.700000*%
%ADD19O,1.700000X1.700000*%
%ADD20C,1.008000*%
%ADD21O,2.416000X1.208000*%
%ADD22R,0.450000X1.380000*%
%ADD23R,1.650000X1.300000*%
%ADD24R,1.000000X1.900000*%
%ADD25R,1.425000X1.550000*%
%ADD26R,1.800000X1.900000*%
G04 APERTURE END LIST*
D10*
%TO.C,SW1*%
X32890000Y-58890000D03*
X32890000Y-52390000D03*
X37390000Y-52390000D03*
X37390000Y-58890000D03*
%TD*%
D11*
%TO.C,C3*%
X73140000Y-75640000D03*
X73140000Y-70640000D03*
%TD*%
D10*
%TO.C,SW4*%
X59640000Y-62890000D03*
X66140000Y-62890000D03*
X66140000Y-67390000D03*
X59640000Y-67390000D03*
%TD*%
D12*
%TO.C,C1*%
X34140000Y-84345113D03*
D11*
X34140000Y-81845113D03*
%TD*%
D12*
%TO.C,C2*%
X62140000Y-82434888D03*
D11*
X62140000Y-84934888D03*
%TD*%
%TO.C,R3*%
X42330000Y-57640000D03*
D13*
X49950000Y-57640000D03*
%TD*%
D10*
%TO.C,SW3*%
X55890000Y-62890000D03*
X49390000Y-62890000D03*
X49390000Y-67390000D03*
X55890000Y-67390000D03*
%TD*%
%TO.C,SW5*%
X45640000Y-62890000D03*
X39140000Y-62890000D03*
X45640000Y-67390000D03*
X39140000Y-67390000D03*
%TD*%
D12*
%TO.C,C5*%
X34140000Y-46640000D03*
D11*
X36640000Y-46640000D03*
%TD*%
D14*
%TO.C,U1*%
X42002500Y-81690000D03*
X42002500Y-82640000D03*
X42002500Y-83590000D03*
X44277500Y-83590000D03*
X44277500Y-81690000D03*
%TD*%
D11*
%TO.C,C4*%
X45640000Y-74640000D03*
X50640000Y-74640000D03*
%TD*%
%TO.C,R2*%
X52330000Y-57640000D03*
D13*
X59950000Y-57640000D03*
%TD*%
D15*
%TO.C,REF\u002A\u002A*%
X71640000Y-83640000D03*
%TD*%
D11*
%TO.C,R1*%
X69140000Y-57640000D03*
D13*
X69140000Y-50020000D03*
%TD*%
D16*
%TO.C,D1*%
X33365000Y-63640000D03*
D17*
X35905000Y-63640000D03*
%TD*%
D18*
%TO.C,BT1*%
X32140000Y-75865000D03*
D19*
X32140000Y-78405000D03*
%TD*%
D20*
%TO.C,SW2*%
X70940000Y-43590000D03*
X70940000Y-40590000D03*
X70940000Y-37590000D03*
D21*
X70940000Y-46890000D03*
X70940000Y-34390000D03*
%TD*%
D22*
%TO.C,J3*%
X50590000Y-83030000D03*
X51240000Y-83030000D03*
X51890000Y-83030000D03*
X52540000Y-83030000D03*
X53190000Y-83030000D03*
D23*
X55265000Y-85690000D03*
D24*
X53440000Y-85690000D03*
D25*
X49402500Y-83115000D03*
X54377500Y-83115000D03*
D23*
X48515000Y-85690000D03*
D26*
X50740000Y-85690000D03*
%TD*%
D18*
%TO.C,J1*%
X49340000Y-34640000D03*
D19*
X51880000Y-34640000D03*
X54420000Y-34640000D03*
X56960000Y-34640000D03*
%TD*%
D15*
%TO.C,REF\u002A\u002A*%
X33640000Y-35640000D03*
%TD*%
D12*
%TO.C,U2*%
X36140000Y-78190000D03*
D13*
X38680000Y-78190000D03*
X41220000Y-78190000D03*
X43760000Y-78190000D03*
X46300000Y-78190000D03*
X48840000Y-78190000D03*
X51380000Y-78190000D03*
X53920000Y-78190000D03*
X56460000Y-78190000D03*
X59000000Y-78190000D03*
X61540000Y-78190000D03*
X64080000Y-78190000D03*
X66620000Y-78190000D03*
X69160000Y-78190000D03*
X69160000Y-70570000D03*
X66620000Y-70570000D03*
X64080000Y-70570000D03*
X61540000Y-70570000D03*
X59000000Y-70570000D03*
X56460000Y-70570000D03*
X53920000Y-70570000D03*
X51380000Y-70570000D03*
X48840000Y-70570000D03*
X46300000Y-70570000D03*
X43760000Y-70570000D03*
X41220000Y-70570000D03*
X38680000Y-70570000D03*
X36140000Y-70570000D03*
%TD*%
D18*
%TO.C,J2*%
X70140000Y-62115000D03*
D19*
X72680000Y-62115000D03*
X70140000Y-64655000D03*
X72680000Y-64655000D03*
X70140000Y-67195000D03*
X72680000Y-67195000D03*
%TD*%
M02*
