%TF.GenerationSoftware,KiCad,Pcbnew,(6.0.2-0)*%
%TF.CreationDate,2022-04-22T19:08:31+09:30*%
%TF.ProjectId,scrambler,73637261-6d62-46c6-9572-2e6b69636164,1.0*%
%TF.SameCoordinates,Original*%
%TF.FileFunction,Copper,L2,Bot*%
%TF.FilePolarity,Positive*%
%FSLAX46Y46*%
G04 Gerber Fmt 4.6, Leading zero omitted, Abs format (unit mm)*
G04 Created by KiCad (PCBNEW (6.0.2-0)) date 2022-04-22 19:08:31*
%MOMM*%
%LPD*%
G01*
G04 APERTURE LIST*
%TA.AperFunction,ComponentPad*%
%ADD10C,2.000000*%
%TD*%
%TA.AperFunction,ComponentPad*%
%ADD11C,1.600000*%
%TD*%
%TA.AperFunction,ComponentPad*%
%ADD12R,1.600000X1.600000*%
%TD*%
%TA.AperFunction,ComponentPad*%
%ADD13O,1.600000X1.600000*%
%TD*%
%TA.AperFunction,ComponentPad*%
%ADD14R,1.800000X1.800000*%
%TD*%
%TA.AperFunction,ComponentPad*%
%ADD15C,1.800000*%
%TD*%
%TA.AperFunction,ComponentPad*%
%ADD16R,1.700000X1.700000*%
%TD*%
%TA.AperFunction,ComponentPad*%
%ADD17O,1.700000X1.700000*%
%TD*%
%TA.AperFunction,ComponentPad*%
%ADD18C,1.008000*%
%TD*%
%TA.AperFunction,ComponentPad*%
%ADD19O,2.416000X1.208000*%
%TD*%
%TA.AperFunction,ViaPad*%
%ADD20C,0.800000*%
%TD*%
%TA.AperFunction,Conductor*%
%ADD21C,0.500000*%
%TD*%
%TA.AperFunction,Conductor*%
%ADD22C,0.250000*%
%TD*%
G04 APERTURE END LIST*
D10*
%TO.P,SW1,1,1*%
%TO.N,/RST*%
X32890000Y-58890000D03*
X32890000Y-52390000D03*
%TO.P,SW1,2,2*%
%TO.N,GND*%
X37390000Y-52390000D03*
X37390000Y-58890000D03*
%TD*%
D11*
%TO.P,C3,1*%
%TO.N,+5V*%
X73140000Y-75640000D03*
%TO.P,C3,2*%
%TO.N,GND*%
X73140000Y-70640000D03*
%TD*%
D10*
%TO.P,SW4,1,1*%
%TO.N,Net-(U2-Pad12)*%
X59640000Y-62890000D03*
X66140000Y-62890000D03*
%TO.P,SW4,2,2*%
%TO.N,GND*%
X66140000Y-67390000D03*
X59640000Y-67390000D03*
%TD*%
D12*
%TO.P,C1,1*%
%TO.N,Net-(C1-Pad1)*%
X34140000Y-84345113D03*
D11*
%TO.P,C1,2*%
%TO.N,GND*%
X34140000Y-81845113D03*
%TD*%
D12*
%TO.P,C2,1*%
%TO.N,Net-(C1-Pad1)*%
X62140000Y-82434888D03*
D11*
%TO.P,C2,2*%
%TO.N,GND*%
X62140000Y-84934888D03*
%TD*%
%TO.P,R3,1*%
%TO.N,+5V*%
X42330000Y-57640000D03*
D13*
%TO.P,R3,2*%
%TO.N,/RST*%
X49950000Y-57640000D03*
%TD*%
D10*
%TO.P,SW3,1,1*%
%TO.N,Net-(U2-Pad13)*%
X55890000Y-62890000D03*
X49390000Y-62890000D03*
%TO.P,SW3,2,2*%
%TO.N,GND*%
X49390000Y-67390000D03*
X55890000Y-67390000D03*
%TD*%
%TO.P,SW5,1,1*%
%TO.N,Net-(U2-Pad14)*%
X45640000Y-62890000D03*
X39140000Y-62890000D03*
%TO.P,SW5,2,2*%
%TO.N,GND*%
X45640000Y-67390000D03*
X39140000Y-67390000D03*
%TD*%
D12*
%TO.P,C5,1*%
%TO.N,+5V*%
X34140000Y-46640000D03*
D11*
%TO.P,C5,2*%
%TO.N,GND*%
X36640000Y-46640000D03*
%TD*%
%TO.P,C4,1*%
%TO.N,+5V*%
X45640000Y-74640000D03*
%TO.P,C4,2*%
%TO.N,GND*%
X50640000Y-74640000D03*
%TD*%
%TO.P,R2,1*%
%TO.N,Net-(D1-Pad1)*%
X52330000Y-57640000D03*
D13*
%TO.P,R2,2*%
%TO.N,Net-(R2-Pad2)*%
X59950000Y-57640000D03*
%TD*%
D11*
%TO.P,R1,1*%
%TO.N,Net-(R1-Pad1)*%
X69140000Y-57640000D03*
D13*
%TO.P,R1,2*%
%TO.N,GND*%
X69140000Y-50020000D03*
%TD*%
D14*
%TO.P,D1,1,K*%
%TO.N,Net-(D1-Pad1)*%
X33365000Y-63640000D03*
D15*
%TO.P,D1,2,A*%
%TO.N,Net-(C1-Pad1)*%
X35905000Y-63640000D03*
%TD*%
D16*
%TO.P,BT1,1,+*%
%TO.N,Net-(BT1-Pad1)*%
X32140000Y-75865000D03*
D17*
%TO.P,BT1,2,-*%
%TO.N,GND*%
X32140000Y-78405000D03*
%TD*%
D18*
%TO.P,SW2,1,A*%
%TO.N,+5V*%
X70940000Y-43590000D03*
%TO.P,SW2,2,B*%
%TO.N,Net-(BT1-Pad1)*%
X70940000Y-40590000D03*
%TO.P,SW2,3,C*%
%TO.N,Net-(U1-Pad3)*%
X70940000Y-37590000D03*
D19*
%TO.P,SW2,GND*%
%TO.N,N/C*%
X70940000Y-46890000D03*
X70940000Y-34390000D03*
%TD*%
D16*
%TO.P,J1,1,Pin_1*%
%TO.N,+5V*%
X49340000Y-34640000D03*
D17*
%TO.P,J1,2,Pin_2*%
%TO.N,GND*%
X51880000Y-34640000D03*
%TO.P,J1,3,Pin_3*%
%TO.N,Net-(J1-Pad3)*%
X54420000Y-34640000D03*
%TO.P,J1,4,Pin_4*%
%TO.N,Net-(J1-Pad4)*%
X56960000Y-34640000D03*
%TD*%
D12*
%TO.P,U2,1,~{RESET}/PC6*%
%TO.N,/RST*%
X36140000Y-78190000D03*
D13*
%TO.P,U2,2,PD0*%
%TO.N,unconnected-(U2-Pad2)*%
X38680000Y-78190000D03*
%TO.P,U2,3,PD1*%
%TO.N,unconnected-(U2-Pad3)*%
X41220000Y-78190000D03*
%TO.P,U2,4,PD2*%
%TO.N,unconnected-(U2-Pad4)*%
X43760000Y-78190000D03*
%TO.P,U2,5,PD3*%
%TO.N,unconnected-(U2-Pad5)*%
X46300000Y-78190000D03*
%TO.P,U2,6,PD4*%
%TO.N,unconnected-(U2-Pad6)*%
X48840000Y-78190000D03*
%TO.P,U2,7,VCC*%
%TO.N,+5V*%
X51380000Y-78190000D03*
%TO.P,U2,8,GND*%
%TO.N,GND*%
X53920000Y-78190000D03*
%TO.P,U2,9,XTAL1/PB6*%
%TO.N,unconnected-(U2-Pad9)*%
X56460000Y-78190000D03*
%TO.P,U2,10,XTAL2/PB7*%
%TO.N,unconnected-(U2-Pad10)*%
X59000000Y-78190000D03*
%TO.P,U2,11,PD5*%
%TO.N,unconnected-(U2-Pad11)*%
X61540000Y-78190000D03*
%TO.P,U2,12,PD6*%
%TO.N,Net-(U2-Pad12)*%
X64080000Y-78190000D03*
%TO.P,U2,13,PD7*%
%TO.N,Net-(U2-Pad13)*%
X66620000Y-78190000D03*
%TO.P,U2,14,PB0*%
%TO.N,Net-(U2-Pad14)*%
X69160000Y-78190000D03*
%TO.P,U2,15,PB1*%
%TO.N,unconnected-(U2-Pad15)*%
X69160000Y-70570000D03*
%TO.P,U2,16,PB2*%
%TO.N,unconnected-(U2-Pad16)*%
X66620000Y-70570000D03*
%TO.P,U2,17,PB3*%
%TO.N,/MOSI*%
X64080000Y-70570000D03*
%TO.P,U2,18,PB4*%
%TO.N,/MISO*%
X61540000Y-70570000D03*
%TO.P,U2,19,PB5*%
%TO.N,/SCK*%
X59000000Y-70570000D03*
%TO.P,U2,20,AVCC*%
%TO.N,+5V*%
X56460000Y-70570000D03*
%TO.P,U2,21,AREF*%
%TO.N,unconnected-(U2-Pad21)*%
X53920000Y-70570000D03*
%TO.P,U2,22,GND*%
%TO.N,GND*%
X51380000Y-70570000D03*
%TO.P,U2,23,PC0*%
%TO.N,unconnected-(U2-Pad23)*%
X48840000Y-70570000D03*
%TO.P,U2,24,PC1*%
%TO.N,unconnected-(U2-Pad24)*%
X46300000Y-70570000D03*
%TO.P,U2,25,PC2*%
%TO.N,unconnected-(U2-Pad25)*%
X43760000Y-70570000D03*
%TO.P,U2,26,PC3*%
%TO.N,unconnected-(U2-Pad26)*%
X41220000Y-70570000D03*
%TO.P,U2,27,PC4*%
%TO.N,Net-(J1-Pad4)*%
X38680000Y-70570000D03*
%TO.P,U2,28,PC5*%
%TO.N,Net-(J1-Pad3)*%
X36140000Y-70570000D03*
%TD*%
D16*
%TO.P,J2,1,MISO*%
%TO.N,/MISO*%
X70140000Y-62115000D03*
D17*
%TO.P,J2,2,VCC*%
%TO.N,+5V*%
X72680000Y-62115000D03*
%TO.P,J2,3,SCK*%
%TO.N,/SCK*%
X70140000Y-64655000D03*
%TO.P,J2,4,MOSI*%
%TO.N,/MOSI*%
X72680000Y-64655000D03*
%TO.P,J2,5,~{RST}*%
%TO.N,/RST*%
X70140000Y-67195000D03*
%TO.P,J2,6,GND*%
%TO.N,GND*%
X72680000Y-67195000D03*
%TD*%
D20*
%TO.N,Net-(BT1-Pad1)*%
X47140000Y-64640000D03*
X52640000Y-54140000D03*
X45640000Y-72640000D03*
X49640000Y-60140000D03*
X35140000Y-73640000D03*
%TO.N,Net-(C1-Pad1)*%
X47640000Y-81140000D03*
X45140000Y-85640000D03*
X32640000Y-69640000D03*
%TO.N,Net-(D1-Pad1)*%
X48640000Y-55640000D03*
X35640000Y-56140000D03*
X40140000Y-55640000D03*
%TO.N,Net-(J1-Pad3)*%
X51640000Y-41640000D03*
X39140000Y-60640000D03*
%TO.N,Net-(J1-Pad4)*%
X39640000Y-65140000D03*
X51140000Y-44140000D03*
X59640000Y-35640000D03*
%TO.N,/MISO*%
X63640000Y-68640000D03*
%TO.N,/SCK*%
X58140000Y-76640000D03*
X60640000Y-73640000D03*
%TO.N,/RST*%
X40140000Y-58140000D03*
X44140000Y-59140000D03*
X48140000Y-59640000D03*
%TO.N,Net-(R1-Pad1)*%
X61640000Y-68140000D03*
%TO.N,Net-(R2-Pad2)*%
X42640000Y-80140000D03*
X52652299Y-75627701D03*
X54398774Y-68575824D03*
%TO.N,Net-(U1-Pad3)*%
X38140000Y-83620613D03*
X47640000Y-43640000D03*
%TO.N,Net-(U2-Pad13)*%
X67140000Y-74640000D03*
X57140000Y-65140000D03*
X69140000Y-76640000D03*
%TO.N,Net-(U2-Pad12)*%
X63140000Y-66140000D03*
X63640000Y-72640000D03*
%TO.N,Net-(U2-Pad14)*%
X43640000Y-60640000D03*
X63140000Y-74640000D03*
%TD*%
D21*
%TO.N,Net-(BT1-Pad1)*%
X46140000Y-72640000D02*
X45640000Y-72640000D01*
X52640000Y-54140000D02*
X53579511Y-55079511D01*
X47549511Y-71230489D02*
X46140000Y-72640000D01*
X51597076Y-60140000D02*
X49640000Y-60140000D01*
X34365000Y-73640000D02*
X32140000Y-75865000D01*
X53579511Y-55079511D02*
X53579511Y-58157565D01*
X53579511Y-58157565D02*
X51597076Y-60140000D01*
X47549511Y-65049511D02*
X47549511Y-71230489D01*
X35140000Y-73640000D02*
X34365000Y-73640000D01*
X47140000Y-64640000D02*
X47549511Y-65049511D01*
D22*
%TO.N,Net-(C1-Pad1)*%
X45140000Y-85640000D02*
X47640000Y-83140000D01*
X30640000Y-71640000D02*
X32640000Y-69640000D01*
X35264511Y-83220602D02*
X35264511Y-79868501D01*
X35264511Y-79868501D02*
X32435521Y-77039511D01*
X47640000Y-83140000D02*
X47640000Y-81140000D01*
X32435521Y-77039511D02*
X30965489Y-77039511D01*
X34140000Y-84345113D02*
X35264511Y-83220602D01*
X30640000Y-76714022D02*
X30640000Y-71640000D01*
X30965489Y-77039511D02*
X30640000Y-76714022D01*
D21*
%TO.N,+5V*%
X42469511Y-57779511D02*
X42469511Y-71469511D01*
X54890000Y-72140000D02*
X56460000Y-70570000D01*
X73140000Y-75640000D02*
X56640000Y-75640000D01*
X49340000Y-34640000D02*
X49340000Y-48340000D01*
X45640000Y-74640000D02*
X48140000Y-72140000D01*
X54090000Y-43590000D02*
X49340000Y-48340000D01*
X48140000Y-72140000D02*
X54890000Y-72140000D01*
X49340000Y-50630000D02*
X42330000Y-57640000D01*
X74140000Y-46640000D02*
X74140000Y-44140000D01*
X49340000Y-48340000D02*
X49340000Y-50630000D01*
X56460000Y-70570000D02*
X56460000Y-73110000D01*
X70940000Y-43590000D02*
X54090000Y-43590000D01*
X72680000Y-62115000D02*
X72680000Y-48100000D01*
X55285000Y-74285000D02*
X51380000Y-78190000D01*
X56640000Y-75640000D02*
X55285000Y-74285000D01*
X73590000Y-43590000D02*
X70940000Y-43590000D01*
X74140000Y-44140000D02*
X73590000Y-43590000D01*
X56460000Y-73110000D02*
X55285000Y-74285000D01*
X72680000Y-48100000D02*
X74140000Y-46640000D01*
X42469511Y-71469511D02*
X45640000Y-74640000D01*
X46140000Y-34640000D02*
X49340000Y-34640000D01*
X34140000Y-46640000D02*
X46140000Y-34640000D01*
D22*
%TO.N,Net-(D1-Pad1)*%
X35640000Y-56140000D02*
X36140000Y-55640000D01*
X48640000Y-55640000D02*
X50330000Y-55640000D01*
X50330000Y-55640000D02*
X52330000Y-57640000D01*
X36140000Y-55640000D02*
X40140000Y-55640000D01*
%TO.N,Net-(J1-Pad3)*%
X54420000Y-38860000D02*
X51640000Y-41640000D01*
X54420000Y-34640000D02*
X54420000Y-38860000D01*
X39140000Y-60640000D02*
X37129511Y-62650489D01*
X37129511Y-69580489D02*
X36140000Y-70570000D01*
X37129511Y-62650489D02*
X37129511Y-69580489D01*
%TO.N,Net-(J1-Pad4)*%
X39516857Y-65140000D02*
X37815489Y-66841368D01*
X39640000Y-65140000D02*
X39516857Y-65140000D01*
X37815489Y-66841368D02*
X37815489Y-69705489D01*
X59640000Y-35640000D02*
X51140000Y-44140000D01*
X37815489Y-69705489D02*
X38680000Y-70570000D01*
%TO.N,/MISO*%
X70140000Y-62115000D02*
X69040000Y-62115000D01*
X63640000Y-67515000D02*
X63640000Y-68640000D01*
X69040000Y-62115000D02*
X63640000Y-67515000D01*
%TO.N,/SCK*%
X74640000Y-64140000D02*
X74640000Y-78640000D01*
X60640000Y-73640000D02*
X59000000Y-72000000D01*
X57640000Y-78420300D02*
X57640000Y-77140000D01*
X59359700Y-80140000D02*
X57640000Y-78420300D01*
X70140000Y-64655000D02*
X71314511Y-63480489D01*
X73980489Y-63480489D02*
X74640000Y-64140000D01*
X74640000Y-78640000D02*
X73140000Y-80140000D01*
X59000000Y-72000000D02*
X59000000Y-70570000D01*
X73140000Y-80140000D02*
X59359700Y-80140000D01*
X71314511Y-63480489D02*
X73980489Y-63480489D01*
X57640000Y-77140000D02*
X58140000Y-76640000D01*
%TO.N,/MOSI*%
X69844479Y-65829511D02*
X66533990Y-69140000D01*
X65510000Y-69140000D02*
X64080000Y-70570000D01*
X71505489Y-65829511D02*
X69844479Y-65829511D01*
X66533990Y-69140000D02*
X65510000Y-69140000D01*
X72680000Y-64655000D02*
X71505489Y-65829511D01*
%TO.N,/RST*%
X36140000Y-73615386D02*
X36140000Y-78190000D01*
X39565489Y-57565489D02*
X34214511Y-57565489D01*
X34214511Y-57565489D02*
X32890000Y-58890000D01*
X44640000Y-59640000D02*
X44140000Y-59140000D01*
X32890000Y-52390000D02*
X32890000Y-58890000D01*
X48140000Y-59640000D02*
X44640000Y-59640000D01*
X32890000Y-58890000D02*
X34640000Y-60640000D01*
X34640000Y-72115386D02*
X36140000Y-73615386D01*
X40140000Y-58140000D02*
X39565489Y-57565489D01*
X34640000Y-60640000D02*
X34640000Y-72115386D01*
%TO.N,Net-(R1-Pad1)*%
X69140000Y-57640000D02*
X61640000Y-65140000D01*
X61640000Y-65140000D02*
X61640000Y-68140000D01*
%TO.N,Net-(R2-Pad2)*%
X42344511Y-77724211D02*
X42344511Y-79844511D01*
X59950000Y-57640000D02*
X59950000Y-60703143D01*
X59950000Y-60703143D02*
X54398774Y-66254369D01*
X52652299Y-75627701D02*
X51214511Y-77065489D01*
X43003233Y-77065489D02*
X42344511Y-77724211D01*
X54398774Y-66254369D02*
X54398774Y-68575824D01*
X51214511Y-77065489D02*
X43003233Y-77065489D01*
X42344511Y-79844511D02*
X42640000Y-80140000D01*
%TO.N,Net-(U1-Pad3)*%
X39804511Y-81956102D02*
X39804511Y-68598632D01*
X38140000Y-83620613D02*
X39804511Y-81956102D01*
X39804511Y-68598632D02*
X41140000Y-67263143D01*
X41140000Y-67263143D02*
X41140000Y-50140000D01*
X41140000Y-50140000D02*
X47640000Y-43640000D01*
%TO.N,Net-(U2-Pad13)*%
X57140000Y-65140000D02*
X57140000Y-66763143D01*
X62915489Y-73915489D02*
X66415489Y-73915489D01*
X68170000Y-76640000D02*
X66620000Y-78190000D01*
X66415489Y-73915489D02*
X67140000Y-74640000D01*
X69140000Y-76640000D02*
X68170000Y-76640000D01*
X57140000Y-66763143D02*
X60415489Y-70038632D01*
X60415489Y-71415489D02*
X62915489Y-73915489D01*
X60415489Y-70038632D02*
X60415489Y-71415489D01*
%TO.N,Net-(U2-Pad12)*%
X62664511Y-66615489D02*
X62664511Y-71664511D01*
X62664511Y-71664511D02*
X63640000Y-72640000D01*
X63140000Y-66140000D02*
X62664511Y-66615489D01*
%TO.N,Net-(U2-Pad14)*%
X43640000Y-60890000D02*
X45640000Y-62890000D01*
X53609702Y-69445489D02*
X56925789Y-69445489D01*
X43640000Y-60640000D02*
X43640000Y-60890000D01*
X57875489Y-72875489D02*
X59640000Y-74640000D01*
X56925789Y-69445489D02*
X57875489Y-70395189D01*
X45640000Y-62890000D02*
X47054213Y-62890000D01*
X59640000Y-74640000D02*
X63140000Y-74640000D01*
X57875489Y-70395189D02*
X57875489Y-72875489D01*
X47054213Y-62890000D02*
X53609702Y-69445489D01*
%TD*%
%TA.AperFunction,Conductor*%
%TO.N,+5V*%
G36*
X51576121Y-77956002D02*
G01*
X51622614Y-78009658D01*
X51634000Y-78062000D01*
X51634000Y-79457967D01*
X51637973Y-79471498D01*
X51646522Y-79472727D01*
X51823761Y-79425236D01*
X51834053Y-79421490D01*
X52031511Y-79329414D01*
X52041007Y-79323931D01*
X52219467Y-79198972D01*
X52227875Y-79191916D01*
X52381916Y-79037875D01*
X52388972Y-79029467D01*
X52513931Y-78851007D01*
X52519414Y-78841511D01*
X52535529Y-78806951D01*
X52582446Y-78753666D01*
X52650723Y-78734205D01*
X52718683Y-78754747D01*
X52763919Y-78806951D01*
X52780151Y-78841762D01*
X52780154Y-78841767D01*
X52782477Y-78846749D01*
X52785634Y-78851257D01*
X52901412Y-79016605D01*
X52913802Y-79034300D01*
X53075700Y-79196198D01*
X53080208Y-79199355D01*
X53080211Y-79199357D01*
X53121542Y-79228297D01*
X53263251Y-79327523D01*
X53268233Y-79329846D01*
X53268238Y-79329849D01*
X53408939Y-79395458D01*
X53470757Y-79424284D01*
X53476065Y-79425706D01*
X53476067Y-79425707D01*
X53686598Y-79482119D01*
X53686600Y-79482119D01*
X53691913Y-79483543D01*
X53920000Y-79503498D01*
X54148087Y-79483543D01*
X54153400Y-79482119D01*
X54153402Y-79482119D01*
X54363933Y-79425707D01*
X54363935Y-79425706D01*
X54369243Y-79424284D01*
X54431061Y-79395458D01*
X54571762Y-79329849D01*
X54571767Y-79329846D01*
X54576749Y-79327523D01*
X54718458Y-79228297D01*
X54759789Y-79199357D01*
X54759792Y-79199355D01*
X54764300Y-79196198D01*
X54926198Y-79034300D01*
X54938589Y-79016605D01*
X55054366Y-78851257D01*
X55057523Y-78846749D01*
X55059846Y-78841767D01*
X55059849Y-78841762D01*
X55075805Y-78807543D01*
X55122722Y-78754258D01*
X55190999Y-78734797D01*
X55258959Y-78755339D01*
X55304195Y-78807543D01*
X55320151Y-78841762D01*
X55320154Y-78841767D01*
X55322477Y-78846749D01*
X55325634Y-78851257D01*
X55441412Y-79016605D01*
X55453802Y-79034300D01*
X55615700Y-79196198D01*
X55620208Y-79199355D01*
X55620211Y-79199357D01*
X55661542Y-79228297D01*
X55803251Y-79327523D01*
X55808233Y-79329846D01*
X55808238Y-79329849D01*
X55948939Y-79395458D01*
X56010757Y-79424284D01*
X56016065Y-79425706D01*
X56016067Y-79425707D01*
X56226598Y-79482119D01*
X56226600Y-79482119D01*
X56231913Y-79483543D01*
X56460000Y-79503498D01*
X56688087Y-79483543D01*
X56693400Y-79482119D01*
X56693402Y-79482119D01*
X56903933Y-79425707D01*
X56903935Y-79425706D01*
X56909243Y-79424284D01*
X56971061Y-79395458D01*
X57111762Y-79329849D01*
X57111767Y-79329846D01*
X57116749Y-79327523D01*
X57258458Y-79228297D01*
X57299789Y-79199357D01*
X57299792Y-79199355D01*
X57304300Y-79196198D01*
X57323052Y-79177446D01*
X57385364Y-79143420D01*
X57456179Y-79148485D01*
X57501242Y-79177446D01*
X58180251Y-79856456D01*
X58856048Y-80532253D01*
X58863588Y-80540539D01*
X58867700Y-80547018D01*
X58873477Y-80552443D01*
X58917351Y-80593643D01*
X58920193Y-80596398D01*
X58939930Y-80616135D01*
X58943127Y-80618615D01*
X58952147Y-80626318D01*
X58984379Y-80656586D01*
X58991325Y-80660405D01*
X58991328Y-80660407D01*
X59002134Y-80666348D01*
X59018653Y-80677199D01*
X59034659Y-80689614D01*
X59041928Y-80692759D01*
X59041932Y-80692762D01*
X59075237Y-80707174D01*
X59085887Y-80712391D01*
X59124640Y-80733695D01*
X59132315Y-80735666D01*
X59132316Y-80735666D01*
X59144262Y-80738733D01*
X59162967Y-80745137D01*
X59181555Y-80753181D01*
X59189378Y-80754420D01*
X59189388Y-80754423D01*
X59225224Y-80760099D01*
X59236844Y-80762505D01*
X59268659Y-80770673D01*
X59279670Y-80773500D01*
X59299924Y-80773500D01*
X59319634Y-80775051D01*
X59339643Y-80778220D01*
X59347535Y-80777474D01*
X59366280Y-80775702D01*
X59383662Y-80774059D01*
X59395519Y-80773500D01*
X73061233Y-80773500D01*
X73072416Y-80774027D01*
X73079909Y-80775702D01*
X73087835Y-80775453D01*
X73087836Y-80775453D01*
X73147986Y-80773562D01*
X73151945Y-80773500D01*
X73179856Y-80773500D01*
X73183791Y-80773003D01*
X73183856Y-80772995D01*
X73195693Y-80772062D01*
X73227951Y-80771048D01*
X73231970Y-80770922D01*
X73239889Y-80770673D01*
X73259343Y-80765021D01*
X73278700Y-80761013D01*
X73290930Y-80759468D01*
X73290931Y-80759468D01*
X73298797Y-80758474D01*
X73306168Y-80755555D01*
X73306170Y-80755555D01*
X73339912Y-80742196D01*
X73351142Y-80738351D01*
X73385983Y-80728229D01*
X73385984Y-80728229D01*
X73393593Y-80726018D01*
X73400412Y-80721985D01*
X73400417Y-80721983D01*
X73411028Y-80715707D01*
X73428776Y-80707012D01*
X73447617Y-80699552D01*
X73483387Y-80673564D01*
X73493307Y-80667048D01*
X73524535Y-80648580D01*
X73524538Y-80648578D01*
X73531362Y-80644542D01*
X73545683Y-80630221D01*
X73560717Y-80617380D01*
X73566536Y-80613152D01*
X73577107Y-80605472D01*
X73605298Y-80571395D01*
X73613288Y-80562616D01*
X74416905Y-79758999D01*
X74479217Y-79724973D01*
X74550032Y-79730038D01*
X74606868Y-79772585D01*
X74631679Y-79839105D01*
X74632000Y-79848094D01*
X74632000Y-86506000D01*
X74611998Y-86574121D01*
X74558342Y-86620614D01*
X74506000Y-86632000D01*
X45708049Y-86632000D01*
X45639928Y-86611998D01*
X45593435Y-86558342D01*
X45583331Y-86488068D01*
X45612825Y-86423488D01*
X45633988Y-86404064D01*
X45745909Y-86322749D01*
X45745911Y-86322747D01*
X45751253Y-86318866D01*
X45755675Y-86313955D01*
X45874621Y-86181852D01*
X45874622Y-86181851D01*
X45879040Y-86176944D01*
X45974527Y-86011556D01*
X46033542Y-85829928D01*
X46050907Y-85664706D01*
X46077920Y-85599050D01*
X46087122Y-85588782D01*
X46741017Y-84934888D01*
X60826502Y-84934888D01*
X60846457Y-85162975D01*
X60847881Y-85168288D01*
X60847881Y-85168290D01*
X60876402Y-85274729D01*
X60905716Y-85384131D01*
X60908039Y-85389112D01*
X60908039Y-85389113D01*
X61000151Y-85586650D01*
X61000154Y-85586655D01*
X61002477Y-85591637D01*
X61061859Y-85676443D01*
X61101464Y-85733004D01*
X61133802Y-85779188D01*
X61295700Y-85941086D01*
X61300208Y-85944243D01*
X61300211Y-85944245D01*
X61378389Y-85998986D01*
X61483251Y-86072411D01*
X61488233Y-86074734D01*
X61488238Y-86074737D01*
X61685775Y-86166849D01*
X61690757Y-86169172D01*
X61696065Y-86170594D01*
X61696067Y-86170595D01*
X61906598Y-86227007D01*
X61906600Y-86227007D01*
X61911913Y-86228431D01*
X62140000Y-86248386D01*
X62368087Y-86228431D01*
X62373400Y-86227007D01*
X62373402Y-86227007D01*
X62583933Y-86170595D01*
X62583935Y-86170594D01*
X62589243Y-86169172D01*
X62594225Y-86166849D01*
X62791762Y-86074737D01*
X62791767Y-86074734D01*
X62796749Y-86072411D01*
X62901611Y-85998986D01*
X62979789Y-85944245D01*
X62979792Y-85944243D01*
X62984300Y-85941086D01*
X63146198Y-85779188D01*
X63178537Y-85733004D01*
X63218141Y-85676443D01*
X63277523Y-85591637D01*
X63279846Y-85586655D01*
X63279849Y-85586650D01*
X63371961Y-85389113D01*
X63371961Y-85389112D01*
X63374284Y-85384131D01*
X63403599Y-85274729D01*
X63432119Y-85168290D01*
X63432119Y-85168288D01*
X63433543Y-85162975D01*
X63453498Y-84934888D01*
X63433543Y-84706801D01*
X63432119Y-84701486D01*
X63375707Y-84490955D01*
X63375706Y-84490953D01*
X63374284Y-84485645D01*
X63315616Y-84359830D01*
X63279849Y-84283126D01*
X63279846Y-84283121D01*
X63277523Y-84278139D01*
X63146198Y-84090588D01*
X63000498Y-83944888D01*
X62966472Y-83882576D01*
X62971537Y-83811761D01*
X63000776Y-83772703D01*
X69530743Y-83772703D01*
X69568268Y-84057734D01*
X69644129Y-84335036D01*
X69645813Y-84338984D01*
X69710635Y-84490955D01*
X69756923Y-84599476D01*
X69904561Y-84846161D01*
X70084313Y-85070528D01*
X70124616Y-85108774D01*
X70270880Y-85247573D01*
X70292851Y-85268423D01*
X70526317Y-85436186D01*
X70530112Y-85438195D01*
X70530113Y-85438196D01*
X70551869Y-85449715D01*
X70780392Y-85570712D01*
X70849891Y-85596145D01*
X71006930Y-85653613D01*
X71050373Y-85669511D01*
X71331264Y-85730755D01*
X71359841Y-85733004D01*
X71554282Y-85748307D01*
X71554291Y-85748307D01*
X71556739Y-85748500D01*
X71712271Y-85748500D01*
X71714407Y-85748354D01*
X71714418Y-85748354D01*
X71922548Y-85734165D01*
X71922554Y-85734164D01*
X71926825Y-85733873D01*
X71931020Y-85733004D01*
X71931022Y-85733004D01*
X72067584Y-85704723D01*
X72208342Y-85675574D01*
X72479343Y-85579607D01*
X72734812Y-85447750D01*
X72738313Y-85445289D01*
X72738317Y-85445287D01*
X72852417Y-85365096D01*
X72970023Y-85282441D01*
X73180622Y-85086740D01*
X73362713Y-84864268D01*
X73512927Y-84619142D01*
X73628483Y-84355898D01*
X73707244Y-84079406D01*
X73745335Y-83811761D01*
X73747146Y-83799036D01*
X73747146Y-83799034D01*
X73747751Y-83794784D01*
X73747845Y-83776951D01*
X73749235Y-83511583D01*
X73749235Y-83511576D01*
X73749257Y-83507297D01*
X73748349Y-83500396D01*
X73720178Y-83286419D01*
X73711732Y-83222266D01*
X73705580Y-83199776D01*
X73675916Y-83091346D01*
X73635871Y-82944964D01*
X73584875Y-82825406D01*
X73524763Y-82684476D01*
X73524761Y-82684472D01*
X73523077Y-82680524D01*
X73390949Y-82459754D01*
X73377643Y-82437521D01*
X73377640Y-82437517D01*
X73375439Y-82433839D01*
X73195687Y-82209472D01*
X73052086Y-82073200D01*
X72990258Y-82014527D01*
X72990255Y-82014525D01*
X72987149Y-82011577D01*
X72753683Y-81843814D01*
X72731843Y-81832250D01*
X72659899Y-81794158D01*
X72499608Y-81709288D01*
X72364618Y-81659889D01*
X72233658Y-81611964D01*
X72233656Y-81611963D01*
X72229627Y-81610489D01*
X71948736Y-81549245D01*
X71917685Y-81546801D01*
X71725718Y-81531693D01*
X71725709Y-81531693D01*
X71723261Y-81531500D01*
X71567729Y-81531500D01*
X71565593Y-81531646D01*
X71565582Y-81531646D01*
X71357452Y-81545835D01*
X71357446Y-81545836D01*
X71353175Y-81546127D01*
X71348980Y-81546996D01*
X71348978Y-81546996D01*
X71212416Y-81575277D01*
X71071658Y-81604426D01*
X70800657Y-81700393D01*
X70545188Y-81832250D01*
X70541687Y-81834711D01*
X70541683Y-81834713D01*
X70427583Y-81914904D01*
X70309977Y-81997559D01*
X70277000Y-82028203D01*
X70133087Y-82161936D01*
X70099378Y-82193260D01*
X69917287Y-82415732D01*
X69767073Y-82660858D01*
X69765347Y-82664791D01*
X69765346Y-82664792D01*
X69694225Y-82826810D01*
X69651517Y-82924102D01*
X69572756Y-83200594D01*
X69552424Y-83343458D01*
X69537548Y-83447986D01*
X69532249Y-83485216D01*
X69532227Y-83489505D01*
X69532226Y-83489512D01*
X69530836Y-83754925D01*
X69530743Y-83772703D01*
X63000776Y-83772703D01*
X63014084Y-83754925D01*
X63050737Y-83737756D01*
X63050316Y-83736633D01*
X63178297Y-83688655D01*
X63186705Y-83685503D01*
X63303261Y-83598149D01*
X63390615Y-83481593D01*
X63441745Y-83345204D01*
X63448500Y-83283022D01*
X63448500Y-81586754D01*
X63441745Y-81524572D01*
X63390615Y-81388183D01*
X63303261Y-81271627D01*
X63186705Y-81184273D01*
X63050316Y-81133143D01*
X62988134Y-81126388D01*
X61291866Y-81126388D01*
X61229684Y-81133143D01*
X61093295Y-81184273D01*
X60976739Y-81271627D01*
X60889385Y-81388183D01*
X60838255Y-81524572D01*
X60831500Y-81586754D01*
X60831500Y-83283022D01*
X60838255Y-83345204D01*
X60889385Y-83481593D01*
X60976739Y-83598149D01*
X61093295Y-83685503D01*
X61101703Y-83688655D01*
X61229684Y-83736633D01*
X61228954Y-83738579D01*
X61281205Y-83768433D01*
X61314021Y-83831391D01*
X61307591Y-83902095D01*
X61279502Y-83944888D01*
X61133802Y-84090588D01*
X61002477Y-84278139D01*
X61000154Y-84283121D01*
X61000151Y-84283126D01*
X60964384Y-84359830D01*
X60905716Y-84485645D01*
X60904294Y-84490953D01*
X60904293Y-84490955D01*
X60847881Y-84701486D01*
X60846457Y-84706801D01*
X60826502Y-84934888D01*
X46741017Y-84934888D01*
X47053106Y-84622799D01*
X48032253Y-83643652D01*
X48040539Y-83636112D01*
X48047018Y-83632000D01*
X48093644Y-83582348D01*
X48096398Y-83579507D01*
X48116135Y-83559770D01*
X48118615Y-83556573D01*
X48126320Y-83547551D01*
X48151159Y-83521100D01*
X48156586Y-83515321D01*
X48160405Y-83508375D01*
X48160407Y-83508372D01*
X48166348Y-83497566D01*
X48177199Y-83481047D01*
X48184758Y-83471301D01*
X48189614Y-83465041D01*
X48192759Y-83457772D01*
X48192762Y-83457768D01*
X48207174Y-83424463D01*
X48212391Y-83413813D01*
X48233695Y-83375060D01*
X48238733Y-83355437D01*
X48245137Y-83336734D01*
X48250033Y-83325420D01*
X48250033Y-83325419D01*
X48253181Y-83318145D01*
X48254420Y-83310322D01*
X48254423Y-83310312D01*
X48260099Y-83274476D01*
X48262505Y-83262856D01*
X48271528Y-83227711D01*
X48271528Y-83227710D01*
X48273500Y-83220030D01*
X48273500Y-83199776D01*
X48275051Y-83180065D01*
X48276980Y-83167886D01*
X48278220Y-83160057D01*
X48274059Y-83116038D01*
X48273500Y-83104181D01*
X48273500Y-81842524D01*
X48293502Y-81774403D01*
X48305858Y-81758221D01*
X48379040Y-81676944D01*
X48474527Y-81511556D01*
X48533542Y-81329928D01*
X48553504Y-81140000D01*
X48538875Y-81000813D01*
X48534232Y-80956635D01*
X48534232Y-80956633D01*
X48533542Y-80950072D01*
X48474527Y-80768444D01*
X48470955Y-80762256D01*
X48424533Y-80681852D01*
X48379040Y-80603056D01*
X48351463Y-80572428D01*
X48255675Y-80466045D01*
X48255674Y-80466044D01*
X48251253Y-80461134D01*
X48096752Y-80348882D01*
X48090724Y-80346198D01*
X48090722Y-80346197D01*
X47928319Y-80273891D01*
X47928318Y-80273891D01*
X47922288Y-80271206D01*
X47828887Y-80251353D01*
X47741944Y-80232872D01*
X47741939Y-80232872D01*
X47735487Y-80231500D01*
X47544513Y-80231500D01*
X47538061Y-80232872D01*
X47538056Y-80232872D01*
X47451113Y-80251353D01*
X47357712Y-80271206D01*
X47351682Y-80273891D01*
X47351681Y-80273891D01*
X47189278Y-80346197D01*
X47189276Y-80346198D01*
X47183248Y-80348882D01*
X47028747Y-80461134D01*
X47024326Y-80466044D01*
X47024325Y-80466045D01*
X46928538Y-80572428D01*
X46900960Y-80603056D01*
X46855467Y-80681852D01*
X46809046Y-80762256D01*
X46805473Y-80768444D01*
X46746458Y-80950072D01*
X46745768Y-80956633D01*
X46745768Y-80956635D01*
X46741125Y-81000813D01*
X46726496Y-81140000D01*
X46746458Y-81329928D01*
X46805473Y-81511556D01*
X46900960Y-81676944D01*
X46974137Y-81758215D01*
X47004853Y-81822221D01*
X47006500Y-81842524D01*
X47006500Y-82825406D01*
X46986498Y-82893527D01*
X46969595Y-82914501D01*
X45189500Y-84694595D01*
X45127188Y-84728621D01*
X45100405Y-84731500D01*
X45044513Y-84731500D01*
X45038061Y-84732872D01*
X45038056Y-84732872D01*
X44951112Y-84751353D01*
X44857712Y-84771206D01*
X44851682Y-84773891D01*
X44851681Y-84773891D01*
X44689278Y-84846197D01*
X44689276Y-84846198D01*
X44683248Y-84848882D01*
X44528747Y-84961134D01*
X44400960Y-85103056D01*
X44305473Y-85268444D01*
X44246458Y-85450072D01*
X44226496Y-85640000D01*
X44227186Y-85646565D01*
X44241535Y-85783085D01*
X44246458Y-85829928D01*
X44305473Y-86011556D01*
X44400960Y-86176944D01*
X44405378Y-86181851D01*
X44405379Y-86181852D01*
X44524325Y-86313955D01*
X44528747Y-86318866D01*
X44534089Y-86322747D01*
X44534091Y-86322749D01*
X44646012Y-86404064D01*
X44689366Y-86460286D01*
X44695441Y-86531022D01*
X44662310Y-86593814D01*
X44600490Y-86628726D01*
X44571951Y-86632000D01*
X30774000Y-86632000D01*
X30705879Y-86611998D01*
X30659386Y-86558342D01*
X30648000Y-86506000D01*
X30648000Y-78986925D01*
X30668002Y-78918804D01*
X30721658Y-78872311D01*
X30791932Y-78862207D01*
X30856512Y-78891701D01*
X30890743Y-78939521D01*
X30923266Y-79019616D01*
X31039987Y-79210088D01*
X31186250Y-79378938D01*
X31313032Y-79484194D01*
X31335707Y-79503019D01*
X31358126Y-79521632D01*
X31551000Y-79634338D01*
X31759692Y-79714030D01*
X31764760Y-79715061D01*
X31764763Y-79715062D01*
X31837208Y-79729801D01*
X31978597Y-79758567D01*
X31983772Y-79758757D01*
X31983774Y-79758757D01*
X32196673Y-79766564D01*
X32196677Y-79766564D01*
X32201837Y-79766753D01*
X32206957Y-79766097D01*
X32206959Y-79766097D01*
X32418288Y-79739025D01*
X32418289Y-79739025D01*
X32423416Y-79738368D01*
X32428366Y-79736883D01*
X32632429Y-79675661D01*
X32632434Y-79675659D01*
X32637384Y-79674174D01*
X32837994Y-79575896D01*
X33019860Y-79446173D01*
X33025438Y-79440615D01*
X33168564Y-79297988D01*
X33178096Y-79288489D01*
X33186146Y-79277287D01*
X33305435Y-79111277D01*
X33308453Y-79107077D01*
X33311795Y-79100316D01*
X33329426Y-79064641D01*
X33377539Y-79012434D01*
X33446240Y-78994527D01*
X33513717Y-79016605D01*
X33531478Y-79031373D01*
X34594106Y-80094001D01*
X34628132Y-80156313D01*
X34631011Y-80183096D01*
X34631011Y-80457814D01*
X34611009Y-80525935D01*
X34557353Y-80572428D01*
X34487079Y-80582532D01*
X34472407Y-80579523D01*
X34368087Y-80551570D01*
X34140000Y-80531615D01*
X33911913Y-80551570D01*
X33906600Y-80552994D01*
X33906598Y-80552994D01*
X33696067Y-80609406D01*
X33696065Y-80609407D01*
X33690757Y-80610829D01*
X33685776Y-80613152D01*
X33685775Y-80613152D01*
X33488238Y-80705264D01*
X33488233Y-80705267D01*
X33483251Y-80707590D01*
X33388324Y-80774059D01*
X33300211Y-80835756D01*
X33300208Y-80835758D01*
X33295700Y-80838915D01*
X33133802Y-81000813D01*
X33130645Y-81005321D01*
X33130643Y-81005324D01*
X33127253Y-81010166D01*
X33002477Y-81188364D01*
X33000154Y-81193346D01*
X33000151Y-81193351D01*
X32912651Y-81380997D01*
X32905716Y-81395870D01*
X32904294Y-81401178D01*
X32904293Y-81401180D01*
X32847881Y-81611711D01*
X32846457Y-81617026D01*
X32826502Y-81845113D01*
X32846457Y-82073200D01*
X32847881Y-82078513D01*
X32847881Y-82078515D01*
X32902176Y-82281143D01*
X32905716Y-82294356D01*
X32908039Y-82299337D01*
X32908039Y-82299338D01*
X33000151Y-82496875D01*
X33000154Y-82496880D01*
X33002477Y-82501862D01*
X33005634Y-82506370D01*
X33113808Y-82660858D01*
X33133802Y-82689413D01*
X33279502Y-82835113D01*
X33313528Y-82897425D01*
X33308463Y-82968240D01*
X33265916Y-83025076D01*
X33229263Y-83042245D01*
X33229684Y-83043368D01*
X33093295Y-83094498D01*
X32976739Y-83181852D01*
X32889385Y-83298408D01*
X32838255Y-83434797D01*
X32831500Y-83496979D01*
X32831500Y-85193247D01*
X32838255Y-85255429D01*
X32889385Y-85391818D01*
X32976739Y-85508374D01*
X33093295Y-85595728D01*
X33229684Y-85646858D01*
X33291866Y-85653613D01*
X34988134Y-85653613D01*
X35050316Y-85646858D01*
X35186705Y-85595728D01*
X35303261Y-85508374D01*
X35390615Y-85391818D01*
X35441745Y-85255429D01*
X35448500Y-85193247D01*
X35448500Y-83984707D01*
X35468502Y-83916586D01*
X35485405Y-83895612D01*
X35656758Y-83724259D01*
X35665048Y-83716715D01*
X35671529Y-83712602D01*
X35718170Y-83662934D01*
X35720924Y-83660093D01*
X35740646Y-83640371D01*
X35743130Y-83637169D01*
X35750828Y-83628157D01*
X35775672Y-83601700D01*
X35781097Y-83595923D01*
X35790858Y-83578168D01*
X35801709Y-83561649D01*
X35814125Y-83545643D01*
X35831685Y-83505065D01*
X35836902Y-83494415D01*
X35858206Y-83455662D01*
X35863244Y-83436039D01*
X35869648Y-83417336D01*
X35874544Y-83406022D01*
X35874544Y-83406021D01*
X35877692Y-83398747D01*
X35878931Y-83390924D01*
X35878934Y-83390914D01*
X35884610Y-83355078D01*
X35887016Y-83343458D01*
X35896039Y-83308313D01*
X35896039Y-83308312D01*
X35898011Y-83300632D01*
X35898011Y-83280378D01*
X35899562Y-83260667D01*
X35901491Y-83248488D01*
X35902731Y-83240659D01*
X35898570Y-83196640D01*
X35898011Y-83184783D01*
X35898011Y-79947268D01*
X35898538Y-79936085D01*
X35900213Y-79928592D01*
X35898947Y-79888302D01*
X35898073Y-79860515D01*
X35898011Y-79856556D01*
X35898011Y-79828645D01*
X35897506Y-79824645D01*
X35896573Y-79812802D01*
X35895433Y-79776531D01*
X35895184Y-79768612D01*
X35889532Y-79749158D01*
X35885524Y-79729801D01*
X35883979Y-79717571D01*
X35883979Y-79717570D01*
X35882985Y-79709704D01*
X35869506Y-79675661D01*
X35867615Y-79670884D01*
X35861136Y-79600184D01*
X35893908Y-79537204D01*
X35955528Y-79501940D01*
X35984767Y-79498500D01*
X36988134Y-79498500D01*
X37050316Y-79491745D01*
X37186705Y-79440615D01*
X37303261Y-79353261D01*
X37390615Y-79236705D01*
X37441745Y-79100316D01*
X37442917Y-79089526D01*
X37443803Y-79087394D01*
X37444425Y-79084778D01*
X37444848Y-79084879D01*
X37470155Y-79023965D01*
X37528517Y-78983537D01*
X37599471Y-78981078D01*
X37660490Y-79017371D01*
X37667489Y-79026031D01*
X37670643Y-79029789D01*
X37673802Y-79034300D01*
X37835700Y-79196198D01*
X37840208Y-79199355D01*
X37840211Y-79199357D01*
X37881542Y-79228297D01*
X38023251Y-79327523D01*
X38028233Y-79329846D01*
X38028238Y-79329849D01*
X38168939Y-79395458D01*
X38230757Y-79424284D01*
X38236065Y-79425706D01*
X38236067Y-79425707D01*
X38446598Y-79482119D01*
X38446600Y-79482119D01*
X38451913Y-79483543D01*
X38680000Y-79503498D01*
X38908087Y-79483543D01*
X39012401Y-79455592D01*
X39083376Y-79457282D01*
X39142172Y-79497076D01*
X39170120Y-79562340D01*
X39171011Y-79577299D01*
X39171011Y-81641508D01*
X39151009Y-81709629D01*
X39134110Y-81730599D01*
X38189498Y-82675210D01*
X38127188Y-82709234D01*
X38100405Y-82712113D01*
X38044513Y-82712113D01*
X38038061Y-82713485D01*
X38038056Y-82713485D01*
X37951112Y-82731966D01*
X37857712Y-82751819D01*
X37851682Y-82754504D01*
X37851681Y-82754504D01*
X37689278Y-82826810D01*
X37689276Y-82826811D01*
X37683248Y-82829495D01*
X37677907Y-82833375D01*
X37677906Y-82833376D01*
X37653221Y-82851311D01*
X37528747Y-82941747D01*
X37524326Y-82946657D01*
X37524325Y-82946658D01*
X37504893Y-82968240D01*
X37400960Y-83083669D01*
X37385686Y-83110125D01*
X37310322Y-83240659D01*
X37305473Y-83249057D01*
X37246458Y-83430685D01*
X37245768Y-83437246D01*
X37245768Y-83437248D01*
X37234175Y-83547551D01*
X37226496Y-83620613D01*
X37227186Y-83627178D01*
X37242928Y-83776951D01*
X37246458Y-83810541D01*
X37305473Y-83992169D01*
X37400960Y-84157557D01*
X37528747Y-84299479D01*
X37683248Y-84411731D01*
X37689276Y-84414415D01*
X37689278Y-84414416D01*
X37849262Y-84485645D01*
X37857712Y-84489407D01*
X37951112Y-84509260D01*
X38038056Y-84527741D01*
X38038061Y-84527741D01*
X38044513Y-84529113D01*
X38235487Y-84529113D01*
X38241939Y-84527741D01*
X38241944Y-84527741D01*
X38328888Y-84509260D01*
X38422288Y-84489407D01*
X38430738Y-84485645D01*
X38590722Y-84414416D01*
X38590724Y-84414415D01*
X38596752Y-84411731D01*
X38751253Y-84299479D01*
X38879040Y-84157557D01*
X38974527Y-83992169D01*
X39033542Y-83810541D01*
X39037073Y-83776951D01*
X39044443Y-83706825D01*
X39050907Y-83645319D01*
X39077920Y-83579663D01*
X39087122Y-83569395D01*
X39631442Y-83025076D01*
X40196764Y-82459754D01*
X40205050Y-82452214D01*
X40211529Y-82448102D01*
X40258155Y-82398450D01*
X40260909Y-82395609D01*
X40280646Y-82375872D01*
X40283126Y-82372675D01*
X40290831Y-82363653D01*
X40315670Y-82337202D01*
X40321097Y-82331423D01*
X40324916Y-82324477D01*
X40324918Y-82324474D01*
X40330859Y-82313668D01*
X40341710Y-82297149D01*
X40349269Y-82287403D01*
X40354125Y-82281143D01*
X40357270Y-82273874D01*
X40357273Y-82273870D01*
X40371685Y-82240565D01*
X40376902Y-82229915D01*
X40398206Y-82191162D01*
X40403244Y-82171539D01*
X40409648Y-82152836D01*
X40414544Y-82141522D01*
X40414544Y-82141521D01*
X40417692Y-82134247D01*
X40418931Y-82126424D01*
X40418934Y-82126414D01*
X40424610Y-82090578D01*
X40427016Y-82078958D01*
X40436039Y-82043813D01*
X40436039Y-82043812D01*
X40438011Y-82036132D01*
X40438011Y-82015878D01*
X40439562Y-81996167D01*
X40441491Y-81983988D01*
X40442731Y-81976159D01*
X40438570Y-81932140D01*
X40438011Y-81920283D01*
X40438011Y-79466903D01*
X40458013Y-79398782D01*
X40511669Y-79352289D01*
X40581943Y-79342185D01*
X40617260Y-79352708D01*
X40770757Y-79424284D01*
X40776065Y-79425706D01*
X40776067Y-79425707D01*
X40986598Y-79482119D01*
X40986600Y-79482119D01*
X40991913Y-79483543D01*
X41220000Y-79503498D01*
X41448087Y-79483543D01*
X41552401Y-79455592D01*
X41623376Y-79457282D01*
X41682172Y-79497076D01*
X41710120Y-79562340D01*
X41711011Y-79577299D01*
X41711011Y-79765744D01*
X41710484Y-79776927D01*
X41708809Y-79784420D01*
X41709058Y-79792346D01*
X41709058Y-79792347D01*
X41710949Y-79852497D01*
X41711011Y-79856456D01*
X41711011Y-79884367D01*
X41711508Y-79888301D01*
X41711508Y-79888302D01*
X41711516Y-79888367D01*
X41712449Y-79900204D01*
X41713838Y-79944400D01*
X41717393Y-79956635D01*
X41719489Y-79963850D01*
X41723498Y-79983211D01*
X41726037Y-80003308D01*
X41728955Y-80010679D01*
X41730927Y-80018357D01*
X41728396Y-80019007D01*
X41734518Y-80063677D01*
X41726496Y-80140000D01*
X41727186Y-80146565D01*
X41731026Y-80183096D01*
X41746458Y-80329928D01*
X41805473Y-80511556D01*
X41900960Y-80676944D01*
X41905378Y-80681851D01*
X41905379Y-80681852D01*
X41992149Y-80778220D01*
X42028747Y-80818866D01*
X42183248Y-80931118D01*
X42189276Y-80933802D01*
X42189278Y-80933803D01*
X42240560Y-80956635D01*
X42357712Y-81008794D01*
X42451112Y-81028647D01*
X42538056Y-81047128D01*
X42538061Y-81047128D01*
X42544513Y-81048500D01*
X42735487Y-81048500D01*
X42741939Y-81047128D01*
X42741944Y-81047128D01*
X42828888Y-81028647D01*
X42922288Y-81008794D01*
X43039440Y-80956635D01*
X43090722Y-80933803D01*
X43090724Y-80933802D01*
X43096752Y-80931118D01*
X43251253Y-80818866D01*
X43287851Y-80778220D01*
X43374621Y-80681852D01*
X43374622Y-80681851D01*
X43379040Y-80676944D01*
X43474527Y-80511556D01*
X43533542Y-80329928D01*
X43548975Y-80183096D01*
X43552814Y-80146565D01*
X43553504Y-80140000D01*
X43533542Y-79950072D01*
X43474527Y-79768444D01*
X43468934Y-79758757D01*
X43419258Y-79672715D01*
X43402520Y-79603720D01*
X43425741Y-79536628D01*
X43481548Y-79492741D01*
X43539357Y-79484194D01*
X43760000Y-79503498D01*
X43988087Y-79483543D01*
X43993400Y-79482119D01*
X43993402Y-79482119D01*
X44203933Y-79425707D01*
X44203935Y-79425706D01*
X44209243Y-79424284D01*
X44271061Y-79395458D01*
X44411762Y-79329849D01*
X44411767Y-79329846D01*
X44416749Y-79327523D01*
X44558458Y-79228297D01*
X44599789Y-79199357D01*
X44599792Y-79199355D01*
X44604300Y-79196198D01*
X44766198Y-79034300D01*
X44778589Y-79016605D01*
X44894366Y-78851257D01*
X44897523Y-78846749D01*
X44899846Y-78841767D01*
X44899849Y-78841762D01*
X44915805Y-78807543D01*
X44962722Y-78754258D01*
X45030999Y-78734797D01*
X45098959Y-78755339D01*
X45144195Y-78807543D01*
X45160151Y-78841762D01*
X45160154Y-78841767D01*
X45162477Y-78846749D01*
X45165634Y-78851257D01*
X45281412Y-79016605D01*
X45293802Y-79034300D01*
X45455700Y-79196198D01*
X45460208Y-79199355D01*
X45460211Y-79199357D01*
X45501542Y-79228297D01*
X45643251Y-79327523D01*
X45648233Y-79329846D01*
X45648238Y-79329849D01*
X45788939Y-79395458D01*
X45850757Y-79424284D01*
X45856065Y-79425706D01*
X45856067Y-79425707D01*
X46066598Y-79482119D01*
X46066600Y-79482119D01*
X46071913Y-79483543D01*
X46300000Y-79503498D01*
X46528087Y-79483543D01*
X46533400Y-79482119D01*
X46533402Y-79482119D01*
X46743933Y-79425707D01*
X46743935Y-79425706D01*
X46749243Y-79424284D01*
X46811061Y-79395458D01*
X46951762Y-79329849D01*
X46951767Y-79329846D01*
X46956749Y-79327523D01*
X47098458Y-79228297D01*
X47139789Y-79199357D01*
X47139792Y-79199355D01*
X47144300Y-79196198D01*
X47306198Y-79034300D01*
X47318589Y-79016605D01*
X47434366Y-78851257D01*
X47437523Y-78846749D01*
X47439846Y-78841767D01*
X47439849Y-78841762D01*
X47455805Y-78807543D01*
X47502722Y-78754258D01*
X47570999Y-78734797D01*
X47638959Y-78755339D01*
X47684195Y-78807543D01*
X47700151Y-78841762D01*
X47700154Y-78841767D01*
X47702477Y-78846749D01*
X47705634Y-78851257D01*
X47821412Y-79016605D01*
X47833802Y-79034300D01*
X47995700Y-79196198D01*
X48000208Y-79199355D01*
X48000211Y-79199357D01*
X48041542Y-79228297D01*
X48183251Y-79327523D01*
X48188233Y-79329846D01*
X48188238Y-79329849D01*
X48328939Y-79395458D01*
X48390757Y-79424284D01*
X48396065Y-79425706D01*
X48396067Y-79425707D01*
X48606598Y-79482119D01*
X48606600Y-79482119D01*
X48611913Y-79483543D01*
X48840000Y-79503498D01*
X49068087Y-79483543D01*
X49073400Y-79482119D01*
X49073402Y-79482119D01*
X49283933Y-79425707D01*
X49283935Y-79425706D01*
X49289243Y-79424284D01*
X49351061Y-79395458D01*
X49491762Y-79329849D01*
X49491767Y-79329846D01*
X49496749Y-79327523D01*
X49638458Y-79228297D01*
X49679789Y-79199357D01*
X49679792Y-79199355D01*
X49684300Y-79196198D01*
X49846198Y-79034300D01*
X49858589Y-79016605D01*
X49974366Y-78851257D01*
X49977523Y-78846749D01*
X49979846Y-78841767D01*
X49979849Y-78841762D01*
X49996081Y-78806951D01*
X50042998Y-78753666D01*
X50111275Y-78734205D01*
X50179235Y-78754747D01*
X50224471Y-78806951D01*
X50240586Y-78841511D01*
X50246069Y-78851007D01*
X50371028Y-79029467D01*
X50378084Y-79037875D01*
X50532125Y-79191916D01*
X50540533Y-79198972D01*
X50718993Y-79323931D01*
X50728489Y-79329414D01*
X50925947Y-79421490D01*
X50936239Y-79425236D01*
X51108503Y-79471394D01*
X51122599Y-79471058D01*
X51126000Y-79463116D01*
X51126000Y-78062000D01*
X51146002Y-77993879D01*
X51199658Y-77947386D01*
X51252000Y-77936000D01*
X51508000Y-77936000D01*
X51576121Y-77956002D01*
G37*
%TD.AperFunction*%
%TA.AperFunction,Conductor*%
G36*
X68881447Y-67792613D02*
G01*
X68938283Y-67835160D01*
X68944848Y-67844835D01*
X69037287Y-67995683D01*
X69037291Y-67995688D01*
X69039987Y-68000088D01*
X69186250Y-68168938D01*
X69358126Y-68311632D01*
X69551000Y-68424338D01*
X69759692Y-68504030D01*
X69764760Y-68505061D01*
X69764763Y-68505062D01*
X69841956Y-68520767D01*
X69978597Y-68548567D01*
X69983772Y-68548757D01*
X69983774Y-68548757D01*
X70196673Y-68556564D01*
X70196677Y-68556564D01*
X70201837Y-68556753D01*
X70206957Y-68556097D01*
X70206959Y-68556097D01*
X70418288Y-68529025D01*
X70418289Y-68529025D01*
X70423416Y-68528368D01*
X70428366Y-68526883D01*
X70632429Y-68465661D01*
X70632434Y-68465659D01*
X70637384Y-68464174D01*
X70837994Y-68365896D01*
X71019860Y-68236173D01*
X71178096Y-68078489D01*
X71185344Y-68068403D01*
X71308453Y-67897077D01*
X71309776Y-67898028D01*
X71356645Y-67854857D01*
X71426580Y-67842625D01*
X71492026Y-67870144D01*
X71519875Y-67901994D01*
X71579987Y-68000088D01*
X71726250Y-68168938D01*
X71898126Y-68311632D01*
X72091000Y-68424338D01*
X72299692Y-68504030D01*
X72304760Y-68505061D01*
X72304763Y-68505062D01*
X72381956Y-68520767D01*
X72518597Y-68548567D01*
X72523772Y-68548757D01*
X72523774Y-68548757D01*
X72736673Y-68556564D01*
X72736677Y-68556564D01*
X72741837Y-68556753D01*
X72746957Y-68556097D01*
X72746959Y-68556097D01*
X72958288Y-68529025D01*
X72958289Y-68529025D01*
X72963416Y-68528368D01*
X72968366Y-68526883D01*
X73172429Y-68465661D01*
X73172434Y-68465659D01*
X73177384Y-68464174D01*
X73377994Y-68365896D01*
X73559860Y-68236173D01*
X73718096Y-68078489D01*
X73725344Y-68068403D01*
X73778177Y-67994877D01*
X73834172Y-67951229D01*
X73904875Y-67944783D01*
X73967840Y-67977586D01*
X74003074Y-68039222D01*
X74006500Y-68068403D01*
X74006500Y-69407302D01*
X73986498Y-69475423D01*
X73932842Y-69521916D01*
X73862568Y-69532020D01*
X73808232Y-69510517D01*
X73801260Y-69505635D01*
X73801255Y-69505632D01*
X73796749Y-69502477D01*
X73791767Y-69500154D01*
X73791762Y-69500151D01*
X73594225Y-69408039D01*
X73594224Y-69408039D01*
X73589243Y-69405716D01*
X73583935Y-69404294D01*
X73583933Y-69404293D01*
X73373402Y-69347881D01*
X73373400Y-69347881D01*
X73368087Y-69346457D01*
X73140000Y-69326502D01*
X72911913Y-69346457D01*
X72906600Y-69347881D01*
X72906598Y-69347881D01*
X72696067Y-69404293D01*
X72696065Y-69404294D01*
X72690757Y-69405716D01*
X72685776Y-69408039D01*
X72685775Y-69408039D01*
X72488238Y-69500151D01*
X72488233Y-69500154D01*
X72483251Y-69502477D01*
X72400182Y-69560643D01*
X72300211Y-69630643D01*
X72300208Y-69630645D01*
X72295700Y-69633802D01*
X72133802Y-69795700D01*
X72130645Y-69800208D01*
X72130643Y-69800211D01*
X72109835Y-69829928D01*
X72002477Y-69983251D01*
X72000154Y-69988233D01*
X72000151Y-69988238D01*
X71957834Y-70078989D01*
X71905716Y-70190757D01*
X71904294Y-70196065D01*
X71904293Y-70196067D01*
X71863745Y-70347393D01*
X71846457Y-70411913D01*
X71826502Y-70640000D01*
X71846457Y-70868087D01*
X71847881Y-70873400D01*
X71847881Y-70873402D01*
X71885537Y-71013933D01*
X71905716Y-71089243D01*
X71908039Y-71094224D01*
X71908039Y-71094225D01*
X72000151Y-71291762D01*
X72000154Y-71291767D01*
X72002477Y-71296749D01*
X72133802Y-71484300D01*
X72295700Y-71646198D01*
X72300208Y-71649355D01*
X72300211Y-71649357D01*
X72367628Y-71696563D01*
X72483251Y-71777523D01*
X72488233Y-71779846D01*
X72488238Y-71779849D01*
X72668750Y-71864022D01*
X72690757Y-71874284D01*
X72696065Y-71875706D01*
X72696067Y-71875707D01*
X72906598Y-71932119D01*
X72906600Y-71932119D01*
X72911913Y-71933543D01*
X73140000Y-71953498D01*
X73368087Y-71933543D01*
X73373400Y-71932119D01*
X73373402Y-71932119D01*
X73583933Y-71875707D01*
X73583935Y-71875706D01*
X73589243Y-71874284D01*
X73611250Y-71864022D01*
X73791762Y-71779849D01*
X73791767Y-71779846D01*
X73796749Y-71777523D01*
X73801258Y-71774366D01*
X73801260Y-71774365D01*
X73808232Y-71769483D01*
X73875506Y-71746797D01*
X73944366Y-71764083D01*
X73992949Y-71815854D01*
X74006500Y-71872698D01*
X74006500Y-74407913D01*
X73986498Y-74476034D01*
X73932842Y-74522527D01*
X73862568Y-74532631D01*
X73808230Y-74511127D01*
X73801005Y-74506068D01*
X73791511Y-74500586D01*
X73594053Y-74408510D01*
X73583761Y-74404764D01*
X73373312Y-74348375D01*
X73362519Y-74346472D01*
X73145475Y-74327483D01*
X73134525Y-74327483D01*
X72917481Y-74346472D01*
X72906688Y-74348375D01*
X72696239Y-74404764D01*
X72685947Y-74408510D01*
X72488489Y-74500586D01*
X72478994Y-74506069D01*
X72426952Y-74542509D01*
X72418576Y-74552988D01*
X72425644Y-74566434D01*
X73410115Y-75550905D01*
X73444141Y-75613217D01*
X73439076Y-75684032D01*
X73410115Y-75729095D01*
X72424923Y-76714287D01*
X72418493Y-76726062D01*
X72427789Y-76738077D01*
X72478994Y-76773931D01*
X72488489Y-76779414D01*
X72685947Y-76871490D01*
X72696239Y-76875236D01*
X72906688Y-76931625D01*
X72917481Y-76933528D01*
X73134525Y-76952517D01*
X73145475Y-76952517D01*
X73362519Y-76933528D01*
X73373312Y-76931625D01*
X73583761Y-76875236D01*
X73594053Y-76871490D01*
X73791511Y-76779414D01*
X73801005Y-76773932D01*
X73808230Y-76768873D01*
X73875504Y-76746186D01*
X73944365Y-76763472D01*
X73992948Y-76815242D01*
X74006500Y-76872087D01*
X74006500Y-78325405D01*
X73986498Y-78393526D01*
X73969595Y-78414500D01*
X72914500Y-79469595D01*
X72852188Y-79503621D01*
X72825405Y-79506500D01*
X69960764Y-79506500D01*
X69892643Y-79486498D01*
X69846150Y-79432842D01*
X69836046Y-79362568D01*
X69865540Y-79297988D01*
X69888493Y-79277287D01*
X69999789Y-79199357D01*
X69999792Y-79199355D01*
X70004300Y-79196198D01*
X70166198Y-79034300D01*
X70178589Y-79016605D01*
X70294366Y-78851257D01*
X70297523Y-78846749D01*
X70299846Y-78841767D01*
X70299849Y-78841762D01*
X70391961Y-78644225D01*
X70391961Y-78644224D01*
X70394284Y-78639243D01*
X70406216Y-78594715D01*
X70452119Y-78423402D01*
X70452119Y-78423400D01*
X70453543Y-78418087D01*
X70473498Y-78190000D01*
X70453543Y-77961913D01*
X70449760Y-77947794D01*
X70395707Y-77746067D01*
X70395706Y-77746065D01*
X70394284Y-77740757D01*
X70390051Y-77731680D01*
X70299849Y-77538238D01*
X70299846Y-77538233D01*
X70297523Y-77533251D01*
X70166198Y-77345700D01*
X70004300Y-77183802D01*
X69999797Y-77180649D01*
X69997993Y-77179135D01*
X69958671Y-77120023D01*
X69957549Y-77049035D01*
X69969871Y-77019621D01*
X69971222Y-77017281D01*
X69971223Y-77017278D01*
X69974527Y-77011556D01*
X70033542Y-76829928D01*
X70034853Y-76817460D01*
X70052814Y-76646565D01*
X70052814Y-76646564D01*
X70053504Y-76640000D01*
X70047438Y-76582282D01*
X70034232Y-76456635D01*
X70034232Y-76456633D01*
X70033542Y-76450072D01*
X69974527Y-76268444D01*
X69879040Y-76103056D01*
X69862882Y-76085110D01*
X69755675Y-75966045D01*
X69755674Y-75966044D01*
X69751253Y-75961134D01*
X69630377Y-75873312D01*
X69602094Y-75852763D01*
X69602093Y-75852762D01*
X69596752Y-75848882D01*
X69590724Y-75846198D01*
X69590722Y-75846197D01*
X69428319Y-75773891D01*
X69428318Y-75773891D01*
X69422288Y-75771206D01*
X69328888Y-75751353D01*
X69241944Y-75732872D01*
X69241939Y-75732872D01*
X69235487Y-75731500D01*
X69044513Y-75731500D01*
X69038061Y-75732872D01*
X69038056Y-75732872D01*
X68951112Y-75751353D01*
X68857712Y-75771206D01*
X68851682Y-75773891D01*
X68851681Y-75773891D01*
X68689278Y-75846197D01*
X68689276Y-75846198D01*
X68683248Y-75848882D01*
X68677907Y-75852762D01*
X68677906Y-75852763D01*
X68631400Y-75886552D01*
X68528747Y-75961134D01*
X68524332Y-75966037D01*
X68519420Y-75970460D01*
X68518295Y-75969211D01*
X68464986Y-76002051D01*
X68431800Y-76006500D01*
X68248767Y-76006500D01*
X68237584Y-76005973D01*
X68230091Y-76004298D01*
X68222165Y-76004547D01*
X68222164Y-76004547D01*
X68162014Y-76006438D01*
X68158055Y-76006500D01*
X68130144Y-76006500D01*
X68126210Y-76006997D01*
X68126209Y-76006997D01*
X68126144Y-76007005D01*
X68114307Y-76007938D01*
X68082049Y-76008952D01*
X68078030Y-76009078D01*
X68070111Y-76009327D01*
X68050657Y-76014979D01*
X68031300Y-76018987D01*
X68019070Y-76020532D01*
X68019069Y-76020532D01*
X68011203Y-76021526D01*
X68003832Y-76024445D01*
X68003830Y-76024445D01*
X67970088Y-76037804D01*
X67958858Y-76041649D01*
X67924017Y-76051771D01*
X67924016Y-76051771D01*
X67916407Y-76053982D01*
X67909588Y-76058015D01*
X67909583Y-76058017D01*
X67898972Y-76064293D01*
X67881224Y-76072988D01*
X67862383Y-76080448D01*
X67855967Y-76085110D01*
X67855966Y-76085110D01*
X67826613Y-76106436D01*
X67816693Y-76112952D01*
X67785465Y-76131420D01*
X67785462Y-76131422D01*
X67778638Y-76135458D01*
X67764317Y-76149779D01*
X67749284Y-76162619D01*
X67732893Y-76174528D01*
X67727842Y-76180634D01*
X67704702Y-76208605D01*
X67696712Y-76217384D01*
X67033248Y-76880848D01*
X66970936Y-76914874D01*
X66911541Y-76913459D01*
X66853409Y-76897882D01*
X66853398Y-76897880D01*
X66848087Y-76896457D01*
X66620000Y-76876502D01*
X66391913Y-76896457D01*
X66386600Y-76897881D01*
X66386598Y-76897881D01*
X66176067Y-76954293D01*
X66176065Y-76954294D01*
X66170757Y-76955716D01*
X66165776Y-76958039D01*
X66165775Y-76958039D01*
X65968238Y-77050151D01*
X65968233Y-77050154D01*
X65963251Y-77052477D01*
X65926748Y-77078037D01*
X65780211Y-77180643D01*
X65780208Y-77180645D01*
X65775700Y-77183802D01*
X65613802Y-77345700D01*
X65482477Y-77533251D01*
X65480154Y-77538233D01*
X65480151Y-77538238D01*
X65464195Y-77572457D01*
X65417278Y-77625742D01*
X65349001Y-77645203D01*
X65281041Y-77624661D01*
X65235805Y-77572457D01*
X65219849Y-77538238D01*
X65219846Y-77538233D01*
X65217523Y-77533251D01*
X65086198Y-77345700D01*
X64924300Y-77183802D01*
X64919792Y-77180645D01*
X64919789Y-77180643D01*
X64773252Y-77078037D01*
X64736749Y-77052477D01*
X64731767Y-77050154D01*
X64731762Y-77050151D01*
X64534225Y-76958039D01*
X64534224Y-76958039D01*
X64529243Y-76955716D01*
X64523935Y-76954294D01*
X64523933Y-76954293D01*
X64313402Y-76897881D01*
X64313400Y-76897881D01*
X64308087Y-76896457D01*
X64080000Y-76876502D01*
X63851913Y-76896457D01*
X63846600Y-76897881D01*
X63846598Y-76897881D01*
X63636067Y-76954293D01*
X63636065Y-76954294D01*
X63630757Y-76955716D01*
X63625776Y-76958039D01*
X63625775Y-76958039D01*
X63428238Y-77050151D01*
X63428233Y-77050154D01*
X63423251Y-77052477D01*
X63386748Y-77078037D01*
X63240211Y-77180643D01*
X63240208Y-77180645D01*
X63235700Y-77183802D01*
X63073802Y-77345700D01*
X62942477Y-77533251D01*
X62940154Y-77538233D01*
X62940151Y-77538238D01*
X62924195Y-77572457D01*
X62877278Y-77625742D01*
X62809001Y-77645203D01*
X62741041Y-77624661D01*
X62695805Y-77572457D01*
X62679849Y-77538238D01*
X62679846Y-77538233D01*
X62677523Y-77533251D01*
X62546198Y-77345700D01*
X62384300Y-77183802D01*
X62379792Y-77180645D01*
X62379789Y-77180643D01*
X62233252Y-77078037D01*
X62196749Y-77052477D01*
X62191767Y-77050154D01*
X62191762Y-77050151D01*
X61994225Y-76958039D01*
X61994224Y-76958039D01*
X61989243Y-76955716D01*
X61983935Y-76954294D01*
X61983933Y-76954293D01*
X61773402Y-76897881D01*
X61773400Y-76897881D01*
X61768087Y-76896457D01*
X61540000Y-76876502D01*
X61311913Y-76896457D01*
X61306600Y-76897881D01*
X61306598Y-76897881D01*
X61096067Y-76954293D01*
X61096065Y-76954294D01*
X61090757Y-76955716D01*
X61085776Y-76958039D01*
X61085775Y-76958039D01*
X60888238Y-77050151D01*
X60888233Y-77050154D01*
X60883251Y-77052477D01*
X60846748Y-77078037D01*
X60700211Y-77180643D01*
X60700208Y-77180645D01*
X60695700Y-77183802D01*
X60533802Y-77345700D01*
X60402477Y-77533251D01*
X60400154Y-77538233D01*
X60400151Y-77538238D01*
X60384195Y-77572457D01*
X60337278Y-77625742D01*
X60269001Y-77645203D01*
X60201041Y-77624661D01*
X60155805Y-77572457D01*
X60139849Y-77538238D01*
X60139846Y-77538233D01*
X60137523Y-77533251D01*
X60006198Y-77345700D01*
X59844300Y-77183802D01*
X59839792Y-77180645D01*
X59839789Y-77180643D01*
X59693252Y-77078037D01*
X59656749Y-77052477D01*
X59651767Y-77050154D01*
X59651762Y-77050151D01*
X59454225Y-76958039D01*
X59454224Y-76958039D01*
X59449243Y-76955716D01*
X59443935Y-76954294D01*
X59443933Y-76954293D01*
X59233402Y-76897881D01*
X59233400Y-76897881D01*
X59228087Y-76896457D01*
X59222601Y-76895977D01*
X59222595Y-76895976D01*
X59156116Y-76890159D01*
X59089998Y-76864296D01*
X59048358Y-76806792D01*
X59041788Y-76751468D01*
X59042344Y-76746186D01*
X59053504Y-76640000D01*
X59047438Y-76582282D01*
X59034232Y-76456635D01*
X59034232Y-76456633D01*
X59033542Y-76450072D01*
X58974527Y-76268444D01*
X58879040Y-76103056D01*
X58862882Y-76085110D01*
X58755675Y-75966045D01*
X58755674Y-75966044D01*
X58751253Y-75961134D01*
X58630377Y-75873312D01*
X58602094Y-75852763D01*
X58602093Y-75852762D01*
X58596752Y-75848882D01*
X58590724Y-75846198D01*
X58590722Y-75846197D01*
X58428319Y-75773891D01*
X58428318Y-75773891D01*
X58422288Y-75771206D01*
X58328888Y-75751353D01*
X58241944Y-75732872D01*
X58241939Y-75732872D01*
X58235487Y-75731500D01*
X58044513Y-75731500D01*
X58038061Y-75732872D01*
X58038056Y-75732872D01*
X57951112Y-75751353D01*
X57857712Y-75771206D01*
X57851682Y-75773891D01*
X57851681Y-75773891D01*
X57689278Y-75846197D01*
X57689276Y-75846198D01*
X57683248Y-75848882D01*
X57677907Y-75852762D01*
X57677906Y-75852763D01*
X57649623Y-75873312D01*
X57528747Y-75961134D01*
X57524326Y-75966044D01*
X57524325Y-75966045D01*
X57417119Y-76085110D01*
X57400960Y-76103056D01*
X57305473Y-76268444D01*
X57246458Y-76450072D01*
X57245769Y-76456631D01*
X57245768Y-76456634D01*
X57229164Y-76614615D01*
X57202151Y-76680271D01*
X57195705Y-76687695D01*
X57186356Y-76697651D01*
X57183600Y-76700495D01*
X57163865Y-76720230D01*
X57161385Y-76723427D01*
X57153682Y-76732447D01*
X57123414Y-76764679D01*
X57119595Y-76771625D01*
X57119593Y-76771628D01*
X57113652Y-76782434D01*
X57102801Y-76798953D01*
X57090386Y-76814959D01*
X57087241Y-76822228D01*
X57087238Y-76822232D01*
X57072826Y-76855537D01*
X57067605Y-76866195D01*
X57055947Y-76887402D01*
X57051973Y-76894630D01*
X57001628Y-76944689D01*
X56932211Y-76959583D01*
X56908952Y-76955638D01*
X56688087Y-76896457D01*
X56460000Y-76876502D01*
X56231913Y-76896457D01*
X56226600Y-76897881D01*
X56226598Y-76897881D01*
X56016067Y-76954293D01*
X56016065Y-76954294D01*
X56010757Y-76955716D01*
X56005776Y-76958039D01*
X56005775Y-76958039D01*
X55808238Y-77050151D01*
X55808233Y-77050154D01*
X55803251Y-77052477D01*
X55766748Y-77078037D01*
X55620211Y-77180643D01*
X55620208Y-77180645D01*
X55615700Y-77183802D01*
X55453802Y-77345700D01*
X55322477Y-77533251D01*
X55320154Y-77538233D01*
X55320151Y-77538238D01*
X55304195Y-77572457D01*
X55257278Y-77625742D01*
X55189001Y-77645203D01*
X55121041Y-77624661D01*
X55075805Y-77572457D01*
X55059849Y-77538238D01*
X55059846Y-77538233D01*
X55057523Y-77533251D01*
X54926198Y-77345700D01*
X54764300Y-77183802D01*
X54759792Y-77180645D01*
X54759789Y-77180643D01*
X54613252Y-77078037D01*
X54576749Y-77052477D01*
X54571767Y-77050154D01*
X54571762Y-77050151D01*
X54374225Y-76958039D01*
X54374224Y-76958039D01*
X54369243Y-76955716D01*
X54363935Y-76954294D01*
X54363933Y-76954293D01*
X54153402Y-76897881D01*
X54153400Y-76897881D01*
X54148087Y-76896457D01*
X53920000Y-76876502D01*
X53691913Y-76896457D01*
X53686600Y-76897881D01*
X53686598Y-76897881D01*
X53476067Y-76954293D01*
X53476065Y-76954294D01*
X53470757Y-76955716D01*
X53465776Y-76958039D01*
X53465775Y-76958039D01*
X53268238Y-77050151D01*
X53268233Y-77050154D01*
X53263251Y-77052477D01*
X53226748Y-77078037D01*
X53080211Y-77180643D01*
X53080208Y-77180645D01*
X53075700Y-77183802D01*
X52913802Y-77345700D01*
X52782477Y-77533251D01*
X52780154Y-77538233D01*
X52780151Y-77538238D01*
X52763919Y-77573049D01*
X52717002Y-77626334D01*
X52648725Y-77645795D01*
X52580765Y-77625253D01*
X52535529Y-77573049D01*
X52519414Y-77538489D01*
X52513931Y-77528993D01*
X52388972Y-77350533D01*
X52381916Y-77342125D01*
X52227875Y-77188084D01*
X52219463Y-77181025D01*
X52210378Y-77174664D01*
X52166047Y-77119209D01*
X52158736Y-77048589D01*
X52193550Y-76982354D01*
X52602798Y-76573106D01*
X52665110Y-76539080D01*
X52691893Y-76536201D01*
X52747786Y-76536201D01*
X52754238Y-76534829D01*
X52754243Y-76534829D01*
X52841187Y-76516348D01*
X52934587Y-76496495D01*
X52940618Y-76493810D01*
X53103021Y-76421504D01*
X53103023Y-76421503D01*
X53109051Y-76418819D01*
X53263552Y-76306567D01*
X53268559Y-76301006D01*
X53386920Y-76169553D01*
X53386921Y-76169552D01*
X53391339Y-76164645D01*
X53476153Y-76017744D01*
X53483522Y-76004980D01*
X53483523Y-76004979D01*
X53486826Y-75999257D01*
X53545841Y-75817629D01*
X53550865Y-75769834D01*
X53563935Y-75645475D01*
X71827483Y-75645475D01*
X71846472Y-75862519D01*
X71848375Y-75873312D01*
X71904764Y-76083761D01*
X71908510Y-76094053D01*
X72000586Y-76291511D01*
X72006069Y-76301006D01*
X72042509Y-76353048D01*
X72052988Y-76361424D01*
X72066434Y-76354356D01*
X72767978Y-75652812D01*
X72775592Y-75638868D01*
X72775461Y-75637035D01*
X72771210Y-75630420D01*
X72065713Y-74924923D01*
X72053938Y-74918493D01*
X72041923Y-74927789D01*
X72006069Y-74978994D01*
X72000586Y-74988489D01*
X71908510Y-75185947D01*
X71904764Y-75196239D01*
X71848375Y-75406688D01*
X71846472Y-75417481D01*
X71827483Y-75634525D01*
X71827483Y-75645475D01*
X53563935Y-75645475D01*
X53565113Y-75634266D01*
X53565803Y-75627701D01*
X53545841Y-75437773D01*
X53486826Y-75256145D01*
X53473865Y-75233695D01*
X53429345Y-75156586D01*
X53391339Y-75090757D01*
X53338657Y-75032247D01*
X53267974Y-74953746D01*
X53267973Y-74953745D01*
X53263552Y-74948835D01*
X53109051Y-74836583D01*
X53103023Y-74833899D01*
X53103021Y-74833898D01*
X52940618Y-74761592D01*
X52940617Y-74761592D01*
X52934587Y-74758907D01*
X52841187Y-74739054D01*
X52754243Y-74720573D01*
X52754238Y-74720573D01*
X52747786Y-74719201D01*
X52556812Y-74719201D01*
X52550360Y-74720573D01*
X52550355Y-74720573D01*
X52463411Y-74739054D01*
X52370011Y-74758907D01*
X52363981Y-74761592D01*
X52363980Y-74761592D01*
X52201577Y-74833898D01*
X52201575Y-74833899D01*
X52195547Y-74836583D01*
X52142379Y-74875212D01*
X52075514Y-74899069D01*
X52006363Y-74882989D01*
X51956882Y-74832076D01*
X51942799Y-74762294D01*
X51953019Y-74645476D01*
X51953019Y-74645475D01*
X51953498Y-74640000D01*
X51933543Y-74411913D01*
X51932119Y-74406598D01*
X51875707Y-74196067D01*
X51875706Y-74196065D01*
X51874284Y-74190757D01*
X51831100Y-74098148D01*
X51779849Y-73988238D01*
X51779846Y-73988233D01*
X51777523Y-73983251D01*
X51683437Y-73848882D01*
X51649357Y-73800211D01*
X51649355Y-73800208D01*
X51646198Y-73795700D01*
X51484300Y-73633802D01*
X51479792Y-73630645D01*
X51479789Y-73630643D01*
X51387059Y-73565713D01*
X51296749Y-73502477D01*
X51291767Y-73500154D01*
X51291762Y-73500151D01*
X51094225Y-73408039D01*
X51094224Y-73408039D01*
X51089243Y-73405716D01*
X51083935Y-73404294D01*
X51083933Y-73404293D01*
X50873402Y-73347881D01*
X50873400Y-73347881D01*
X50868087Y-73346457D01*
X50640000Y-73326502D01*
X50411913Y-73346457D01*
X50406600Y-73347881D01*
X50406598Y-73347881D01*
X50196067Y-73404293D01*
X50196065Y-73404294D01*
X50190757Y-73405716D01*
X50185776Y-73408039D01*
X50185775Y-73408039D01*
X49988238Y-73500151D01*
X49988233Y-73500154D01*
X49983251Y-73502477D01*
X49892941Y-73565713D01*
X49800211Y-73630643D01*
X49800208Y-73630645D01*
X49795700Y-73633802D01*
X49633802Y-73795700D01*
X49630645Y-73800208D01*
X49630643Y-73800211D01*
X49596563Y-73848882D01*
X49502477Y-73983251D01*
X49500154Y-73988233D01*
X49500151Y-73988238D01*
X49448900Y-74098148D01*
X49405716Y-74190757D01*
X49404294Y-74196065D01*
X49404293Y-74196067D01*
X49347881Y-74406598D01*
X49346457Y-74411913D01*
X49326502Y-74640000D01*
X49346457Y-74868087D01*
X49347881Y-74873400D01*
X49347881Y-74873402D01*
X49385025Y-75012022D01*
X49405716Y-75089243D01*
X49408039Y-75094224D01*
X49408039Y-75094225D01*
X49500151Y-75291762D01*
X49500154Y-75291767D01*
X49502477Y-75296749D01*
X49541312Y-75352211D01*
X49598444Y-75433803D01*
X49633802Y-75484300D01*
X49795700Y-75646198D01*
X49800208Y-75649355D01*
X49800211Y-75649357D01*
X49849732Y-75684032D01*
X49983251Y-75777523D01*
X49988233Y-75779846D01*
X49988238Y-75779849D01*
X50184765Y-75871490D01*
X50190757Y-75874284D01*
X50196065Y-75875706D01*
X50196067Y-75875707D01*
X50406598Y-75932119D01*
X50406600Y-75932119D01*
X50411913Y-75933543D01*
X50640000Y-75953498D01*
X50868087Y-75933543D01*
X50873400Y-75932119D01*
X50873402Y-75932119D01*
X51083933Y-75875707D01*
X51083935Y-75875706D01*
X51089243Y-75874284D01*
X51114474Y-75862519D01*
X51229647Y-75808813D01*
X51299839Y-75798152D01*
X51364652Y-75827132D01*
X51403508Y-75886552D01*
X51404071Y-75957546D01*
X51371992Y-76012103D01*
X50989011Y-76395084D01*
X50926699Y-76429110D01*
X50899916Y-76431989D01*
X43082001Y-76431989D01*
X43070818Y-76431462D01*
X43063325Y-76429787D01*
X43055399Y-76430036D01*
X43055398Y-76430036D01*
X42995235Y-76431927D01*
X42991277Y-76431989D01*
X42963377Y-76431989D01*
X42959387Y-76432493D01*
X42947553Y-76433425D01*
X42903344Y-76434815D01*
X42895728Y-76437028D01*
X42895726Y-76437028D01*
X42883885Y-76440468D01*
X42864526Y-76444477D01*
X42863216Y-76444643D01*
X42844436Y-76447015D01*
X42837070Y-76449931D01*
X42837064Y-76449933D01*
X42803331Y-76463289D01*
X42792101Y-76467134D01*
X42757250Y-76477259D01*
X42749640Y-76479470D01*
X42742817Y-76483505D01*
X42732199Y-76489784D01*
X42714446Y-76498481D01*
X42706801Y-76501508D01*
X42695616Y-76505937D01*
X42689201Y-76510598D01*
X42659845Y-76531926D01*
X42649928Y-76538440D01*
X42611871Y-76560947D01*
X42597550Y-76575268D01*
X42582517Y-76588108D01*
X42566126Y-76600017D01*
X42554050Y-76614615D01*
X42537945Y-76634082D01*
X42529955Y-76642863D01*
X42094780Y-77078037D01*
X42032468Y-77112062D01*
X41961652Y-77106997D01*
X41933415Y-77092154D01*
X41881263Y-77055637D01*
X41881257Y-77055633D01*
X41876749Y-77052477D01*
X41871767Y-77050154D01*
X41871762Y-77050151D01*
X41674225Y-76958039D01*
X41674224Y-76958039D01*
X41669243Y-76955716D01*
X41663935Y-76954294D01*
X41663933Y-76954293D01*
X41453402Y-76897881D01*
X41453400Y-76897881D01*
X41448087Y-76896457D01*
X41220000Y-76876502D01*
X40991913Y-76896457D01*
X40986600Y-76897881D01*
X40986598Y-76897881D01*
X40776067Y-76954293D01*
X40776065Y-76954294D01*
X40770757Y-76955716D01*
X40629987Y-77021358D01*
X40617261Y-77027292D01*
X40547069Y-77037953D01*
X40482256Y-77008973D01*
X40443400Y-76949553D01*
X40438011Y-76913097D01*
X40438011Y-75726062D01*
X44918493Y-75726062D01*
X44927789Y-75738077D01*
X44978994Y-75773931D01*
X44988489Y-75779414D01*
X45185947Y-75871490D01*
X45196239Y-75875236D01*
X45406688Y-75931625D01*
X45417481Y-75933528D01*
X45634525Y-75952517D01*
X45645475Y-75952517D01*
X45862519Y-75933528D01*
X45873312Y-75931625D01*
X46083761Y-75875236D01*
X46094053Y-75871490D01*
X46291511Y-75779414D01*
X46301006Y-75773931D01*
X46353048Y-75737491D01*
X46361424Y-75727012D01*
X46354356Y-75713566D01*
X45652812Y-75012022D01*
X45638868Y-75004408D01*
X45637035Y-75004539D01*
X45630420Y-75008790D01*
X44924923Y-75714287D01*
X44918493Y-75726062D01*
X40438011Y-75726062D01*
X40438011Y-74645475D01*
X44327483Y-74645475D01*
X44346472Y-74862519D01*
X44348375Y-74873312D01*
X44404764Y-75083761D01*
X44408510Y-75094053D01*
X44500586Y-75291511D01*
X44506069Y-75301006D01*
X44542509Y-75353048D01*
X44552988Y-75361424D01*
X44566434Y-75354356D01*
X45267978Y-74652812D01*
X45274356Y-74641132D01*
X46004408Y-74641132D01*
X46004539Y-74642965D01*
X46008790Y-74649580D01*
X46714287Y-75355077D01*
X46726062Y-75361507D01*
X46738077Y-75352211D01*
X46773931Y-75301006D01*
X46779414Y-75291511D01*
X46871490Y-75094053D01*
X46875236Y-75083761D01*
X46931625Y-74873312D01*
X46933528Y-74862519D01*
X46952517Y-74645475D01*
X46952517Y-74634525D01*
X46933528Y-74417481D01*
X46931625Y-74406688D01*
X46875236Y-74196239D01*
X46871490Y-74185947D01*
X46779414Y-73988489D01*
X46773931Y-73978994D01*
X46737491Y-73926952D01*
X46727012Y-73918576D01*
X46713566Y-73925644D01*
X46012022Y-74627188D01*
X46004408Y-74641132D01*
X45274356Y-74641132D01*
X45275592Y-74638868D01*
X45275461Y-74637035D01*
X45271210Y-74630420D01*
X44565713Y-73924923D01*
X44553938Y-73918493D01*
X44541923Y-73927789D01*
X44506069Y-73978994D01*
X44500586Y-73988489D01*
X44408510Y-74185947D01*
X44404764Y-74196239D01*
X44348375Y-74406688D01*
X44346472Y-74417481D01*
X44327483Y-74634525D01*
X44327483Y-74645475D01*
X40438011Y-74645475D01*
X40438011Y-71846903D01*
X40458013Y-71778782D01*
X40511669Y-71732289D01*
X40581943Y-71722185D01*
X40617260Y-71732708D01*
X40682478Y-71763119D01*
X40765587Y-71801873D01*
X40770757Y-71804284D01*
X40776065Y-71805706D01*
X40776067Y-71805707D01*
X40986598Y-71862119D01*
X40986600Y-71862119D01*
X40991913Y-71863543D01*
X41220000Y-71883498D01*
X41448087Y-71863543D01*
X41453400Y-71862119D01*
X41453402Y-71862119D01*
X41663933Y-71805707D01*
X41663935Y-71805706D01*
X41669243Y-71804284D01*
X41674225Y-71801961D01*
X41871762Y-71709849D01*
X41871767Y-71709846D01*
X41876749Y-71707523D01*
X42027871Y-71601706D01*
X42059789Y-71579357D01*
X42059792Y-71579355D01*
X42064300Y-71576198D01*
X42226198Y-71414300D01*
X42357523Y-71226749D01*
X42359846Y-71221767D01*
X42359849Y-71221762D01*
X42375805Y-71187543D01*
X42422722Y-71134258D01*
X42490999Y-71114797D01*
X42558959Y-71135339D01*
X42604195Y-71187543D01*
X42620151Y-71221762D01*
X42620154Y-71221767D01*
X42622477Y-71226749D01*
X42753802Y-71414300D01*
X42915700Y-71576198D01*
X42920208Y-71579355D01*
X42920211Y-71579357D01*
X42952129Y-71601706D01*
X43103251Y-71707523D01*
X43108233Y-71709846D01*
X43108238Y-71709849D01*
X43305775Y-71801961D01*
X43310757Y-71804284D01*
X43316065Y-71805706D01*
X43316067Y-71805707D01*
X43526598Y-71862119D01*
X43526600Y-71862119D01*
X43531913Y-71863543D01*
X43760000Y-71883498D01*
X43988087Y-71863543D01*
X43993400Y-71862119D01*
X43993402Y-71862119D01*
X44203933Y-71805707D01*
X44203935Y-71805706D01*
X44209243Y-71804284D01*
X44214225Y-71801961D01*
X44411762Y-71709849D01*
X44411767Y-71709846D01*
X44416749Y-71707523D01*
X44567871Y-71601706D01*
X44599789Y-71579357D01*
X44599792Y-71579355D01*
X44604300Y-71576198D01*
X44766198Y-71414300D01*
X44897523Y-71226749D01*
X44899846Y-71221767D01*
X44899849Y-71221762D01*
X44915805Y-71187543D01*
X44962722Y-71134258D01*
X45030999Y-71114797D01*
X45098959Y-71135339D01*
X45144195Y-71187543D01*
X45160151Y-71221762D01*
X45160154Y-71221767D01*
X45162477Y-71226749D01*
X45293802Y-71414300D01*
X45435253Y-71555751D01*
X45469279Y-71618063D01*
X45464214Y-71688878D01*
X45421667Y-71745714D01*
X45372359Y-71768092D01*
X45364172Y-71769832D01*
X45364164Y-71769835D01*
X45357712Y-71771206D01*
X45351682Y-71773891D01*
X45351681Y-71773891D01*
X45189278Y-71846197D01*
X45189276Y-71846198D01*
X45183248Y-71848882D01*
X45177907Y-71852762D01*
X45177906Y-71852763D01*
X45150468Y-71872698D01*
X45028747Y-71961134D01*
X45024326Y-71966044D01*
X45024325Y-71966045D01*
X44924234Y-72077208D01*
X44900960Y-72103056D01*
X44868521Y-72159242D01*
X44813763Y-72254086D01*
X44805473Y-72268444D01*
X44746458Y-72450072D01*
X44745768Y-72456633D01*
X44745768Y-72456635D01*
X44729325Y-72613084D01*
X44726496Y-72640000D01*
X44746458Y-72829928D01*
X44805473Y-73011556D01*
X44900960Y-73176944D01*
X44905378Y-73181851D01*
X44905379Y-73181852D01*
X45018519Y-73307507D01*
X45049237Y-73371514D01*
X45040472Y-73441968D01*
X44995009Y-73496499D01*
X44987883Y-73500936D01*
X44978998Y-73506066D01*
X44926952Y-73542509D01*
X44918576Y-73552988D01*
X44925644Y-73566434D01*
X45627188Y-74267978D01*
X45641132Y-74275592D01*
X45642965Y-74275461D01*
X45649580Y-74271210D01*
X46355077Y-73565713D01*
X46361507Y-73553938D01*
X46354641Y-73545064D01*
X46328778Y-73478945D01*
X46342767Y-73409341D01*
X46392167Y-73358348D01*
X46415468Y-73348097D01*
X46450936Y-73336607D01*
X46450938Y-73336606D01*
X46457899Y-73334351D01*
X46464154Y-73330555D01*
X46469628Y-73328049D01*
X46475058Y-73325330D01*
X46481937Y-73322833D01*
X46505313Y-73307507D01*
X46542976Y-73282814D01*
X46546680Y-73280477D01*
X46609107Y-73242595D01*
X46617484Y-73235197D01*
X46617508Y-73235224D01*
X46620500Y-73232571D01*
X46623733Y-73229868D01*
X46629852Y-73225856D01*
X46683128Y-73169617D01*
X46685506Y-73167175D01*
X48038422Y-71814259D01*
X48052834Y-71801873D01*
X48064429Y-71793340D01*
X48064434Y-71793335D01*
X48070329Y-71788997D01*
X48075068Y-71783419D01*
X48075071Y-71783416D01*
X48089744Y-71766144D01*
X48149093Y-71727179D01*
X48220086Y-71726486D01*
X48239019Y-71733528D01*
X48385774Y-71801961D01*
X48385780Y-71801963D01*
X48390757Y-71804284D01*
X48396065Y-71805706D01*
X48396067Y-71805707D01*
X48606598Y-71862119D01*
X48606600Y-71862119D01*
X48611913Y-71863543D01*
X48840000Y-71883498D01*
X49068087Y-71863543D01*
X49073400Y-71862119D01*
X49073402Y-71862119D01*
X49283933Y-71805707D01*
X49283935Y-71805706D01*
X49289243Y-71804284D01*
X49294225Y-71801961D01*
X49491762Y-71709849D01*
X49491767Y-71709846D01*
X49496749Y-71707523D01*
X49647871Y-71601706D01*
X49679789Y-71579357D01*
X49679792Y-71579355D01*
X49684300Y-71576198D01*
X49846198Y-71414300D01*
X49977523Y-71226749D01*
X49979846Y-71221767D01*
X49979849Y-71221762D01*
X49995805Y-71187543D01*
X50042722Y-71134258D01*
X50110999Y-71114797D01*
X50178959Y-71135339D01*
X50224195Y-71187543D01*
X50240151Y-71221762D01*
X50240154Y-71221767D01*
X50242477Y-71226749D01*
X50373802Y-71414300D01*
X50535700Y-71576198D01*
X50540208Y-71579355D01*
X50540211Y-71579357D01*
X50572129Y-71601706D01*
X50723251Y-71707523D01*
X50728233Y-71709846D01*
X50728238Y-71709849D01*
X50925775Y-71801961D01*
X50930757Y-71804284D01*
X50936065Y-71805706D01*
X50936067Y-71805707D01*
X51146598Y-71862119D01*
X51146600Y-71862119D01*
X51151913Y-71863543D01*
X51380000Y-71883498D01*
X51608087Y-71863543D01*
X51613400Y-71862119D01*
X51613402Y-71862119D01*
X51823933Y-71805707D01*
X51823935Y-71805706D01*
X51829243Y-71804284D01*
X51834225Y-71801961D01*
X52031762Y-71709849D01*
X52031767Y-71709846D01*
X52036749Y-71707523D01*
X52187871Y-71601706D01*
X52219789Y-71579357D01*
X52219792Y-71579355D01*
X52224300Y-71576198D01*
X52386198Y-71414300D01*
X52517523Y-71226749D01*
X52519846Y-71221767D01*
X52519849Y-71221762D01*
X52535805Y-71187543D01*
X52582722Y-71134258D01*
X52650999Y-71114797D01*
X52718959Y-71135339D01*
X52764195Y-71187543D01*
X52780151Y-71221762D01*
X52780154Y-71221767D01*
X52782477Y-71226749D01*
X52913802Y-71414300D01*
X53075700Y-71576198D01*
X53080208Y-71579355D01*
X53080211Y-71579357D01*
X53112129Y-71601706D01*
X53263251Y-71707523D01*
X53268233Y-71709846D01*
X53268238Y-71709849D01*
X53465775Y-71801961D01*
X53470757Y-71804284D01*
X53476065Y-71805706D01*
X53476067Y-71805707D01*
X53686598Y-71862119D01*
X53686600Y-71862119D01*
X53691913Y-71863543D01*
X53920000Y-71883498D01*
X54148087Y-71863543D01*
X54153400Y-71862119D01*
X54153402Y-71862119D01*
X54363933Y-71805707D01*
X54363935Y-71805706D01*
X54369243Y-71804284D01*
X54374225Y-71801961D01*
X54571762Y-71709849D01*
X54571767Y-71709846D01*
X54576749Y-71707523D01*
X54727871Y-71601706D01*
X54759789Y-71579357D01*
X54759792Y-71579355D01*
X54764300Y-71576198D01*
X54926198Y-71414300D01*
X55057523Y-71226749D01*
X55059846Y-71221767D01*
X55059849Y-71221762D01*
X55076081Y-71186951D01*
X55122998Y-71133666D01*
X55191275Y-71114205D01*
X55259235Y-71134747D01*
X55304471Y-71186951D01*
X55320586Y-71221511D01*
X55326069Y-71231007D01*
X55451028Y-71409467D01*
X55458084Y-71417875D01*
X55612125Y-71571916D01*
X55620533Y-71578972D01*
X55798993Y-71703931D01*
X55808489Y-71709414D01*
X56005947Y-71801490D01*
X56016239Y-71805236D01*
X56188503Y-71851394D01*
X56202599Y-71851058D01*
X56206000Y-71843116D01*
X56206000Y-70442000D01*
X56226002Y-70373879D01*
X56279658Y-70327386D01*
X56332000Y-70316000D01*
X56588000Y-70316000D01*
X56656121Y-70336002D01*
X56702614Y-70389658D01*
X56714000Y-70442000D01*
X56714000Y-71837967D01*
X56717973Y-71851498D01*
X56726522Y-71852727D01*
X56903761Y-71805236D01*
X56914053Y-71801490D01*
X57062739Y-71732156D01*
X57132930Y-71721495D01*
X57197743Y-71750475D01*
X57236600Y-71809894D01*
X57241989Y-71846351D01*
X57241989Y-72796722D01*
X57241462Y-72807905D01*
X57239787Y-72815398D01*
X57240036Y-72823324D01*
X57240036Y-72823325D01*
X57241927Y-72883475D01*
X57241989Y-72887434D01*
X57241989Y-72915345D01*
X57242486Y-72919279D01*
X57242486Y-72919280D01*
X57242494Y-72919345D01*
X57243427Y-72931182D01*
X57244816Y-72975378D01*
X57250467Y-72994828D01*
X57254476Y-73014189D01*
X57257015Y-73034286D01*
X57259934Y-73041657D01*
X57259934Y-73041659D01*
X57273293Y-73075401D01*
X57277138Y-73086631D01*
X57284748Y-73112825D01*
X57289471Y-73129082D01*
X57293504Y-73135901D01*
X57293506Y-73135906D01*
X57299782Y-73146517D01*
X57308477Y-73164265D01*
X57315937Y-73183106D01*
X57320599Y-73189522D01*
X57320599Y-73189523D01*
X57341925Y-73218876D01*
X57348441Y-73228796D01*
X57354404Y-73238878D01*
X57370947Y-73266851D01*
X57385268Y-73281172D01*
X57398108Y-73296205D01*
X57410017Y-73312596D01*
X57436314Y-73334351D01*
X57444094Y-73340787D01*
X57452873Y-73348777D01*
X59136343Y-75032247D01*
X59143887Y-75040537D01*
X59148000Y-75047018D01*
X59153777Y-75052443D01*
X59197667Y-75093658D01*
X59200509Y-75096413D01*
X59220230Y-75116134D01*
X59223425Y-75118612D01*
X59232447Y-75126318D01*
X59264679Y-75156586D01*
X59271628Y-75160406D01*
X59282432Y-75166346D01*
X59298956Y-75177199D01*
X59314959Y-75189613D01*
X59355543Y-75207176D01*
X59366173Y-75212383D01*
X59404940Y-75233695D01*
X59412617Y-75235666D01*
X59412622Y-75235668D01*
X59424558Y-75238732D01*
X59443266Y-75245137D01*
X59461855Y-75253181D01*
X59469680Y-75254420D01*
X59469682Y-75254421D01*
X59505519Y-75260097D01*
X59517140Y-75262504D01*
X59552289Y-75271528D01*
X59559970Y-75273500D01*
X59580231Y-75273500D01*
X59599940Y-75275051D01*
X59619943Y-75278219D01*
X59627835Y-75277473D01*
X59633062Y-75276979D01*
X59663954Y-75274059D01*
X59675811Y-75273500D01*
X62431800Y-75273500D01*
X62499921Y-75293502D01*
X62519147Y-75309843D01*
X62519420Y-75309540D01*
X62524332Y-75313963D01*
X62528747Y-75318866D01*
X62683248Y-75431118D01*
X62689276Y-75433802D01*
X62689278Y-75433803D01*
X62698195Y-75437773D01*
X62857712Y-75508794D01*
X62951113Y-75528647D01*
X63038056Y-75547128D01*
X63038061Y-75547128D01*
X63044513Y-75548500D01*
X63235487Y-75548500D01*
X63241939Y-75547128D01*
X63241944Y-75547128D01*
X63328887Y-75528647D01*
X63422288Y-75508794D01*
X63581805Y-75437773D01*
X63590722Y-75433803D01*
X63590724Y-75433802D01*
X63596752Y-75431118D01*
X63751253Y-75318866D01*
X63787852Y-75278219D01*
X63874621Y-75181852D01*
X63874622Y-75181851D01*
X63879040Y-75176944D01*
X63954053Y-75047018D01*
X63971223Y-75017279D01*
X63971224Y-75017278D01*
X63974527Y-75011556D01*
X64033542Y-74829928D01*
X64040725Y-74761592D01*
X64051211Y-74661818D01*
X64078224Y-74596162D01*
X64136446Y-74555532D01*
X64176521Y-74548989D01*
X66100895Y-74548989D01*
X66169016Y-74568991D01*
X66189990Y-74585894D01*
X66192878Y-74588782D01*
X66226904Y-74651094D01*
X66229092Y-74664703D01*
X66246458Y-74829928D01*
X66305473Y-75011556D01*
X66308776Y-75017278D01*
X66308777Y-75017279D01*
X66325947Y-75047018D01*
X66400960Y-75176944D01*
X66405378Y-75181851D01*
X66405379Y-75181852D01*
X66492148Y-75278219D01*
X66528747Y-75318866D01*
X66683248Y-75431118D01*
X66689276Y-75433802D01*
X66689278Y-75433803D01*
X66698195Y-75437773D01*
X66857712Y-75508794D01*
X66951113Y-75528647D01*
X67038056Y-75547128D01*
X67038061Y-75547128D01*
X67044513Y-75548500D01*
X67235487Y-75548500D01*
X67241939Y-75547128D01*
X67241944Y-75547128D01*
X67328887Y-75528647D01*
X67422288Y-75508794D01*
X67581805Y-75437773D01*
X67590722Y-75433803D01*
X67590724Y-75433802D01*
X67596752Y-75431118D01*
X67751253Y-75318866D01*
X67787852Y-75278219D01*
X67874621Y-75181852D01*
X67874622Y-75181851D01*
X67879040Y-75176944D01*
X67954053Y-75047018D01*
X67971223Y-75017279D01*
X67971224Y-75017278D01*
X67974527Y-75011556D01*
X68033542Y-74829928D01*
X68053504Y-74640000D01*
X68051830Y-74624074D01*
X68034232Y-74456635D01*
X68034232Y-74456633D01*
X68033542Y-74450072D01*
X67974527Y-74268444D01*
X67879040Y-74103056D01*
X67751253Y-73961134D01*
X67596752Y-73848882D01*
X67590724Y-73846198D01*
X67590722Y-73846197D01*
X67428319Y-73773891D01*
X67428318Y-73773891D01*
X67422288Y-73771206D01*
X67328888Y-73751353D01*
X67241944Y-73732872D01*
X67241939Y-73732872D01*
X67235487Y-73731500D01*
X67179595Y-73731500D01*
X67111474Y-73711498D01*
X67090500Y-73694595D01*
X66919141Y-73523236D01*
X66911601Y-73514950D01*
X66907489Y-73508471D01*
X66894256Y-73496044D01*
X66857838Y-73461846D01*
X66854996Y-73459091D01*
X66835259Y-73439354D01*
X66832062Y-73436874D01*
X66823040Y-73429169D01*
X66796589Y-73404330D01*
X66790810Y-73398903D01*
X66783864Y-73395084D01*
X66783861Y-73395082D01*
X66773055Y-73389141D01*
X66756536Y-73378290D01*
X66747800Y-73371514D01*
X66740530Y-73365875D01*
X66733261Y-73362730D01*
X66733257Y-73362727D01*
X66699952Y-73348315D01*
X66689302Y-73343098D01*
X66650549Y-73321794D01*
X66630926Y-73316756D01*
X66612223Y-73310352D01*
X66600909Y-73305456D01*
X66600908Y-73305456D01*
X66593634Y-73302308D01*
X66585811Y-73301069D01*
X66585801Y-73301066D01*
X66549965Y-73295390D01*
X66538345Y-73292984D01*
X66503200Y-73283961D01*
X66503199Y-73283961D01*
X66495519Y-73281989D01*
X66475265Y-73281989D01*
X66455554Y-73280438D01*
X66443375Y-73278509D01*
X66435546Y-73277269D01*
X66427654Y-73278015D01*
X66391528Y-73281430D01*
X66379670Y-73281989D01*
X64536631Y-73281989D01*
X64468510Y-73261987D01*
X64422017Y-73208331D01*
X64411913Y-73138057D01*
X64427512Y-73092989D01*
X64471223Y-73017279D01*
X64471224Y-73017278D01*
X64474527Y-73011556D01*
X64533542Y-72829928D01*
X64553504Y-72640000D01*
X64550675Y-72613084D01*
X64534232Y-72456635D01*
X64534232Y-72456633D01*
X64533542Y-72450072D01*
X64474527Y-72268444D01*
X64466238Y-72254086D01*
X64411479Y-72159242D01*
X64379040Y-72103056D01*
X64329089Y-72047580D01*
X64298373Y-71983574D01*
X64307137Y-71913120D01*
X64352599Y-71858589D01*
X64390114Y-71841565D01*
X64523925Y-71805710D01*
X64523936Y-71805706D01*
X64529243Y-71804284D01*
X64534225Y-71801961D01*
X64731762Y-71709849D01*
X64731767Y-71709846D01*
X64736749Y-71707523D01*
X64887871Y-71601706D01*
X64919789Y-71579357D01*
X64919792Y-71579355D01*
X64924300Y-71576198D01*
X65086198Y-71414300D01*
X65217523Y-71226749D01*
X65219846Y-71221767D01*
X65219849Y-71221762D01*
X65235805Y-71187543D01*
X65282722Y-71134258D01*
X65350999Y-71114797D01*
X65418959Y-71135339D01*
X65464195Y-71187543D01*
X65480151Y-71221762D01*
X65480154Y-71221767D01*
X65482477Y-71226749D01*
X65613802Y-71414300D01*
X65775700Y-71576198D01*
X65780208Y-71579355D01*
X65780211Y-71579357D01*
X65812129Y-71601706D01*
X65963251Y-71707523D01*
X65968233Y-71709846D01*
X65968238Y-71709849D01*
X66165775Y-71801961D01*
X66170757Y-71804284D01*
X66176065Y-71805706D01*
X66176067Y-71805707D01*
X66386598Y-71862119D01*
X66386600Y-71862119D01*
X66391913Y-71863543D01*
X66620000Y-71883498D01*
X66848087Y-71863543D01*
X66853400Y-71862119D01*
X66853402Y-71862119D01*
X67063933Y-71805707D01*
X67063935Y-71805706D01*
X67069243Y-71804284D01*
X67074225Y-71801961D01*
X67271762Y-71709849D01*
X67271767Y-71709846D01*
X67276749Y-71707523D01*
X67427871Y-71601706D01*
X67459789Y-71579357D01*
X67459792Y-71579355D01*
X67464300Y-71576198D01*
X67626198Y-71414300D01*
X67757523Y-71226749D01*
X67759846Y-71221767D01*
X67759849Y-71221762D01*
X67775805Y-71187543D01*
X67822722Y-71134258D01*
X67890999Y-71114797D01*
X67958959Y-71135339D01*
X68004195Y-71187543D01*
X68020151Y-71221762D01*
X68020154Y-71221767D01*
X68022477Y-71226749D01*
X68153802Y-71414300D01*
X68315700Y-71576198D01*
X68320208Y-71579355D01*
X68320211Y-71579357D01*
X68352129Y-71601706D01*
X68503251Y-71707523D01*
X68508233Y-71709846D01*
X68508238Y-71709849D01*
X68705775Y-71801961D01*
X68710757Y-71804284D01*
X68716065Y-71805706D01*
X68716067Y-71805707D01*
X68926598Y-71862119D01*
X68926600Y-71862119D01*
X68931913Y-71863543D01*
X69160000Y-71883498D01*
X69388087Y-71863543D01*
X69393400Y-71862119D01*
X69393402Y-71862119D01*
X69603933Y-71805707D01*
X69603935Y-71805706D01*
X69609243Y-71804284D01*
X69614225Y-71801961D01*
X69811762Y-71709849D01*
X69811767Y-71709846D01*
X69816749Y-71707523D01*
X69967871Y-71601706D01*
X69999789Y-71579357D01*
X69999792Y-71579355D01*
X70004300Y-71576198D01*
X70166198Y-71414300D01*
X70297523Y-71226749D01*
X70299846Y-71221767D01*
X70299849Y-71221762D01*
X70391961Y-71024225D01*
X70391961Y-71024224D01*
X70394284Y-71019243D01*
X70434787Y-70868087D01*
X70452119Y-70803402D01*
X70452119Y-70803400D01*
X70453543Y-70798087D01*
X70473498Y-70570000D01*
X70453543Y-70341913D01*
X70451959Y-70336002D01*
X70395707Y-70126067D01*
X70395706Y-70126065D01*
X70394284Y-70120757D01*
X70391961Y-70115775D01*
X70299849Y-69918238D01*
X70299846Y-69918233D01*
X70297523Y-69913251D01*
X70166198Y-69725700D01*
X70004300Y-69563802D01*
X69999792Y-69560645D01*
X69999789Y-69560643D01*
X69908851Y-69496968D01*
X69816749Y-69432477D01*
X69811767Y-69430154D01*
X69811762Y-69430151D01*
X69614225Y-69338039D01*
X69614224Y-69338039D01*
X69609243Y-69335716D01*
X69603935Y-69334294D01*
X69603933Y-69334293D01*
X69393402Y-69277881D01*
X69393400Y-69277881D01*
X69388087Y-69276457D01*
X69160000Y-69256502D01*
X68931913Y-69276457D01*
X68926600Y-69277881D01*
X68926598Y-69277881D01*
X68716067Y-69334293D01*
X68716065Y-69334294D01*
X68710757Y-69335716D01*
X68705776Y-69338039D01*
X68705775Y-69338039D01*
X68508238Y-69430151D01*
X68508233Y-69430154D01*
X68503251Y-69432477D01*
X68411149Y-69496968D01*
X68320211Y-69560643D01*
X68320208Y-69560645D01*
X68315700Y-69563802D01*
X68153802Y-69725700D01*
X68022477Y-69913251D01*
X68020154Y-69918233D01*
X68020151Y-69918238D01*
X68004195Y-69952457D01*
X67957278Y-70005742D01*
X67889001Y-70025203D01*
X67821041Y-70004661D01*
X67775805Y-69952457D01*
X67759849Y-69918238D01*
X67759846Y-69918233D01*
X67757523Y-69913251D01*
X67626198Y-69725700D01*
X67464300Y-69563802D01*
X67459792Y-69560645D01*
X67459789Y-69560643D01*
X67317803Y-69461223D01*
X67273475Y-69405766D01*
X67266166Y-69335146D01*
X67300979Y-69268915D01*
X68748320Y-67821574D01*
X68810632Y-67787548D01*
X68881447Y-67792613D01*
G37*
%TD.AperFunction*%
%TA.AperFunction,Conductor*%
G36*
X74574121Y-32668002D02*
G01*
X74620614Y-32721658D01*
X74632000Y-32774000D01*
X74632000Y-62931905D01*
X74611998Y-63000026D01*
X74558342Y-63046519D01*
X74488068Y-63056623D01*
X74423488Y-63027129D01*
X74416905Y-63021000D01*
X74400259Y-63004354D01*
X74397062Y-63001874D01*
X74388040Y-62994169D01*
X74361589Y-62969330D01*
X74355810Y-62963903D01*
X74348864Y-62960084D01*
X74348861Y-62960082D01*
X74338055Y-62954141D01*
X74321536Y-62943290D01*
X74321072Y-62942930D01*
X74305530Y-62930875D01*
X74298261Y-62927730D01*
X74298257Y-62927727D01*
X74264952Y-62913315D01*
X74254302Y-62908098D01*
X74215549Y-62886794D01*
X74195926Y-62881756D01*
X74177223Y-62875352D01*
X74165909Y-62870456D01*
X74165908Y-62870456D01*
X74158634Y-62867308D01*
X74150811Y-62866069D01*
X74150801Y-62866066D01*
X74114965Y-62860390D01*
X74103345Y-62857984D01*
X74068200Y-62848961D01*
X74068199Y-62848961D01*
X74060519Y-62846989D01*
X74040265Y-62846989D01*
X74020568Y-62845440D01*
X74016546Y-62844803D01*
X73952392Y-62814397D01*
X73914860Y-62754133D01*
X73915867Y-62683143D01*
X73923290Y-62664525D01*
X73944672Y-62621262D01*
X73948469Y-62611672D01*
X74010377Y-62407910D01*
X74012555Y-62397837D01*
X74013986Y-62386962D01*
X74011775Y-62372778D01*
X73998617Y-62369000D01*
X72552000Y-62369000D01*
X72483879Y-62348998D01*
X72437386Y-62295342D01*
X72426000Y-62243000D01*
X72426000Y-61842885D01*
X72934000Y-61842885D01*
X72938475Y-61858124D01*
X72939865Y-61859329D01*
X72947548Y-61861000D01*
X73998344Y-61861000D01*
X74011875Y-61857027D01*
X74013180Y-61847947D01*
X73971214Y-61680875D01*
X73967894Y-61671124D01*
X73882972Y-61475814D01*
X73878105Y-61466739D01*
X73762426Y-61287926D01*
X73756136Y-61279757D01*
X73612806Y-61122240D01*
X73605273Y-61115215D01*
X73438139Y-60983222D01*
X73429552Y-60977517D01*
X73243117Y-60874599D01*
X73233705Y-60870369D01*
X73032959Y-60799280D01*
X73022988Y-60796646D01*
X72951837Y-60783972D01*
X72938540Y-60785432D01*
X72934000Y-60799989D01*
X72934000Y-61842885D01*
X72426000Y-61842885D01*
X72426000Y-60798102D01*
X72422082Y-60784758D01*
X72407806Y-60782771D01*
X72369324Y-60788660D01*
X72359288Y-60791051D01*
X72156868Y-60857212D01*
X72147359Y-60861209D01*
X71958463Y-60959542D01*
X71949738Y-60965036D01*
X71779433Y-61092905D01*
X71771726Y-61099748D01*
X71694478Y-61180584D01*
X71632954Y-61216014D01*
X71562042Y-61212557D01*
X71504255Y-61171311D01*
X71485402Y-61137763D01*
X71443767Y-61026703D01*
X71440615Y-61018295D01*
X71353261Y-60901739D01*
X71236705Y-60814385D01*
X71100316Y-60763255D01*
X71038134Y-60756500D01*
X69241866Y-60756500D01*
X69179684Y-60763255D01*
X69043295Y-60814385D01*
X68926739Y-60901739D01*
X68839385Y-61018295D01*
X68788255Y-61154684D01*
X68781500Y-61216866D01*
X68781500Y-61455563D01*
X68761498Y-61523684D01*
X68729563Y-61557497D01*
X68696617Y-61581433D01*
X68686707Y-61587943D01*
X68668019Y-61598995D01*
X68648637Y-61610458D01*
X68634313Y-61624782D01*
X68619281Y-61637621D01*
X68602893Y-61649528D01*
X68574712Y-61683593D01*
X68566722Y-61692373D01*
X67787356Y-62471739D01*
X67725044Y-62505765D01*
X67654229Y-62500700D01*
X67597393Y-62458153D01*
X67579318Y-62423293D01*
X67579105Y-62422406D01*
X67576729Y-62416669D01*
X67490135Y-62207611D01*
X67490133Y-62207607D01*
X67488240Y-62203037D01*
X67458696Y-62154826D01*
X67366759Y-62004798D01*
X67366755Y-62004792D01*
X67364176Y-62000584D01*
X67209969Y-61820031D01*
X67029416Y-61665824D01*
X67025208Y-61663245D01*
X67025202Y-61663241D01*
X66831183Y-61544346D01*
X66826963Y-61541760D01*
X66822393Y-61539867D01*
X66822389Y-61539865D01*
X66612167Y-61452789D01*
X66612165Y-61452788D01*
X66607594Y-61450895D01*
X66602780Y-61449739D01*
X66602773Y-61449737D01*
X66517849Y-61429348D01*
X66456280Y-61393996D01*
X66423598Y-61330970D01*
X66430179Y-61260279D01*
X66458169Y-61217735D01*
X68726752Y-58949152D01*
X68789064Y-58915126D01*
X68848459Y-58916541D01*
X68906591Y-58932118D01*
X68906602Y-58932120D01*
X68911913Y-58933543D01*
X69140000Y-58953498D01*
X69368087Y-58933543D01*
X69373400Y-58932119D01*
X69373402Y-58932119D01*
X69583933Y-58875707D01*
X69583935Y-58875706D01*
X69589243Y-58874284D01*
X69621175Y-58859394D01*
X69791762Y-58779849D01*
X69791767Y-58779846D01*
X69796749Y-58777523D01*
X69933381Y-58681852D01*
X69979789Y-58649357D01*
X69979792Y-58649355D01*
X69984300Y-58646198D01*
X70146198Y-58484300D01*
X70158981Y-58466045D01*
X70226971Y-58368944D01*
X70277523Y-58296749D01*
X70279846Y-58291767D01*
X70279849Y-58291762D01*
X70371961Y-58094225D01*
X70371961Y-58094224D01*
X70374284Y-58089243D01*
X70397523Y-58002517D01*
X70432119Y-57873402D01*
X70432119Y-57873400D01*
X70433543Y-57868087D01*
X70453498Y-57640000D01*
X70433543Y-57411913D01*
X70405887Y-57308699D01*
X70375707Y-57196067D01*
X70375706Y-57196065D01*
X70374284Y-57190757D01*
X70356699Y-57153046D01*
X70279849Y-56988238D01*
X70279846Y-56988233D01*
X70277523Y-56983251D01*
X70146198Y-56795700D01*
X69984300Y-56633802D01*
X69979792Y-56630645D01*
X69979789Y-56630643D01*
X69860517Y-56547128D01*
X69796749Y-56502477D01*
X69791767Y-56500154D01*
X69791762Y-56500151D01*
X69594225Y-56408039D01*
X69594224Y-56408039D01*
X69589243Y-56405716D01*
X69583935Y-56404294D01*
X69583933Y-56404293D01*
X69373402Y-56347881D01*
X69373400Y-56347881D01*
X69368087Y-56346457D01*
X69140000Y-56326502D01*
X68911913Y-56346457D01*
X68906600Y-56347881D01*
X68906598Y-56347881D01*
X68696067Y-56404293D01*
X68696065Y-56404294D01*
X68690757Y-56405716D01*
X68685776Y-56408039D01*
X68685775Y-56408039D01*
X68488238Y-56500151D01*
X68488233Y-56500154D01*
X68483251Y-56502477D01*
X68419483Y-56547128D01*
X68300211Y-56630643D01*
X68300208Y-56630645D01*
X68295700Y-56633802D01*
X68133802Y-56795700D01*
X68002477Y-56983251D01*
X68000154Y-56988233D01*
X68000151Y-56988238D01*
X67923301Y-57153046D01*
X67905716Y-57190757D01*
X67904294Y-57196065D01*
X67904293Y-57196067D01*
X67874113Y-57308699D01*
X67846457Y-57411913D01*
X67826502Y-57640000D01*
X67846457Y-57868087D01*
X67847880Y-57873398D01*
X67847882Y-57873409D01*
X67863459Y-57931541D01*
X67861770Y-58002517D01*
X67830848Y-58053248D01*
X64538620Y-61345475D01*
X61247747Y-64636348D01*
X61239461Y-64643888D01*
X61232982Y-64648000D01*
X61227557Y-64653777D01*
X61186357Y-64697651D01*
X61183602Y-64700493D01*
X61163865Y-64720230D01*
X61161385Y-64723427D01*
X61153682Y-64732447D01*
X61123414Y-64764679D01*
X61119595Y-64771625D01*
X61119593Y-64771628D01*
X61113652Y-64782434D01*
X61102801Y-64798953D01*
X61090386Y-64814959D01*
X61087241Y-64822228D01*
X61087238Y-64822232D01*
X61072826Y-64855537D01*
X61067609Y-64866187D01*
X61046305Y-64904940D01*
X61044334Y-64912615D01*
X61044334Y-64912616D01*
X61041267Y-64924562D01*
X61034863Y-64943266D01*
X61026819Y-64961855D01*
X61025580Y-64969678D01*
X61025577Y-64969688D01*
X61019901Y-65005524D01*
X61017495Y-65017144D01*
X61008628Y-65051683D01*
X61006500Y-65059970D01*
X61006500Y-65080224D01*
X61004949Y-65099934D01*
X61001780Y-65119943D01*
X61002526Y-65127835D01*
X61005941Y-65163961D01*
X61006500Y-65175819D01*
X61006500Y-66325686D01*
X60986498Y-66393807D01*
X60932842Y-66440300D01*
X60862568Y-66450404D01*
X60797988Y-66420910D01*
X60784689Y-66407516D01*
X60713182Y-66323792D01*
X60713177Y-66323787D01*
X60709969Y-66320031D01*
X60529416Y-66165824D01*
X60525208Y-66163245D01*
X60525202Y-66163241D01*
X60331183Y-66044346D01*
X60326963Y-66041760D01*
X60322393Y-66039867D01*
X60322389Y-66039865D01*
X60112167Y-65952789D01*
X60112165Y-65952788D01*
X60107594Y-65950895D01*
X60008743Y-65927163D01*
X59881524Y-65896620D01*
X59881518Y-65896619D01*
X59876711Y-65895465D01*
X59640000Y-65876835D01*
X59403289Y-65895465D01*
X59398482Y-65896619D01*
X59398476Y-65896620D01*
X59271257Y-65927163D01*
X59172406Y-65950895D01*
X59167835Y-65952788D01*
X59167833Y-65952789D01*
X58957611Y-66039865D01*
X58957607Y-66039867D01*
X58953037Y-66041760D01*
X58948817Y-66044346D01*
X58754798Y-66163241D01*
X58754792Y-66163245D01*
X58750584Y-66165824D01*
X58570031Y-66320031D01*
X58415824Y-66500584D01*
X58413245Y-66504792D01*
X58413241Y-66504798D01*
X58294346Y-66698817D01*
X58291760Y-66703037D01*
X58289867Y-66707607D01*
X58289863Y-66707615D01*
X58271381Y-66752237D01*
X58226834Y-66807518D01*
X58159471Y-66829940D01*
X58090679Y-66812383D01*
X58065877Y-66793115D01*
X57810405Y-66537643D01*
X57776379Y-66475331D01*
X57773500Y-66448548D01*
X57773500Y-65842524D01*
X57793502Y-65774403D01*
X57805858Y-65758221D01*
X57879040Y-65676944D01*
X57961400Y-65534292D01*
X57971223Y-65517279D01*
X57971224Y-65517278D01*
X57974527Y-65511556D01*
X58033542Y-65329928D01*
X58035515Y-65311162D01*
X58052814Y-65146565D01*
X58053504Y-65140000D01*
X58047221Y-65080224D01*
X58034232Y-64956635D01*
X58034232Y-64956633D01*
X58033542Y-64950072D01*
X57974527Y-64768444D01*
X57879040Y-64603056D01*
X57823248Y-64541092D01*
X57755675Y-64466045D01*
X57755674Y-64466044D01*
X57751253Y-64461134D01*
X57630603Y-64373476D01*
X57602094Y-64352763D01*
X57602093Y-64352762D01*
X57596752Y-64348882D01*
X57590726Y-64346199D01*
X57590719Y-64346195D01*
X57489822Y-64301274D01*
X57435726Y-64255294D01*
X57415076Y-64187367D01*
X57434428Y-64119059D01*
X57451975Y-64097072D01*
X58064788Y-63484259D01*
X58127100Y-63450233D01*
X58197915Y-63455298D01*
X58254751Y-63497845D01*
X58270291Y-63525135D01*
X58289862Y-63572382D01*
X58289865Y-63572387D01*
X58291760Y-63576963D01*
X58294346Y-63581183D01*
X58413241Y-63775202D01*
X58413245Y-63775208D01*
X58415824Y-63779416D01*
X58570031Y-63959969D01*
X58750584Y-64114176D01*
X58754792Y-64116755D01*
X58754798Y-64116759D01*
X58916400Y-64215789D01*
X58953037Y-64238240D01*
X58957607Y-64240133D01*
X58957611Y-64240135D01*
X59109783Y-64303166D01*
X59172406Y-64329105D01*
X59252609Y-64348360D01*
X59398476Y-64383380D01*
X59398482Y-64383381D01*
X59403289Y-64384535D01*
X59640000Y-64403165D01*
X59876711Y-64384535D01*
X59881518Y-64383381D01*
X59881524Y-64383380D01*
X60027391Y-64348360D01*
X60107594Y-64329105D01*
X60170217Y-64303166D01*
X60322389Y-64240135D01*
X60322393Y-64240133D01*
X60326963Y-64238240D01*
X60363600Y-64215789D01*
X60525202Y-64116759D01*
X60525208Y-64116755D01*
X60529416Y-64114176D01*
X60709969Y-63959969D01*
X60864176Y-63779416D01*
X60866755Y-63775208D01*
X60866759Y-63775202D01*
X60985654Y-63581183D01*
X60988240Y-63576963D01*
X60990138Y-63572382D01*
X61077211Y-63362167D01*
X61077212Y-63362165D01*
X61079105Y-63357594D01*
X61134535Y-63126711D01*
X61153165Y-62890000D01*
X61134535Y-62653289D01*
X61132041Y-62642897D01*
X61093648Y-62482982D01*
X61079105Y-62422406D01*
X61073032Y-62407745D01*
X60990135Y-62207611D01*
X60990133Y-62207607D01*
X60988240Y-62203037D01*
X60958696Y-62154826D01*
X60866759Y-62004798D01*
X60866755Y-62004792D01*
X60864176Y-62000584D01*
X60709969Y-61820031D01*
X60529416Y-61665824D01*
X60525208Y-61663245D01*
X60525202Y-61663241D01*
X60331183Y-61544346D01*
X60326963Y-61541760D01*
X60322393Y-61539867D01*
X60322385Y-61539863D01*
X60275137Y-61520293D01*
X60219856Y-61475745D01*
X60197434Y-61408382D01*
X60214992Y-61339591D01*
X60234259Y-61314789D01*
X60342253Y-61206795D01*
X60350539Y-61199255D01*
X60357018Y-61195143D01*
X60403644Y-61145491D01*
X60406398Y-61142650D01*
X60426135Y-61122913D01*
X60428615Y-61119716D01*
X60436320Y-61110694D01*
X60461159Y-61084243D01*
X60466586Y-61078464D01*
X60470405Y-61071518D01*
X60470407Y-61071515D01*
X60476348Y-61060709D01*
X60487199Y-61044190D01*
X60494758Y-61034444D01*
X60499614Y-61028184D01*
X60502759Y-61020915D01*
X60502762Y-61020911D01*
X60517174Y-60987606D01*
X60522391Y-60976956D01*
X60543695Y-60938203D01*
X60548733Y-60918580D01*
X60555137Y-60899877D01*
X60560033Y-60888563D01*
X60560033Y-60888562D01*
X60563181Y-60881288D01*
X60564420Y-60873465D01*
X60564423Y-60873455D01*
X60570099Y-60837619D01*
X60572505Y-60825999D01*
X60581528Y-60790854D01*
X60581528Y-60790853D01*
X60583500Y-60783173D01*
X60583500Y-60762919D01*
X60585051Y-60743208D01*
X60586980Y-60731029D01*
X60588220Y-60723200D01*
X60584059Y-60679181D01*
X60583500Y-60667324D01*
X60583500Y-58859394D01*
X60603502Y-58791273D01*
X60637229Y-58756181D01*
X60789789Y-58649357D01*
X60789792Y-58649355D01*
X60794300Y-58646198D01*
X60956198Y-58484300D01*
X60968981Y-58466045D01*
X61036971Y-58368944D01*
X61087523Y-58296749D01*
X61089846Y-58291767D01*
X61089849Y-58291762D01*
X61181961Y-58094225D01*
X61181961Y-58094224D01*
X61184284Y-58089243D01*
X61207523Y-58002517D01*
X61242119Y-57873402D01*
X61242119Y-57873400D01*
X61243543Y-57868087D01*
X61263498Y-57640000D01*
X61243543Y-57411913D01*
X61215887Y-57308699D01*
X61185707Y-57196067D01*
X61185706Y-57196065D01*
X61184284Y-57190757D01*
X61166699Y-57153046D01*
X61089849Y-56988238D01*
X61089846Y-56988233D01*
X61087523Y-56983251D01*
X60956198Y-56795700D01*
X60794300Y-56633802D01*
X60789792Y-56630645D01*
X60789789Y-56630643D01*
X60670517Y-56547128D01*
X60606749Y-56502477D01*
X60601767Y-56500154D01*
X60601762Y-56500151D01*
X60404225Y-56408039D01*
X60404224Y-56408039D01*
X60399243Y-56405716D01*
X60393935Y-56404294D01*
X60393933Y-56404293D01*
X60183402Y-56347881D01*
X60183400Y-56347881D01*
X60178087Y-56346457D01*
X59950000Y-56326502D01*
X59721913Y-56346457D01*
X59716600Y-56347881D01*
X59716598Y-56347881D01*
X59506067Y-56404293D01*
X59506065Y-56404294D01*
X59500757Y-56405716D01*
X59495776Y-56408039D01*
X59495775Y-56408039D01*
X59298238Y-56500151D01*
X59298233Y-56500154D01*
X59293251Y-56502477D01*
X59229483Y-56547128D01*
X59110211Y-56630643D01*
X59110208Y-56630645D01*
X59105700Y-56633802D01*
X58943802Y-56795700D01*
X58812477Y-56983251D01*
X58810154Y-56988233D01*
X58810151Y-56988238D01*
X58733301Y-57153046D01*
X58715716Y-57190757D01*
X58714294Y-57196065D01*
X58714293Y-57196067D01*
X58684113Y-57308699D01*
X58656457Y-57411913D01*
X58636502Y-57640000D01*
X58656457Y-57868087D01*
X58657881Y-57873400D01*
X58657881Y-57873402D01*
X58692478Y-58002517D01*
X58715716Y-58089243D01*
X58718039Y-58094224D01*
X58718039Y-58094225D01*
X58810151Y-58291762D01*
X58810154Y-58291767D01*
X58812477Y-58296749D01*
X58863029Y-58368944D01*
X58931020Y-58466045D01*
X58943802Y-58484300D01*
X59105700Y-58646198D01*
X59110208Y-58649355D01*
X59110211Y-58649357D01*
X59262771Y-58756181D01*
X59307099Y-58811638D01*
X59316500Y-58859394D01*
X59316500Y-60388549D01*
X59296498Y-60456670D01*
X59279595Y-60477644D01*
X57464124Y-62293115D01*
X57401812Y-62327141D01*
X57330997Y-62322076D01*
X57274161Y-62279529D01*
X57258620Y-62252239D01*
X57240133Y-62207607D01*
X57240133Y-62207606D01*
X57238240Y-62203037D01*
X57208696Y-62154826D01*
X57116759Y-62004798D01*
X57116755Y-62004792D01*
X57114176Y-62000584D01*
X56959969Y-61820031D01*
X56779416Y-61665824D01*
X56775208Y-61663245D01*
X56775202Y-61663241D01*
X56581183Y-61544346D01*
X56576963Y-61541760D01*
X56572393Y-61539867D01*
X56572389Y-61539865D01*
X56362167Y-61452789D01*
X56362165Y-61452788D01*
X56357594Y-61450895D01*
X56259051Y-61427237D01*
X56131524Y-61396620D01*
X56131518Y-61396619D01*
X56126711Y-61395465D01*
X55890000Y-61376835D01*
X55653289Y-61395465D01*
X55648482Y-61396619D01*
X55648476Y-61396620D01*
X55520949Y-61427237D01*
X55422406Y-61450895D01*
X55417835Y-61452788D01*
X55417833Y-61452789D01*
X55207611Y-61539865D01*
X55207607Y-61539867D01*
X55203037Y-61541760D01*
X55198817Y-61544346D01*
X55004798Y-61663241D01*
X55004792Y-61663245D01*
X55000584Y-61665824D01*
X54820031Y-61820031D01*
X54665824Y-62000584D01*
X54663245Y-62004792D01*
X54663241Y-62004798D01*
X54571304Y-62154826D01*
X54541760Y-62203037D01*
X54539867Y-62207607D01*
X54539865Y-62207611D01*
X54456968Y-62407745D01*
X54450895Y-62422406D01*
X54436352Y-62482982D01*
X54397960Y-62642897D01*
X54395465Y-62653289D01*
X54376835Y-62890000D01*
X54395465Y-63126711D01*
X54450895Y-63357594D01*
X54452788Y-63362165D01*
X54452789Y-63362167D01*
X54539863Y-63572382D01*
X54541760Y-63576963D01*
X54544346Y-63581183D01*
X54663241Y-63775202D01*
X54663245Y-63775208D01*
X54665824Y-63779416D01*
X54820031Y-63959969D01*
X55000584Y-64114176D01*
X55004792Y-64116755D01*
X55004798Y-64116759D01*
X55166400Y-64215789D01*
X55203037Y-64238240D01*
X55207607Y-64240133D01*
X55207615Y-64240137D01*
X55252237Y-64258619D01*
X55307518Y-64303166D01*
X55329940Y-64370529D01*
X55312383Y-64439321D01*
X55293115Y-64464123D01*
X54006521Y-65750717D01*
X53998235Y-65758257D01*
X53991756Y-65762369D01*
X53986331Y-65768146D01*
X53945131Y-65812020D01*
X53942376Y-65814862D01*
X53922639Y-65834599D01*
X53920159Y-65837796D01*
X53912456Y-65846816D01*
X53882188Y-65879048D01*
X53878369Y-65885994D01*
X53878367Y-65885997D01*
X53872426Y-65896803D01*
X53861575Y-65913322D01*
X53849160Y-65929328D01*
X53846015Y-65936597D01*
X53846012Y-65936601D01*
X53831600Y-65969906D01*
X53826383Y-65980556D01*
X53805079Y-66019309D01*
X53803108Y-66026984D01*
X53803108Y-66026985D01*
X53800041Y-66038931D01*
X53793637Y-66057635D01*
X53785593Y-66076224D01*
X53784354Y-66084047D01*
X53784351Y-66084057D01*
X53778675Y-66119893D01*
X53776269Y-66131513D01*
X53767460Y-66165824D01*
X53765274Y-66174339D01*
X53765274Y-66194593D01*
X53763723Y-66214303D01*
X53760554Y-66234312D01*
X53761300Y-66242204D01*
X53764715Y-66278330D01*
X53765274Y-66290188D01*
X53765274Y-67873300D01*
X53745272Y-67941421D01*
X53732916Y-67957603D01*
X53659734Y-68038880D01*
X53656433Y-68044598D01*
X53586901Y-68165031D01*
X53564247Y-68204268D01*
X53554247Y-68235045D01*
X53514176Y-68293648D01*
X53448779Y-68321286D01*
X53378822Y-68309180D01*
X53345320Y-68285202D01*
X49638991Y-64578873D01*
X49604965Y-64516561D01*
X49610030Y-64445746D01*
X49652577Y-64388910D01*
X49698672Y-64367259D01*
X49778379Y-64348123D01*
X49857594Y-64329105D01*
X49920217Y-64303166D01*
X50072389Y-64240135D01*
X50072393Y-64240133D01*
X50076963Y-64238240D01*
X50113600Y-64215789D01*
X50275202Y-64116759D01*
X50275208Y-64116755D01*
X50279416Y-64114176D01*
X50459969Y-63959969D01*
X50614176Y-63779416D01*
X50616755Y-63775208D01*
X50616759Y-63775202D01*
X50735654Y-63581183D01*
X50738240Y-63576963D01*
X50740138Y-63572382D01*
X50827211Y-63362167D01*
X50827212Y-63362165D01*
X50829105Y-63357594D01*
X50884535Y-63126711D01*
X50903165Y-62890000D01*
X50884535Y-62653289D01*
X50882041Y-62642897D01*
X50843648Y-62482982D01*
X50829105Y-62422406D01*
X50823032Y-62407745D01*
X50740135Y-62207611D01*
X50740133Y-62207607D01*
X50738240Y-62203037D01*
X50708696Y-62154826D01*
X50616759Y-62004798D01*
X50616755Y-62004792D01*
X50614176Y-62000584D01*
X50459969Y-61820031D01*
X50279416Y-61665824D01*
X50275208Y-61663245D01*
X50275202Y-61663241D01*
X50081183Y-61544346D01*
X50076963Y-61541760D01*
X50072393Y-61539867D01*
X50072389Y-61539865D01*
X49862167Y-61452789D01*
X49862165Y-61452788D01*
X49857594Y-61450895D01*
X49759051Y-61427237D01*
X49631524Y-61396620D01*
X49631518Y-61396619D01*
X49626711Y-61395465D01*
X49390000Y-61376835D01*
X49153289Y-61395465D01*
X49148482Y-61396619D01*
X49148476Y-61396620D01*
X49020949Y-61427237D01*
X48922406Y-61450895D01*
X48917835Y-61452788D01*
X48917833Y-61452789D01*
X48707611Y-61539865D01*
X48707607Y-61539867D01*
X48703037Y-61541760D01*
X48698817Y-61544346D01*
X48504798Y-61663241D01*
X48504792Y-61663245D01*
X48500584Y-61665824D01*
X48320031Y-61820031D01*
X48165824Y-62000584D01*
X48163245Y-62004792D01*
X48163241Y-62004798D01*
X48071304Y-62154826D01*
X48041760Y-62203037D01*
X48039867Y-62207607D01*
X48039865Y-62207611D01*
X47956968Y-62407745D01*
X47950895Y-62422406D01*
X47936352Y-62482982D01*
X47912741Y-62581328D01*
X47877389Y-62642897D01*
X47814362Y-62675580D01*
X47743671Y-62668999D01*
X47701127Y-62641009D01*
X47557865Y-62497747D01*
X47550325Y-62489461D01*
X47546213Y-62482982D01*
X47496561Y-62436356D01*
X47493720Y-62433602D01*
X47473983Y-62413865D01*
X47470786Y-62411385D01*
X47461764Y-62403680D01*
X47435313Y-62378841D01*
X47429534Y-62373414D01*
X47422588Y-62369595D01*
X47422585Y-62369593D01*
X47411779Y-62363652D01*
X47395260Y-62352801D01*
X47388807Y-62347796D01*
X47379254Y-62340386D01*
X47371985Y-62337241D01*
X47371981Y-62337238D01*
X47338676Y-62322826D01*
X47328026Y-62317609D01*
X47289273Y-62296305D01*
X47269650Y-62291267D01*
X47250947Y-62284863D01*
X47239633Y-62279967D01*
X47239632Y-62279967D01*
X47232358Y-62276819D01*
X47224535Y-62275580D01*
X47224525Y-62275577D01*
X47188689Y-62269901D01*
X47177069Y-62267495D01*
X47141924Y-62258472D01*
X47141923Y-62258472D01*
X47134243Y-62256500D01*
X47113989Y-62256500D01*
X47094278Y-62254949D01*
X47074270Y-62251780D01*
X47074625Y-62249536D01*
X47018113Y-62230991D01*
X46982105Y-62193026D01*
X46866758Y-62004798D01*
X46864176Y-62000584D01*
X46709969Y-61820031D01*
X46529416Y-61665824D01*
X46525208Y-61663245D01*
X46525202Y-61663241D01*
X46331183Y-61544346D01*
X46326963Y-61541760D01*
X46322393Y-61539867D01*
X46322389Y-61539865D01*
X46112167Y-61452789D01*
X46112165Y-61452788D01*
X46107594Y-61450895D01*
X46009051Y-61427237D01*
X45881524Y-61396620D01*
X45881518Y-61396619D01*
X45876711Y-61395465D01*
X45640000Y-61376835D01*
X45403289Y-61395465D01*
X45398482Y-61396619D01*
X45398476Y-61396620D01*
X45180049Y-61449060D01*
X45109141Y-61445513D01*
X45061540Y-61415636D01*
X44570550Y-60924646D01*
X44536524Y-60862334D01*
X44534335Y-60822380D01*
X44534610Y-60819771D01*
X44553504Y-60640000D01*
X44535517Y-60468863D01*
X44534232Y-60456635D01*
X44534232Y-60456633D01*
X44533542Y-60450072D01*
X44531501Y-60443790D01*
X44530542Y-60440837D01*
X44530491Y-60439035D01*
X44530129Y-60437334D01*
X44530440Y-60437268D01*
X44528517Y-60369870D01*
X44565181Y-60309073D01*
X44628894Y-60277750D01*
X44638519Y-60276464D01*
X44663962Y-60274059D01*
X44675819Y-60273500D01*
X47431800Y-60273500D01*
X47499921Y-60293502D01*
X47519147Y-60309843D01*
X47519420Y-60309540D01*
X47524332Y-60313963D01*
X47528747Y-60318866D01*
X47534086Y-60322745D01*
X47675842Y-60425737D01*
X47683248Y-60431118D01*
X47689276Y-60433802D01*
X47689278Y-60433803D01*
X47813397Y-60489064D01*
X47857712Y-60508794D01*
X47951112Y-60528647D01*
X48038056Y-60547128D01*
X48038061Y-60547128D01*
X48044513Y-60548500D01*
X48235487Y-60548500D01*
X48241939Y-60547128D01*
X48241944Y-60547128D01*
X48328888Y-60528647D01*
X48422288Y-60508794D01*
X48466603Y-60489064D01*
X48590722Y-60433803D01*
X48590724Y-60433802D01*
X48596752Y-60431118D01*
X48604158Y-60425737D01*
X48605555Y-60425238D01*
X48607811Y-60423936D01*
X48608049Y-60424348D01*
X48671024Y-60401875D01*
X48740177Y-60417952D01*
X48789659Y-60468863D01*
X48798055Y-60488727D01*
X48805473Y-60511556D01*
X48808776Y-60517278D01*
X48808777Y-60517279D01*
X48826535Y-60548036D01*
X48900960Y-60676944D01*
X48905378Y-60681851D01*
X48905379Y-60681852D01*
X48996247Y-60782771D01*
X49028747Y-60818866D01*
X49099635Y-60870369D01*
X49177904Y-60927235D01*
X49183248Y-60931118D01*
X49189276Y-60933802D01*
X49189278Y-60933803D01*
X49349799Y-61005271D01*
X49357712Y-61008794D01*
X49441967Y-61026703D01*
X49538056Y-61047128D01*
X49538061Y-61047128D01*
X49544513Y-61048500D01*
X49735487Y-61048500D01*
X49741939Y-61047128D01*
X49741944Y-61047128D01*
X49838033Y-61026703D01*
X49922288Y-61008794D01*
X49930201Y-61005271D01*
X50090722Y-60933803D01*
X50090724Y-60933802D01*
X50096752Y-60931118D01*
X50102091Y-60927239D01*
X50102098Y-60927235D01*
X50108528Y-60922563D01*
X50182587Y-60898500D01*
X51530006Y-60898500D01*
X51548956Y-60899933D01*
X51563191Y-60902099D01*
X51563195Y-60902099D01*
X51570425Y-60903199D01*
X51577717Y-60902606D01*
X51577720Y-60902606D01*
X51623094Y-60898915D01*
X51633309Y-60898500D01*
X51641369Y-60898500D01*
X51654659Y-60896951D01*
X51669583Y-60895211D01*
X51673958Y-60894778D01*
X51739415Y-60889454D01*
X51739418Y-60889453D01*
X51746713Y-60888860D01*
X51753677Y-60886604D01*
X51759636Y-60885413D01*
X51765491Y-60884029D01*
X51772757Y-60883182D01*
X51841403Y-60858265D01*
X51845531Y-60856848D01*
X51908012Y-60836607D01*
X51908014Y-60836606D01*
X51914975Y-60834351D01*
X51921230Y-60830555D01*
X51926704Y-60828049D01*
X51932134Y-60825330D01*
X51939013Y-60822833D01*
X51976734Y-60798102D01*
X52000052Y-60782814D01*
X52003756Y-60780477D01*
X52066183Y-60742595D01*
X52074560Y-60735197D01*
X52074584Y-60735224D01*
X52077576Y-60732571D01*
X52080809Y-60729868D01*
X52086928Y-60725856D01*
X52140204Y-60669617D01*
X52142582Y-60667175D01*
X54068422Y-58741335D01*
X54082834Y-58728949D01*
X54094429Y-58720416D01*
X54094434Y-58720411D01*
X54100329Y-58716073D01*
X54105068Y-58710495D01*
X54105071Y-58710492D01*
X54134546Y-58675797D01*
X54141476Y-58668281D01*
X54147171Y-58662586D01*
X54158334Y-58648476D01*
X54164792Y-58640314D01*
X54167583Y-58636910D01*
X54210102Y-58586862D01*
X54210103Y-58586860D01*
X54214844Y-58581280D01*
X54218172Y-58574764D01*
X54221531Y-58569727D01*
X54224705Y-58564588D01*
X54229245Y-58558849D01*
X54260147Y-58492728D01*
X54262080Y-58488774D01*
X54276194Y-58461134D01*
X54295280Y-58423757D01*
X54297021Y-58416641D01*
X54299115Y-58411011D01*
X54301034Y-58405244D01*
X54304132Y-58398615D01*
X54312908Y-58356426D01*
X54318993Y-58327169D01*
X54319964Y-58322880D01*
X54331951Y-58273891D01*
X54337319Y-58251955D01*
X54338011Y-58240801D01*
X54338047Y-58240803D01*
X54338286Y-58236813D01*
X54338661Y-58232615D01*
X54340151Y-58225450D01*
X54338057Y-58148044D01*
X54338011Y-58144637D01*
X54338011Y-55146580D01*
X54339444Y-55127629D01*
X54341610Y-55113394D01*
X54341610Y-55113392D01*
X54342710Y-55106162D01*
X54342059Y-55098148D01*
X54338426Y-55053493D01*
X54338011Y-55043278D01*
X54338011Y-55035218D01*
X54335651Y-55014977D01*
X54334722Y-55007004D01*
X54334289Y-55002629D01*
X54328965Y-54937172D01*
X54328964Y-54937169D01*
X54328371Y-54929874D01*
X54326115Y-54922910D01*
X54324924Y-54916951D01*
X54323540Y-54911096D01*
X54322693Y-54903830D01*
X54297776Y-54835184D01*
X54296359Y-54831056D01*
X54276118Y-54768575D01*
X54276117Y-54768573D01*
X54273862Y-54761612D01*
X54270066Y-54755357D01*
X54267560Y-54749883D01*
X54264841Y-54744453D01*
X54262344Y-54737574D01*
X54222320Y-54676527D01*
X54219983Y-54672823D01*
X54185020Y-54615204D01*
X54185016Y-54615199D01*
X54182106Y-54610403D01*
X54174708Y-54602027D01*
X54174734Y-54602004D01*
X54172085Y-54599014D01*
X54169377Y-54595775D01*
X54165367Y-54589659D01*
X54160060Y-54584632D01*
X54160057Y-54584628D01*
X54109128Y-54536383D01*
X54106686Y-54534005D01*
X53560125Y-53987444D01*
X53529387Y-53937285D01*
X53512374Y-53884923D01*
X53474527Y-53768444D01*
X53454718Y-53734133D01*
X53382341Y-53608774D01*
X53379040Y-53603056D01*
X53251253Y-53461134D01*
X53096752Y-53348882D01*
X53090724Y-53346198D01*
X53090722Y-53346197D01*
X52928319Y-53273891D01*
X52928318Y-53273891D01*
X52922288Y-53271206D01*
X52828888Y-53251353D01*
X52741944Y-53232872D01*
X52741939Y-53232872D01*
X52735487Y-53231500D01*
X52544513Y-53231500D01*
X52538061Y-53232872D01*
X52538056Y-53232872D01*
X52451112Y-53251353D01*
X52357712Y-53271206D01*
X52351682Y-53273891D01*
X52351681Y-53273891D01*
X52189278Y-53346197D01*
X52189276Y-53346198D01*
X52183248Y-53348882D01*
X52028747Y-53461134D01*
X51900960Y-53603056D01*
X51897659Y-53608774D01*
X51825283Y-53734133D01*
X51805473Y-53768444D01*
X51746458Y-53950072D01*
X51726496Y-54140000D01*
X51746458Y-54329928D01*
X51805473Y-54511556D01*
X51900960Y-54676944D01*
X51905378Y-54681851D01*
X51905379Y-54681852D01*
X52024325Y-54813955D01*
X52028747Y-54818866D01*
X52183248Y-54931118D01*
X52189276Y-54933802D01*
X52189278Y-54933803D01*
X52348173Y-55004547D01*
X52357712Y-55008794D01*
X52364167Y-55010166D01*
X52364176Y-55010169D01*
X52420772Y-55022199D01*
X52483669Y-55056350D01*
X52784106Y-55356787D01*
X52818132Y-55419099D01*
X52821011Y-55445882D01*
X52821011Y-56252701D01*
X52801009Y-56320822D01*
X52747353Y-56367315D01*
X52677079Y-56377419D01*
X52662407Y-56374410D01*
X52558087Y-56346457D01*
X52330000Y-56326502D01*
X52101913Y-56346457D01*
X52096602Y-56347880D01*
X52096591Y-56347882D01*
X52038459Y-56363459D01*
X51967483Y-56361770D01*
X51916752Y-56330848D01*
X50833652Y-55247747D01*
X50826112Y-55239461D01*
X50822000Y-55232982D01*
X50772348Y-55186356D01*
X50769507Y-55183602D01*
X50749770Y-55163865D01*
X50746573Y-55161385D01*
X50737551Y-55153680D01*
X50719842Y-55137050D01*
X50705321Y-55123414D01*
X50698375Y-55119595D01*
X50698372Y-55119593D01*
X50687566Y-55113652D01*
X50671047Y-55102801D01*
X50665048Y-55098148D01*
X50655041Y-55090386D01*
X50647772Y-55087241D01*
X50647768Y-55087238D01*
X50614463Y-55072826D01*
X50603813Y-55067609D01*
X50565060Y-55046305D01*
X50545437Y-55041267D01*
X50526734Y-55034863D01*
X50515420Y-55029967D01*
X50515419Y-55029967D01*
X50508145Y-55026819D01*
X50500322Y-55025580D01*
X50500312Y-55025577D01*
X50464476Y-55019901D01*
X50452856Y-55017495D01*
X50417711Y-55008472D01*
X50417710Y-55008472D01*
X50410030Y-55006500D01*
X50389776Y-55006500D01*
X50370065Y-55004949D01*
X50369245Y-55004819D01*
X50350057Y-55001780D01*
X50342165Y-55002526D01*
X50336939Y-55003020D01*
X50320786Y-55004547D01*
X50306039Y-55005941D01*
X50294181Y-55006500D01*
X49348200Y-55006500D01*
X49280079Y-54986498D01*
X49260853Y-54970157D01*
X49260580Y-54970460D01*
X49255668Y-54966037D01*
X49251253Y-54961134D01*
X49209940Y-54931118D01*
X49102094Y-54852763D01*
X49102093Y-54852762D01*
X49096752Y-54848882D01*
X49090724Y-54846198D01*
X49090722Y-54846197D01*
X48928319Y-54773891D01*
X48928318Y-54773891D01*
X48922288Y-54771206D01*
X48813687Y-54748122D01*
X48741944Y-54732872D01*
X48741939Y-54732872D01*
X48735487Y-54731500D01*
X48544513Y-54731500D01*
X48538061Y-54732872D01*
X48538056Y-54732872D01*
X48466313Y-54748122D01*
X48357712Y-54771206D01*
X48351682Y-54773891D01*
X48351681Y-54773891D01*
X48189278Y-54846197D01*
X48189276Y-54846198D01*
X48183248Y-54848882D01*
X48028747Y-54961134D01*
X48024326Y-54966044D01*
X48024325Y-54966045D01*
X47915203Y-55087238D01*
X47900960Y-55103056D01*
X47871732Y-55153680D01*
X47826011Y-55232872D01*
X47805473Y-55268444D01*
X47746458Y-55450072D01*
X47726496Y-55640000D01*
X47746458Y-55829928D01*
X47805473Y-56011556D01*
X47900960Y-56176944D01*
X47905378Y-56181851D01*
X47905379Y-56181852D01*
X47998907Y-56285725D01*
X48028747Y-56318866D01*
X48086138Y-56360563D01*
X48151483Y-56408039D01*
X48183248Y-56431118D01*
X48189276Y-56433802D01*
X48189278Y-56433803D01*
X48351681Y-56506109D01*
X48357712Y-56508794D01*
X48451113Y-56528647D01*
X48538056Y-56547128D01*
X48538061Y-56547128D01*
X48544513Y-56548500D01*
X48735487Y-56548500D01*
X48741939Y-56547128D01*
X48741944Y-56547128D01*
X48897887Y-56513981D01*
X48968678Y-56519383D01*
X49025311Y-56562200D01*
X49049804Y-56628838D01*
X49034383Y-56698139D01*
X49013179Y-56726323D01*
X48943802Y-56795700D01*
X48812477Y-56983251D01*
X48810154Y-56988233D01*
X48810151Y-56988238D01*
X48733301Y-57153046D01*
X48715716Y-57190757D01*
X48714294Y-57196065D01*
X48714293Y-57196067D01*
X48684113Y-57308699D01*
X48656457Y-57411913D01*
X48636502Y-57640000D01*
X48656457Y-57868087D01*
X48657881Y-57873400D01*
X48657881Y-57873402D01*
X48692478Y-58002517D01*
X48715716Y-58089243D01*
X48718039Y-58094224D01*
X48718039Y-58094225D01*
X48810151Y-58291762D01*
X48810154Y-58291767D01*
X48812477Y-58296749D01*
X48863029Y-58368944D01*
X48931020Y-58466045D01*
X48943802Y-58484300D01*
X49105700Y-58646198D01*
X49110208Y-58649355D01*
X49110211Y-58649357D01*
X49156619Y-58681852D01*
X49293251Y-58777523D01*
X49298233Y-58779846D01*
X49298238Y-58779849D01*
X49468825Y-58859394D01*
X49500757Y-58874284D01*
X49506065Y-58875706D01*
X49506067Y-58875707D01*
X49716598Y-58932119D01*
X49716600Y-58932119D01*
X49721913Y-58933543D01*
X49950000Y-58953498D01*
X50178087Y-58933543D01*
X50183400Y-58932119D01*
X50183402Y-58932119D01*
X50393933Y-58875707D01*
X50393935Y-58875706D01*
X50399243Y-58874284D01*
X50431175Y-58859394D01*
X50601762Y-58779849D01*
X50601767Y-58779846D01*
X50606749Y-58777523D01*
X50743381Y-58681852D01*
X50789789Y-58649357D01*
X50789792Y-58649355D01*
X50794300Y-58646198D01*
X50956198Y-58484300D01*
X50968981Y-58466045D01*
X51036787Y-58369207D01*
X51092244Y-58324879D01*
X51162863Y-58317570D01*
X51226224Y-58349601D01*
X51243213Y-58369207D01*
X51311020Y-58466045D01*
X51323802Y-58484300D01*
X51485700Y-58646198D01*
X51490208Y-58649355D01*
X51490211Y-58649357D01*
X51673251Y-58777523D01*
X51672251Y-58778951D01*
X51715817Y-58824638D01*
X51729256Y-58894351D01*
X51702872Y-58960263D01*
X51692921Y-58971474D01*
X51319800Y-59344595D01*
X51257488Y-59378621D01*
X51230705Y-59381500D01*
X50182587Y-59381500D01*
X50108528Y-59357437D01*
X50102098Y-59352765D01*
X50102091Y-59352761D01*
X50096752Y-59348882D01*
X50090724Y-59346198D01*
X50090722Y-59346197D01*
X49928319Y-59273891D01*
X49928318Y-59273891D01*
X49922288Y-59271206D01*
X49828888Y-59251353D01*
X49741944Y-59232872D01*
X49741939Y-59232872D01*
X49735487Y-59231500D01*
X49544513Y-59231500D01*
X49538061Y-59232872D01*
X49538056Y-59232872D01*
X49451112Y-59251353D01*
X49357712Y-59271206D01*
X49351682Y-59273891D01*
X49351681Y-59273891D01*
X49189278Y-59346197D01*
X49189276Y-59346198D01*
X49183248Y-59348882D01*
X49175842Y-59354263D01*
X49174445Y-59354762D01*
X49172189Y-59356064D01*
X49171951Y-59355652D01*
X49108976Y-59378125D01*
X49039823Y-59362048D01*
X48990341Y-59311137D01*
X48981943Y-59291269D01*
X48974527Y-59268444D01*
X48953990Y-59232872D01*
X48904118Y-59146492D01*
X48879040Y-59103056D01*
X48850595Y-59071464D01*
X48755675Y-58966045D01*
X48755674Y-58966044D01*
X48751253Y-58961134D01*
X48631715Y-58874284D01*
X48602094Y-58852763D01*
X48602093Y-58852762D01*
X48596752Y-58848882D01*
X48590724Y-58846198D01*
X48590722Y-58846197D01*
X48428319Y-58773891D01*
X48428318Y-58773891D01*
X48422288Y-58771206D01*
X48328887Y-58751353D01*
X48241944Y-58732872D01*
X48241939Y-58732872D01*
X48235487Y-58731500D01*
X48044513Y-58731500D01*
X48038061Y-58732872D01*
X48038056Y-58732872D01*
X47951113Y-58751353D01*
X47857712Y-58771206D01*
X47851682Y-58773891D01*
X47851681Y-58773891D01*
X47689278Y-58846197D01*
X47689276Y-58846198D01*
X47683248Y-58848882D01*
X47677907Y-58852762D01*
X47677906Y-58852763D01*
X47592071Y-58915126D01*
X47528747Y-58961134D01*
X47524332Y-58966037D01*
X47519420Y-58970460D01*
X47518295Y-58969211D01*
X47464986Y-59002051D01*
X47431800Y-59006500D01*
X45143421Y-59006500D01*
X45075300Y-58986498D01*
X45028807Y-58932842D01*
X45023588Y-58919437D01*
X44990910Y-58818866D01*
X44974527Y-58768444D01*
X44965533Y-58752865D01*
X44916698Y-58668281D01*
X44879040Y-58603056D01*
X44849031Y-58569727D01*
X44755675Y-58466045D01*
X44755674Y-58466044D01*
X44751253Y-58461134D01*
X44610872Y-58359141D01*
X44602094Y-58352763D01*
X44602093Y-58352762D01*
X44596752Y-58348882D01*
X44590724Y-58346198D01*
X44590722Y-58346197D01*
X44428319Y-58273891D01*
X44428318Y-58273891D01*
X44422288Y-58271206D01*
X44328887Y-58251353D01*
X44241944Y-58232872D01*
X44241939Y-58232872D01*
X44235487Y-58231500D01*
X44044513Y-58231500D01*
X44038061Y-58232872D01*
X44038056Y-58232872D01*
X43951113Y-58251353D01*
X43857712Y-58271206D01*
X43851685Y-58273889D01*
X43851677Y-58273892D01*
X43687491Y-58346992D01*
X43617124Y-58356426D01*
X43552827Y-58326319D01*
X43515014Y-58266230D01*
X43515690Y-58195237D01*
X43522049Y-58178634D01*
X43561488Y-58094058D01*
X43565236Y-58083761D01*
X43621625Y-57873312D01*
X43623528Y-57862519D01*
X43642517Y-57645475D01*
X43642517Y-57634525D01*
X43623528Y-57417481D01*
X43621625Y-57406688D01*
X43565236Y-57196239D01*
X43561490Y-57185947D01*
X43469414Y-56988489D01*
X43463931Y-56978994D01*
X43427491Y-56926952D01*
X43417012Y-56918576D01*
X43403566Y-56925644D01*
X42419095Y-57910115D01*
X42356783Y-57944141D01*
X42285968Y-57939076D01*
X42240905Y-57910115D01*
X42059885Y-57729095D01*
X42025859Y-57666783D01*
X42030924Y-57595968D01*
X42059885Y-57550905D01*
X43045077Y-56565713D01*
X43051507Y-56553938D01*
X43042211Y-56541923D01*
X42991006Y-56506069D01*
X42981511Y-56500586D01*
X42784053Y-56408510D01*
X42773761Y-56404764D01*
X42563312Y-56348375D01*
X42552519Y-56346472D01*
X42335475Y-56327483D01*
X42324525Y-56327483D01*
X42107481Y-56346472D01*
X42096688Y-56348375D01*
X41932111Y-56392473D01*
X41861135Y-56390783D01*
X41802339Y-56350989D01*
X41774391Y-56285725D01*
X41773500Y-56270766D01*
X41773500Y-50454594D01*
X41793502Y-50386473D01*
X41810405Y-50365499D01*
X42155904Y-50020000D01*
X67826502Y-50020000D01*
X67846457Y-50248087D01*
X67905716Y-50469243D01*
X67908039Y-50474224D01*
X67908039Y-50474225D01*
X68000151Y-50671762D01*
X68000154Y-50671767D01*
X68002477Y-50676749D01*
X68133802Y-50864300D01*
X68295700Y-51026198D01*
X68300208Y-51029355D01*
X68300211Y-51029357D01*
X68321618Y-51044346D01*
X68483251Y-51157523D01*
X68488233Y-51159846D01*
X68488238Y-51159849D01*
X68685775Y-51251961D01*
X68690757Y-51254284D01*
X68696065Y-51255706D01*
X68696067Y-51255707D01*
X68906598Y-51312119D01*
X68906600Y-51312119D01*
X68911913Y-51313543D01*
X69140000Y-51333498D01*
X69368087Y-51313543D01*
X69373400Y-51312119D01*
X69373402Y-51312119D01*
X69583933Y-51255707D01*
X69583935Y-51255706D01*
X69589243Y-51254284D01*
X69594225Y-51251961D01*
X69791762Y-51159849D01*
X69791767Y-51159846D01*
X69796749Y-51157523D01*
X69958382Y-51044346D01*
X69979789Y-51029357D01*
X69979792Y-51029355D01*
X69984300Y-51026198D01*
X70146198Y-50864300D01*
X70277523Y-50676749D01*
X70279846Y-50671767D01*
X70279849Y-50671762D01*
X70371961Y-50474225D01*
X70371961Y-50474224D01*
X70374284Y-50469243D01*
X70433543Y-50248087D01*
X70453498Y-50020000D01*
X70433543Y-49791913D01*
X70415173Y-49723356D01*
X70375707Y-49576067D01*
X70375706Y-49576065D01*
X70374284Y-49570757D01*
X70371961Y-49565775D01*
X70279849Y-49368238D01*
X70279846Y-49368233D01*
X70277523Y-49363251D01*
X70146198Y-49175700D01*
X69984300Y-49013802D01*
X69979792Y-49010645D01*
X69979789Y-49010643D01*
X69901611Y-48955902D01*
X69796749Y-48882477D01*
X69791767Y-48880154D01*
X69791762Y-48880151D01*
X69594225Y-48788039D01*
X69594224Y-48788039D01*
X69589243Y-48785716D01*
X69583935Y-48784294D01*
X69583933Y-48784293D01*
X69373402Y-48727881D01*
X69373400Y-48727881D01*
X69368087Y-48726457D01*
X69140000Y-48706502D01*
X68911913Y-48726457D01*
X68906600Y-48727881D01*
X68906598Y-48727881D01*
X68696067Y-48784293D01*
X68696065Y-48784294D01*
X68690757Y-48785716D01*
X68685776Y-48788039D01*
X68685775Y-48788039D01*
X68488238Y-48880151D01*
X68488233Y-48880154D01*
X68483251Y-48882477D01*
X68378389Y-48955902D01*
X68300211Y-49010643D01*
X68300208Y-49010645D01*
X68295700Y-49013802D01*
X68133802Y-49175700D01*
X68002477Y-49363251D01*
X68000154Y-49368233D01*
X68000151Y-49368238D01*
X67908039Y-49565775D01*
X67905716Y-49570757D01*
X67904294Y-49576065D01*
X67904293Y-49576067D01*
X67864827Y-49723356D01*
X67846457Y-49791913D01*
X67826502Y-50020000D01*
X42155904Y-50020000D01*
X45340497Y-46835407D01*
X69219774Y-46835407D01*
X69229589Y-47047466D01*
X69279326Y-47253842D01*
X69281808Y-47259300D01*
X69281809Y-47259304D01*
X69327782Y-47360415D01*
X69367191Y-47447090D01*
X69490013Y-47620237D01*
X69643360Y-47767035D01*
X69648395Y-47770286D01*
X69816662Y-47878935D01*
X69816665Y-47878936D01*
X69821699Y-47882187D01*
X69827262Y-47884429D01*
X70013037Y-47959299D01*
X70013040Y-47959300D01*
X70018596Y-47961539D01*
X70024475Y-47962687D01*
X70024478Y-47962688D01*
X70118629Y-47981074D01*
X70226945Y-48002226D01*
X70232547Y-48002500D01*
X71597036Y-48002500D01*
X71755326Y-47987398D01*
X71959026Y-47927639D01*
X72042230Y-47884786D01*
X72142420Y-47833185D01*
X72142423Y-47833183D01*
X72147751Y-47830439D01*
X72219135Y-47774366D01*
X72309974Y-47703012D01*
X72309978Y-47703008D01*
X72314691Y-47699306D01*
X72333133Y-47678054D01*
X72449891Y-47543501D01*
X72453823Y-47538970D01*
X72560126Y-47355219D01*
X72629764Y-47154681D01*
X72645310Y-47047466D01*
X72659365Y-46950533D01*
X72659365Y-46950530D01*
X72660226Y-46944593D01*
X72650411Y-46732534D01*
X72600674Y-46526158D01*
X72554581Y-46424781D01*
X72515289Y-46338365D01*
X72512809Y-46332910D01*
X72389987Y-46159763D01*
X72236640Y-46012965D01*
X72190621Y-45983251D01*
X72063338Y-45901065D01*
X72063335Y-45901064D01*
X72058301Y-45897813D01*
X72052738Y-45895571D01*
X71866963Y-45820701D01*
X71866960Y-45820700D01*
X71861404Y-45818461D01*
X71855525Y-45817313D01*
X71855522Y-45817312D01*
X71742945Y-45795328D01*
X71653055Y-45777774D01*
X71647453Y-45777500D01*
X70282964Y-45777500D01*
X70124674Y-45792602D01*
X69920974Y-45852361D01*
X69915647Y-45855105D01*
X69915646Y-45855105D01*
X69737580Y-45946815D01*
X69737577Y-45946817D01*
X69732249Y-45949561D01*
X69727534Y-45953265D01*
X69570026Y-46076988D01*
X69570022Y-46076992D01*
X69565309Y-46080694D01*
X69426177Y-46241030D01*
X69319874Y-46424781D01*
X69250236Y-46625319D01*
X69249375Y-46631254D01*
X69249375Y-46631256D01*
X69233822Y-46738524D01*
X69219774Y-46835407D01*
X45340497Y-46835407D01*
X47590499Y-44585405D01*
X47652811Y-44551379D01*
X47679594Y-44548500D01*
X47735487Y-44548500D01*
X47741939Y-44547128D01*
X47741944Y-44547128D01*
X47851921Y-44523751D01*
X47922288Y-44508794D01*
X47930201Y-44505271D01*
X48090722Y-44433803D01*
X48090724Y-44433802D01*
X48096752Y-44431118D01*
X48251253Y-44318866D01*
X48379040Y-44176944D01*
X48474527Y-44011556D01*
X48533542Y-43829928D01*
X48535724Y-43809173D01*
X48552814Y-43646565D01*
X48553504Y-43640000D01*
X48548617Y-43593505D01*
X48534232Y-43456635D01*
X48534232Y-43456633D01*
X48533542Y-43450072D01*
X48474527Y-43268444D01*
X48453990Y-43232872D01*
X48382341Y-43108774D01*
X48379040Y-43103056D01*
X48362492Y-43084677D01*
X48255675Y-42966045D01*
X48255674Y-42966044D01*
X48251253Y-42961134D01*
X48096752Y-42848882D01*
X48090724Y-42846198D01*
X48090722Y-42846197D01*
X47928319Y-42773891D01*
X47928318Y-42773891D01*
X47922288Y-42771206D01*
X47828888Y-42751353D01*
X47741944Y-42732872D01*
X47741939Y-42732872D01*
X47735487Y-42731500D01*
X47544513Y-42731500D01*
X47538061Y-42732872D01*
X47538056Y-42732872D01*
X47451112Y-42751353D01*
X47357712Y-42771206D01*
X47351682Y-42773891D01*
X47351681Y-42773891D01*
X47189278Y-42846197D01*
X47189276Y-42846198D01*
X47183248Y-42848882D01*
X47028747Y-42961134D01*
X47024326Y-42966044D01*
X47024325Y-42966045D01*
X46917509Y-43084677D01*
X46900960Y-43103056D01*
X46897659Y-43108774D01*
X46826011Y-43232872D01*
X46805473Y-43268444D01*
X46746458Y-43450072D01*
X46745768Y-43456633D01*
X46745768Y-43456635D01*
X46729093Y-43615292D01*
X46702080Y-43680949D01*
X46692878Y-43691217D01*
X40747747Y-49636348D01*
X40739461Y-49643888D01*
X40732982Y-49648000D01*
X40727557Y-49653777D01*
X40686357Y-49697651D01*
X40683602Y-49700493D01*
X40663865Y-49720230D01*
X40661385Y-49723427D01*
X40653682Y-49732447D01*
X40623414Y-49764679D01*
X40619595Y-49771625D01*
X40619593Y-49771628D01*
X40613652Y-49782434D01*
X40602801Y-49798953D01*
X40590386Y-49814959D01*
X40587241Y-49822228D01*
X40587238Y-49822232D01*
X40572826Y-49855537D01*
X40567609Y-49866187D01*
X40546305Y-49904940D01*
X40544334Y-49912615D01*
X40544334Y-49912616D01*
X40541267Y-49924562D01*
X40534863Y-49943266D01*
X40526819Y-49961855D01*
X40525580Y-49969678D01*
X40525577Y-49969688D01*
X40519901Y-50005524D01*
X40517495Y-50017144D01*
X40506500Y-50059970D01*
X40506500Y-50080224D01*
X40504949Y-50099934D01*
X40501780Y-50119943D01*
X40502526Y-50127835D01*
X40505941Y-50163961D01*
X40506500Y-50175819D01*
X40506500Y-54633508D01*
X40486498Y-54701629D01*
X40432842Y-54748122D01*
X40362568Y-54758226D01*
X40354303Y-54756755D01*
X40241944Y-54732872D01*
X40241939Y-54732872D01*
X40235487Y-54731500D01*
X40044513Y-54731500D01*
X40038061Y-54732872D01*
X40038056Y-54732872D01*
X39966313Y-54748122D01*
X39857712Y-54771206D01*
X39851682Y-54773891D01*
X39851681Y-54773891D01*
X39689278Y-54846197D01*
X39689276Y-54846198D01*
X39683248Y-54848882D01*
X39677907Y-54852762D01*
X39677906Y-54852763D01*
X39570060Y-54931118D01*
X39528747Y-54961134D01*
X39524332Y-54966037D01*
X39519420Y-54970460D01*
X39518295Y-54969211D01*
X39464986Y-55002051D01*
X39431800Y-55006500D01*
X36218768Y-55006500D01*
X36207585Y-55005973D01*
X36200092Y-55004298D01*
X36192166Y-55004547D01*
X36192165Y-55004547D01*
X36132002Y-55006438D01*
X36128044Y-55006500D01*
X36100144Y-55006500D01*
X36096154Y-55007004D01*
X36084320Y-55007936D01*
X36040111Y-55009326D01*
X36032497Y-55011538D01*
X36032492Y-55011539D01*
X36020659Y-55014977D01*
X36001296Y-55018988D01*
X35981203Y-55021526D01*
X35973836Y-55024443D01*
X35973831Y-55024444D01*
X35940092Y-55037802D01*
X35928865Y-55041646D01*
X35886407Y-55053982D01*
X35879581Y-55058019D01*
X35868972Y-55064293D01*
X35851224Y-55072988D01*
X35832383Y-55080448D01*
X35825967Y-55085110D01*
X35825966Y-55085110D01*
X35796613Y-55106436D01*
X35786693Y-55112952D01*
X35755465Y-55131420D01*
X35755462Y-55131422D01*
X35748638Y-55135458D01*
X35734317Y-55149779D01*
X35719284Y-55162619D01*
X35702893Y-55174528D01*
X35697840Y-55180636D01*
X35697838Y-55180638D01*
X35693557Y-55185813D01*
X35634725Y-55225553D01*
X35596471Y-55231500D01*
X35544513Y-55231500D01*
X35538061Y-55232872D01*
X35538056Y-55232872D01*
X35468077Y-55247747D01*
X35357712Y-55271206D01*
X35351682Y-55273891D01*
X35351681Y-55273891D01*
X35189278Y-55346197D01*
X35189276Y-55346198D01*
X35183248Y-55348882D01*
X35177907Y-55352762D01*
X35177906Y-55352763D01*
X35127843Y-55389136D01*
X35028747Y-55461134D01*
X34900960Y-55603056D01*
X34805473Y-55768444D01*
X34746458Y-55950072D01*
X34726496Y-56140000D01*
X34727186Y-56146565D01*
X34742630Y-56293502D01*
X34746458Y-56329928D01*
X34805473Y-56511556D01*
X34808776Y-56517278D01*
X34808777Y-56517279D01*
X34826803Y-56548500D01*
X34900960Y-56676944D01*
X34941242Y-56721681D01*
X34971957Y-56785685D01*
X34963194Y-56856139D01*
X34917731Y-56910670D01*
X34847604Y-56931989D01*
X34293274Y-56931989D01*
X34282090Y-56931462D01*
X34274602Y-56929788D01*
X34266679Y-56930037D01*
X34206544Y-56931927D01*
X34202586Y-56931989D01*
X34174655Y-56931989D01*
X34170740Y-56932484D01*
X34170736Y-56932484D01*
X34170678Y-56932492D01*
X34170649Y-56932495D01*
X34158807Y-56933428D01*
X34114621Y-56934816D01*
X34097255Y-56939861D01*
X34095169Y-56940467D01*
X34075817Y-56944475D01*
X34063579Y-56946021D01*
X34063577Y-56946022D01*
X34055714Y-56947015D01*
X34014597Y-56963295D01*
X34003396Y-56967130D01*
X33960917Y-56979471D01*
X33954098Y-56983504D01*
X33954093Y-56983506D01*
X33943482Y-56989782D01*
X33925732Y-56998479D01*
X33906894Y-57005937D01*
X33900478Y-57010598D01*
X33900477Y-57010599D01*
X33871136Y-57031917D01*
X33861212Y-57038436D01*
X33829971Y-57056911D01*
X33829966Y-57056915D01*
X33823148Y-57060947D01*
X33808824Y-57075271D01*
X33793792Y-57088110D01*
X33777404Y-57100017D01*
X33749698Y-57133508D01*
X33749223Y-57134082D01*
X33741233Y-57142862D01*
X33738595Y-57145500D01*
X33676283Y-57179526D01*
X33605468Y-57174461D01*
X33548632Y-57131914D01*
X33523821Y-57065394D01*
X33523500Y-57056405D01*
X33523500Y-53841566D01*
X33543502Y-53773445D01*
X33583665Y-53734133D01*
X33775202Y-53616759D01*
X33775208Y-53616755D01*
X33779416Y-53614176D01*
X33959969Y-53459969D01*
X34114176Y-53279416D01*
X34116755Y-53275208D01*
X34116759Y-53275202D01*
X34235654Y-53081183D01*
X34238240Y-53076963D01*
X34329105Y-52857594D01*
X34384535Y-52626711D01*
X34403165Y-52390000D01*
X35876835Y-52390000D01*
X35895465Y-52626711D01*
X35950895Y-52857594D01*
X36041760Y-53076963D01*
X36044346Y-53081183D01*
X36163241Y-53275202D01*
X36163245Y-53275208D01*
X36165824Y-53279416D01*
X36320031Y-53459969D01*
X36500584Y-53614176D01*
X36504792Y-53616755D01*
X36504798Y-53616759D01*
X36696335Y-53734133D01*
X36703037Y-53738240D01*
X36707607Y-53740133D01*
X36707611Y-53740135D01*
X36917833Y-53827211D01*
X36922406Y-53829105D01*
X36974310Y-53841566D01*
X37148476Y-53883380D01*
X37148482Y-53883381D01*
X37153289Y-53884535D01*
X37390000Y-53903165D01*
X37626711Y-53884535D01*
X37631518Y-53883381D01*
X37631524Y-53883380D01*
X37805690Y-53841566D01*
X37857594Y-53829105D01*
X37862167Y-53827211D01*
X38072389Y-53740135D01*
X38072393Y-53740133D01*
X38076963Y-53738240D01*
X38083665Y-53734133D01*
X38275202Y-53616759D01*
X38275208Y-53616755D01*
X38279416Y-53614176D01*
X38459969Y-53459969D01*
X38614176Y-53279416D01*
X38616755Y-53275208D01*
X38616759Y-53275202D01*
X38735654Y-53081183D01*
X38738240Y-53076963D01*
X38829105Y-52857594D01*
X38884535Y-52626711D01*
X38903165Y-52390000D01*
X38884535Y-52153289D01*
X38829105Y-51922406D01*
X38738240Y-51703037D01*
X38735654Y-51698817D01*
X38616759Y-51504798D01*
X38616755Y-51504792D01*
X38614176Y-51500584D01*
X38459969Y-51320031D01*
X38279416Y-51165824D01*
X38275208Y-51163245D01*
X38275202Y-51163241D01*
X38081183Y-51044346D01*
X38076963Y-51041760D01*
X38072393Y-51039867D01*
X38072389Y-51039865D01*
X37862167Y-50952789D01*
X37862165Y-50952788D01*
X37857594Y-50950895D01*
X37777391Y-50931640D01*
X37631524Y-50896620D01*
X37631518Y-50896619D01*
X37626711Y-50895465D01*
X37390000Y-50876835D01*
X37153289Y-50895465D01*
X37148482Y-50896619D01*
X37148476Y-50896620D01*
X37002609Y-50931640D01*
X36922406Y-50950895D01*
X36917835Y-50952788D01*
X36917833Y-50952789D01*
X36707611Y-51039865D01*
X36707607Y-51039867D01*
X36703037Y-51041760D01*
X36698817Y-51044346D01*
X36504798Y-51163241D01*
X36504792Y-51163245D01*
X36500584Y-51165824D01*
X36320031Y-51320031D01*
X36165824Y-51500584D01*
X36163245Y-51504792D01*
X36163241Y-51504798D01*
X36044346Y-51698817D01*
X36041760Y-51703037D01*
X35950895Y-51922406D01*
X35895465Y-52153289D01*
X35876835Y-52390000D01*
X34403165Y-52390000D01*
X34384535Y-52153289D01*
X34329105Y-51922406D01*
X34238240Y-51703037D01*
X34235654Y-51698817D01*
X34116759Y-51504798D01*
X34116755Y-51504792D01*
X34114176Y-51500584D01*
X33959969Y-51320031D01*
X33779416Y-51165824D01*
X33775208Y-51163245D01*
X33775202Y-51163241D01*
X33581183Y-51044346D01*
X33576963Y-51041760D01*
X33572393Y-51039867D01*
X33572389Y-51039865D01*
X33362167Y-50952789D01*
X33362165Y-50952788D01*
X33357594Y-50950895D01*
X33277391Y-50931640D01*
X33131524Y-50896620D01*
X33131518Y-50896619D01*
X33126711Y-50895465D01*
X32890000Y-50876835D01*
X32653289Y-50895465D01*
X32648482Y-50896619D01*
X32648476Y-50896620D01*
X32502609Y-50931640D01*
X32422406Y-50950895D01*
X32417835Y-50952788D01*
X32417833Y-50952789D01*
X32207611Y-51039865D01*
X32207607Y-51039867D01*
X32203037Y-51041760D01*
X32198817Y-51044346D01*
X32004798Y-51163241D01*
X32004792Y-51163245D01*
X32000584Y-51165824D01*
X31820031Y-51320031D01*
X31665824Y-51500584D01*
X31663245Y-51504792D01*
X31663241Y-51504798D01*
X31544346Y-51698817D01*
X31541760Y-51703037D01*
X31450895Y-51922406D01*
X31395465Y-52153289D01*
X31376835Y-52390000D01*
X31395465Y-52626711D01*
X31450895Y-52857594D01*
X31541760Y-53076963D01*
X31544346Y-53081183D01*
X31663241Y-53275202D01*
X31663245Y-53275208D01*
X31665824Y-53279416D01*
X31820031Y-53459969D01*
X32000584Y-53614176D01*
X32004792Y-53616755D01*
X32004798Y-53616759D01*
X32196335Y-53734133D01*
X32243966Y-53786781D01*
X32256500Y-53841566D01*
X32256500Y-57438434D01*
X32236498Y-57506555D01*
X32196335Y-57545867D01*
X32004798Y-57663241D01*
X32004792Y-57663245D01*
X32000584Y-57665824D01*
X31820031Y-57820031D01*
X31665824Y-58000584D01*
X31663245Y-58004792D01*
X31663241Y-58004798D01*
X31575460Y-58148044D01*
X31541760Y-58203037D01*
X31539867Y-58207607D01*
X31539865Y-58207611D01*
X31471274Y-58373207D01*
X31450895Y-58422406D01*
X31434012Y-58492728D01*
X31398996Y-58638583D01*
X31395465Y-58653289D01*
X31376835Y-58890000D01*
X31395465Y-59126711D01*
X31396619Y-59131518D01*
X31396620Y-59131524D01*
X31420952Y-59232872D01*
X31450895Y-59357594D01*
X31452788Y-59362165D01*
X31452789Y-59362167D01*
X31514668Y-59511556D01*
X31541760Y-59576963D01*
X31544346Y-59581183D01*
X31663241Y-59775202D01*
X31663245Y-59775208D01*
X31665824Y-59779416D01*
X31820031Y-59959969D01*
X32000584Y-60114176D01*
X32004792Y-60116755D01*
X32004798Y-60116759D01*
X32195147Y-60233405D01*
X32203037Y-60238240D01*
X32207607Y-60240133D01*
X32207611Y-60240135D01*
X32417833Y-60327211D01*
X32422406Y-60329105D01*
X32502609Y-60348360D01*
X32648476Y-60383380D01*
X32648482Y-60383381D01*
X32653289Y-60384535D01*
X32890000Y-60403165D01*
X33126711Y-60384535D01*
X33131518Y-60383381D01*
X33131524Y-60383380D01*
X33297104Y-60343627D01*
X33349951Y-60330940D01*
X33420858Y-60334487D01*
X33468460Y-60364364D01*
X33969596Y-60865501D01*
X34003621Y-60927813D01*
X34006500Y-60954596D01*
X34006500Y-62105500D01*
X33986498Y-62173621D01*
X33932842Y-62220114D01*
X33880500Y-62231500D01*
X32416866Y-62231500D01*
X32354684Y-62238255D01*
X32218295Y-62289385D01*
X32101739Y-62376739D01*
X32014385Y-62493295D01*
X31963255Y-62629684D01*
X31956500Y-62691866D01*
X31956500Y-64588134D01*
X31963255Y-64650316D01*
X32014385Y-64786705D01*
X32101739Y-64903261D01*
X32218295Y-64990615D01*
X32354684Y-65041745D01*
X32416866Y-65048500D01*
X33880500Y-65048500D01*
X33948621Y-65068502D01*
X33995114Y-65122158D01*
X34006500Y-65174500D01*
X34006500Y-72036619D01*
X34005973Y-72047802D01*
X34004298Y-72055295D01*
X34004547Y-72063221D01*
X34004547Y-72063222D01*
X34006438Y-72123372D01*
X34006500Y-72127331D01*
X34006500Y-72155242D01*
X34006997Y-72159176D01*
X34006997Y-72159177D01*
X34007005Y-72159242D01*
X34007938Y-72171079D01*
X34009327Y-72215275D01*
X34014978Y-72234725D01*
X34018987Y-72254086D01*
X34021526Y-72274183D01*
X34024445Y-72281554D01*
X34024445Y-72281556D01*
X34037804Y-72315298D01*
X34041649Y-72326528D01*
X34053982Y-72368979D01*
X34058015Y-72375798D01*
X34058017Y-72375803D01*
X34064293Y-72386414D01*
X34072988Y-72404162D01*
X34080448Y-72423003D01*
X34085110Y-72429419D01*
X34085110Y-72429420D01*
X34106436Y-72458773D01*
X34112952Y-72468693D01*
X34135458Y-72506748D01*
X34149779Y-72521069D01*
X34162619Y-72536102D01*
X34174528Y-72552493D01*
X34180634Y-72557544D01*
X34208605Y-72580684D01*
X34217384Y-72588674D01*
X34304348Y-72675638D01*
X34338374Y-72737950D01*
X34333309Y-72808765D01*
X34290762Y-72865601D01*
X34229752Y-72888697D01*
X34229835Y-72889113D01*
X34227330Y-72889614D01*
X34225469Y-72890318D01*
X34222661Y-72890546D01*
X34222658Y-72890547D01*
X34215363Y-72891140D01*
X34208399Y-72893396D01*
X34202440Y-72894587D01*
X34196585Y-72895971D01*
X34189319Y-72896818D01*
X34120673Y-72921735D01*
X34116545Y-72923152D01*
X34054064Y-72943393D01*
X34054062Y-72943394D01*
X34047101Y-72945649D01*
X34040846Y-72949445D01*
X34035372Y-72951951D01*
X34029942Y-72954670D01*
X34023063Y-72957167D01*
X34016943Y-72961180D01*
X34016942Y-72961180D01*
X33962024Y-72997186D01*
X33958320Y-72999523D01*
X33895893Y-73037405D01*
X33887516Y-73044803D01*
X33887492Y-73044776D01*
X33884500Y-73047429D01*
X33881267Y-73050132D01*
X33875148Y-73054144D01*
X33870116Y-73059456D01*
X33821872Y-73110383D01*
X33819494Y-73112825D01*
X32462724Y-74469595D01*
X32400412Y-74503621D01*
X32373629Y-74506500D01*
X31399500Y-74506500D01*
X31331379Y-74486498D01*
X31284886Y-74432842D01*
X31273500Y-74380500D01*
X31273500Y-71954594D01*
X31293502Y-71886473D01*
X31310405Y-71865499D01*
X32590500Y-70585405D01*
X32652812Y-70551379D01*
X32679595Y-70548500D01*
X32735487Y-70548500D01*
X32741939Y-70547128D01*
X32741944Y-70547128D01*
X32828888Y-70528647D01*
X32922288Y-70508794D01*
X33074795Y-70440894D01*
X33090722Y-70433803D01*
X33090724Y-70433802D01*
X33096752Y-70431118D01*
X33251253Y-70318866D01*
X33361822Y-70196067D01*
X33374621Y-70181852D01*
X33374622Y-70181851D01*
X33379040Y-70176944D01*
X33474527Y-70011556D01*
X33533542Y-69829928D01*
X33536666Y-69800211D01*
X33552814Y-69646565D01*
X33553504Y-69640000D01*
X33539050Y-69502477D01*
X33534232Y-69456635D01*
X33534232Y-69456633D01*
X33533542Y-69450072D01*
X33474527Y-69268444D01*
X33464305Y-69250738D01*
X33396266Y-69132892D01*
X33379040Y-69103056D01*
X33345904Y-69066254D01*
X33255675Y-68966045D01*
X33255674Y-68966044D01*
X33251253Y-68961134D01*
X33134016Y-68875956D01*
X33102094Y-68852763D01*
X33102093Y-68852762D01*
X33096752Y-68848882D01*
X33090724Y-68846198D01*
X33090722Y-68846197D01*
X32928319Y-68773891D01*
X32928318Y-68773891D01*
X32922288Y-68771206D01*
X32828888Y-68751353D01*
X32741944Y-68732872D01*
X32741939Y-68732872D01*
X32735487Y-68731500D01*
X32544513Y-68731500D01*
X32538061Y-68732872D01*
X32538056Y-68732872D01*
X32451112Y-68751353D01*
X32357712Y-68771206D01*
X32351682Y-68773891D01*
X32351681Y-68773891D01*
X32189278Y-68846197D01*
X32189276Y-68846198D01*
X32183248Y-68848882D01*
X32177907Y-68852762D01*
X32177906Y-68852763D01*
X32145984Y-68875956D01*
X32028747Y-68961134D01*
X32024326Y-68966044D01*
X32024325Y-68966045D01*
X31934097Y-69066254D01*
X31900960Y-69103056D01*
X31883734Y-69132892D01*
X31815696Y-69250738D01*
X31805473Y-69268444D01*
X31746458Y-69450072D01*
X31745768Y-69456633D01*
X31745768Y-69456635D01*
X31740950Y-69502477D01*
X31730305Y-69603765D01*
X31729093Y-69615293D01*
X31702080Y-69680950D01*
X31692887Y-69691209D01*
X30863093Y-70521002D01*
X30800783Y-70555026D01*
X30729967Y-70549961D01*
X30673132Y-70507414D01*
X30648321Y-70440894D01*
X30648000Y-70431905D01*
X30648000Y-47484669D01*
X32832001Y-47484669D01*
X32832371Y-47491490D01*
X32837895Y-47542352D01*
X32841521Y-47557604D01*
X32886676Y-47678054D01*
X32895214Y-47693649D01*
X32971715Y-47795724D01*
X32984276Y-47808285D01*
X33086351Y-47884786D01*
X33101946Y-47893324D01*
X33222394Y-47938478D01*
X33237649Y-47942105D01*
X33288514Y-47947631D01*
X33295328Y-47948000D01*
X33867885Y-47948000D01*
X33883124Y-47943525D01*
X33884329Y-47942135D01*
X33886000Y-47934452D01*
X33886000Y-47929884D01*
X34394000Y-47929884D01*
X34398475Y-47945123D01*
X34399865Y-47946328D01*
X34407548Y-47947999D01*
X34984669Y-47947999D01*
X34991490Y-47947629D01*
X35042352Y-47942105D01*
X35057604Y-47938479D01*
X35178054Y-47893324D01*
X35193649Y-47884786D01*
X35295724Y-47808285D01*
X35308285Y-47795724D01*
X35384786Y-47693649D01*
X35393324Y-47678054D01*
X35441252Y-47550207D01*
X35443112Y-47550904D01*
X35473131Y-47498372D01*
X35536090Y-47465558D01*
X35606794Y-47471992D01*
X35649581Y-47500079D01*
X35795700Y-47646198D01*
X35800208Y-47649355D01*
X35800211Y-47649357D01*
X35841195Y-47678054D01*
X35983251Y-47777523D01*
X35988233Y-47779846D01*
X35988238Y-47779849D01*
X36096730Y-47830439D01*
X36190757Y-47874284D01*
X36196065Y-47875706D01*
X36196067Y-47875707D01*
X36406598Y-47932119D01*
X36406600Y-47932119D01*
X36411913Y-47933543D01*
X36640000Y-47953498D01*
X36868087Y-47933543D01*
X36873400Y-47932119D01*
X36873402Y-47932119D01*
X37083933Y-47875707D01*
X37083935Y-47875706D01*
X37089243Y-47874284D01*
X37183270Y-47830439D01*
X37291762Y-47779849D01*
X37291767Y-47779846D01*
X37296749Y-47777523D01*
X37438805Y-47678054D01*
X37479789Y-47649357D01*
X37479792Y-47649355D01*
X37484300Y-47646198D01*
X37646198Y-47484300D01*
X37659322Y-47465558D01*
X37736582Y-47355219D01*
X37777523Y-47296749D01*
X37779846Y-47291767D01*
X37779849Y-47291762D01*
X37871961Y-47094225D01*
X37871961Y-47094224D01*
X37874284Y-47089243D01*
X37922970Y-46907548D01*
X37932119Y-46873402D01*
X37932119Y-46873400D01*
X37933543Y-46868087D01*
X37953498Y-46640000D01*
X37933543Y-46411913D01*
X37925028Y-46380135D01*
X37875707Y-46196067D01*
X37875706Y-46196065D01*
X37874284Y-46190757D01*
X37862110Y-46164649D01*
X37779849Y-45988238D01*
X37779846Y-45988233D01*
X37777523Y-45983251D01*
X37663704Y-45820701D01*
X37649357Y-45800211D01*
X37649355Y-45800208D01*
X37646198Y-45795700D01*
X37484300Y-45633802D01*
X37479792Y-45630645D01*
X37479789Y-45630643D01*
X37401611Y-45575902D01*
X37296749Y-45502477D01*
X37291767Y-45500154D01*
X37291762Y-45500151D01*
X37094225Y-45408039D01*
X37094224Y-45408039D01*
X37089243Y-45405716D01*
X37083935Y-45404294D01*
X37083933Y-45404293D01*
X36873402Y-45347881D01*
X36873400Y-45347881D01*
X36868087Y-45346457D01*
X36640000Y-45326502D01*
X36411913Y-45346457D01*
X36406600Y-45347881D01*
X36406598Y-45347881D01*
X36196067Y-45404293D01*
X36196065Y-45404294D01*
X36190757Y-45405716D01*
X36185776Y-45408039D01*
X36185775Y-45408039D01*
X35988238Y-45500151D01*
X35988233Y-45500154D01*
X35983251Y-45502477D01*
X35878389Y-45575902D01*
X35800211Y-45630643D01*
X35800208Y-45630645D01*
X35795700Y-45633802D01*
X35649580Y-45779922D01*
X35587268Y-45813948D01*
X35516453Y-45808883D01*
X35459617Y-45766336D01*
X35442317Y-45729394D01*
X35441252Y-45729793D01*
X35393324Y-45601946D01*
X35384786Y-45586351D01*
X35308285Y-45484276D01*
X35295724Y-45471715D01*
X35193649Y-45395214D01*
X35178054Y-45386676D01*
X35057606Y-45341522D01*
X35042351Y-45337895D01*
X34991486Y-45332369D01*
X34984672Y-45332000D01*
X34412115Y-45332000D01*
X34396876Y-45336475D01*
X34395671Y-45337865D01*
X34394000Y-45345548D01*
X34394000Y-47929884D01*
X33886000Y-47929884D01*
X33886000Y-46912115D01*
X33881525Y-46896876D01*
X33880135Y-46895671D01*
X33872452Y-46894000D01*
X32850116Y-46894000D01*
X32834877Y-46898475D01*
X32833672Y-46899865D01*
X32832001Y-46907548D01*
X32832001Y-47484669D01*
X30648000Y-47484669D01*
X30648000Y-46367885D01*
X32832000Y-46367885D01*
X32836475Y-46383124D01*
X32837865Y-46384329D01*
X32845548Y-46386000D01*
X33867885Y-46386000D01*
X33883124Y-46381525D01*
X33884329Y-46380135D01*
X33886000Y-46372452D01*
X33886000Y-45350116D01*
X33881525Y-45334877D01*
X33880135Y-45333672D01*
X33872452Y-45332001D01*
X33295331Y-45332001D01*
X33288510Y-45332371D01*
X33237648Y-45337895D01*
X33222396Y-45341521D01*
X33101946Y-45386676D01*
X33086351Y-45395214D01*
X32984276Y-45471715D01*
X32971715Y-45484276D01*
X32895214Y-45586351D01*
X32886676Y-45601946D01*
X32841522Y-45722394D01*
X32837895Y-45737649D01*
X32832369Y-45788514D01*
X32832000Y-45795328D01*
X32832000Y-46367885D01*
X30648000Y-46367885D01*
X30648000Y-35772703D01*
X31530743Y-35772703D01*
X31531302Y-35776947D01*
X31531302Y-35776951D01*
X31536071Y-35813173D01*
X31568268Y-36057734D01*
X31644129Y-36335036D01*
X31645813Y-36338984D01*
X31754049Y-36592737D01*
X31756923Y-36599476D01*
X31904561Y-36846161D01*
X32084313Y-37070528D01*
X32292851Y-37268423D01*
X32526317Y-37436186D01*
X32530112Y-37438195D01*
X32530113Y-37438196D01*
X32551869Y-37449715D01*
X32780392Y-37570712D01*
X33050373Y-37669511D01*
X33331264Y-37730755D01*
X33359841Y-37733004D01*
X33554282Y-37748307D01*
X33554291Y-37748307D01*
X33556739Y-37748500D01*
X33712271Y-37748500D01*
X33714407Y-37748354D01*
X33714418Y-37748354D01*
X33922548Y-37734165D01*
X33922554Y-37734164D01*
X33926825Y-37733873D01*
X33931020Y-37733004D01*
X33931022Y-37733004D01*
X34067584Y-37704723D01*
X34208342Y-37675574D01*
X34479343Y-37579607D01*
X34734812Y-37447750D01*
X34738313Y-37445289D01*
X34738317Y-37445287D01*
X34852417Y-37365096D01*
X34970023Y-37282441D01*
X35070358Y-37189204D01*
X35177479Y-37089661D01*
X35177481Y-37089658D01*
X35180622Y-37086740D01*
X35362713Y-36864268D01*
X35512927Y-36619142D01*
X35523436Y-36595203D01*
X35626757Y-36359830D01*
X35628483Y-36355898D01*
X35707244Y-36079406D01*
X35745458Y-35810896D01*
X35747146Y-35799036D01*
X35747146Y-35799034D01*
X35747751Y-35794784D01*
X35747845Y-35776951D01*
X35749114Y-35534669D01*
X47982001Y-35534669D01*
X47982371Y-35541490D01*
X47987895Y-35592352D01*
X47991521Y-35607604D01*
X48036676Y-35728054D01*
X48045214Y-35743649D01*
X48121715Y-35845724D01*
X48134276Y-35858285D01*
X48236351Y-35934786D01*
X48251946Y-35943324D01*
X48372394Y-35988478D01*
X48387649Y-35992105D01*
X48438514Y-35997631D01*
X48445328Y-35998000D01*
X49067885Y-35998000D01*
X49083124Y-35993525D01*
X49084329Y-35992135D01*
X49086000Y-35984452D01*
X49086000Y-35979884D01*
X49594000Y-35979884D01*
X49598475Y-35995123D01*
X49599865Y-35996328D01*
X49607548Y-35997999D01*
X50234669Y-35997999D01*
X50241490Y-35997629D01*
X50292352Y-35992105D01*
X50307604Y-35988479D01*
X50428054Y-35943324D01*
X50443649Y-35934786D01*
X50545724Y-35858285D01*
X50558285Y-35845724D01*
X50634786Y-35743649D01*
X50643324Y-35728054D01*
X50684225Y-35618952D01*
X50726867Y-35562188D01*
X50793428Y-35537488D01*
X50862777Y-35552696D01*
X50897444Y-35580684D01*
X50922865Y-35610031D01*
X50922869Y-35610035D01*
X50926250Y-35613938D01*
X51098126Y-35756632D01*
X51291000Y-35869338D01*
X51499692Y-35949030D01*
X51504760Y-35950061D01*
X51504763Y-35950062D01*
X51612017Y-35971883D01*
X51718597Y-35993567D01*
X51723772Y-35993757D01*
X51723774Y-35993757D01*
X51936673Y-36001564D01*
X51936677Y-36001564D01*
X51941837Y-36001753D01*
X51946957Y-36001097D01*
X51946959Y-36001097D01*
X52158288Y-35974025D01*
X52158289Y-35974025D01*
X52163416Y-35973368D01*
X52168366Y-35971883D01*
X52372429Y-35910661D01*
X52372434Y-35910659D01*
X52377384Y-35909174D01*
X52577994Y-35810896D01*
X52759860Y-35681173D01*
X52785197Y-35655925D01*
X52860701Y-35580684D01*
X52918096Y-35523489D01*
X52934000Y-35501357D01*
X53048453Y-35342077D01*
X53049776Y-35343028D01*
X53096645Y-35299857D01*
X53166580Y-35287625D01*
X53232026Y-35315144D01*
X53259875Y-35346994D01*
X53319987Y-35445088D01*
X53466250Y-35613938D01*
X53638126Y-35756632D01*
X53724070Y-35806853D01*
X53772794Y-35858491D01*
X53786500Y-35915641D01*
X53786500Y-38545406D01*
X53766498Y-38613527D01*
X53749595Y-38634501D01*
X51689500Y-40694595D01*
X51627188Y-40728621D01*
X51600405Y-40731500D01*
X51544513Y-40731500D01*
X51538061Y-40732872D01*
X51538056Y-40732872D01*
X51451112Y-40751353D01*
X51357712Y-40771206D01*
X51351682Y-40773891D01*
X51351681Y-40773891D01*
X51189278Y-40846197D01*
X51189276Y-40846198D01*
X51183248Y-40848882D01*
X51028747Y-40961134D01*
X51024326Y-40966044D01*
X51024325Y-40966045D01*
X51020751Y-40970015D01*
X50900960Y-41103056D01*
X50805473Y-41268444D01*
X50746458Y-41450072D01*
X50745768Y-41456633D01*
X50745768Y-41456635D01*
X50729946Y-41607176D01*
X50726496Y-41640000D01*
X50746458Y-41829928D01*
X50805473Y-42011556D01*
X50900960Y-42176944D01*
X51028747Y-42318866D01*
X51183248Y-42431118D01*
X51189276Y-42433802D01*
X51189278Y-42433803D01*
X51351681Y-42506109D01*
X51357712Y-42508794D01*
X51544513Y-42548500D01*
X51547170Y-42548500D01*
X51611474Y-42574952D01*
X51652107Y-42633171D01*
X51654814Y-42704116D01*
X51621747Y-42762348D01*
X51189500Y-43194595D01*
X51127188Y-43228621D01*
X51100405Y-43231500D01*
X51044513Y-43231500D01*
X51038061Y-43232872D01*
X51038056Y-43232872D01*
X50951112Y-43251353D01*
X50857712Y-43271206D01*
X50851682Y-43273891D01*
X50851681Y-43273891D01*
X50689278Y-43346197D01*
X50689276Y-43346198D01*
X50683248Y-43348882D01*
X50528747Y-43461134D01*
X50524326Y-43466044D01*
X50524325Y-43466045D01*
X50419968Y-43581946D01*
X50400960Y-43603056D01*
X50305473Y-43768444D01*
X50246458Y-43950072D01*
X50245768Y-43956633D01*
X50245768Y-43956635D01*
X50245542Y-43958790D01*
X50226496Y-44140000D01*
X50246458Y-44329928D01*
X50305473Y-44511556D01*
X50308776Y-44517278D01*
X50308777Y-44517279D01*
X50326803Y-44548500D01*
X50400960Y-44676944D01*
X50528747Y-44818866D01*
X50683248Y-44931118D01*
X50689276Y-44933802D01*
X50689278Y-44933803D01*
X50851681Y-45006109D01*
X50857712Y-45008794D01*
X50951113Y-45028647D01*
X51038056Y-45047128D01*
X51038061Y-45047128D01*
X51044513Y-45048500D01*
X51235487Y-45048500D01*
X51241939Y-45047128D01*
X51241944Y-45047128D01*
X51328887Y-45028647D01*
X51422288Y-45008794D01*
X51428319Y-45006109D01*
X51590722Y-44933803D01*
X51590724Y-44933802D01*
X51596752Y-44931118D01*
X51751253Y-44818866D01*
X51879040Y-44676944D01*
X51953197Y-44548500D01*
X51971223Y-44517279D01*
X51971224Y-44517278D01*
X51974527Y-44511556D01*
X51990605Y-44462072D01*
X70432758Y-44462072D01*
X70437668Y-44468630D01*
X70527509Y-44518842D01*
X70538746Y-44523751D01*
X70715777Y-44581271D01*
X70727751Y-44583904D01*
X70912592Y-44605945D01*
X70924841Y-44606202D01*
X71110440Y-44591921D01*
X71122520Y-44589790D01*
X71301791Y-44539736D01*
X71313242Y-44535295D01*
X71438484Y-44472032D01*
X71448770Y-44462385D01*
X71446532Y-44455742D01*
X70952812Y-43962022D01*
X70938868Y-43954408D01*
X70937035Y-43954539D01*
X70930420Y-43958790D01*
X70439518Y-44449692D01*
X70432758Y-44462072D01*
X51990605Y-44462072D01*
X52033542Y-44329928D01*
X52050907Y-44164706D01*
X52077920Y-44099050D01*
X52087122Y-44088782D01*
X52593958Y-43581946D01*
X69923718Y-43581946D01*
X69939293Y-43767428D01*
X69941508Y-43779493D01*
X69992814Y-43958419D01*
X69997332Y-43969831D01*
X70058175Y-44088218D01*
X70067896Y-44098439D01*
X70074695Y-44096095D01*
X70567978Y-43602812D01*
X70574356Y-43591132D01*
X71304408Y-43591132D01*
X71304539Y-43592965D01*
X71308790Y-43599580D01*
X71799596Y-44090386D01*
X71811976Y-44097146D01*
X71818709Y-44092105D01*
X71865938Y-44008968D01*
X71870927Y-43997761D01*
X71929680Y-43821141D01*
X71932399Y-43809173D01*
X71956059Y-43621894D01*
X71956550Y-43614870D01*
X71956848Y-43593505D01*
X71956555Y-43586513D01*
X71938131Y-43398618D01*
X71935748Y-43386580D01*
X71881949Y-43208391D01*
X71877275Y-43197050D01*
X71821520Y-43092190D01*
X71811660Y-43082109D01*
X71804533Y-43084677D01*
X71312022Y-43577188D01*
X71304408Y-43591132D01*
X70574356Y-43591132D01*
X70575592Y-43588868D01*
X70575461Y-43587035D01*
X70571210Y-43580420D01*
X70080175Y-43089385D01*
X70067795Y-43082625D01*
X70061407Y-43087407D01*
X70008302Y-43184003D01*
X70003471Y-43195275D01*
X69947188Y-43372702D01*
X69944638Y-43384696D01*
X69923889Y-43569677D01*
X69923718Y-43581946D01*
X52593958Y-43581946D01*
X53457768Y-42718136D01*
X70431854Y-42718136D01*
X70434307Y-42725097D01*
X70927188Y-43217978D01*
X70941132Y-43225592D01*
X70942965Y-43225461D01*
X70949580Y-43221210D01*
X71440786Y-42730004D01*
X71447546Y-42717624D01*
X71442887Y-42711401D01*
X71339483Y-42655490D01*
X71328177Y-42650738D01*
X71150361Y-42595695D01*
X71138350Y-42593229D01*
X70953227Y-42573772D01*
X70940959Y-42573687D01*
X70755594Y-42590556D01*
X70743537Y-42592856D01*
X70564983Y-42645408D01*
X70553599Y-42650007D01*
X70442003Y-42708348D01*
X70431854Y-42718136D01*
X53457768Y-42718136D01*
X55600109Y-40575795D01*
X69922700Y-40575795D01*
X69939315Y-40773660D01*
X69941014Y-40779584D01*
X69991959Y-40957251D01*
X69994046Y-40964530D01*
X70084808Y-41141133D01*
X70088634Y-41145960D01*
X70204315Y-41291915D01*
X70204319Y-41291920D01*
X70208144Y-41296745D01*
X70359357Y-41425436D01*
X70446021Y-41473872D01*
X70527307Y-41519302D01*
X70527313Y-41519305D01*
X70532685Y-41522307D01*
X70721528Y-41583665D01*
X70918693Y-41607176D01*
X70924828Y-41606704D01*
X70924830Y-41606704D01*
X71110528Y-41592415D01*
X71110533Y-41592414D01*
X71116669Y-41591942D01*
X71122599Y-41590286D01*
X71122601Y-41590286D01*
X71179340Y-41574444D01*
X71307916Y-41538545D01*
X71470071Y-41456635D01*
X71479649Y-41451797D01*
X71479651Y-41451796D01*
X71485150Y-41449018D01*
X71641618Y-41326772D01*
X71686540Y-41274729D01*
X71767333Y-41181130D01*
X71767334Y-41181128D01*
X71771362Y-41176462D01*
X71788690Y-41145960D01*
X71866393Y-41009176D01*
X71869440Y-41003813D01*
X71932116Y-40815403D01*
X71957002Y-40618407D01*
X71957399Y-40590000D01*
X71938023Y-40392386D01*
X71880632Y-40202299D01*
X71787413Y-40026980D01*
X71661917Y-39873106D01*
X71596080Y-39818641D01*
X71513672Y-39750467D01*
X71513669Y-39750465D01*
X71508922Y-39746538D01*
X71334258Y-39652097D01*
X71144576Y-39593381D01*
X71138451Y-39592737D01*
X71138450Y-39592737D01*
X70953232Y-39573270D01*
X70953230Y-39573270D01*
X70947103Y-39572626D01*
X70863970Y-39580192D01*
X70755497Y-39590063D01*
X70755494Y-39590064D01*
X70749358Y-39590622D01*
X70743452Y-39592360D01*
X70743448Y-39592361D01*
X70604226Y-39633337D01*
X70558876Y-39646684D01*
X70382910Y-39738677D01*
X70228163Y-39863096D01*
X70224205Y-39867813D01*
X70224203Y-39867815D01*
X70140986Y-39966989D01*
X70100530Y-40015203D01*
X70004873Y-40189204D01*
X69944834Y-40378471D01*
X69922700Y-40575795D01*
X55600109Y-40575795D01*
X58600109Y-37575795D01*
X69922700Y-37575795D01*
X69923216Y-37581939D01*
X69935999Y-37734165D01*
X69939315Y-37773660D01*
X69994046Y-37964530D01*
X70084808Y-38141133D01*
X70088634Y-38145960D01*
X70204315Y-38291915D01*
X70204319Y-38291920D01*
X70208144Y-38296745D01*
X70359357Y-38425436D01*
X70406524Y-38451797D01*
X70527307Y-38519302D01*
X70527313Y-38519305D01*
X70532685Y-38522307D01*
X70721528Y-38583665D01*
X70918693Y-38607176D01*
X70924828Y-38606704D01*
X70924830Y-38606704D01*
X71110528Y-38592415D01*
X71110533Y-38592414D01*
X71116669Y-38591942D01*
X71122599Y-38590286D01*
X71122601Y-38590286D01*
X71179340Y-38574444D01*
X71307916Y-38538545D01*
X71346011Y-38519302D01*
X71479649Y-38451797D01*
X71479651Y-38451796D01*
X71485150Y-38449018D01*
X71641618Y-38326772D01*
X71771362Y-38176462D01*
X71788690Y-38145960D01*
X71866393Y-38009176D01*
X71869440Y-38003813D01*
X71932116Y-37815403D01*
X71957002Y-37618407D01*
X71957399Y-37590000D01*
X71938023Y-37392386D01*
X71880632Y-37202299D01*
X71819188Y-37086740D01*
X71790307Y-37032422D01*
X71790305Y-37032419D01*
X71787413Y-37026980D01*
X71661917Y-36873106D01*
X71596080Y-36818641D01*
X71513672Y-36750467D01*
X71513669Y-36750465D01*
X71508922Y-36746538D01*
X71334258Y-36652097D01*
X71144576Y-36593381D01*
X71138451Y-36592737D01*
X71138450Y-36592737D01*
X70953232Y-36573270D01*
X70953230Y-36573270D01*
X70947103Y-36572626D01*
X70863970Y-36580192D01*
X70755497Y-36590063D01*
X70755494Y-36590064D01*
X70749358Y-36590622D01*
X70743452Y-36592360D01*
X70743448Y-36592361D01*
X70640030Y-36622799D01*
X70558876Y-36646684D01*
X70382910Y-36738677D01*
X70228163Y-36863096D01*
X70224205Y-36867813D01*
X70224203Y-36867815D01*
X70140986Y-36966989D01*
X70100530Y-37015203D01*
X70004873Y-37189204D01*
X69944834Y-37378471D01*
X69922700Y-37575795D01*
X58600109Y-37575795D01*
X59590499Y-36585405D01*
X59652811Y-36551379D01*
X59679594Y-36548500D01*
X59735487Y-36548500D01*
X59741939Y-36547128D01*
X59741944Y-36547128D01*
X59828887Y-36528647D01*
X59922288Y-36508794D01*
X59928319Y-36506109D01*
X60090722Y-36433803D01*
X60090724Y-36433802D01*
X60096752Y-36431118D01*
X60251253Y-36318866D01*
X60379040Y-36176944D01*
X60474527Y-36011556D01*
X60533542Y-35829928D01*
X60535406Y-35812198D01*
X60552814Y-35646565D01*
X60553504Y-35640000D01*
X60542730Y-35537488D01*
X60534232Y-35456635D01*
X60534232Y-35456633D01*
X60533542Y-35450072D01*
X60474527Y-35268444D01*
X60466544Y-35254616D01*
X60398555Y-35136857D01*
X60379040Y-35103056D01*
X60329143Y-35047639D01*
X60255675Y-34966045D01*
X60255674Y-34966044D01*
X60251253Y-34961134D01*
X60096752Y-34848882D01*
X60090724Y-34846198D01*
X60090722Y-34846197D01*
X59928319Y-34773891D01*
X59928318Y-34773891D01*
X59922288Y-34771206D01*
X59828888Y-34751353D01*
X59741944Y-34732872D01*
X59741939Y-34732872D01*
X59735487Y-34731500D01*
X59544513Y-34731500D01*
X59538061Y-34732872D01*
X59538056Y-34732872D01*
X59451112Y-34751353D01*
X59357712Y-34771206D01*
X59351682Y-34773891D01*
X59351681Y-34773891D01*
X59189278Y-34846197D01*
X59189276Y-34846198D01*
X59183248Y-34848882D01*
X59028747Y-34961134D01*
X59024326Y-34966044D01*
X59024325Y-34966045D01*
X58950858Y-35047639D01*
X58900960Y-35103056D01*
X58881445Y-35136857D01*
X58813457Y-35254616D01*
X58805473Y-35268444D01*
X58746458Y-35450072D01*
X58745768Y-35456633D01*
X58745768Y-35456635D01*
X58729093Y-35615292D01*
X58702080Y-35680949D01*
X58692878Y-35691217D01*
X55248528Y-39135567D01*
X55186216Y-39169593D01*
X55115401Y-39164528D01*
X55058565Y-39121981D01*
X55033754Y-39055461D01*
X55034985Y-39026758D01*
X55040099Y-38994475D01*
X55042505Y-38982856D01*
X55051528Y-38947711D01*
X55051528Y-38947710D01*
X55053500Y-38940030D01*
X55053500Y-38919776D01*
X55055051Y-38900065D01*
X55056980Y-38887886D01*
X55058220Y-38880057D01*
X55054059Y-38836038D01*
X55053500Y-38824181D01*
X55053500Y-35920427D01*
X55073502Y-35852306D01*
X55114618Y-35812550D01*
X55117994Y-35810896D01*
X55299860Y-35681173D01*
X55325197Y-35655925D01*
X55400701Y-35580684D01*
X55458096Y-35523489D01*
X55474000Y-35501357D01*
X55588453Y-35342077D01*
X55589776Y-35343028D01*
X55636645Y-35299857D01*
X55706580Y-35287625D01*
X55772026Y-35315144D01*
X55799875Y-35346994D01*
X55859987Y-35445088D01*
X56006250Y-35613938D01*
X56178126Y-35756632D01*
X56371000Y-35869338D01*
X56579692Y-35949030D01*
X56584760Y-35950061D01*
X56584763Y-35950062D01*
X56692017Y-35971883D01*
X56798597Y-35993567D01*
X56803772Y-35993757D01*
X56803774Y-35993757D01*
X57016673Y-36001564D01*
X57016677Y-36001564D01*
X57021837Y-36001753D01*
X57026957Y-36001097D01*
X57026959Y-36001097D01*
X57238288Y-35974025D01*
X57238289Y-35974025D01*
X57243416Y-35973368D01*
X57248366Y-35971883D01*
X57452429Y-35910661D01*
X57452434Y-35910659D01*
X57457384Y-35909174D01*
X57657994Y-35810896D01*
X57839860Y-35681173D01*
X57865197Y-35655925D01*
X57940701Y-35580684D01*
X57998096Y-35523489D01*
X58014000Y-35501357D01*
X58125435Y-35346277D01*
X58128453Y-35342077D01*
X58136036Y-35326735D01*
X58225136Y-35146453D01*
X58225137Y-35146451D01*
X58227430Y-35141811D01*
X58288248Y-34941635D01*
X58290865Y-34933023D01*
X58290865Y-34933021D01*
X58292370Y-34928069D01*
X58321529Y-34706590D01*
X58322550Y-34664792D01*
X58323074Y-34643365D01*
X58323074Y-34643361D01*
X58323156Y-34640000D01*
X58304852Y-34417361D01*
X58284267Y-34335407D01*
X69219774Y-34335407D01*
X69229589Y-34547466D01*
X69230993Y-34553291D01*
X69230993Y-34553292D01*
X69273942Y-34731500D01*
X69279326Y-34753842D01*
X69281808Y-34759300D01*
X69281809Y-34759304D01*
X69327782Y-34860415D01*
X69367191Y-34947090D01*
X69490013Y-35120237D01*
X69573955Y-35200594D01*
X69638854Y-35262721D01*
X69643360Y-35267035D01*
X69648395Y-35270286D01*
X69816662Y-35378935D01*
X69816665Y-35378936D01*
X69821699Y-35382187D01*
X69827262Y-35384429D01*
X70013037Y-35459299D01*
X70013040Y-35459300D01*
X70018596Y-35461539D01*
X70024475Y-35462687D01*
X70024478Y-35462688D01*
X70118067Y-35480964D01*
X70226945Y-35502226D01*
X70232547Y-35502500D01*
X71597036Y-35502500D01*
X71755326Y-35487398D01*
X71959026Y-35427639D01*
X71964354Y-35424895D01*
X72142420Y-35333185D01*
X72142423Y-35333183D01*
X72147751Y-35330439D01*
X72218673Y-35274729D01*
X72309974Y-35203012D01*
X72309978Y-35203008D01*
X72314691Y-35199306D01*
X72364583Y-35141811D01*
X72449891Y-35043501D01*
X72453823Y-35038970D01*
X72560126Y-34855219D01*
X72629764Y-34654681D01*
X72645310Y-34547466D01*
X72659365Y-34450533D01*
X72659365Y-34450530D01*
X72660226Y-34444593D01*
X72650411Y-34232534D01*
X72600674Y-34026158D01*
X72594045Y-34011577D01*
X72545683Y-33905213D01*
X72512809Y-33832910D01*
X72389987Y-33659763D01*
X72261069Y-33536351D01*
X72240970Y-33517110D01*
X72236640Y-33512965D01*
X72134192Y-33446815D01*
X72063338Y-33401065D01*
X72063335Y-33401064D01*
X72058301Y-33397813D01*
X72018444Y-33381750D01*
X71866963Y-33320701D01*
X71866960Y-33320700D01*
X71861404Y-33318461D01*
X71855525Y-33317313D01*
X71855522Y-33317312D01*
X71761371Y-33298926D01*
X71653055Y-33277774D01*
X71647453Y-33277500D01*
X70282964Y-33277500D01*
X70124674Y-33292602D01*
X69920974Y-33352361D01*
X69915647Y-33355105D01*
X69915646Y-33355105D01*
X69737580Y-33446815D01*
X69737577Y-33446817D01*
X69732249Y-33449561D01*
X69727534Y-33453265D01*
X69570026Y-33576988D01*
X69570022Y-33576992D01*
X69565309Y-33580694D01*
X69561378Y-33585224D01*
X69561377Y-33585225D01*
X69507885Y-33646870D01*
X69426177Y-33741030D01*
X69319874Y-33924781D01*
X69250236Y-34125319D01*
X69249375Y-34131254D01*
X69249375Y-34131256D01*
X69233822Y-34238524D01*
X69219774Y-34335407D01*
X58284267Y-34335407D01*
X58250431Y-34200702D01*
X58161354Y-33995840D01*
X58054252Y-33830285D01*
X58042822Y-33812617D01*
X58042820Y-33812614D01*
X58040014Y-33808277D01*
X57889670Y-33643051D01*
X57885619Y-33639852D01*
X57885615Y-33639848D01*
X57718414Y-33507800D01*
X57718410Y-33507798D01*
X57714359Y-33504598D01*
X57518789Y-33396638D01*
X57513920Y-33394914D01*
X57513916Y-33394912D01*
X57313087Y-33323795D01*
X57313083Y-33323794D01*
X57308212Y-33322069D01*
X57303119Y-33321162D01*
X57303116Y-33321161D01*
X57093373Y-33283800D01*
X57093367Y-33283799D01*
X57088284Y-33282894D01*
X57014452Y-33281992D01*
X56870081Y-33280228D01*
X56870079Y-33280228D01*
X56864911Y-33280165D01*
X56644091Y-33313955D01*
X56431756Y-33383357D01*
X56403986Y-33397813D01*
X56309855Y-33446815D01*
X56233607Y-33486507D01*
X56229474Y-33489610D01*
X56229471Y-33489612D01*
X56059100Y-33617530D01*
X56054965Y-33620635D01*
X55900629Y-33782138D01*
X55793201Y-33939621D01*
X55738293Y-33984621D01*
X55667768Y-33992792D01*
X55604021Y-33961538D01*
X55583324Y-33937054D01*
X55502822Y-33812617D01*
X55502820Y-33812614D01*
X55500014Y-33808277D01*
X55349670Y-33643051D01*
X55345619Y-33639852D01*
X55345615Y-33639848D01*
X55178414Y-33507800D01*
X55178410Y-33507798D01*
X55174359Y-33504598D01*
X54978789Y-33396638D01*
X54973920Y-33394914D01*
X54973916Y-33394912D01*
X54773087Y-33323795D01*
X54773083Y-33323794D01*
X54768212Y-33322069D01*
X54763119Y-33321162D01*
X54763116Y-33321161D01*
X54553373Y-33283800D01*
X54553367Y-33283799D01*
X54548284Y-33282894D01*
X54474452Y-33281992D01*
X54330081Y-33280228D01*
X54330079Y-33280228D01*
X54324911Y-33280165D01*
X54104091Y-33313955D01*
X53891756Y-33383357D01*
X53863986Y-33397813D01*
X53769855Y-33446815D01*
X53693607Y-33486507D01*
X53689474Y-33489610D01*
X53689471Y-33489612D01*
X53519100Y-33617530D01*
X53514965Y-33620635D01*
X53360629Y-33782138D01*
X53253201Y-33939621D01*
X53198293Y-33984621D01*
X53127768Y-33992792D01*
X53064021Y-33961538D01*
X53043324Y-33937054D01*
X52962822Y-33812617D01*
X52962820Y-33812614D01*
X52960014Y-33808277D01*
X52809670Y-33643051D01*
X52805619Y-33639852D01*
X52805615Y-33639848D01*
X52638414Y-33507800D01*
X52638410Y-33507798D01*
X52634359Y-33504598D01*
X52438789Y-33396638D01*
X52433920Y-33394914D01*
X52433916Y-33394912D01*
X52233087Y-33323795D01*
X52233083Y-33323794D01*
X52228212Y-33322069D01*
X52223119Y-33321162D01*
X52223116Y-33321161D01*
X52013373Y-33283800D01*
X52013367Y-33283799D01*
X52008284Y-33282894D01*
X51934452Y-33281992D01*
X51790081Y-33280228D01*
X51790079Y-33280228D01*
X51784911Y-33280165D01*
X51564091Y-33313955D01*
X51351756Y-33383357D01*
X51323986Y-33397813D01*
X51229855Y-33446815D01*
X51153607Y-33486507D01*
X51149474Y-33489610D01*
X51149471Y-33489612D01*
X50979100Y-33617530D01*
X50974965Y-33620635D01*
X50971393Y-33624373D01*
X50893898Y-33705466D01*
X50832374Y-33740895D01*
X50761462Y-33737438D01*
X50703676Y-33696192D01*
X50684823Y-33662644D01*
X50643324Y-33551946D01*
X50634786Y-33536351D01*
X50558285Y-33434276D01*
X50545724Y-33421715D01*
X50443649Y-33345214D01*
X50428054Y-33336676D01*
X50307606Y-33291522D01*
X50292351Y-33287895D01*
X50241486Y-33282369D01*
X50234672Y-33282000D01*
X49612115Y-33282000D01*
X49596876Y-33286475D01*
X49595671Y-33287865D01*
X49594000Y-33295548D01*
X49594000Y-35979884D01*
X49086000Y-35979884D01*
X49086000Y-34912115D01*
X49081525Y-34896876D01*
X49080135Y-34895671D01*
X49072452Y-34894000D01*
X48000116Y-34894000D01*
X47984877Y-34898475D01*
X47983672Y-34899865D01*
X47982001Y-34907548D01*
X47982001Y-35534669D01*
X35749114Y-35534669D01*
X35749235Y-35511583D01*
X35749235Y-35511576D01*
X35749257Y-35507297D01*
X35748626Y-35502500D01*
X35725973Y-35330439D01*
X35711732Y-35222266D01*
X35635871Y-34944964D01*
X35562902Y-34773891D01*
X35524763Y-34684476D01*
X35524761Y-34684472D01*
X35523077Y-34680524D01*
X35375439Y-34433839D01*
X35322600Y-34367885D01*
X47982000Y-34367885D01*
X47986475Y-34383124D01*
X47987865Y-34384329D01*
X47995548Y-34386000D01*
X49067885Y-34386000D01*
X49083124Y-34381525D01*
X49084329Y-34380135D01*
X49086000Y-34372452D01*
X49086000Y-33300116D01*
X49081525Y-33284877D01*
X49080135Y-33283672D01*
X49072452Y-33282001D01*
X48445331Y-33282001D01*
X48438510Y-33282371D01*
X48387648Y-33287895D01*
X48372396Y-33291521D01*
X48251946Y-33336676D01*
X48236351Y-33345214D01*
X48134276Y-33421715D01*
X48121715Y-33434276D01*
X48045214Y-33536351D01*
X48036676Y-33551946D01*
X47991522Y-33672394D01*
X47987895Y-33687649D01*
X47982369Y-33738514D01*
X47982000Y-33745328D01*
X47982000Y-34367885D01*
X35322600Y-34367885D01*
X35195687Y-34209472D01*
X35002514Y-34026158D01*
X34990258Y-34014527D01*
X34990255Y-34014525D01*
X34987149Y-34011577D01*
X34753683Y-33843814D01*
X34731843Y-33832250D01*
X34679351Y-33804457D01*
X34499608Y-33709288D01*
X34267567Y-33624373D01*
X34233658Y-33611964D01*
X34233656Y-33611963D01*
X34229627Y-33610489D01*
X33948736Y-33549245D01*
X33917685Y-33546801D01*
X33725718Y-33531693D01*
X33725709Y-33531693D01*
X33723261Y-33531500D01*
X33567729Y-33531500D01*
X33565593Y-33531646D01*
X33565582Y-33531646D01*
X33357452Y-33545835D01*
X33357446Y-33545836D01*
X33353175Y-33546127D01*
X33348980Y-33546996D01*
X33348978Y-33546996D01*
X33212417Y-33575276D01*
X33071658Y-33604426D01*
X32800657Y-33700393D01*
X32796848Y-33702359D01*
X32642279Y-33782138D01*
X32545188Y-33832250D01*
X32541687Y-33834711D01*
X32541683Y-33834713D01*
X32536487Y-33838365D01*
X32309977Y-33997559D01*
X32294892Y-34011577D01*
X32125157Y-34169305D01*
X32099378Y-34193260D01*
X31917287Y-34415732D01*
X31767073Y-34660858D01*
X31765347Y-34664791D01*
X31765346Y-34664792D01*
X31679474Y-34860415D01*
X31651517Y-34924102D01*
X31650342Y-34928229D01*
X31650341Y-34928230D01*
X31642074Y-34957251D01*
X31572756Y-35200594D01*
X31532249Y-35485216D01*
X31532227Y-35489505D01*
X31532226Y-35489512D01*
X31530765Y-35768417D01*
X31530743Y-35772703D01*
X30648000Y-35772703D01*
X30648000Y-32774000D01*
X30668002Y-32705879D01*
X30721658Y-32659386D01*
X30774000Y-32648000D01*
X74506000Y-32648000D01*
X74574121Y-32668002D01*
G37*
%TD.AperFunction*%
%TD*%
M02*
