%TF.GenerationSoftware,KiCad,Pcbnew,(6.0.2-0)*%
%TF.CreationDate,2022-04-22T19:08:30+09:30*%
%TF.ProjectId,scrambler,73637261-6d62-46c6-9572-2e6b69636164,1.0*%
%TF.SameCoordinates,Original*%
%TF.FileFunction,Copper,L1,Top*%
%TF.FilePolarity,Positive*%
%FSLAX46Y46*%
G04 Gerber Fmt 4.6, Leading zero omitted, Abs format (unit mm)*
G04 Created by KiCad (PCBNEW (6.0.2-0)) date 2022-04-22 19:08:30*
%MOMM*%
%LPD*%
G01*
G04 APERTURE LIST*
G04 Aperture macros list*
%AMRoundRect*
0 Rectangle with rounded corners*
0 $1 Rounding radius*
0 $2 $3 $4 $5 $6 $7 $8 $9 X,Y pos of 4 corners*
0 Add a 4 corners polygon primitive as box body*
4,1,4,$2,$3,$4,$5,$6,$7,$8,$9,$2,$3,0*
0 Add four circle primitives for the rounded corners*
1,1,$1+$1,$2,$3*
1,1,$1+$1,$4,$5*
1,1,$1+$1,$6,$7*
1,1,$1+$1,$8,$9*
0 Add four rect primitives between the rounded corners*
20,1,$1+$1,$2,$3,$4,$5,0*
20,1,$1+$1,$4,$5,$6,$7,0*
20,1,$1+$1,$6,$7,$8,$9,0*
20,1,$1+$1,$8,$9,$2,$3,0*%
G04 Aperture macros list end*
%TA.AperFunction,ComponentPad*%
%ADD10C,2.000000*%
%TD*%
%TA.AperFunction,ComponentPad*%
%ADD11C,1.600000*%
%TD*%
%TA.AperFunction,ComponentPad*%
%ADD12R,1.600000X1.600000*%
%TD*%
%TA.AperFunction,ComponentPad*%
%ADD13O,1.600000X1.600000*%
%TD*%
%TA.AperFunction,SMDPad,CuDef*%
%ADD14RoundRect,0.150000X-0.512500X-0.150000X0.512500X-0.150000X0.512500X0.150000X-0.512500X0.150000X0*%
%TD*%
%TA.AperFunction,ComponentPad*%
%ADD15R,1.800000X1.800000*%
%TD*%
%TA.AperFunction,ComponentPad*%
%ADD16C,1.800000*%
%TD*%
%TA.AperFunction,ComponentPad*%
%ADD17R,1.700000X1.700000*%
%TD*%
%TA.AperFunction,ComponentPad*%
%ADD18O,1.700000X1.700000*%
%TD*%
%TA.AperFunction,ComponentPad*%
%ADD19C,1.008000*%
%TD*%
%TA.AperFunction,ComponentPad*%
%ADD20O,2.416000X1.208000*%
%TD*%
%TA.AperFunction,SMDPad,CuDef*%
%ADD21R,0.450000X1.380000*%
%TD*%
%TA.AperFunction,SMDPad,CuDef*%
%ADD22R,1.650000X1.300000*%
%TD*%
%TA.AperFunction,SMDPad,CuDef*%
%ADD23R,1.000000X1.900000*%
%TD*%
%TA.AperFunction,SMDPad,CuDef*%
%ADD24R,1.425000X1.550000*%
%TD*%
%TA.AperFunction,SMDPad,CuDef*%
%ADD25R,1.800000X1.900000*%
%TD*%
%TA.AperFunction,ViaPad*%
%ADD26C,0.800000*%
%TD*%
%TA.AperFunction,Conductor*%
%ADD27C,0.500000*%
%TD*%
%TA.AperFunction,Conductor*%
%ADD28C,0.250000*%
%TD*%
G04 APERTURE END LIST*
D10*
%TO.P,SW1,1,1*%
%TO.N,/RST*%
X32890000Y-58890000D03*
X32890000Y-52390000D03*
%TO.P,SW1,2,2*%
%TO.N,GND*%
X37390000Y-52390000D03*
X37390000Y-58890000D03*
%TD*%
D11*
%TO.P,C3,1*%
%TO.N,+5V*%
X73140000Y-75640000D03*
%TO.P,C3,2*%
%TO.N,GND*%
X73140000Y-70640000D03*
%TD*%
D10*
%TO.P,SW4,1,1*%
%TO.N,Net-(U2-Pad12)*%
X59640000Y-62890000D03*
X66140000Y-62890000D03*
%TO.P,SW4,2,2*%
%TO.N,GND*%
X66140000Y-67390000D03*
X59640000Y-67390000D03*
%TD*%
D12*
%TO.P,C1,1*%
%TO.N,Net-(C1-Pad1)*%
X34140000Y-84345113D03*
D11*
%TO.P,C1,2*%
%TO.N,GND*%
X34140000Y-81845113D03*
%TD*%
D12*
%TO.P,C2,1*%
%TO.N,Net-(C1-Pad1)*%
X62140000Y-82434888D03*
D11*
%TO.P,C2,2*%
%TO.N,GND*%
X62140000Y-84934888D03*
%TD*%
%TO.P,R3,1*%
%TO.N,+5V*%
X42330000Y-57640000D03*
D13*
%TO.P,R3,2*%
%TO.N,/RST*%
X49950000Y-57640000D03*
%TD*%
D10*
%TO.P,SW3,1,1*%
%TO.N,Net-(U2-Pad13)*%
X55890000Y-62890000D03*
X49390000Y-62890000D03*
%TO.P,SW3,2,2*%
%TO.N,GND*%
X49390000Y-67390000D03*
X55890000Y-67390000D03*
%TD*%
%TO.P,SW5,1,1*%
%TO.N,Net-(U2-Pad14)*%
X45640000Y-62890000D03*
X39140000Y-62890000D03*
%TO.P,SW5,2,2*%
%TO.N,GND*%
X45640000Y-67390000D03*
X39140000Y-67390000D03*
%TD*%
D12*
%TO.P,C5,1*%
%TO.N,+5V*%
X34140000Y-46640000D03*
D11*
%TO.P,C5,2*%
%TO.N,GND*%
X36640000Y-46640000D03*
%TD*%
D14*
%TO.P,U1,1,STAT*%
%TO.N,Net-(R2-Pad2)*%
X42002500Y-81690000D03*
%TO.P,U1,2,VSS*%
%TO.N,GND*%
X42002500Y-82640000D03*
%TO.P,U1,3,VBAT*%
%TO.N,Net-(U1-Pad3)*%
X42002500Y-83590000D03*
%TO.P,U1,4,VDD*%
%TO.N,Net-(C1-Pad1)*%
X44277500Y-83590000D03*
%TO.P,U1,5,PROG*%
%TO.N,Net-(R1-Pad1)*%
X44277500Y-81690000D03*
%TD*%
D11*
%TO.P,C4,1*%
%TO.N,+5V*%
X45640000Y-74640000D03*
%TO.P,C4,2*%
%TO.N,GND*%
X50640000Y-74640000D03*
%TD*%
%TO.P,R2,1*%
%TO.N,Net-(D1-Pad1)*%
X52330000Y-57640000D03*
D13*
%TO.P,R2,2*%
%TO.N,Net-(R2-Pad2)*%
X59950000Y-57640000D03*
%TD*%
D11*
%TO.P,R1,1*%
%TO.N,Net-(R1-Pad1)*%
X69140000Y-57640000D03*
D13*
%TO.P,R1,2*%
%TO.N,GND*%
X69140000Y-50020000D03*
%TD*%
D15*
%TO.P,D1,1,K*%
%TO.N,Net-(D1-Pad1)*%
X33365000Y-63640000D03*
D16*
%TO.P,D1,2,A*%
%TO.N,Net-(C1-Pad1)*%
X35905000Y-63640000D03*
%TD*%
D17*
%TO.P,BT1,1,+*%
%TO.N,Net-(BT1-Pad1)*%
X32140000Y-75865000D03*
D18*
%TO.P,BT1,2,-*%
%TO.N,GND*%
X32140000Y-78405000D03*
%TD*%
D19*
%TO.P,SW2,1,A*%
%TO.N,+5V*%
X70940000Y-43590000D03*
%TO.P,SW2,2,B*%
%TO.N,Net-(BT1-Pad1)*%
X70940000Y-40590000D03*
%TO.P,SW2,3,C*%
%TO.N,Net-(U1-Pad3)*%
X70940000Y-37590000D03*
D20*
%TO.P,SW2,GND*%
%TO.N,N/C*%
X70940000Y-46890000D03*
X70940000Y-34390000D03*
%TD*%
D21*
%TO.P,J3,1,VBUS*%
%TO.N,Net-(C1-Pad1)*%
X50590000Y-83030000D03*
%TO.P,J3,2,D-*%
%TO.N,unconnected-(J3-Pad2)*%
X51240000Y-83030000D03*
%TO.P,J3,3,D+*%
%TO.N,unconnected-(J3-Pad3)*%
X51890000Y-83030000D03*
%TO.P,J3,4,ID*%
%TO.N,unconnected-(J3-Pad4)*%
X52540000Y-83030000D03*
%TO.P,J3,5,GND*%
%TO.N,GND*%
X53190000Y-83030000D03*
D22*
%TO.P,J3,6,Shield*%
X55265000Y-85690000D03*
D23*
X53440000Y-85690000D03*
D24*
X49402500Y-83115000D03*
X54377500Y-83115000D03*
D22*
X48515000Y-85690000D03*
D25*
X50740000Y-85690000D03*
%TD*%
D17*
%TO.P,J1,1,Pin_1*%
%TO.N,+5V*%
X49340000Y-34640000D03*
D18*
%TO.P,J1,2,Pin_2*%
%TO.N,GND*%
X51880000Y-34640000D03*
%TO.P,J1,3,Pin_3*%
%TO.N,Net-(J1-Pad3)*%
X54420000Y-34640000D03*
%TO.P,J1,4,Pin_4*%
%TO.N,Net-(J1-Pad4)*%
X56960000Y-34640000D03*
%TD*%
D12*
%TO.P,U2,1,~{RESET}/PC6*%
%TO.N,/RST*%
X36140000Y-78190000D03*
D13*
%TO.P,U2,2,PD0*%
%TO.N,unconnected-(U2-Pad2)*%
X38680000Y-78190000D03*
%TO.P,U2,3,PD1*%
%TO.N,unconnected-(U2-Pad3)*%
X41220000Y-78190000D03*
%TO.P,U2,4,PD2*%
%TO.N,unconnected-(U2-Pad4)*%
X43760000Y-78190000D03*
%TO.P,U2,5,PD3*%
%TO.N,unconnected-(U2-Pad5)*%
X46300000Y-78190000D03*
%TO.P,U2,6,PD4*%
%TO.N,unconnected-(U2-Pad6)*%
X48840000Y-78190000D03*
%TO.P,U2,7,VCC*%
%TO.N,+5V*%
X51380000Y-78190000D03*
%TO.P,U2,8,GND*%
%TO.N,GND*%
X53920000Y-78190000D03*
%TO.P,U2,9,XTAL1/PB6*%
%TO.N,unconnected-(U2-Pad9)*%
X56460000Y-78190000D03*
%TO.P,U2,10,XTAL2/PB7*%
%TO.N,unconnected-(U2-Pad10)*%
X59000000Y-78190000D03*
%TO.P,U2,11,PD5*%
%TO.N,unconnected-(U2-Pad11)*%
X61540000Y-78190000D03*
%TO.P,U2,12,PD6*%
%TO.N,Net-(U2-Pad12)*%
X64080000Y-78190000D03*
%TO.P,U2,13,PD7*%
%TO.N,Net-(U2-Pad13)*%
X66620000Y-78190000D03*
%TO.P,U2,14,PB0*%
%TO.N,Net-(U2-Pad14)*%
X69160000Y-78190000D03*
%TO.P,U2,15,PB1*%
%TO.N,unconnected-(U2-Pad15)*%
X69160000Y-70570000D03*
%TO.P,U2,16,PB2*%
%TO.N,unconnected-(U2-Pad16)*%
X66620000Y-70570000D03*
%TO.P,U2,17,PB3*%
%TO.N,/MOSI*%
X64080000Y-70570000D03*
%TO.P,U2,18,PB4*%
%TO.N,/MISO*%
X61540000Y-70570000D03*
%TO.P,U2,19,PB5*%
%TO.N,/SCK*%
X59000000Y-70570000D03*
%TO.P,U2,20,AVCC*%
%TO.N,+5V*%
X56460000Y-70570000D03*
%TO.P,U2,21,AREF*%
%TO.N,unconnected-(U2-Pad21)*%
X53920000Y-70570000D03*
%TO.P,U2,22,GND*%
%TO.N,GND*%
X51380000Y-70570000D03*
%TO.P,U2,23,PC0*%
%TO.N,unconnected-(U2-Pad23)*%
X48840000Y-70570000D03*
%TO.P,U2,24,PC1*%
%TO.N,unconnected-(U2-Pad24)*%
X46300000Y-70570000D03*
%TO.P,U2,25,PC2*%
%TO.N,unconnected-(U2-Pad25)*%
X43760000Y-70570000D03*
%TO.P,U2,26,PC3*%
%TO.N,unconnected-(U2-Pad26)*%
X41220000Y-70570000D03*
%TO.P,U2,27,PC4*%
%TO.N,Net-(J1-Pad4)*%
X38680000Y-70570000D03*
%TO.P,U2,28,PC5*%
%TO.N,Net-(J1-Pad3)*%
X36140000Y-70570000D03*
%TD*%
D17*
%TO.P,J2,1,MISO*%
%TO.N,/MISO*%
X70140000Y-62115000D03*
D18*
%TO.P,J2,2,VCC*%
%TO.N,+5V*%
X72680000Y-62115000D03*
%TO.P,J2,3,SCK*%
%TO.N,/SCK*%
X70140000Y-64655000D03*
%TO.P,J2,4,MOSI*%
%TO.N,/MOSI*%
X72680000Y-64655000D03*
%TO.P,J2,5,~{RST}*%
%TO.N,/RST*%
X70140000Y-67195000D03*
%TO.P,J2,6,GND*%
%TO.N,GND*%
X72680000Y-67195000D03*
%TD*%
D26*
%TO.N,Net-(BT1-Pad1)*%
X47140000Y-64640000D03*
X52640000Y-54140000D03*
X45640000Y-72640000D03*
X49640000Y-60140000D03*
X35140000Y-73640000D03*
%TO.N,Net-(C1-Pad1)*%
X47640000Y-81140000D03*
X45140000Y-85640000D03*
X32640000Y-69640000D03*
%TO.N,Net-(D1-Pad1)*%
X48640000Y-55640000D03*
X35640000Y-56140000D03*
X40140000Y-55640000D03*
%TO.N,Net-(J1-Pad3)*%
X51640000Y-41640000D03*
X39140000Y-60640000D03*
%TO.N,Net-(J1-Pad4)*%
X39640000Y-65140000D03*
X51140000Y-44140000D03*
X59640000Y-35640000D03*
%TO.N,/MISO*%
X63640000Y-68640000D03*
%TO.N,/SCK*%
X58140000Y-76640000D03*
X60640000Y-73640000D03*
%TO.N,/RST*%
X40140000Y-58140000D03*
X44140000Y-59140000D03*
X48140000Y-59640000D03*
%TO.N,Net-(R1-Pad1)*%
X61640000Y-68140000D03*
%TO.N,Net-(R2-Pad2)*%
X42640000Y-80140000D03*
X52652299Y-75627701D03*
X54398774Y-68575824D03*
%TO.N,Net-(U1-Pad3)*%
X38140000Y-83620613D03*
X47640000Y-43640000D03*
%TO.N,Net-(U2-Pad13)*%
X67140000Y-74640000D03*
X57140000Y-65140000D03*
X69140000Y-76640000D03*
%TO.N,Net-(U2-Pad12)*%
X63140000Y-66140000D03*
X63640000Y-72640000D03*
%TO.N,Net-(U2-Pad14)*%
X43640000Y-60640000D03*
X63140000Y-74640000D03*
%TD*%
D27*
%TO.N,Net-(BT1-Pad1)*%
X70940000Y-40590000D02*
X67190000Y-40590000D01*
X45640000Y-72640000D02*
X36140000Y-72640000D01*
X66190000Y-40590000D02*
X52640000Y-54140000D01*
X36140000Y-72640000D02*
X35140000Y-73640000D01*
X67190000Y-40590000D02*
X66190000Y-40590000D01*
X49640000Y-60140000D02*
X47140000Y-62640000D01*
X47140000Y-62640000D02*
X47140000Y-64640000D01*
D28*
%TO.N,GND*%
X55115000Y-83115000D02*
X55265000Y-83265000D01*
D27*
X48515000Y-85690000D02*
X50740000Y-85690000D01*
D28*
X72680000Y-70180000D02*
X73140000Y-70640000D01*
X54292500Y-83030000D02*
X54377500Y-83115000D01*
X69140000Y-50020000D02*
X75014980Y-55894980D01*
X34140000Y-81845113D02*
X34934887Y-82640000D01*
X75014980Y-64860020D02*
X72680000Y-67195000D01*
X39140000Y-67390000D02*
X37725787Y-67390000D01*
X53920000Y-77920000D02*
X53920000Y-78190000D01*
X45640000Y-67390000D02*
X49390000Y-67390000D01*
X39880000Y-46640000D02*
X36640000Y-46640000D01*
X66140000Y-67390000D02*
X59640000Y-67390000D01*
X50640000Y-71310000D02*
X51380000Y-70570000D01*
X34934887Y-82640000D02*
X42002500Y-82640000D01*
D27*
X48515000Y-84002500D02*
X49402500Y-83115000D01*
D28*
X49390000Y-67390000D02*
X55890000Y-67390000D01*
X37390000Y-65640000D02*
X39140000Y-67390000D01*
X37390000Y-52390000D02*
X37390000Y-58890000D01*
X37725787Y-67390000D02*
X33640000Y-71475787D01*
D27*
X48515000Y-85690000D02*
X48515000Y-84002500D01*
D28*
X54377500Y-83115000D02*
X55115000Y-83115000D01*
X36640000Y-46640000D02*
X36640000Y-51640000D01*
X55265000Y-83265000D02*
X55265000Y-85690000D01*
X62140000Y-84934888D02*
X56020112Y-84934888D01*
X32140000Y-79845113D02*
X34140000Y-81845113D01*
X36640000Y-51640000D02*
X37390000Y-52390000D01*
X53190000Y-83030000D02*
X54292500Y-83030000D01*
X48927500Y-82640000D02*
X49402500Y-83115000D01*
X33640000Y-71475787D02*
X33640000Y-76905000D01*
X67140000Y-68390000D02*
X71485000Y-68390000D01*
X32140000Y-78405000D02*
X32140000Y-79845113D01*
X45640000Y-67390000D02*
X39140000Y-67390000D01*
X66140000Y-67390000D02*
X67140000Y-68390000D01*
X56020112Y-84934888D02*
X55265000Y-85690000D01*
D27*
X53440000Y-85690000D02*
X55265000Y-85690000D01*
X53440000Y-85690000D02*
X50740000Y-85690000D01*
D28*
X50640000Y-74640000D02*
X53920000Y-77920000D01*
X33640000Y-76905000D02*
X32140000Y-78405000D01*
X50640000Y-74640000D02*
X50640000Y-71310000D01*
X51880000Y-34640000D02*
X39880000Y-46640000D01*
X72680000Y-67195000D02*
X72680000Y-70180000D01*
X59640000Y-67390000D02*
X55890000Y-67390000D01*
X71485000Y-68390000D02*
X72680000Y-67195000D01*
X75014980Y-55894980D02*
X75014980Y-64860020D01*
X54560000Y-67390000D02*
X51380000Y-70570000D01*
X37390000Y-58890000D02*
X37390000Y-65640000D01*
X55890000Y-67390000D02*
X54560000Y-67390000D01*
X42002500Y-82640000D02*
X48927500Y-82640000D01*
%TO.N,Net-(C1-Pad1)*%
X43522387Y-84345113D02*
X44277500Y-83590000D01*
X34140000Y-84345113D02*
X43522387Y-84345113D01*
X47640000Y-81140000D02*
X50140000Y-81140000D01*
X32640000Y-69640000D02*
X35905000Y-66375000D01*
X62140000Y-82140000D02*
X61140000Y-81140000D01*
X50140000Y-81140000D02*
X50590000Y-81590000D01*
X35905000Y-66375000D02*
X35905000Y-63640000D01*
X62140000Y-82434888D02*
X62140000Y-82140000D01*
X50590000Y-81590000D02*
X50590000Y-83030000D01*
X61140000Y-81140000D02*
X50140000Y-81140000D01*
X44277500Y-83590000D02*
X44277500Y-84777500D01*
X44277500Y-84777500D02*
X45140000Y-85640000D01*
D27*
%TO.N,+5V*%
X42330000Y-57640000D02*
X42469511Y-57779511D01*
D28*
%TO.N,Net-(D1-Pad1)*%
X35640000Y-61365000D02*
X35640000Y-56140000D01*
X33365000Y-63640000D02*
X35640000Y-61365000D01*
X40140000Y-55640000D02*
X48640000Y-55640000D01*
%TO.N,Net-(J1-Pad3)*%
X39140000Y-54140000D02*
X39140000Y-60640000D01*
X51640000Y-41640000D02*
X39140000Y-54140000D01*
%TO.N,Net-(J1-Pad4)*%
X58640000Y-34640000D02*
X59640000Y-35640000D01*
X51140000Y-54639999D02*
X40639999Y-65140000D01*
X40639999Y-65140000D02*
X39640000Y-65140000D01*
X56960000Y-34640000D02*
X58640000Y-34640000D01*
X51140000Y-44140000D02*
X51140000Y-54639999D01*
%TO.N,/MISO*%
X63470000Y-68640000D02*
X61540000Y-70570000D01*
X63640000Y-68640000D02*
X63470000Y-68640000D01*
%TO.N,/SCK*%
X58140000Y-76640000D02*
X58140000Y-76140000D01*
X58140000Y-76140000D02*
X60640000Y-73640000D01*
%TO.N,/RST*%
X66688632Y-61565489D02*
X68965489Y-63842346D01*
X53875489Y-61565489D02*
X66688632Y-61565489D01*
X41140000Y-59140000D02*
X40140000Y-58140000D01*
X48140000Y-59450000D02*
X48140000Y-59640000D01*
X49950000Y-57640000D02*
X48140000Y-59450000D01*
X68965489Y-66020489D02*
X70140000Y-67195000D01*
X49950000Y-57640000D02*
X53875489Y-61565489D01*
X68965489Y-63842346D02*
X68965489Y-66020489D01*
X44140000Y-59140000D02*
X41140000Y-59140000D01*
%TO.N,Net-(R1-Pad1)*%
X45140000Y-80140000D02*
X53560300Y-80140000D01*
X60124511Y-69655489D02*
X61640000Y-68140000D01*
X44277500Y-81002500D02*
X45140000Y-80140000D01*
X53560300Y-80140000D02*
X55044511Y-78655789D01*
X44277500Y-81690000D02*
X44277500Y-81002500D01*
X60124511Y-72935189D02*
X60124511Y-69655489D01*
X55044511Y-78015189D02*
X60124511Y-72935189D01*
X55044511Y-78655789D02*
X55044511Y-78015189D01*
%TO.N,Net-(R2-Pad2)*%
X55044511Y-73235489D02*
X52652299Y-75627701D01*
X54398774Y-68575824D02*
X55044511Y-69221561D01*
X55044511Y-69221561D02*
X55044511Y-73235489D01*
X42640000Y-80140000D02*
X42640000Y-81052500D01*
X42640000Y-81052500D02*
X42002500Y-81690000D01*
%TO.N,Net-(U1-Pad3)*%
X47640000Y-43640000D02*
X53690000Y-37590000D01*
X42002500Y-83590000D02*
X38170613Y-83590000D01*
X53690000Y-37590000D02*
X70940000Y-37590000D01*
X38170613Y-83590000D02*
X38140000Y-83620613D01*
%TO.N,Net-(U2-Pad13)*%
X55890000Y-62890000D02*
X57140000Y-64140000D01*
X57140000Y-64140000D02*
X57140000Y-65140000D01*
X67140000Y-74640000D02*
X69140000Y-76640000D01*
X49390000Y-62890000D02*
X55890000Y-62890000D01*
%TO.N,Net-(U2-Pad12)*%
X62415489Y-76525489D02*
X64080000Y-78190000D01*
X59640000Y-62890000D02*
X66140000Y-62890000D01*
X63140000Y-65890000D02*
X63140000Y-66140000D01*
X63640000Y-72640000D02*
X62415489Y-73864511D01*
X62415489Y-73864511D02*
X62415489Y-76525489D01*
X66140000Y-62890000D02*
X63140000Y-65890000D01*
%TO.N,Net-(U2-Pad14)*%
X41390000Y-62890000D02*
X43640000Y-60640000D01*
X65610000Y-74640000D02*
X69160000Y-78190000D01*
X63140000Y-74640000D02*
X65610000Y-74640000D01*
X39140000Y-62890000D02*
X41390000Y-62890000D01*
%TD*%
%TA.AperFunction,Conductor*%
%TO.N,GND*%
G36*
X74574121Y-32668002D02*
G01*
X74620614Y-32721658D01*
X74632000Y-32774000D01*
X74632000Y-70197430D01*
X74611998Y-70265551D01*
X74558342Y-70312044D01*
X74488068Y-70322148D01*
X74423488Y-70292654D01*
X74384293Y-70230041D01*
X74375236Y-70196239D01*
X74371490Y-70185947D01*
X74279414Y-69988489D01*
X74273931Y-69978994D01*
X74237491Y-69926952D01*
X74227012Y-69918576D01*
X74213566Y-69925644D01*
X73512022Y-70627188D01*
X73504408Y-70641132D01*
X73504539Y-70642965D01*
X73508790Y-70649580D01*
X74214287Y-71355077D01*
X74226062Y-71361507D01*
X74238077Y-71352211D01*
X74273931Y-71301006D01*
X74279414Y-71291511D01*
X74371490Y-71094053D01*
X74375236Y-71083761D01*
X74384293Y-71049959D01*
X74421245Y-70989336D01*
X74485105Y-70958315D01*
X74555600Y-70966743D01*
X74610347Y-71011946D01*
X74632000Y-71082570D01*
X74632000Y-75195500D01*
X74611998Y-75263621D01*
X74558342Y-75310114D01*
X74488068Y-75320218D01*
X74423488Y-75290724D01*
X74384293Y-75228111D01*
X74375707Y-75196067D01*
X74375706Y-75196065D01*
X74374284Y-75190757D01*
X74329271Y-75094225D01*
X74279849Y-74988238D01*
X74279846Y-74988233D01*
X74277523Y-74983251D01*
X74146198Y-74795700D01*
X73984300Y-74633802D01*
X73979792Y-74630645D01*
X73979789Y-74630643D01*
X73901611Y-74575902D01*
X73796749Y-74502477D01*
X73791767Y-74500154D01*
X73791762Y-74500151D01*
X73594225Y-74408039D01*
X73594224Y-74408039D01*
X73589243Y-74405716D01*
X73583935Y-74404294D01*
X73583933Y-74404293D01*
X73373402Y-74347881D01*
X73373400Y-74347881D01*
X73368087Y-74346457D01*
X73140000Y-74326502D01*
X72911913Y-74346457D01*
X72906600Y-74347881D01*
X72906598Y-74347881D01*
X72696067Y-74404293D01*
X72696065Y-74404294D01*
X72690757Y-74405716D01*
X72685776Y-74408039D01*
X72685775Y-74408039D01*
X72488238Y-74500151D01*
X72488233Y-74500154D01*
X72483251Y-74502477D01*
X72378389Y-74575902D01*
X72300211Y-74630643D01*
X72300208Y-74630645D01*
X72295700Y-74633802D01*
X72133802Y-74795700D01*
X72002477Y-74983251D01*
X72000154Y-74988233D01*
X72000151Y-74988238D01*
X71950729Y-75094225D01*
X71905716Y-75190757D01*
X71904294Y-75196065D01*
X71904293Y-75196067D01*
X71847881Y-75406598D01*
X71846457Y-75411913D01*
X71826502Y-75640000D01*
X71846457Y-75868087D01*
X71847881Y-75873400D01*
X71847881Y-75873402D01*
X71883138Y-76004980D01*
X71905716Y-76089243D01*
X71908039Y-76094224D01*
X71908039Y-76094225D01*
X72000151Y-76291762D01*
X72000154Y-76291767D01*
X72002477Y-76296749D01*
X72005634Y-76301257D01*
X72120567Y-76465398D01*
X72133802Y-76484300D01*
X72295700Y-76646198D01*
X72300208Y-76649355D01*
X72300211Y-76649357D01*
X72338860Y-76676419D01*
X72483251Y-76777523D01*
X72488233Y-76779846D01*
X72488238Y-76779849D01*
X72685775Y-76871961D01*
X72690757Y-76874284D01*
X72696065Y-76875706D01*
X72696067Y-76875707D01*
X72906598Y-76932119D01*
X72906600Y-76932119D01*
X72911913Y-76933543D01*
X73140000Y-76953498D01*
X73368087Y-76933543D01*
X73373400Y-76932119D01*
X73373402Y-76932119D01*
X73583933Y-76875707D01*
X73583935Y-76875706D01*
X73589243Y-76874284D01*
X73594225Y-76871961D01*
X73791762Y-76779849D01*
X73791767Y-76779846D01*
X73796749Y-76777523D01*
X73941140Y-76676419D01*
X73979789Y-76649357D01*
X73979792Y-76649355D01*
X73984300Y-76646198D01*
X74146198Y-76484300D01*
X74159434Y-76465398D01*
X74274366Y-76301257D01*
X74277523Y-76296749D01*
X74279846Y-76291767D01*
X74279849Y-76291762D01*
X74371961Y-76094225D01*
X74371961Y-76094224D01*
X74374284Y-76089243D01*
X74384293Y-76051889D01*
X74421245Y-75991266D01*
X74485105Y-75960245D01*
X74555600Y-75968673D01*
X74610347Y-76013876D01*
X74632000Y-76084500D01*
X74632000Y-86506000D01*
X74611998Y-86574121D01*
X74558342Y-86620614D01*
X74506000Y-86632000D01*
X56704899Y-86632000D01*
X56636778Y-86611998D01*
X56590285Y-86558342D01*
X56580181Y-86488068D01*
X56586918Y-86461769D01*
X56588477Y-86457609D01*
X56592105Y-86442351D01*
X56597631Y-86391486D01*
X56598000Y-86384672D01*
X56598000Y-86020950D01*
X61418493Y-86020950D01*
X61427789Y-86032965D01*
X61478994Y-86068819D01*
X61488489Y-86074302D01*
X61685947Y-86166378D01*
X61696239Y-86170124D01*
X61906688Y-86226513D01*
X61917481Y-86228416D01*
X62134525Y-86247405D01*
X62145475Y-86247405D01*
X62362519Y-86228416D01*
X62373312Y-86226513D01*
X62583761Y-86170124D01*
X62594053Y-86166378D01*
X62791511Y-86074302D01*
X62801006Y-86068819D01*
X62853048Y-86032379D01*
X62861424Y-86021900D01*
X62854356Y-86008454D01*
X62152812Y-85306910D01*
X62138868Y-85299296D01*
X62137035Y-85299427D01*
X62130420Y-85303678D01*
X61424923Y-86009175D01*
X61418493Y-86020950D01*
X56598000Y-86020950D01*
X56598000Y-85962115D01*
X56593525Y-85946876D01*
X56592135Y-85945671D01*
X56584452Y-85944000D01*
X52450116Y-85944000D01*
X52434877Y-85948475D01*
X52433672Y-85949865D01*
X52432001Y-85957548D01*
X52432001Y-86506000D01*
X52411999Y-86574121D01*
X52358343Y-86620614D01*
X52306001Y-86632000D01*
X52274000Y-86632000D01*
X52205879Y-86611998D01*
X52159386Y-86558342D01*
X52148000Y-86506000D01*
X52148000Y-85962115D01*
X52143525Y-85946876D01*
X52142135Y-85945671D01*
X52134452Y-85944000D01*
X47200116Y-85944000D01*
X47184877Y-85948475D01*
X47183672Y-85949865D01*
X47182001Y-85957548D01*
X47182001Y-86384669D01*
X47182371Y-86391490D01*
X47187895Y-86442352D01*
X47191522Y-86457607D01*
X47193082Y-86461769D01*
X47193336Y-86465238D01*
X47193349Y-86465293D01*
X47193340Y-86465295D01*
X47198266Y-86532576D01*
X47164347Y-86594945D01*
X47102092Y-86629075D01*
X47075101Y-86632000D01*
X45708049Y-86632000D01*
X45639928Y-86611998D01*
X45593435Y-86558342D01*
X45583331Y-86488068D01*
X45612825Y-86423488D01*
X45633988Y-86404064D01*
X45651301Y-86391486D01*
X45751253Y-86318866D01*
X45815597Y-86247405D01*
X45874621Y-86181852D01*
X45874622Y-86181851D01*
X45879040Y-86176944D01*
X45941466Y-86068819D01*
X45971223Y-86017279D01*
X45971224Y-86017278D01*
X45974527Y-86011556D01*
X46033542Y-85829928D01*
X46053504Y-85640000D01*
X46033542Y-85450072D01*
X45974527Y-85268444D01*
X45879040Y-85103056D01*
X45782042Y-84995328D01*
X45755675Y-84966045D01*
X45755674Y-84966044D01*
X45751253Y-84961134D01*
X45596752Y-84848882D01*
X45590724Y-84846198D01*
X45590722Y-84846197D01*
X45428319Y-84773891D01*
X45428318Y-84773891D01*
X45422288Y-84771206D01*
X45328888Y-84751353D01*
X45241944Y-84732872D01*
X45241939Y-84732872D01*
X45235487Y-84731500D01*
X45179595Y-84731500D01*
X45111474Y-84711498D01*
X45090500Y-84694595D01*
X44965164Y-84569259D01*
X44931138Y-84506947D01*
X44936203Y-84436132D01*
X44978750Y-84379296D01*
X45019105Y-84359167D01*
X45030357Y-84355898D01*
X45053601Y-84349145D01*
X45127950Y-84305175D01*
X45189980Y-84268491D01*
X45189983Y-84268489D01*
X45196807Y-84264453D01*
X45314453Y-84146807D01*
X45318489Y-84139983D01*
X45318491Y-84139980D01*
X45395108Y-84010427D01*
X45399145Y-84003601D01*
X45402414Y-83992351D01*
X45417191Y-83941486D01*
X45445562Y-83843831D01*
X45447211Y-83822888D01*
X45448307Y-83808958D01*
X45448307Y-83808950D01*
X45448500Y-83806502D01*
X45448500Y-83373498D01*
X45448307Y-83371042D01*
X45446067Y-83342579D01*
X45446066Y-83342574D01*
X45445562Y-83336169D01*
X45413707Y-83226522D01*
X45401357Y-83184012D01*
X45401356Y-83184010D01*
X45399145Y-83176399D01*
X45347686Y-83089387D01*
X45318491Y-83040020D01*
X45318489Y-83040017D01*
X45314453Y-83033193D01*
X45196807Y-82915547D01*
X45189983Y-82911511D01*
X45189980Y-82911509D01*
X45060427Y-82834892D01*
X45060428Y-82834892D01*
X45053601Y-82830855D01*
X45045990Y-82828644D01*
X45045988Y-82828643D01*
X44993769Y-82813472D01*
X44893831Y-82784438D01*
X44887426Y-82783934D01*
X44887421Y-82783933D01*
X44858958Y-82781693D01*
X44858950Y-82781693D01*
X44856502Y-82781500D01*
X43698498Y-82781500D01*
X43696050Y-82781693D01*
X43696042Y-82781693D01*
X43667579Y-82783933D01*
X43667574Y-82783934D01*
X43661169Y-82784438D01*
X43561231Y-82813472D01*
X43509012Y-82828643D01*
X43509010Y-82828644D01*
X43501399Y-82830855D01*
X43358193Y-82915547D01*
X43352584Y-82921156D01*
X43347114Y-82925399D01*
X43281029Y-82951346D01*
X43211406Y-82937445D01*
X43169884Y-82899554D01*
X43157630Y-82894000D01*
X42919842Y-82894000D01*
X42855703Y-82876453D01*
X42806665Y-82847452D01*
X42778601Y-82830855D01*
X42770990Y-82828644D01*
X42770988Y-82828643D01*
X42718769Y-82813472D01*
X42618831Y-82784438D01*
X42612426Y-82783934D01*
X42612421Y-82783933D01*
X42583958Y-82781693D01*
X42583950Y-82781693D01*
X42581502Y-82781500D01*
X41423498Y-82781500D01*
X41421050Y-82781693D01*
X41421042Y-82781693D01*
X41392579Y-82783933D01*
X41392574Y-82783934D01*
X41386169Y-82784438D01*
X41286231Y-82813472D01*
X41234012Y-82828643D01*
X41234010Y-82828644D01*
X41226399Y-82830855D01*
X41198335Y-82847452D01*
X41149297Y-82876453D01*
X41085158Y-82894000D01*
X40853122Y-82894000D01*
X40837883Y-82898475D01*
X40825285Y-82913013D01*
X40765559Y-82951396D01*
X40730061Y-82956500D01*
X38812499Y-82956500D01*
X38744378Y-82936498D01*
X38738438Y-82932436D01*
X38602094Y-82833376D01*
X38602093Y-82833375D01*
X38596752Y-82829495D01*
X38590724Y-82826811D01*
X38590722Y-82826810D01*
X38428319Y-82754504D01*
X38428318Y-82754504D01*
X38422288Y-82751819D01*
X38328888Y-82731966D01*
X38241944Y-82713485D01*
X38241939Y-82713485D01*
X38235487Y-82712113D01*
X38044513Y-82712113D01*
X38038061Y-82713485D01*
X38038056Y-82713485D01*
X37951112Y-82731966D01*
X37857712Y-82751819D01*
X37851682Y-82754504D01*
X37851681Y-82754504D01*
X37689278Y-82826810D01*
X37689276Y-82826811D01*
X37683248Y-82829495D01*
X37677907Y-82833375D01*
X37677906Y-82833376D01*
X37643844Y-82858124D01*
X37528747Y-82941747D01*
X37524326Y-82946657D01*
X37524325Y-82946658D01*
X37464627Y-83012960D01*
X37400960Y-83083669D01*
X37351363Y-83169573D01*
X37318484Y-83226522D01*
X37305473Y-83249057D01*
X37246458Y-83430685D01*
X37245768Y-83437246D01*
X37245768Y-83437248D01*
X37228790Y-83598784D01*
X37201777Y-83664440D01*
X37143555Y-83705070D01*
X37103480Y-83711613D01*
X35574500Y-83711613D01*
X35506379Y-83691611D01*
X35459886Y-83637955D01*
X35448500Y-83585613D01*
X35448500Y-83496979D01*
X35441745Y-83434797D01*
X35390615Y-83298408D01*
X35303261Y-83181852D01*
X35186705Y-83094498D01*
X35050316Y-83043368D01*
X35006748Y-83038635D01*
X34991514Y-83036980D01*
X34991511Y-83036980D01*
X34988134Y-83036613D01*
X34984815Y-83036613D01*
X34917890Y-83012960D01*
X34882196Y-82966957D01*
X34880266Y-82967972D01*
X34874558Y-82957113D01*
X34874368Y-82956868D01*
X34874347Y-82956710D01*
X34854356Y-82918679D01*
X34152812Y-82217135D01*
X34138868Y-82209521D01*
X34137035Y-82209652D01*
X34130420Y-82213903D01*
X33424923Y-82919400D01*
X33402129Y-82961142D01*
X33399953Y-82971142D01*
X33349747Y-83021340D01*
X33296186Y-83036564D01*
X33295281Y-83036613D01*
X33291866Y-83036613D01*
X33288470Y-83036982D01*
X33288468Y-83036982D01*
X33276121Y-83038323D01*
X33229684Y-83043368D01*
X33093295Y-83094498D01*
X32976739Y-83181852D01*
X32889385Y-83298408D01*
X32838255Y-83434797D01*
X32831500Y-83496979D01*
X32831500Y-85193247D01*
X32838255Y-85255429D01*
X32889385Y-85391818D01*
X32976739Y-85508374D01*
X33093295Y-85595728D01*
X33229684Y-85646858D01*
X33291866Y-85653613D01*
X34988134Y-85653613D01*
X35050316Y-85646858D01*
X35186705Y-85595728D01*
X35303261Y-85508374D01*
X35390615Y-85391818D01*
X35441745Y-85255429D01*
X35448500Y-85193247D01*
X35448500Y-85104613D01*
X35468502Y-85036492D01*
X35522158Y-84989999D01*
X35574500Y-84978613D01*
X43443620Y-84978613D01*
X43454803Y-84979140D01*
X43462296Y-84980815D01*
X43470222Y-84980566D01*
X43470223Y-84980566D01*
X43530373Y-84978675D01*
X43534332Y-84978613D01*
X43562243Y-84978613D01*
X43566178Y-84978116D01*
X43566243Y-84978108D01*
X43578087Y-84977175D01*
X43581843Y-84977057D01*
X43583632Y-84977001D01*
X43652347Y-84994856D01*
X43696036Y-85038794D01*
X43701791Y-85048524D01*
X43710488Y-85066276D01*
X43717948Y-85085117D01*
X43722610Y-85091533D01*
X43722610Y-85091534D01*
X43743936Y-85120887D01*
X43750452Y-85130807D01*
X43772958Y-85168862D01*
X43787279Y-85183183D01*
X43800119Y-85198216D01*
X43812028Y-85214607D01*
X43818134Y-85219658D01*
X43846105Y-85242798D01*
X43854884Y-85250788D01*
X44192878Y-85588782D01*
X44226904Y-85651094D01*
X44229092Y-85664703D01*
X44246458Y-85829928D01*
X44305473Y-86011556D01*
X44308776Y-86017278D01*
X44308777Y-86017279D01*
X44338534Y-86068819D01*
X44400960Y-86176944D01*
X44405378Y-86181851D01*
X44405379Y-86181852D01*
X44464403Y-86247405D01*
X44528747Y-86318866D01*
X44628700Y-86391486D01*
X44646012Y-86404064D01*
X44689366Y-86460286D01*
X44695441Y-86531022D01*
X44662310Y-86593814D01*
X44600490Y-86628726D01*
X44571951Y-86632000D01*
X30774000Y-86632000D01*
X30705879Y-86611998D01*
X30659386Y-86558342D01*
X30648000Y-86506000D01*
X30648000Y-81850588D01*
X32827483Y-81850588D01*
X32846472Y-82067632D01*
X32848375Y-82078425D01*
X32904764Y-82288874D01*
X32908510Y-82299166D01*
X33000586Y-82496624D01*
X33006069Y-82506119D01*
X33042509Y-82558161D01*
X33052988Y-82566537D01*
X33066434Y-82559469D01*
X33767978Y-81857925D01*
X33774356Y-81846245D01*
X34504408Y-81846245D01*
X34504539Y-81848078D01*
X34508790Y-81854693D01*
X35214287Y-82560190D01*
X35226062Y-82566620D01*
X35238077Y-82557324D01*
X35273931Y-82506119D01*
X35279414Y-82496624D01*
X35371490Y-82299166D01*
X35375236Y-82288874D01*
X35431625Y-82078425D01*
X35433528Y-82067632D01*
X35452517Y-81850588D01*
X35452517Y-81839638D01*
X35433528Y-81622594D01*
X35431625Y-81611801D01*
X35375236Y-81401352D01*
X35371490Y-81391060D01*
X35279414Y-81193602D01*
X35273931Y-81184107D01*
X35237491Y-81132065D01*
X35227012Y-81123689D01*
X35213566Y-81130757D01*
X34512022Y-81832301D01*
X34504408Y-81846245D01*
X33774356Y-81846245D01*
X33775592Y-81843981D01*
X33775461Y-81842148D01*
X33771210Y-81835533D01*
X33065713Y-81130036D01*
X33053938Y-81123606D01*
X33041923Y-81132902D01*
X33006069Y-81184107D01*
X33000586Y-81193602D01*
X32908510Y-81391060D01*
X32904764Y-81401352D01*
X32848375Y-81611801D01*
X32846472Y-81622594D01*
X32827483Y-81839638D01*
X32827483Y-81850588D01*
X30648000Y-81850588D01*
X30648000Y-80758101D01*
X33418576Y-80758101D01*
X33425644Y-80771547D01*
X34127188Y-81473091D01*
X34141132Y-81480705D01*
X34142965Y-81480574D01*
X34149580Y-81476323D01*
X34855077Y-80770826D01*
X34861507Y-80759051D01*
X34852211Y-80747036D01*
X34801006Y-80711182D01*
X34791511Y-80705699D01*
X34594053Y-80613623D01*
X34583761Y-80609877D01*
X34373312Y-80553488D01*
X34362519Y-80551585D01*
X34145475Y-80532596D01*
X34134525Y-80532596D01*
X33917481Y-80551585D01*
X33906688Y-80553488D01*
X33696239Y-80609877D01*
X33685947Y-80613623D01*
X33488489Y-80705699D01*
X33478994Y-80711182D01*
X33426952Y-80747622D01*
X33418576Y-80758101D01*
X30648000Y-80758101D01*
X30648000Y-78985595D01*
X30668002Y-78917474D01*
X30721658Y-78870981D01*
X30791932Y-78860877D01*
X30856512Y-78890371D01*
X30890743Y-78938191D01*
X30921770Y-79014603D01*
X30926413Y-79023794D01*
X31037694Y-79205388D01*
X31043777Y-79213699D01*
X31183213Y-79374667D01*
X31190580Y-79381883D01*
X31354434Y-79517916D01*
X31362881Y-79523831D01*
X31546756Y-79631279D01*
X31556042Y-79635729D01*
X31755001Y-79711703D01*
X31764899Y-79714579D01*
X31868250Y-79735606D01*
X31882299Y-79734410D01*
X31886000Y-79724065D01*
X31886000Y-79723517D01*
X32394000Y-79723517D01*
X32398064Y-79737359D01*
X32411478Y-79739393D01*
X32418184Y-79738534D01*
X32428262Y-79736392D01*
X32632255Y-79675191D01*
X32641842Y-79671433D01*
X32833095Y-79577739D01*
X32841945Y-79572464D01*
X33015328Y-79448792D01*
X33023200Y-79442139D01*
X33174052Y-79291812D01*
X33180730Y-79283965D01*
X33305003Y-79111020D01*
X33310313Y-79102183D01*
X33341968Y-79038134D01*
X34831500Y-79038134D01*
X34838255Y-79100316D01*
X34889385Y-79236705D01*
X34976739Y-79353261D01*
X35093295Y-79440615D01*
X35229684Y-79491745D01*
X35291866Y-79498500D01*
X36988134Y-79498500D01*
X37050316Y-79491745D01*
X37186705Y-79440615D01*
X37303261Y-79353261D01*
X37390615Y-79236705D01*
X37441745Y-79100316D01*
X37442917Y-79089526D01*
X37443803Y-79087394D01*
X37444425Y-79084778D01*
X37444848Y-79084879D01*
X37470155Y-79023965D01*
X37528517Y-78983537D01*
X37599471Y-78981078D01*
X37660490Y-79017371D01*
X37667489Y-79026031D01*
X37670643Y-79029789D01*
X37673802Y-79034300D01*
X37835700Y-79196198D01*
X37840208Y-79199355D01*
X37840211Y-79199357D01*
X37854847Y-79209605D01*
X38023251Y-79327523D01*
X38028233Y-79329846D01*
X38028238Y-79329849D01*
X38124352Y-79374667D01*
X38230757Y-79424284D01*
X38236065Y-79425706D01*
X38236067Y-79425707D01*
X38446598Y-79482119D01*
X38446600Y-79482119D01*
X38451913Y-79483543D01*
X38680000Y-79503498D01*
X38908087Y-79483543D01*
X38913400Y-79482119D01*
X38913402Y-79482119D01*
X39123933Y-79425707D01*
X39123935Y-79425706D01*
X39129243Y-79424284D01*
X39235648Y-79374667D01*
X39331762Y-79329849D01*
X39331767Y-79329846D01*
X39336749Y-79327523D01*
X39505153Y-79209605D01*
X39519789Y-79199357D01*
X39519792Y-79199355D01*
X39524300Y-79196198D01*
X39686198Y-79034300D01*
X39693555Y-79023794D01*
X39786978Y-78890371D01*
X39817523Y-78846749D01*
X39819846Y-78841767D01*
X39819849Y-78841762D01*
X39835805Y-78807543D01*
X39882722Y-78754258D01*
X39950999Y-78734797D01*
X40018959Y-78755339D01*
X40064195Y-78807543D01*
X40080151Y-78841762D01*
X40080154Y-78841767D01*
X40082477Y-78846749D01*
X40113022Y-78890371D01*
X40206446Y-79023794D01*
X40213802Y-79034300D01*
X40375700Y-79196198D01*
X40380208Y-79199355D01*
X40380211Y-79199357D01*
X40394847Y-79209605D01*
X40563251Y-79327523D01*
X40568233Y-79329846D01*
X40568238Y-79329849D01*
X40664352Y-79374667D01*
X40770757Y-79424284D01*
X40776065Y-79425706D01*
X40776067Y-79425707D01*
X40986598Y-79482119D01*
X40986600Y-79482119D01*
X40991913Y-79483543D01*
X41220000Y-79503498D01*
X41448087Y-79483543D01*
X41453400Y-79482119D01*
X41453402Y-79482119D01*
X41663933Y-79425707D01*
X41663935Y-79425706D01*
X41669243Y-79424284D01*
X41674225Y-79421961D01*
X41674230Y-79421959D01*
X41784843Y-79370380D01*
X41855034Y-79359719D01*
X41919847Y-79388699D01*
X41958703Y-79448119D01*
X41959266Y-79519114D01*
X41931730Y-79568882D01*
X41900960Y-79603056D01*
X41842686Y-79703990D01*
X41822742Y-79738534D01*
X41805473Y-79768444D01*
X41746458Y-79950072D01*
X41726496Y-80140000D01*
X41746458Y-80329928D01*
X41805473Y-80511556D01*
X41808776Y-80517278D01*
X41808777Y-80517279D01*
X41870054Y-80623414D01*
X41900960Y-80676944D01*
X41905126Y-80681571D01*
X41928938Y-80748307D01*
X41912857Y-80817459D01*
X41861943Y-80866939D01*
X41803143Y-80881500D01*
X41423498Y-80881500D01*
X41421050Y-80881693D01*
X41421042Y-80881693D01*
X41392579Y-80883933D01*
X41392574Y-80883934D01*
X41386169Y-80884438D01*
X41305157Y-80907974D01*
X41234012Y-80928643D01*
X41234010Y-80928644D01*
X41226399Y-80930855D01*
X41219572Y-80934892D01*
X41219573Y-80934892D01*
X41090020Y-81011509D01*
X41090017Y-81011511D01*
X41083193Y-81015547D01*
X40965547Y-81133193D01*
X40961511Y-81140017D01*
X40961509Y-81140020D01*
X40937202Y-81181121D01*
X40880855Y-81276399D01*
X40834438Y-81436169D01*
X40831500Y-81473498D01*
X40831500Y-81906502D01*
X40831693Y-81908950D01*
X40831693Y-81908958D01*
X40833649Y-81933803D01*
X40834438Y-81943831D01*
X40880855Y-82103601D01*
X40884889Y-82110423D01*
X40887128Y-82115596D01*
X40895824Y-82186058D01*
X40887128Y-82215674D01*
X40879107Y-82234210D01*
X40840061Y-82368605D01*
X40840101Y-82382706D01*
X40847370Y-82386000D01*
X41085158Y-82386000D01*
X41149297Y-82403547D01*
X41226399Y-82449145D01*
X41234010Y-82451356D01*
X41234012Y-82451357D01*
X41286231Y-82466528D01*
X41386169Y-82495562D01*
X41392574Y-82496066D01*
X41392579Y-82496067D01*
X41421042Y-82498307D01*
X41421050Y-82498307D01*
X41423498Y-82498500D01*
X42581502Y-82498500D01*
X42583950Y-82498307D01*
X42583958Y-82498307D01*
X42612421Y-82496067D01*
X42612426Y-82496066D01*
X42618831Y-82495562D01*
X42718769Y-82466528D01*
X42770988Y-82451357D01*
X42770990Y-82451356D01*
X42778601Y-82449145D01*
X42855703Y-82403547D01*
X42919842Y-82386000D01*
X43151878Y-82386000D01*
X43167116Y-82381526D01*
X43175268Y-82372118D01*
X43234994Y-82333734D01*
X43305990Y-82333734D01*
X43347720Y-82355071D01*
X43352584Y-82358844D01*
X43358193Y-82364453D01*
X43365017Y-82368489D01*
X43365020Y-82368491D01*
X43424297Y-82403547D01*
X43501399Y-82449145D01*
X43509010Y-82451356D01*
X43509012Y-82451357D01*
X43561231Y-82466528D01*
X43661169Y-82495562D01*
X43667574Y-82496066D01*
X43667579Y-82496067D01*
X43696042Y-82498307D01*
X43696050Y-82498307D01*
X43698498Y-82498500D01*
X44856502Y-82498500D01*
X44858950Y-82498307D01*
X44858958Y-82498307D01*
X44887421Y-82496067D01*
X44887426Y-82496066D01*
X44893831Y-82495562D01*
X44993769Y-82466528D01*
X45045988Y-82451357D01*
X45045990Y-82451356D01*
X45053601Y-82449145D01*
X45130703Y-82403547D01*
X45189980Y-82368491D01*
X45189983Y-82368489D01*
X45196807Y-82364453D01*
X45314453Y-82246807D01*
X45318489Y-82239983D01*
X45318491Y-82239980D01*
X45395108Y-82110427D01*
X45399145Y-82103601D01*
X45445562Y-81943831D01*
X45446352Y-81933803D01*
X45448307Y-81908958D01*
X45448307Y-81908950D01*
X45448500Y-81906502D01*
X45448500Y-81473498D01*
X45445562Y-81436169D01*
X45399145Y-81276399D01*
X45342798Y-81181121D01*
X45318491Y-81140020D01*
X45318489Y-81140017D01*
X45314453Y-81133193D01*
X45267677Y-81086417D01*
X45233651Y-81024105D01*
X45238716Y-80953290D01*
X45267677Y-80908227D01*
X45365499Y-80810405D01*
X45427811Y-80776379D01*
X45454594Y-80773500D01*
X46630406Y-80773500D01*
X46698527Y-80793502D01*
X46745020Y-80847158D01*
X46755124Y-80917432D01*
X46750238Y-80938438D01*
X46748498Y-80943792D01*
X46748497Y-80943797D01*
X46746458Y-80950072D01*
X46745768Y-80956633D01*
X46745768Y-80956635D01*
X46741000Y-81002001D01*
X46726496Y-81140000D01*
X46727186Y-81146565D01*
X46740115Y-81269573D01*
X46746458Y-81329928D01*
X46805473Y-81511556D01*
X46900960Y-81676944D01*
X46905378Y-81681851D01*
X46905379Y-81681852D01*
X46931893Y-81711299D01*
X47028747Y-81818866D01*
X47183248Y-81931118D01*
X47189276Y-81933802D01*
X47189278Y-81933803D01*
X47351681Y-82006109D01*
X47357712Y-82008794D01*
X47451113Y-82028647D01*
X47538056Y-82047128D01*
X47538061Y-82047128D01*
X47544513Y-82048500D01*
X47735487Y-82048500D01*
X47741939Y-82047128D01*
X47741944Y-82047128D01*
X47828887Y-82028647D01*
X47922288Y-82008794D01*
X47947523Y-81997559D01*
X47997569Y-81975277D01*
X48066745Y-81944478D01*
X48137111Y-81935044D01*
X48201408Y-81965150D01*
X48239222Y-82025239D01*
X48238546Y-82096233D01*
X48235975Y-82103814D01*
X48191522Y-82222391D01*
X48187895Y-82237649D01*
X48182369Y-82288514D01*
X48182000Y-82295328D01*
X48182000Y-82842885D01*
X48186475Y-82858124D01*
X48187865Y-82859329D01*
X48195548Y-82861000D01*
X49530500Y-82861000D01*
X49598621Y-82881002D01*
X49645114Y-82934658D01*
X49656500Y-82987000D01*
X49656500Y-83243000D01*
X49636498Y-83311121D01*
X49582842Y-83357614D01*
X49530500Y-83369000D01*
X48200116Y-83369000D01*
X48184877Y-83373475D01*
X48183672Y-83374865D01*
X48182001Y-83382548D01*
X48182001Y-83934669D01*
X48182371Y-83941490D01*
X48187895Y-83992352D01*
X48191521Y-84007604D01*
X48236676Y-84128054D01*
X48245214Y-84143649D01*
X48321715Y-84245724D01*
X48334276Y-84258285D01*
X48396841Y-84305175D01*
X48439356Y-84362034D01*
X48444382Y-84432853D01*
X48410322Y-84495146D01*
X48347991Y-84529136D01*
X48321276Y-84532001D01*
X47645331Y-84532001D01*
X47638510Y-84532371D01*
X47587648Y-84537895D01*
X47572396Y-84541521D01*
X47451946Y-84586676D01*
X47436351Y-84595214D01*
X47334276Y-84671715D01*
X47321715Y-84684276D01*
X47245214Y-84786351D01*
X47236676Y-84801946D01*
X47191522Y-84922394D01*
X47187895Y-84937649D01*
X47182369Y-84988514D01*
X47182000Y-84995328D01*
X47182000Y-85417885D01*
X47186475Y-85433124D01*
X47187865Y-85434329D01*
X47195548Y-85436000D01*
X52129884Y-85436000D01*
X52145123Y-85431525D01*
X52146328Y-85430135D01*
X52147999Y-85422452D01*
X52147999Y-84695331D01*
X52147629Y-84688510D01*
X52142105Y-84637648D01*
X52138479Y-84622396D01*
X52093324Y-84501946D01*
X52084786Y-84486351D01*
X52042602Y-84430065D01*
X52017754Y-84363558D01*
X52032807Y-84294176D01*
X52082982Y-84243946D01*
X52143428Y-84228500D01*
X52163134Y-84228500D01*
X52166529Y-84228131D01*
X52166533Y-84228131D01*
X52192531Y-84225307D01*
X52201394Y-84224344D01*
X52228606Y-84224344D01*
X52237469Y-84225307D01*
X52263467Y-84228131D01*
X52263471Y-84228131D01*
X52266866Y-84228500D01*
X52436572Y-84228500D01*
X52504693Y-84248502D01*
X52551186Y-84302158D01*
X52561290Y-84372432D01*
X52537398Y-84430065D01*
X52495214Y-84486351D01*
X52486676Y-84501946D01*
X52441522Y-84622394D01*
X52437895Y-84637649D01*
X52432369Y-84688514D01*
X52432000Y-84695328D01*
X52432000Y-85417885D01*
X52436475Y-85433124D01*
X52437865Y-85434329D01*
X52445548Y-85436000D01*
X56579884Y-85436000D01*
X56595123Y-85431525D01*
X56596328Y-85430135D01*
X56597999Y-85422452D01*
X56597999Y-84995331D01*
X56597629Y-84988510D01*
X56592400Y-84940363D01*
X60827483Y-84940363D01*
X60846472Y-85157407D01*
X60848375Y-85168200D01*
X60904764Y-85378649D01*
X60908510Y-85388941D01*
X61000586Y-85586399D01*
X61006069Y-85595894D01*
X61042509Y-85647936D01*
X61052988Y-85656312D01*
X61066434Y-85649244D01*
X61767978Y-84947700D01*
X61774356Y-84936020D01*
X62504408Y-84936020D01*
X62504539Y-84937853D01*
X62508790Y-84944468D01*
X63214287Y-85649965D01*
X63226062Y-85656395D01*
X63238077Y-85647099D01*
X63273931Y-85595894D01*
X63279414Y-85586399D01*
X63371490Y-85388941D01*
X63375236Y-85378649D01*
X63431625Y-85168200D01*
X63433528Y-85157407D01*
X63452517Y-84940363D01*
X63452517Y-84929413D01*
X63433528Y-84712369D01*
X63431625Y-84701576D01*
X63375236Y-84491127D01*
X63371490Y-84480835D01*
X63279414Y-84283377D01*
X63273931Y-84273882D01*
X63237491Y-84221840D01*
X63227012Y-84213464D01*
X63213566Y-84220532D01*
X62512022Y-84922076D01*
X62504408Y-84936020D01*
X61774356Y-84936020D01*
X61775592Y-84933756D01*
X61775461Y-84931923D01*
X61771210Y-84925308D01*
X61065713Y-84219811D01*
X61053938Y-84213381D01*
X61041923Y-84222677D01*
X61006069Y-84273882D01*
X61000586Y-84283377D01*
X60908510Y-84480835D01*
X60904764Y-84491127D01*
X60848375Y-84701576D01*
X60846472Y-84712369D01*
X60827483Y-84929413D01*
X60827483Y-84940363D01*
X56592400Y-84940363D01*
X56592105Y-84937648D01*
X56588479Y-84922396D01*
X56543324Y-84801946D01*
X56534786Y-84786351D01*
X56458285Y-84684276D01*
X56445724Y-84671715D01*
X56343649Y-84595214D01*
X56328054Y-84586676D01*
X56207606Y-84541522D01*
X56192351Y-84537895D01*
X56141486Y-84532369D01*
X56134672Y-84532000D01*
X55458724Y-84532000D01*
X55390603Y-84511998D01*
X55344110Y-84458342D01*
X55334006Y-84388068D01*
X55363500Y-84323488D01*
X55383160Y-84305173D01*
X55445725Y-84258284D01*
X55458285Y-84245724D01*
X55534786Y-84143649D01*
X55543324Y-84128054D01*
X55588478Y-84007606D01*
X55592105Y-83992351D01*
X55597631Y-83941486D01*
X55598000Y-83934672D01*
X55598000Y-83387115D01*
X55593525Y-83371876D01*
X55592135Y-83370671D01*
X55584452Y-83369000D01*
X53415000Y-83369000D01*
X53415000Y-83368448D01*
X53364000Y-83368447D01*
X53304275Y-83330062D01*
X53274782Y-83265481D01*
X53273500Y-83247551D01*
X53273500Y-82931000D01*
X53293502Y-82862879D01*
X53347158Y-82816386D01*
X53399500Y-82805000D01*
X53859170Y-82805000D01*
X53927291Y-82825002D01*
X53941682Y-82835775D01*
X53968865Y-82859329D01*
X53976548Y-82861000D01*
X55579884Y-82861000D01*
X55595123Y-82856525D01*
X55596328Y-82855135D01*
X55597999Y-82847452D01*
X55597999Y-82295331D01*
X55597629Y-82288510D01*
X55592105Y-82237648D01*
X55588479Y-82222396D01*
X55543324Y-82101946D01*
X55534786Y-82086351D01*
X55452904Y-81977096D01*
X55455331Y-81975277D01*
X55428578Y-81926283D01*
X55433643Y-81855468D01*
X55476190Y-81798632D01*
X55542710Y-81773821D01*
X55551699Y-81773500D01*
X60705500Y-81773500D01*
X60773621Y-81793502D01*
X60820114Y-81847158D01*
X60831500Y-81899500D01*
X60831500Y-83283022D01*
X60838255Y-83345204D01*
X60889385Y-83481593D01*
X60976739Y-83598149D01*
X61093295Y-83685503D01*
X61229684Y-83736633D01*
X61273252Y-83741366D01*
X61288486Y-83743021D01*
X61288489Y-83743021D01*
X61291866Y-83743388D01*
X61295185Y-83743388D01*
X61362110Y-83767041D01*
X61397804Y-83813044D01*
X61399734Y-83812029D01*
X61405442Y-83822888D01*
X61405632Y-83823133D01*
X61405653Y-83823291D01*
X61425644Y-83861322D01*
X62127188Y-84562866D01*
X62141132Y-84570480D01*
X62142965Y-84570349D01*
X62149580Y-84566098D01*
X62855077Y-83860601D01*
X62877871Y-83818859D01*
X62880047Y-83808859D01*
X62916209Y-83772703D01*
X69530743Y-83772703D01*
X69531302Y-83776947D01*
X69531302Y-83776951D01*
X69537350Y-83822888D01*
X69568268Y-84057734D01*
X69644129Y-84335036D01*
X69645813Y-84338984D01*
X69715323Y-84501946D01*
X69756923Y-84599476D01*
X69904561Y-84846161D01*
X70084313Y-85070528D01*
X70180741Y-85162035D01*
X70274268Y-85250788D01*
X70292851Y-85268423D01*
X70446246Y-85378649D01*
X70519831Y-85431525D01*
X70526317Y-85436186D01*
X70530112Y-85438195D01*
X70530113Y-85438196D01*
X70551869Y-85449715D01*
X70780392Y-85570712D01*
X70849205Y-85595894D01*
X71006930Y-85653613D01*
X71050373Y-85669511D01*
X71331264Y-85730755D01*
X71359841Y-85733004D01*
X71554282Y-85748307D01*
X71554291Y-85748307D01*
X71556739Y-85748500D01*
X71712271Y-85748500D01*
X71714407Y-85748354D01*
X71714418Y-85748354D01*
X71922548Y-85734165D01*
X71922554Y-85734164D01*
X71926825Y-85733873D01*
X71931020Y-85733004D01*
X71931022Y-85733004D01*
X72067584Y-85704723D01*
X72208342Y-85675574D01*
X72479343Y-85579607D01*
X72734812Y-85447750D01*
X72738313Y-85445289D01*
X72738317Y-85445287D01*
X72935207Y-85306910D01*
X72970023Y-85282441D01*
X73099595Y-85162035D01*
X73177479Y-85089661D01*
X73177481Y-85089658D01*
X73180622Y-85086740D01*
X73362713Y-84864268D01*
X73512927Y-84619142D01*
X73537631Y-84562866D01*
X73626757Y-84359830D01*
X73628483Y-84355898D01*
X73653522Y-84268000D01*
X73681262Y-84170615D01*
X73707244Y-84079406D01*
X73747751Y-83794784D01*
X73747845Y-83776951D01*
X73749235Y-83511583D01*
X73749235Y-83511576D01*
X73749257Y-83507297D01*
X73748349Y-83500396D01*
X73731639Y-83373475D01*
X73711732Y-83222266D01*
X73635871Y-82944964D01*
X73624659Y-82918679D01*
X73524763Y-82684476D01*
X73524761Y-82684472D01*
X73523077Y-82680524D01*
X73412682Y-82496067D01*
X73377643Y-82437521D01*
X73377640Y-82437517D01*
X73375439Y-82433839D01*
X73195687Y-82209472D01*
X72987149Y-82011577D01*
X72797064Y-81874987D01*
X72757172Y-81846321D01*
X72757171Y-81846320D01*
X72753683Y-81843814D01*
X72731843Y-81832250D01*
X72708654Y-81819972D01*
X72499608Y-81709288D01*
X72364618Y-81659889D01*
X72233658Y-81611964D01*
X72233656Y-81611963D01*
X72229627Y-81610489D01*
X71948736Y-81549245D01*
X71917685Y-81546801D01*
X71725718Y-81531693D01*
X71725709Y-81531693D01*
X71723261Y-81531500D01*
X71567729Y-81531500D01*
X71565593Y-81531646D01*
X71565582Y-81531646D01*
X71357452Y-81545835D01*
X71357446Y-81545836D01*
X71353175Y-81546127D01*
X71348980Y-81546996D01*
X71348978Y-81546996D01*
X71212416Y-81575277D01*
X71071658Y-81604426D01*
X70800657Y-81700393D01*
X70545188Y-81832250D01*
X70541687Y-81834711D01*
X70541683Y-81834713D01*
X70427583Y-81914904D01*
X70309977Y-81997559D01*
X70099378Y-82193260D01*
X69917287Y-82415732D01*
X69767073Y-82660858D01*
X69651517Y-82924102D01*
X69650342Y-82928229D01*
X69650341Y-82928230D01*
X69640966Y-82961142D01*
X69572756Y-83200594D01*
X69552549Y-83342579D01*
X69538307Y-83442653D01*
X69532249Y-83485216D01*
X69532227Y-83489505D01*
X69532226Y-83489512D01*
X69530765Y-83768417D01*
X69530743Y-83772703D01*
X62916209Y-83772703D01*
X62930253Y-83758661D01*
X62983814Y-83743437D01*
X62984719Y-83743388D01*
X62988134Y-83743388D01*
X62991530Y-83743019D01*
X62991532Y-83743019D01*
X63003879Y-83741678D01*
X63050316Y-83736633D01*
X63186705Y-83685503D01*
X63303261Y-83598149D01*
X63390615Y-83481593D01*
X63441745Y-83345204D01*
X63448500Y-83283022D01*
X63448500Y-81586754D01*
X63441745Y-81524572D01*
X63390615Y-81388183D01*
X63303261Y-81271627D01*
X63186705Y-81184273D01*
X63050316Y-81133143D01*
X62988134Y-81126388D01*
X62074483Y-81126388D01*
X62006362Y-81106386D01*
X61985388Y-81089483D01*
X61643652Y-80747747D01*
X61636112Y-80739461D01*
X61632000Y-80732982D01*
X61582348Y-80686356D01*
X61579507Y-80683602D01*
X61559770Y-80663865D01*
X61556573Y-80661385D01*
X61547551Y-80653680D01*
X61547484Y-80653617D01*
X61515321Y-80623414D01*
X61508375Y-80619595D01*
X61508372Y-80619593D01*
X61497566Y-80613652D01*
X61481047Y-80602801D01*
X61480583Y-80602441D01*
X61465041Y-80590386D01*
X61457772Y-80587241D01*
X61457768Y-80587238D01*
X61424463Y-80572826D01*
X61413813Y-80567609D01*
X61375060Y-80546305D01*
X61355437Y-80541267D01*
X61336734Y-80534863D01*
X61325420Y-80529967D01*
X61325419Y-80529967D01*
X61318145Y-80526819D01*
X61310322Y-80525580D01*
X61310312Y-80525577D01*
X61274476Y-80519901D01*
X61262856Y-80517495D01*
X61227711Y-80508472D01*
X61227710Y-80508472D01*
X61220030Y-80506500D01*
X61199776Y-80506500D01*
X61180065Y-80504949D01*
X61167886Y-80503020D01*
X61160057Y-80501780D01*
X61123127Y-80505271D01*
X61116039Y-80505941D01*
X61104181Y-80506500D01*
X54393894Y-80506500D01*
X54325773Y-80486498D01*
X54279280Y-80432842D01*
X54269176Y-80362568D01*
X54298670Y-80297988D01*
X54304799Y-80291405D01*
X55418758Y-79177446D01*
X55481070Y-79143420D01*
X55551885Y-79148485D01*
X55596948Y-79177446D01*
X55615700Y-79196198D01*
X55620208Y-79199355D01*
X55620211Y-79199357D01*
X55634847Y-79209605D01*
X55803251Y-79327523D01*
X55808233Y-79329846D01*
X55808238Y-79329849D01*
X55904352Y-79374667D01*
X56010757Y-79424284D01*
X56016065Y-79425706D01*
X56016067Y-79425707D01*
X56226598Y-79482119D01*
X56226600Y-79482119D01*
X56231913Y-79483543D01*
X56460000Y-79503498D01*
X56688087Y-79483543D01*
X56693400Y-79482119D01*
X56693402Y-79482119D01*
X56903933Y-79425707D01*
X56903935Y-79425706D01*
X56909243Y-79424284D01*
X57015648Y-79374667D01*
X57111762Y-79329849D01*
X57111767Y-79329846D01*
X57116749Y-79327523D01*
X57285153Y-79209605D01*
X57299789Y-79199357D01*
X57299792Y-79199355D01*
X57304300Y-79196198D01*
X57466198Y-79034300D01*
X57473555Y-79023794D01*
X57566978Y-78890371D01*
X57597523Y-78846749D01*
X57599846Y-78841767D01*
X57599849Y-78841762D01*
X57615805Y-78807543D01*
X57662722Y-78754258D01*
X57730999Y-78734797D01*
X57798959Y-78755339D01*
X57844195Y-78807543D01*
X57860151Y-78841762D01*
X57860154Y-78841767D01*
X57862477Y-78846749D01*
X57893022Y-78890371D01*
X57986446Y-79023794D01*
X57993802Y-79034300D01*
X58155700Y-79196198D01*
X58160208Y-79199355D01*
X58160211Y-79199357D01*
X58174847Y-79209605D01*
X58343251Y-79327523D01*
X58348233Y-79329846D01*
X58348238Y-79329849D01*
X58444352Y-79374667D01*
X58550757Y-79424284D01*
X58556065Y-79425706D01*
X58556067Y-79425707D01*
X58766598Y-79482119D01*
X58766600Y-79482119D01*
X58771913Y-79483543D01*
X59000000Y-79503498D01*
X59228087Y-79483543D01*
X59233400Y-79482119D01*
X59233402Y-79482119D01*
X59443933Y-79425707D01*
X59443935Y-79425706D01*
X59449243Y-79424284D01*
X59555648Y-79374667D01*
X59651762Y-79329849D01*
X59651767Y-79329846D01*
X59656749Y-79327523D01*
X59825153Y-79209605D01*
X59839789Y-79199357D01*
X59839792Y-79199355D01*
X59844300Y-79196198D01*
X60006198Y-79034300D01*
X60013555Y-79023794D01*
X60106978Y-78890371D01*
X60137523Y-78846749D01*
X60139846Y-78841767D01*
X60139849Y-78841762D01*
X60155805Y-78807543D01*
X60202722Y-78754258D01*
X60270999Y-78734797D01*
X60338959Y-78755339D01*
X60384195Y-78807543D01*
X60400151Y-78841762D01*
X60400154Y-78841767D01*
X60402477Y-78846749D01*
X60433022Y-78890371D01*
X60526446Y-79023794D01*
X60533802Y-79034300D01*
X60695700Y-79196198D01*
X60700208Y-79199355D01*
X60700211Y-79199357D01*
X60714847Y-79209605D01*
X60883251Y-79327523D01*
X60888233Y-79329846D01*
X60888238Y-79329849D01*
X60984352Y-79374667D01*
X61090757Y-79424284D01*
X61096065Y-79425706D01*
X61096067Y-79425707D01*
X61306598Y-79482119D01*
X61306600Y-79482119D01*
X61311913Y-79483543D01*
X61540000Y-79503498D01*
X61768087Y-79483543D01*
X61773400Y-79482119D01*
X61773402Y-79482119D01*
X61983933Y-79425707D01*
X61983935Y-79425706D01*
X61989243Y-79424284D01*
X62095648Y-79374667D01*
X62191762Y-79329849D01*
X62191767Y-79329846D01*
X62196749Y-79327523D01*
X62365153Y-79209605D01*
X62379789Y-79199357D01*
X62379792Y-79199355D01*
X62384300Y-79196198D01*
X62546198Y-79034300D01*
X62553555Y-79023794D01*
X62646978Y-78890371D01*
X62677523Y-78846749D01*
X62679846Y-78841767D01*
X62679849Y-78841762D01*
X62695805Y-78807543D01*
X62742722Y-78754258D01*
X62810999Y-78734797D01*
X62878959Y-78755339D01*
X62924195Y-78807543D01*
X62940151Y-78841762D01*
X62940154Y-78841767D01*
X62942477Y-78846749D01*
X62973022Y-78890371D01*
X63066446Y-79023794D01*
X63073802Y-79034300D01*
X63235700Y-79196198D01*
X63240208Y-79199355D01*
X63240211Y-79199357D01*
X63254847Y-79209605D01*
X63423251Y-79327523D01*
X63428233Y-79329846D01*
X63428238Y-79329849D01*
X63524352Y-79374667D01*
X63630757Y-79424284D01*
X63636065Y-79425706D01*
X63636067Y-79425707D01*
X63846598Y-79482119D01*
X63846600Y-79482119D01*
X63851913Y-79483543D01*
X64080000Y-79503498D01*
X64308087Y-79483543D01*
X64313400Y-79482119D01*
X64313402Y-79482119D01*
X64523933Y-79425707D01*
X64523935Y-79425706D01*
X64529243Y-79424284D01*
X64635648Y-79374667D01*
X64731762Y-79329849D01*
X64731767Y-79329846D01*
X64736749Y-79327523D01*
X64905153Y-79209605D01*
X64919789Y-79199357D01*
X64919792Y-79199355D01*
X64924300Y-79196198D01*
X65086198Y-79034300D01*
X65093555Y-79023794D01*
X65186978Y-78890371D01*
X65217523Y-78846749D01*
X65219846Y-78841767D01*
X65219849Y-78841762D01*
X65235805Y-78807543D01*
X65282722Y-78754258D01*
X65350999Y-78734797D01*
X65418959Y-78755339D01*
X65464195Y-78807543D01*
X65480151Y-78841762D01*
X65480154Y-78841767D01*
X65482477Y-78846749D01*
X65513022Y-78890371D01*
X65606446Y-79023794D01*
X65613802Y-79034300D01*
X65775700Y-79196198D01*
X65780208Y-79199355D01*
X65780211Y-79199357D01*
X65794847Y-79209605D01*
X65963251Y-79327523D01*
X65968233Y-79329846D01*
X65968238Y-79329849D01*
X66064352Y-79374667D01*
X66170757Y-79424284D01*
X66176065Y-79425706D01*
X66176067Y-79425707D01*
X66386598Y-79482119D01*
X66386600Y-79482119D01*
X66391913Y-79483543D01*
X66620000Y-79503498D01*
X66848087Y-79483543D01*
X66853400Y-79482119D01*
X66853402Y-79482119D01*
X67063933Y-79425707D01*
X67063935Y-79425706D01*
X67069243Y-79424284D01*
X67175648Y-79374667D01*
X67271762Y-79329849D01*
X67271767Y-79329846D01*
X67276749Y-79327523D01*
X67445153Y-79209605D01*
X67459789Y-79199357D01*
X67459792Y-79199355D01*
X67464300Y-79196198D01*
X67626198Y-79034300D01*
X67633555Y-79023794D01*
X67726978Y-78890371D01*
X67757523Y-78846749D01*
X67759846Y-78841767D01*
X67759849Y-78841762D01*
X67775805Y-78807543D01*
X67822722Y-78754258D01*
X67890999Y-78734797D01*
X67958959Y-78755339D01*
X68004195Y-78807543D01*
X68020151Y-78841762D01*
X68020154Y-78841767D01*
X68022477Y-78846749D01*
X68053022Y-78890371D01*
X68146446Y-79023794D01*
X68153802Y-79034300D01*
X68315700Y-79196198D01*
X68320208Y-79199355D01*
X68320211Y-79199357D01*
X68334847Y-79209605D01*
X68503251Y-79327523D01*
X68508233Y-79329846D01*
X68508238Y-79329849D01*
X68604352Y-79374667D01*
X68710757Y-79424284D01*
X68716065Y-79425706D01*
X68716067Y-79425707D01*
X68926598Y-79482119D01*
X68926600Y-79482119D01*
X68931913Y-79483543D01*
X69160000Y-79503498D01*
X69388087Y-79483543D01*
X69393400Y-79482119D01*
X69393402Y-79482119D01*
X69603933Y-79425707D01*
X69603935Y-79425706D01*
X69609243Y-79424284D01*
X69715648Y-79374667D01*
X69811762Y-79329849D01*
X69811767Y-79329846D01*
X69816749Y-79327523D01*
X69985153Y-79209605D01*
X69999789Y-79199357D01*
X69999792Y-79199355D01*
X70004300Y-79196198D01*
X70166198Y-79034300D01*
X70173555Y-79023794D01*
X70266978Y-78890371D01*
X70297523Y-78846749D01*
X70299846Y-78841767D01*
X70299849Y-78841762D01*
X70391961Y-78644225D01*
X70391961Y-78644224D01*
X70394284Y-78639243D01*
X70449651Y-78432614D01*
X70452119Y-78423402D01*
X70452119Y-78423400D01*
X70453543Y-78418087D01*
X70473498Y-78190000D01*
X70453543Y-77961913D01*
X70444831Y-77929400D01*
X70395707Y-77746067D01*
X70395706Y-77746065D01*
X70394284Y-77740757D01*
X70340148Y-77624661D01*
X70299849Y-77538238D01*
X70299846Y-77538233D01*
X70297523Y-77533251D01*
X70166198Y-77345700D01*
X70004300Y-77183802D01*
X69999797Y-77180649D01*
X69997993Y-77179135D01*
X69958671Y-77120023D01*
X69957549Y-77049035D01*
X69969871Y-77019621D01*
X69971222Y-77017281D01*
X69971223Y-77017278D01*
X69974527Y-77011556D01*
X70033542Y-76829928D01*
X70034853Y-76817460D01*
X70052814Y-76646565D01*
X70052814Y-76646564D01*
X70053504Y-76640000D01*
X70047323Y-76581188D01*
X70034232Y-76456635D01*
X70034232Y-76456633D01*
X70033542Y-76450072D01*
X69974527Y-76268444D01*
X69879040Y-76103056D01*
X69751253Y-75961134D01*
X69630501Y-75873402D01*
X69602094Y-75852763D01*
X69602093Y-75852762D01*
X69596752Y-75848882D01*
X69590724Y-75846198D01*
X69590722Y-75846197D01*
X69428319Y-75773891D01*
X69428318Y-75773891D01*
X69422288Y-75771206D01*
X69328888Y-75751353D01*
X69241944Y-75732872D01*
X69241939Y-75732872D01*
X69235487Y-75731500D01*
X69179594Y-75731500D01*
X69111473Y-75711498D01*
X69090499Y-75694595D01*
X68087122Y-74691217D01*
X68053096Y-74628905D01*
X68050907Y-74615292D01*
X68034232Y-74456635D01*
X68034232Y-74456633D01*
X68033542Y-74450072D01*
X67974527Y-74268444D01*
X67879040Y-74103056D01*
X67864798Y-74087238D01*
X67755675Y-73966045D01*
X67755674Y-73966044D01*
X67751253Y-73961134D01*
X67651244Y-73888473D01*
X67602094Y-73852763D01*
X67602093Y-73852762D01*
X67596752Y-73848882D01*
X67590724Y-73846198D01*
X67590722Y-73846197D01*
X67428319Y-73773891D01*
X67428318Y-73773891D01*
X67422288Y-73771206D01*
X67328888Y-73751353D01*
X67241944Y-73732872D01*
X67241939Y-73732872D01*
X67235487Y-73731500D01*
X67044513Y-73731500D01*
X67038061Y-73732872D01*
X67038056Y-73732872D01*
X66951112Y-73751353D01*
X66857712Y-73771206D01*
X66851682Y-73773891D01*
X66851681Y-73773891D01*
X66689278Y-73846197D01*
X66689276Y-73846198D01*
X66683248Y-73848882D01*
X66677907Y-73852762D01*
X66677906Y-73852763D01*
X66628756Y-73888473D01*
X66528747Y-73961134D01*
X66524326Y-73966044D01*
X66524325Y-73966045D01*
X66415203Y-74087238D01*
X66400960Y-74103056D01*
X66386073Y-74128841D01*
X66324940Y-74234726D01*
X66273557Y-74283719D01*
X66203844Y-74297155D01*
X66137933Y-74270769D01*
X66126726Y-74260821D01*
X66113652Y-74247747D01*
X66106112Y-74239461D01*
X66102000Y-74232982D01*
X66052348Y-74186356D01*
X66049507Y-74183602D01*
X66029770Y-74163865D01*
X66026573Y-74161385D01*
X66017551Y-74153680D01*
X65991100Y-74128841D01*
X65985321Y-74123414D01*
X65978375Y-74119595D01*
X65978372Y-74119593D01*
X65967566Y-74113652D01*
X65951047Y-74102801D01*
X65945048Y-74098148D01*
X65935041Y-74090386D01*
X65927772Y-74087241D01*
X65927768Y-74087238D01*
X65894463Y-74072826D01*
X65883813Y-74067609D01*
X65845060Y-74046305D01*
X65825437Y-74041267D01*
X65806734Y-74034863D01*
X65795420Y-74029967D01*
X65795419Y-74029967D01*
X65788145Y-74026819D01*
X65780322Y-74025580D01*
X65780312Y-74025577D01*
X65744476Y-74019901D01*
X65732856Y-74017495D01*
X65697711Y-74008472D01*
X65697710Y-74008472D01*
X65690030Y-74006500D01*
X65669776Y-74006500D01*
X65650065Y-74004949D01*
X65637886Y-74003020D01*
X65630057Y-74001780D01*
X65593127Y-74005271D01*
X65586039Y-74005941D01*
X65574181Y-74006500D01*
X63848200Y-74006500D01*
X63780079Y-73986498D01*
X63760853Y-73970157D01*
X63760580Y-73970460D01*
X63755668Y-73966037D01*
X63751253Y-73961134D01*
X63651244Y-73888473D01*
X63602094Y-73852763D01*
X63602093Y-73852762D01*
X63596752Y-73848882D01*
X63582901Y-73842715D01*
X63577596Y-73840353D01*
X63523502Y-73794371D01*
X63502854Y-73726444D01*
X63522208Y-73658136D01*
X63539753Y-73636152D01*
X63590500Y-73585405D01*
X63652812Y-73551379D01*
X63679595Y-73548500D01*
X63735487Y-73548500D01*
X63741939Y-73547128D01*
X63741944Y-73547128D01*
X63853271Y-73523464D01*
X63922288Y-73508794D01*
X63928319Y-73506109D01*
X64090722Y-73433803D01*
X64090724Y-73433802D01*
X64096752Y-73431118D01*
X64107114Y-73423590D01*
X64177417Y-73372511D01*
X64251253Y-73318866D01*
X64261826Y-73307124D01*
X64374621Y-73181852D01*
X64374625Y-73181847D01*
X64379040Y-73176944D01*
X64474527Y-73011556D01*
X64533542Y-72829928D01*
X64539859Y-72769831D01*
X64552814Y-72646565D01*
X64553504Y-72640000D01*
X64533542Y-72450072D01*
X64474527Y-72268444D01*
X64379040Y-72103056D01*
X64329089Y-72047580D01*
X64298373Y-71983574D01*
X64307137Y-71913120D01*
X64352599Y-71858589D01*
X64390114Y-71841565D01*
X64523925Y-71805710D01*
X64523936Y-71805706D01*
X64529243Y-71804284D01*
X64571012Y-71784807D01*
X64731762Y-71709849D01*
X64731767Y-71709846D01*
X64736749Y-71707523D01*
X64889055Y-71600877D01*
X64919789Y-71579357D01*
X64919792Y-71579355D01*
X64924300Y-71576198D01*
X65086198Y-71414300D01*
X65217523Y-71226749D01*
X65219846Y-71221767D01*
X65219849Y-71221762D01*
X65235805Y-71187543D01*
X65282722Y-71134258D01*
X65350999Y-71114797D01*
X65418959Y-71135339D01*
X65464195Y-71187543D01*
X65480151Y-71221762D01*
X65480154Y-71221767D01*
X65482477Y-71226749D01*
X65613802Y-71414300D01*
X65775700Y-71576198D01*
X65780208Y-71579355D01*
X65780211Y-71579357D01*
X65810945Y-71600877D01*
X65963251Y-71707523D01*
X65968233Y-71709846D01*
X65968238Y-71709849D01*
X66128988Y-71784807D01*
X66170757Y-71804284D01*
X66176065Y-71805706D01*
X66176067Y-71805707D01*
X66386598Y-71862119D01*
X66386600Y-71862119D01*
X66391913Y-71863543D01*
X66620000Y-71883498D01*
X66848087Y-71863543D01*
X66853400Y-71862119D01*
X66853402Y-71862119D01*
X67063933Y-71805707D01*
X67063935Y-71805706D01*
X67069243Y-71804284D01*
X67111012Y-71784807D01*
X67271762Y-71709849D01*
X67271767Y-71709846D01*
X67276749Y-71707523D01*
X67429055Y-71600877D01*
X67459789Y-71579357D01*
X67459792Y-71579355D01*
X67464300Y-71576198D01*
X67626198Y-71414300D01*
X67757523Y-71226749D01*
X67759846Y-71221767D01*
X67759849Y-71221762D01*
X67775805Y-71187543D01*
X67822722Y-71134258D01*
X67890999Y-71114797D01*
X67958959Y-71135339D01*
X68004195Y-71187543D01*
X68020151Y-71221762D01*
X68020154Y-71221767D01*
X68022477Y-71226749D01*
X68153802Y-71414300D01*
X68315700Y-71576198D01*
X68320208Y-71579355D01*
X68320211Y-71579357D01*
X68350945Y-71600877D01*
X68503251Y-71707523D01*
X68508233Y-71709846D01*
X68508238Y-71709849D01*
X68668988Y-71784807D01*
X68710757Y-71804284D01*
X68716065Y-71805706D01*
X68716067Y-71805707D01*
X68926598Y-71862119D01*
X68926600Y-71862119D01*
X68931913Y-71863543D01*
X69160000Y-71883498D01*
X69388087Y-71863543D01*
X69393400Y-71862119D01*
X69393402Y-71862119D01*
X69603933Y-71805707D01*
X69603935Y-71805706D01*
X69609243Y-71804284D01*
X69651012Y-71784807D01*
X69776993Y-71726062D01*
X72418493Y-71726062D01*
X72427789Y-71738077D01*
X72478994Y-71773931D01*
X72488489Y-71779414D01*
X72685947Y-71871490D01*
X72696239Y-71875236D01*
X72906688Y-71931625D01*
X72917481Y-71933528D01*
X73134525Y-71952517D01*
X73145475Y-71952517D01*
X73362519Y-71933528D01*
X73373312Y-71931625D01*
X73583761Y-71875236D01*
X73594053Y-71871490D01*
X73791511Y-71779414D01*
X73801006Y-71773931D01*
X73853048Y-71737491D01*
X73861424Y-71727012D01*
X73854356Y-71713566D01*
X73152812Y-71012022D01*
X73138868Y-71004408D01*
X73137035Y-71004539D01*
X73130420Y-71008790D01*
X72424923Y-71714287D01*
X72418493Y-71726062D01*
X69776993Y-71726062D01*
X69811762Y-71709849D01*
X69811767Y-71709846D01*
X69816749Y-71707523D01*
X69969055Y-71600877D01*
X69999789Y-71579357D01*
X69999792Y-71579355D01*
X70004300Y-71576198D01*
X70166198Y-71414300D01*
X70297523Y-71226749D01*
X70299846Y-71221767D01*
X70299849Y-71221762D01*
X70391961Y-71024225D01*
X70391961Y-71024224D01*
X70394284Y-71019243D01*
X70408352Y-70966743D01*
X70452119Y-70803402D01*
X70452119Y-70803400D01*
X70453543Y-70798087D01*
X70466895Y-70645475D01*
X71827483Y-70645475D01*
X71846472Y-70862519D01*
X71848375Y-70873312D01*
X71904764Y-71083761D01*
X71908510Y-71094053D01*
X72000586Y-71291511D01*
X72006069Y-71301006D01*
X72042509Y-71353048D01*
X72052988Y-71361424D01*
X72066434Y-71354356D01*
X72767978Y-70652812D01*
X72775592Y-70638868D01*
X72775461Y-70637035D01*
X72771210Y-70630420D01*
X72065713Y-69924923D01*
X72053938Y-69918493D01*
X72041923Y-69927789D01*
X72006069Y-69978994D01*
X72000586Y-69988489D01*
X71908510Y-70185947D01*
X71904764Y-70196239D01*
X71848375Y-70406688D01*
X71846472Y-70417481D01*
X71827483Y-70634525D01*
X71827483Y-70645475D01*
X70466895Y-70645475D01*
X70473498Y-70570000D01*
X70453543Y-70341913D01*
X70414829Y-70197430D01*
X70395707Y-70126067D01*
X70395706Y-70126065D01*
X70394284Y-70120757D01*
X70340652Y-70005742D01*
X70299849Y-69918238D01*
X70299846Y-69918233D01*
X70297523Y-69913251D01*
X70166198Y-69725700D01*
X70004300Y-69563802D01*
X69999792Y-69560645D01*
X69999789Y-69560643D01*
X69988857Y-69552988D01*
X72418576Y-69552988D01*
X72425644Y-69566434D01*
X73127188Y-70267978D01*
X73141132Y-70275592D01*
X73142965Y-70275461D01*
X73149580Y-70271210D01*
X73855077Y-69565713D01*
X73861507Y-69553938D01*
X73852211Y-69541923D01*
X73801006Y-69506069D01*
X73791511Y-69500586D01*
X73594053Y-69408510D01*
X73583761Y-69404764D01*
X73373312Y-69348375D01*
X73362519Y-69346472D01*
X73145475Y-69327483D01*
X73134525Y-69327483D01*
X72917481Y-69346472D01*
X72906688Y-69348375D01*
X72696239Y-69404764D01*
X72685947Y-69408510D01*
X72488489Y-69500586D01*
X72478994Y-69506069D01*
X72426952Y-69542509D01*
X72418576Y-69552988D01*
X69988857Y-69552988D01*
X69832911Y-69443794D01*
X69816749Y-69432477D01*
X69811767Y-69430154D01*
X69811762Y-69430151D01*
X69614225Y-69338039D01*
X69614224Y-69338039D01*
X69609243Y-69335716D01*
X69603935Y-69334294D01*
X69603933Y-69334293D01*
X69393402Y-69277881D01*
X69393400Y-69277881D01*
X69388087Y-69276457D01*
X69160000Y-69256502D01*
X68931913Y-69276457D01*
X68926600Y-69277881D01*
X68926598Y-69277881D01*
X68716067Y-69334293D01*
X68716065Y-69334294D01*
X68710757Y-69335716D01*
X68705776Y-69338039D01*
X68705775Y-69338039D01*
X68508238Y-69430151D01*
X68508233Y-69430154D01*
X68503251Y-69432477D01*
X68487089Y-69443794D01*
X68320211Y-69560643D01*
X68320208Y-69560645D01*
X68315700Y-69563802D01*
X68153802Y-69725700D01*
X68022477Y-69913251D01*
X68020154Y-69918233D01*
X68020151Y-69918238D01*
X68004195Y-69952457D01*
X67957278Y-70005742D01*
X67889001Y-70025203D01*
X67821041Y-70004661D01*
X67775805Y-69952457D01*
X67759849Y-69918238D01*
X67759846Y-69918233D01*
X67757523Y-69913251D01*
X67626198Y-69725700D01*
X67464300Y-69563802D01*
X67459792Y-69560645D01*
X67459789Y-69560643D01*
X67292911Y-69443794D01*
X67276749Y-69432477D01*
X67271767Y-69430154D01*
X67271762Y-69430151D01*
X67074225Y-69338039D01*
X67074224Y-69338039D01*
X67069243Y-69335716D01*
X67063935Y-69334294D01*
X67063933Y-69334293D01*
X66853402Y-69277881D01*
X66853400Y-69277881D01*
X66848087Y-69276457D01*
X66620000Y-69256502D01*
X66391913Y-69276457D01*
X66386600Y-69277881D01*
X66386598Y-69277881D01*
X66176067Y-69334293D01*
X66176065Y-69334294D01*
X66170757Y-69335716D01*
X66165776Y-69338039D01*
X66165775Y-69338039D01*
X65968238Y-69430151D01*
X65968233Y-69430154D01*
X65963251Y-69432477D01*
X65947089Y-69443794D01*
X65780211Y-69560643D01*
X65780208Y-69560645D01*
X65775700Y-69563802D01*
X65613802Y-69725700D01*
X65482477Y-69913251D01*
X65480154Y-69918233D01*
X65480151Y-69918238D01*
X65464195Y-69952457D01*
X65417278Y-70005742D01*
X65349001Y-70025203D01*
X65281041Y-70004661D01*
X65235805Y-69952457D01*
X65219849Y-69918238D01*
X65219846Y-69918233D01*
X65217523Y-69913251D01*
X65086198Y-69725700D01*
X64924300Y-69563802D01*
X64919792Y-69560645D01*
X64919789Y-69560643D01*
X64752911Y-69443794D01*
X64736749Y-69432477D01*
X64731767Y-69430154D01*
X64731762Y-69430151D01*
X64534225Y-69338039D01*
X64534224Y-69338039D01*
X64529243Y-69335716D01*
X64523935Y-69334294D01*
X64523933Y-69334293D01*
X64498517Y-69327483D01*
X64478388Y-69322089D01*
X64417767Y-69285139D01*
X64386745Y-69221278D01*
X64395173Y-69150784D01*
X64401881Y-69137383D01*
X64471223Y-69017279D01*
X64471224Y-69017278D01*
X64474527Y-69011556D01*
X64533542Y-68829928D01*
X64538322Y-68784454D01*
X64552814Y-68646565D01*
X64553504Y-68640000D01*
X64551683Y-68622670D01*
X65272160Y-68622670D01*
X65277887Y-68630320D01*
X65449042Y-68735205D01*
X65457837Y-68739687D01*
X65667988Y-68826734D01*
X65677373Y-68829783D01*
X65898554Y-68882885D01*
X65908301Y-68884428D01*
X66135070Y-68902275D01*
X66144930Y-68902275D01*
X66371699Y-68884428D01*
X66381446Y-68882885D01*
X66602627Y-68829783D01*
X66612012Y-68826734D01*
X66822163Y-68739687D01*
X66830958Y-68735205D01*
X66998445Y-68632568D01*
X67007907Y-68622110D01*
X67004124Y-68613334D01*
X66152812Y-67762022D01*
X66138868Y-67754408D01*
X66137035Y-67754539D01*
X66130420Y-67758790D01*
X65278920Y-68610290D01*
X65272160Y-68622670D01*
X64551683Y-68622670D01*
X64546069Y-68569259D01*
X64534232Y-68456635D01*
X64534232Y-68456633D01*
X64533542Y-68450072D01*
X64474527Y-68268444D01*
X64468444Y-68257907D01*
X64414611Y-68164667D01*
X64379040Y-68103056D01*
X64360205Y-68082137D01*
X64255675Y-67966045D01*
X64255674Y-67966044D01*
X64251253Y-67961134D01*
X64096752Y-67848882D01*
X64090724Y-67846198D01*
X64090722Y-67846197D01*
X63928319Y-67773891D01*
X63928318Y-67773891D01*
X63922288Y-67771206D01*
X63828888Y-67751353D01*
X63741944Y-67732872D01*
X63741939Y-67732872D01*
X63735487Y-67731500D01*
X63544513Y-67731500D01*
X63538061Y-67732872D01*
X63538056Y-67732872D01*
X63451112Y-67751353D01*
X63357712Y-67771206D01*
X63351682Y-67773891D01*
X63351681Y-67773891D01*
X63189278Y-67846197D01*
X63189276Y-67846198D01*
X63183248Y-67848882D01*
X63028747Y-67961134D01*
X63024326Y-67966044D01*
X63024325Y-67966045D01*
X62919796Y-68082137D01*
X62900960Y-68103056D01*
X62865389Y-68164667D01*
X62811557Y-68257907D01*
X62805473Y-68268444D01*
X62785496Y-68329928D01*
X62783524Y-68335997D01*
X62743451Y-68394603D01*
X62678054Y-68422240D01*
X62608098Y-68410133D01*
X62555791Y-68362128D01*
X62537742Y-68293463D01*
X62538381Y-68283891D01*
X62552814Y-68146565D01*
X62553504Y-68140000D01*
X62539209Y-68003990D01*
X62534232Y-67956635D01*
X62534232Y-67956633D01*
X62533542Y-67950072D01*
X62474527Y-67768444D01*
X62453990Y-67732872D01*
X62416145Y-67667324D01*
X62379040Y-67603056D01*
X62266293Y-67477837D01*
X62255675Y-67466045D01*
X62255674Y-67466044D01*
X62251253Y-67461134D01*
X62160131Y-67394930D01*
X64627725Y-67394930D01*
X64645572Y-67621699D01*
X64647115Y-67631446D01*
X64700217Y-67852627D01*
X64703266Y-67862012D01*
X64790313Y-68072163D01*
X64794795Y-68080958D01*
X64897432Y-68248445D01*
X64907890Y-68257907D01*
X64916666Y-68254124D01*
X65767978Y-67402812D01*
X65774356Y-67391132D01*
X66504408Y-67391132D01*
X66504539Y-67392965D01*
X66508790Y-67399580D01*
X67360290Y-68251080D01*
X67372670Y-68257840D01*
X67380320Y-68252113D01*
X67485205Y-68080958D01*
X67489687Y-68072163D01*
X67576734Y-67862012D01*
X67579783Y-67852627D01*
X67632885Y-67631446D01*
X67634428Y-67621699D01*
X67652275Y-67394930D01*
X67652275Y-67385070D01*
X67634428Y-67158301D01*
X67632885Y-67148554D01*
X67579783Y-66927373D01*
X67576734Y-66917988D01*
X67489687Y-66707837D01*
X67485205Y-66699042D01*
X67382568Y-66531555D01*
X67372110Y-66522093D01*
X67363334Y-66525876D01*
X66512022Y-67377188D01*
X66504408Y-67391132D01*
X65774356Y-67391132D01*
X65775592Y-67388868D01*
X65775461Y-67387035D01*
X65771210Y-67380420D01*
X64919710Y-66528920D01*
X64907330Y-66522160D01*
X64899680Y-66527887D01*
X64794795Y-66699042D01*
X64790313Y-66707837D01*
X64703266Y-66917988D01*
X64700217Y-66927373D01*
X64647115Y-67148554D01*
X64645572Y-67158301D01*
X64627725Y-67385070D01*
X64627725Y-67394930D01*
X62160131Y-67394930D01*
X62096752Y-67348882D01*
X62090724Y-67346198D01*
X62090722Y-67346197D01*
X61928319Y-67273891D01*
X61928318Y-67273891D01*
X61922288Y-67271206D01*
X61828888Y-67251353D01*
X61741944Y-67232872D01*
X61741939Y-67232872D01*
X61735487Y-67231500D01*
X61544513Y-67231500D01*
X61538061Y-67232872D01*
X61538056Y-67232872D01*
X61451112Y-67251353D01*
X61357712Y-67271206D01*
X61351682Y-67273891D01*
X61351681Y-67273891D01*
X61313445Y-67290915D01*
X61243078Y-67300349D01*
X61178781Y-67270243D01*
X61140967Y-67210154D01*
X61136584Y-67185693D01*
X61134428Y-67158300D01*
X61132885Y-67148556D01*
X61079783Y-66927373D01*
X61076734Y-66917988D01*
X60989687Y-66707837D01*
X60985205Y-66699042D01*
X60882568Y-66531555D01*
X60872110Y-66522093D01*
X60863334Y-66525876D01*
X58778920Y-68610290D01*
X58772160Y-68622670D01*
X58777887Y-68630320D01*
X58949042Y-68735205D01*
X58957837Y-68739687D01*
X59167988Y-68826734D01*
X59177373Y-68829783D01*
X59398554Y-68882885D01*
X59408301Y-68884428D01*
X59635070Y-68902275D01*
X59644930Y-68902275D01*
X59670114Y-68900293D01*
X59739594Y-68914889D01*
X59790154Y-68964732D01*
X59805740Y-69033996D01*
X59781405Y-69100692D01*
X59769095Y-69115000D01*
X59732258Y-69151837D01*
X59723972Y-69159377D01*
X59717493Y-69163489D01*
X59712068Y-69169266D01*
X59670868Y-69213140D01*
X59668113Y-69215982D01*
X59648376Y-69235719D01*
X59645896Y-69238916D01*
X59638193Y-69247936D01*
X59607925Y-69280168D01*
X59604106Y-69287114D01*
X59599446Y-69293528D01*
X59596631Y-69291483D01*
X59557491Y-69330415D01*
X59488076Y-69345322D01*
X59454307Y-69338069D01*
X59454225Y-69338039D01*
X59449243Y-69335716D01*
X59284239Y-69291503D01*
X59233402Y-69277881D01*
X59233400Y-69277881D01*
X59228087Y-69276457D01*
X59000000Y-69256502D01*
X58771913Y-69276457D01*
X58766600Y-69277881D01*
X58766598Y-69277881D01*
X58556067Y-69334293D01*
X58556065Y-69334294D01*
X58550757Y-69335716D01*
X58545776Y-69338039D01*
X58545775Y-69338039D01*
X58348238Y-69430151D01*
X58348233Y-69430154D01*
X58343251Y-69432477D01*
X58327089Y-69443794D01*
X58160211Y-69560643D01*
X58160208Y-69560645D01*
X58155700Y-69563802D01*
X57993802Y-69725700D01*
X57862477Y-69913251D01*
X57860154Y-69918233D01*
X57860151Y-69918238D01*
X57844195Y-69952457D01*
X57797278Y-70005742D01*
X57729001Y-70025203D01*
X57661041Y-70004661D01*
X57615805Y-69952457D01*
X57599849Y-69918238D01*
X57599846Y-69918233D01*
X57597523Y-69913251D01*
X57466198Y-69725700D01*
X57304300Y-69563802D01*
X57299792Y-69560645D01*
X57299789Y-69560643D01*
X57132911Y-69443794D01*
X57116749Y-69432477D01*
X57111767Y-69430154D01*
X57111762Y-69430151D01*
X56914225Y-69338039D01*
X56914224Y-69338039D01*
X56909243Y-69335716D01*
X56903935Y-69334294D01*
X56903933Y-69334293D01*
X56693402Y-69277881D01*
X56693400Y-69277881D01*
X56688087Y-69276457D01*
X56460000Y-69256502D01*
X56231913Y-69276457D01*
X56226600Y-69277881D01*
X56226598Y-69277881D01*
X56016067Y-69334293D01*
X56016065Y-69334294D01*
X56010757Y-69335716D01*
X56005775Y-69338039D01*
X56005770Y-69338041D01*
X55857975Y-69406958D01*
X55787784Y-69417619D01*
X55722971Y-69388639D01*
X55684115Y-69329219D01*
X55679624Y-69284286D01*
X55680213Y-69281652D01*
X55678073Y-69213575D01*
X55678011Y-69209616D01*
X55678011Y-69181705D01*
X55677506Y-69177705D01*
X55676573Y-69165862D01*
X55676499Y-69163489D01*
X55675184Y-69121672D01*
X55669532Y-69102218D01*
X55665524Y-69082861D01*
X55663979Y-69070633D01*
X55662985Y-69062764D01*
X55660066Y-69055391D01*
X55659150Y-69051824D01*
X55661583Y-68980869D01*
X55701991Y-68922494D01*
X55767545Y-68895231D01*
X55791077Y-68894878D01*
X55885069Y-68902275D01*
X55894930Y-68902275D01*
X56121699Y-68884428D01*
X56131446Y-68882885D01*
X56352627Y-68829783D01*
X56362012Y-68826734D01*
X56572163Y-68739687D01*
X56580958Y-68735205D01*
X56748445Y-68632568D01*
X56757907Y-68622110D01*
X56754124Y-68613334D01*
X55531922Y-67391132D01*
X56254408Y-67391132D01*
X56254539Y-67392965D01*
X56258790Y-67399580D01*
X57110290Y-68251080D01*
X57122670Y-68257840D01*
X57130320Y-68252113D01*
X57235205Y-68080958D01*
X57239687Y-68072163D01*
X57326734Y-67862012D01*
X57329783Y-67852627D01*
X57382885Y-67631446D01*
X57384428Y-67621699D01*
X57402275Y-67394930D01*
X58127725Y-67394930D01*
X58145572Y-67621699D01*
X58147115Y-67631446D01*
X58200217Y-67852627D01*
X58203266Y-67862012D01*
X58290313Y-68072163D01*
X58294795Y-68080958D01*
X58397432Y-68248445D01*
X58407890Y-68257907D01*
X58416666Y-68254124D01*
X59267978Y-67402812D01*
X59275592Y-67388868D01*
X59275461Y-67387035D01*
X59271210Y-67380420D01*
X58419710Y-66528920D01*
X58407330Y-66522160D01*
X58399680Y-66527887D01*
X58294795Y-66699042D01*
X58290313Y-66707837D01*
X58203266Y-66917988D01*
X58200217Y-66927373D01*
X58147115Y-67148554D01*
X58145572Y-67158301D01*
X58127725Y-67385070D01*
X58127725Y-67394930D01*
X57402275Y-67394930D01*
X57402275Y-67385070D01*
X57384428Y-67158301D01*
X57382885Y-67148554D01*
X57329783Y-66927373D01*
X57326734Y-66917988D01*
X57239687Y-66707837D01*
X57235205Y-66699042D01*
X57132568Y-66531555D01*
X57122110Y-66522093D01*
X57113334Y-66525876D01*
X56262022Y-67377188D01*
X56254408Y-67391132D01*
X55531922Y-67391132D01*
X54669710Y-66528920D01*
X54657330Y-66522160D01*
X54649680Y-66527887D01*
X54544795Y-66699042D01*
X54540313Y-66707837D01*
X54453266Y-66917988D01*
X54450217Y-66927373D01*
X54397115Y-67148554D01*
X54395572Y-67158301D01*
X54377725Y-67385070D01*
X54377725Y-67394931D01*
X54388915Y-67537122D01*
X54374319Y-67606602D01*
X54324476Y-67657161D01*
X54289500Y-67670253D01*
X54122952Y-67705655D01*
X54122947Y-67705657D01*
X54116486Y-67707030D01*
X54110456Y-67709715D01*
X54110455Y-67709715D01*
X53948052Y-67782021D01*
X53948050Y-67782022D01*
X53942022Y-67784706D01*
X53787521Y-67896958D01*
X53659734Y-68038880D01*
X53656433Y-68044598D01*
X53582945Y-68171883D01*
X53564247Y-68204268D01*
X53505232Y-68385896D01*
X53504542Y-68392457D01*
X53504542Y-68392459D01*
X53501045Y-68425729D01*
X53485270Y-68575824D01*
X53485960Y-68582389D01*
X53503838Y-68752485D01*
X53505232Y-68765752D01*
X53564247Y-68947380D01*
X53567550Y-68953102D01*
X53567551Y-68953103D01*
X53583582Y-68980869D01*
X53659734Y-69112768D01*
X53659130Y-69113117D01*
X53681338Y-69175357D01*
X53665259Y-69244509D01*
X53614346Y-69293990D01*
X53588155Y-69304259D01*
X53476067Y-69334293D01*
X53476065Y-69334294D01*
X53470757Y-69335716D01*
X53465776Y-69338039D01*
X53465775Y-69338039D01*
X53268238Y-69430151D01*
X53268233Y-69430154D01*
X53263251Y-69432477D01*
X53247089Y-69443794D01*
X53080211Y-69560643D01*
X53080208Y-69560645D01*
X53075700Y-69563802D01*
X52913802Y-69725700D01*
X52782477Y-69913251D01*
X52780154Y-69918233D01*
X52780151Y-69918238D01*
X52763919Y-69953049D01*
X52717002Y-70006334D01*
X52648725Y-70025795D01*
X52580765Y-70005253D01*
X52535529Y-69953049D01*
X52519414Y-69918489D01*
X52513931Y-69908993D01*
X52388972Y-69730533D01*
X52381916Y-69722125D01*
X52227875Y-69568084D01*
X52219467Y-69561028D01*
X52041007Y-69436069D01*
X52031511Y-69430586D01*
X51834053Y-69338510D01*
X51823761Y-69334764D01*
X51651497Y-69288606D01*
X51637401Y-69288942D01*
X51634000Y-69296884D01*
X51634000Y-71837967D01*
X51637973Y-71851498D01*
X51646522Y-71852727D01*
X51823761Y-71805236D01*
X51834053Y-71801490D01*
X52031511Y-71709414D01*
X52041007Y-71703931D01*
X52219467Y-71578972D01*
X52227875Y-71571916D01*
X52381916Y-71417875D01*
X52388972Y-71409467D01*
X52513931Y-71231007D01*
X52519414Y-71221511D01*
X52535529Y-71186951D01*
X52582446Y-71133666D01*
X52650723Y-71114205D01*
X52718683Y-71134747D01*
X52763919Y-71186951D01*
X52780151Y-71221762D01*
X52780154Y-71221767D01*
X52782477Y-71226749D01*
X52913802Y-71414300D01*
X53075700Y-71576198D01*
X53080208Y-71579355D01*
X53080211Y-71579357D01*
X53110945Y-71600877D01*
X53263251Y-71707523D01*
X53268233Y-71709846D01*
X53268238Y-71709849D01*
X53428988Y-71784807D01*
X53470757Y-71804284D01*
X53476065Y-71805706D01*
X53476067Y-71805707D01*
X53686598Y-71862119D01*
X53686600Y-71862119D01*
X53691913Y-71863543D01*
X53920000Y-71883498D01*
X54148087Y-71863543D01*
X54252401Y-71835592D01*
X54323376Y-71837282D01*
X54382172Y-71877076D01*
X54410120Y-71942340D01*
X54411011Y-71957299D01*
X54411011Y-72920895D01*
X54391009Y-72989016D01*
X54374106Y-73009990D01*
X52701799Y-74682296D01*
X52639487Y-74716322D01*
X52612704Y-74719201D01*
X52556812Y-74719201D01*
X52550360Y-74720573D01*
X52550355Y-74720573D01*
X52484897Y-74734487D01*
X52370011Y-74758907D01*
X52363981Y-74761592D01*
X52363980Y-74761592D01*
X52201577Y-74833898D01*
X52201575Y-74833899D01*
X52195547Y-74836583D01*
X52190206Y-74840463D01*
X52190205Y-74840464D01*
X52141845Y-74875600D01*
X52074978Y-74899458D01*
X52005826Y-74883378D01*
X51956346Y-74832464D01*
X51942263Y-74762683D01*
X51952517Y-74645475D01*
X51952517Y-74634525D01*
X51933528Y-74417481D01*
X51931625Y-74406688D01*
X51875236Y-74196239D01*
X51871490Y-74185947D01*
X51779414Y-73988489D01*
X51773931Y-73978994D01*
X51737491Y-73926952D01*
X51727012Y-73918576D01*
X51713566Y-73925644D01*
X51012022Y-74627188D01*
X51004408Y-74641132D01*
X51004539Y-74642965D01*
X51008790Y-74649580D01*
X51719896Y-75360686D01*
X51753922Y-75422998D01*
X51756111Y-75462950D01*
X51738795Y-75627701D01*
X51739485Y-75634266D01*
X51753734Y-75769834D01*
X51758757Y-75817629D01*
X51817772Y-75999257D01*
X51913259Y-76164645D01*
X51917677Y-76169552D01*
X51917678Y-76169553D01*
X52032206Y-76296749D01*
X52041046Y-76306567D01*
X52195547Y-76418819D01*
X52201575Y-76421503D01*
X52201577Y-76421504D01*
X52342620Y-76484300D01*
X52370011Y-76496495D01*
X52463411Y-76516348D01*
X52550355Y-76534829D01*
X52550360Y-76534829D01*
X52556812Y-76536201D01*
X52747786Y-76536201D01*
X52754238Y-76534829D01*
X52754243Y-76534829D01*
X52841187Y-76516348D01*
X52934587Y-76496495D01*
X52961978Y-76484300D01*
X53103021Y-76421504D01*
X53103023Y-76421503D01*
X53109051Y-76418819D01*
X53263552Y-76306567D01*
X53272392Y-76296749D01*
X53386920Y-76169553D01*
X53386921Y-76169552D01*
X53391339Y-76164645D01*
X53486826Y-75999257D01*
X53545841Y-75817629D01*
X53563206Y-75652407D01*
X53590219Y-75586751D01*
X53599421Y-75576483D01*
X55436758Y-73739146D01*
X55445048Y-73731602D01*
X55451529Y-73727489D01*
X55498170Y-73677821D01*
X55500924Y-73674980D01*
X55520646Y-73655258D01*
X55523123Y-73652065D01*
X55530828Y-73643044D01*
X55555670Y-73616589D01*
X55561097Y-73610810D01*
X55564918Y-73603860D01*
X55570857Y-73593057D01*
X55581713Y-73576530D01*
X55589268Y-73566791D01*
X55589269Y-73566789D01*
X55594125Y-73560529D01*
X55611685Y-73519949D01*
X55616902Y-73509301D01*
X55634386Y-73477498D01*
X55634387Y-73477496D01*
X55638206Y-73470549D01*
X55643244Y-73450926D01*
X55649648Y-73432223D01*
X55654544Y-73420909D01*
X55654544Y-73420908D01*
X55657692Y-73413634D01*
X55658931Y-73405811D01*
X55658934Y-73405801D01*
X55664610Y-73369965D01*
X55667016Y-73358345D01*
X55676039Y-73323200D01*
X55676039Y-73323199D01*
X55678011Y-73315519D01*
X55678011Y-73295265D01*
X55679562Y-73275554D01*
X55681491Y-73263375D01*
X55682731Y-73255546D01*
X55678570Y-73211527D01*
X55678011Y-73199670D01*
X55678011Y-71846903D01*
X55698013Y-71778782D01*
X55751669Y-71732289D01*
X55821943Y-71722185D01*
X55857260Y-71732708D01*
X55925764Y-71764651D01*
X55939821Y-71771206D01*
X56010757Y-71804284D01*
X56016065Y-71805706D01*
X56016067Y-71805707D01*
X56226598Y-71862119D01*
X56226600Y-71862119D01*
X56231913Y-71863543D01*
X56460000Y-71883498D01*
X56688087Y-71863543D01*
X56693400Y-71862119D01*
X56693402Y-71862119D01*
X56903933Y-71805707D01*
X56903935Y-71805706D01*
X56909243Y-71804284D01*
X56951012Y-71784807D01*
X57111762Y-71709849D01*
X57111767Y-71709846D01*
X57116749Y-71707523D01*
X57269055Y-71600877D01*
X57299789Y-71579357D01*
X57299792Y-71579355D01*
X57304300Y-71576198D01*
X57466198Y-71414300D01*
X57597523Y-71226749D01*
X57599846Y-71221767D01*
X57599849Y-71221762D01*
X57615805Y-71187543D01*
X57662722Y-71134258D01*
X57730999Y-71114797D01*
X57798959Y-71135339D01*
X57844195Y-71187543D01*
X57860151Y-71221762D01*
X57860154Y-71221767D01*
X57862477Y-71226749D01*
X57993802Y-71414300D01*
X58155700Y-71576198D01*
X58160208Y-71579355D01*
X58160211Y-71579357D01*
X58190945Y-71600877D01*
X58343251Y-71707523D01*
X58348233Y-71709846D01*
X58348238Y-71709849D01*
X58508988Y-71784807D01*
X58550757Y-71804284D01*
X58556065Y-71805706D01*
X58556067Y-71805707D01*
X58766598Y-71862119D01*
X58766600Y-71862119D01*
X58771913Y-71863543D01*
X59000000Y-71883498D01*
X59228087Y-71863543D01*
X59332401Y-71835592D01*
X59403376Y-71837282D01*
X59462172Y-71877076D01*
X59490120Y-71942340D01*
X59491011Y-71957299D01*
X59491011Y-72620595D01*
X59471009Y-72688716D01*
X59454106Y-72709690D01*
X54960888Y-77202907D01*
X54898576Y-77236933D01*
X54827761Y-77231868D01*
X54782698Y-77202907D01*
X54767875Y-77188084D01*
X54759467Y-77181028D01*
X54581007Y-77056069D01*
X54571511Y-77050586D01*
X54374053Y-76958510D01*
X54363761Y-76954764D01*
X54191497Y-76908606D01*
X54177401Y-76908942D01*
X54174000Y-76916884D01*
X54174000Y-78318000D01*
X54153998Y-78386121D01*
X54100342Y-78432614D01*
X54048000Y-78444000D01*
X53792000Y-78444000D01*
X53723879Y-78423998D01*
X53677386Y-78370342D01*
X53666000Y-78318000D01*
X53666000Y-76922033D01*
X53662027Y-76908502D01*
X53653478Y-76907273D01*
X53476239Y-76954764D01*
X53465947Y-76958510D01*
X53268489Y-77050586D01*
X53258993Y-77056069D01*
X53080533Y-77181028D01*
X53072125Y-77188084D01*
X52918084Y-77342125D01*
X52911028Y-77350533D01*
X52786069Y-77528993D01*
X52780586Y-77538489D01*
X52764471Y-77573049D01*
X52717554Y-77626334D01*
X52649277Y-77645795D01*
X52581317Y-77625253D01*
X52536081Y-77573049D01*
X52519849Y-77538238D01*
X52519846Y-77538233D01*
X52517523Y-77533251D01*
X52386198Y-77345700D01*
X52224300Y-77183802D01*
X52219792Y-77180645D01*
X52219789Y-77180643D01*
X52132280Y-77119369D01*
X52036749Y-77052477D01*
X52031767Y-77050154D01*
X52031762Y-77050151D01*
X51834225Y-76958039D01*
X51834224Y-76958039D01*
X51829243Y-76955716D01*
X51823935Y-76954294D01*
X51823933Y-76954293D01*
X51613402Y-76897881D01*
X51613400Y-76897881D01*
X51608087Y-76896457D01*
X51380000Y-76876502D01*
X51151913Y-76896457D01*
X51146600Y-76897881D01*
X51146598Y-76897881D01*
X50936067Y-76954293D01*
X50936065Y-76954294D01*
X50930757Y-76955716D01*
X50925776Y-76958039D01*
X50925775Y-76958039D01*
X50728238Y-77050151D01*
X50728233Y-77050154D01*
X50723251Y-77052477D01*
X50627720Y-77119369D01*
X50540211Y-77180643D01*
X50540208Y-77180645D01*
X50535700Y-77183802D01*
X50373802Y-77345700D01*
X50242477Y-77533251D01*
X50240154Y-77538233D01*
X50240151Y-77538238D01*
X50224195Y-77572457D01*
X50177278Y-77625742D01*
X50109001Y-77645203D01*
X50041041Y-77624661D01*
X49995805Y-77572457D01*
X49979849Y-77538238D01*
X49979846Y-77538233D01*
X49977523Y-77533251D01*
X49846198Y-77345700D01*
X49684300Y-77183802D01*
X49679792Y-77180645D01*
X49679789Y-77180643D01*
X49592280Y-77119369D01*
X49496749Y-77052477D01*
X49491767Y-77050154D01*
X49491762Y-77050151D01*
X49294225Y-76958039D01*
X49294224Y-76958039D01*
X49289243Y-76955716D01*
X49283935Y-76954294D01*
X49283933Y-76954293D01*
X49073402Y-76897881D01*
X49073400Y-76897881D01*
X49068087Y-76896457D01*
X48840000Y-76876502D01*
X48611913Y-76896457D01*
X48606600Y-76897881D01*
X48606598Y-76897881D01*
X48396067Y-76954293D01*
X48396065Y-76954294D01*
X48390757Y-76955716D01*
X48385776Y-76958039D01*
X48385775Y-76958039D01*
X48188238Y-77050151D01*
X48188233Y-77050154D01*
X48183251Y-77052477D01*
X48087720Y-77119369D01*
X48000211Y-77180643D01*
X48000208Y-77180645D01*
X47995700Y-77183802D01*
X47833802Y-77345700D01*
X47702477Y-77533251D01*
X47700154Y-77538233D01*
X47700151Y-77538238D01*
X47684195Y-77572457D01*
X47637278Y-77625742D01*
X47569001Y-77645203D01*
X47501041Y-77624661D01*
X47455805Y-77572457D01*
X47439849Y-77538238D01*
X47439846Y-77538233D01*
X47437523Y-77533251D01*
X47306198Y-77345700D01*
X47144300Y-77183802D01*
X47139792Y-77180645D01*
X47139789Y-77180643D01*
X47052280Y-77119369D01*
X46956749Y-77052477D01*
X46951767Y-77050154D01*
X46951762Y-77050151D01*
X46754225Y-76958039D01*
X46754224Y-76958039D01*
X46749243Y-76955716D01*
X46743935Y-76954294D01*
X46743933Y-76954293D01*
X46533402Y-76897881D01*
X46533400Y-76897881D01*
X46528087Y-76896457D01*
X46300000Y-76876502D01*
X46071913Y-76896457D01*
X46066600Y-76897881D01*
X46066598Y-76897881D01*
X45856067Y-76954293D01*
X45856065Y-76954294D01*
X45850757Y-76955716D01*
X45845776Y-76958039D01*
X45845775Y-76958039D01*
X45648238Y-77050151D01*
X45648233Y-77050154D01*
X45643251Y-77052477D01*
X45547720Y-77119369D01*
X45460211Y-77180643D01*
X45460208Y-77180645D01*
X45455700Y-77183802D01*
X45293802Y-77345700D01*
X45162477Y-77533251D01*
X45160154Y-77538233D01*
X45160151Y-77538238D01*
X45144195Y-77572457D01*
X45097278Y-77625742D01*
X45029001Y-77645203D01*
X44961041Y-77624661D01*
X44915805Y-77572457D01*
X44899849Y-77538238D01*
X44899846Y-77538233D01*
X44897523Y-77533251D01*
X44766198Y-77345700D01*
X44604300Y-77183802D01*
X44599792Y-77180645D01*
X44599789Y-77180643D01*
X44512280Y-77119369D01*
X44416749Y-77052477D01*
X44411767Y-77050154D01*
X44411762Y-77050151D01*
X44214225Y-76958039D01*
X44214224Y-76958039D01*
X44209243Y-76955716D01*
X44203935Y-76954294D01*
X44203933Y-76954293D01*
X43993402Y-76897881D01*
X43993400Y-76897881D01*
X43988087Y-76896457D01*
X43760000Y-76876502D01*
X43531913Y-76896457D01*
X43526600Y-76897881D01*
X43526598Y-76897881D01*
X43316067Y-76954293D01*
X43316065Y-76954294D01*
X43310757Y-76955716D01*
X43305776Y-76958039D01*
X43305775Y-76958039D01*
X43108238Y-77050151D01*
X43108233Y-77050154D01*
X43103251Y-77052477D01*
X43007720Y-77119369D01*
X42920211Y-77180643D01*
X42920208Y-77180645D01*
X42915700Y-77183802D01*
X42753802Y-77345700D01*
X42622477Y-77533251D01*
X42620154Y-77538233D01*
X42620151Y-77538238D01*
X42604195Y-77572457D01*
X42557278Y-77625742D01*
X42489001Y-77645203D01*
X42421041Y-77624661D01*
X42375805Y-77572457D01*
X42359849Y-77538238D01*
X42359846Y-77538233D01*
X42357523Y-77533251D01*
X42226198Y-77345700D01*
X42064300Y-77183802D01*
X42059792Y-77180645D01*
X42059789Y-77180643D01*
X41972280Y-77119369D01*
X41876749Y-77052477D01*
X41871767Y-77050154D01*
X41871762Y-77050151D01*
X41674225Y-76958039D01*
X41674224Y-76958039D01*
X41669243Y-76955716D01*
X41663935Y-76954294D01*
X41663933Y-76954293D01*
X41453402Y-76897881D01*
X41453400Y-76897881D01*
X41448087Y-76896457D01*
X41220000Y-76876502D01*
X40991913Y-76896457D01*
X40986600Y-76897881D01*
X40986598Y-76897881D01*
X40776067Y-76954293D01*
X40776065Y-76954294D01*
X40770757Y-76955716D01*
X40765776Y-76958039D01*
X40765775Y-76958039D01*
X40568238Y-77050151D01*
X40568233Y-77050154D01*
X40563251Y-77052477D01*
X40467720Y-77119369D01*
X40380211Y-77180643D01*
X40380208Y-77180645D01*
X40375700Y-77183802D01*
X40213802Y-77345700D01*
X40082477Y-77533251D01*
X40080154Y-77538233D01*
X40080151Y-77538238D01*
X40064195Y-77572457D01*
X40017278Y-77625742D01*
X39949001Y-77645203D01*
X39881041Y-77624661D01*
X39835805Y-77572457D01*
X39819849Y-77538238D01*
X39819846Y-77538233D01*
X39817523Y-77533251D01*
X39686198Y-77345700D01*
X39524300Y-77183802D01*
X39519792Y-77180645D01*
X39519789Y-77180643D01*
X39432280Y-77119369D01*
X39336749Y-77052477D01*
X39331767Y-77050154D01*
X39331762Y-77050151D01*
X39134225Y-76958039D01*
X39134224Y-76958039D01*
X39129243Y-76955716D01*
X39123935Y-76954294D01*
X39123933Y-76954293D01*
X38913402Y-76897881D01*
X38913400Y-76897881D01*
X38908087Y-76896457D01*
X38680000Y-76876502D01*
X38451913Y-76896457D01*
X38446600Y-76897881D01*
X38446598Y-76897881D01*
X38236067Y-76954293D01*
X38236065Y-76954294D01*
X38230757Y-76955716D01*
X38225776Y-76958039D01*
X38225775Y-76958039D01*
X38028238Y-77050151D01*
X38028233Y-77050154D01*
X38023251Y-77052477D01*
X37927720Y-77119369D01*
X37840211Y-77180643D01*
X37840208Y-77180645D01*
X37835700Y-77183802D01*
X37673802Y-77345700D01*
X37670643Y-77350211D01*
X37667108Y-77354424D01*
X37665974Y-77353473D01*
X37615929Y-77393471D01*
X37545310Y-77400776D01*
X37481951Y-77368742D01*
X37445970Y-77307538D01*
X37442918Y-77290483D01*
X37441745Y-77279684D01*
X37390615Y-77143295D01*
X37303261Y-77026739D01*
X37186705Y-76939385D01*
X37050316Y-76888255D01*
X36988134Y-76881500D01*
X35291866Y-76881500D01*
X35229684Y-76888255D01*
X35093295Y-76939385D01*
X34976739Y-77026739D01*
X34889385Y-77143295D01*
X34838255Y-77279684D01*
X34831500Y-77341866D01*
X34831500Y-79038134D01*
X33341968Y-79038134D01*
X33404670Y-78911267D01*
X33408469Y-78901672D01*
X33470377Y-78697910D01*
X33472555Y-78687837D01*
X33473986Y-78676962D01*
X33471775Y-78662778D01*
X33458617Y-78659000D01*
X32412115Y-78659000D01*
X32396876Y-78663475D01*
X32395671Y-78664865D01*
X32394000Y-78672548D01*
X32394000Y-79723517D01*
X31886000Y-79723517D01*
X31886000Y-78277000D01*
X31906002Y-78208879D01*
X31959658Y-78162386D01*
X32012000Y-78151000D01*
X33458344Y-78151000D01*
X33471875Y-78147027D01*
X33473180Y-78137947D01*
X33431214Y-77970875D01*
X33427894Y-77961124D01*
X33342972Y-77765814D01*
X33338105Y-77756739D01*
X33222426Y-77577926D01*
X33216136Y-77569757D01*
X33072293Y-77411677D01*
X33041241Y-77347831D01*
X33049635Y-77277333D01*
X33094812Y-77222564D01*
X33121256Y-77208895D01*
X33228297Y-77168767D01*
X33236705Y-77165615D01*
X33353261Y-77078261D01*
X33440615Y-76961705D01*
X33491745Y-76825316D01*
X33498500Y-76763134D01*
X33498500Y-74966866D01*
X33491745Y-74904684D01*
X33440615Y-74768295D01*
X33353261Y-74651739D01*
X33236705Y-74564385D01*
X33100316Y-74513255D01*
X33038134Y-74506500D01*
X31241866Y-74506500D01*
X31179684Y-74513255D01*
X31043295Y-74564385D01*
X30926739Y-74651739D01*
X30921358Y-74658919D01*
X30921357Y-74658920D01*
X30874826Y-74721006D01*
X30817967Y-74763521D01*
X30747148Y-74768547D01*
X30684855Y-74734487D01*
X30650865Y-74672155D01*
X30648000Y-74645441D01*
X30648000Y-73640000D01*
X34226496Y-73640000D01*
X34227186Y-73646562D01*
X34227186Y-73646565D01*
X34244853Y-73814653D01*
X34246458Y-73829928D01*
X34305473Y-74011556D01*
X34308776Y-74017278D01*
X34308777Y-74017279D01*
X34337832Y-74067604D01*
X34400960Y-74176944D01*
X34405378Y-74181851D01*
X34405379Y-74181852D01*
X34509198Y-74297155D01*
X34528747Y-74318866D01*
X34566723Y-74346457D01*
X34651483Y-74408039D01*
X34683248Y-74431118D01*
X34689276Y-74433802D01*
X34689278Y-74433803D01*
X34850614Y-74505634D01*
X34857712Y-74508794D01*
X34951112Y-74528647D01*
X35038056Y-74547128D01*
X35038061Y-74547128D01*
X35044513Y-74548500D01*
X35235487Y-74548500D01*
X35241939Y-74547128D01*
X35241944Y-74547128D01*
X35328888Y-74528647D01*
X35422288Y-74508794D01*
X35429386Y-74505634D01*
X35590722Y-74433803D01*
X35590724Y-74433802D01*
X35596752Y-74431118D01*
X35628518Y-74408039D01*
X35713277Y-74346457D01*
X35751253Y-74318866D01*
X35770802Y-74297155D01*
X35874621Y-74181852D01*
X35874622Y-74181851D01*
X35879040Y-74176944D01*
X35942168Y-74067604D01*
X35971223Y-74017279D01*
X35971224Y-74017278D01*
X35974527Y-74011556D01*
X36029387Y-73842714D01*
X36060125Y-73792556D01*
X36417276Y-73435405D01*
X36479588Y-73401379D01*
X36506371Y-73398500D01*
X44732125Y-73398500D01*
X44800246Y-73418502D01*
X44846739Y-73472158D01*
X44856843Y-73542432D01*
X44827349Y-73607012D01*
X44804396Y-73627713D01*
X44800211Y-73630643D01*
X44800208Y-73630645D01*
X44795700Y-73633802D01*
X44633802Y-73795700D01*
X44630645Y-73800208D01*
X44630643Y-73800211D01*
X44598443Y-73846198D01*
X44502477Y-73983251D01*
X44500154Y-73988233D01*
X44500151Y-73988238D01*
X44419409Y-74161392D01*
X44405716Y-74190757D01*
X44404294Y-74196065D01*
X44404293Y-74196067D01*
X44348499Y-74404293D01*
X44346457Y-74411913D01*
X44326502Y-74640000D01*
X44346457Y-74868087D01*
X44347881Y-74873400D01*
X44347881Y-74873402D01*
X44385025Y-75012022D01*
X44405716Y-75089243D01*
X44408039Y-75094224D01*
X44408039Y-75094225D01*
X44500151Y-75291762D01*
X44500154Y-75291767D01*
X44502477Y-75296749D01*
X44520680Y-75322745D01*
X44598444Y-75433803D01*
X44633802Y-75484300D01*
X44795700Y-75646198D01*
X44800208Y-75649355D01*
X44800211Y-75649357D01*
X44836119Y-75674500D01*
X44983251Y-75777523D01*
X44988233Y-75779846D01*
X44988238Y-75779849D01*
X45165715Y-75862607D01*
X45190757Y-75874284D01*
X45196065Y-75875706D01*
X45196067Y-75875707D01*
X45406598Y-75932119D01*
X45406600Y-75932119D01*
X45411913Y-75933543D01*
X45640000Y-75953498D01*
X45868087Y-75933543D01*
X45873400Y-75932119D01*
X45873402Y-75932119D01*
X46083933Y-75875707D01*
X46083935Y-75875706D01*
X46089243Y-75874284D01*
X46114285Y-75862607D01*
X46291762Y-75779849D01*
X46291767Y-75779846D01*
X46296749Y-75777523D01*
X46370243Y-75726062D01*
X49918493Y-75726062D01*
X49927789Y-75738077D01*
X49978994Y-75773931D01*
X49988489Y-75779414D01*
X50185947Y-75871490D01*
X50196239Y-75875236D01*
X50406688Y-75931625D01*
X50417481Y-75933528D01*
X50634525Y-75952517D01*
X50645475Y-75952517D01*
X50862519Y-75933528D01*
X50873312Y-75931625D01*
X51083761Y-75875236D01*
X51094053Y-75871490D01*
X51291511Y-75779414D01*
X51301006Y-75773931D01*
X51353048Y-75737491D01*
X51361424Y-75727012D01*
X51354356Y-75713566D01*
X50652812Y-75012022D01*
X50638868Y-75004408D01*
X50637035Y-75004539D01*
X50630420Y-75008790D01*
X49924923Y-75714287D01*
X49918493Y-75726062D01*
X46370243Y-75726062D01*
X46443881Y-75674500D01*
X46479789Y-75649357D01*
X46479792Y-75649355D01*
X46484300Y-75646198D01*
X46646198Y-75484300D01*
X46681557Y-75433803D01*
X46759320Y-75322745D01*
X46777523Y-75296749D01*
X46779846Y-75291767D01*
X46779849Y-75291762D01*
X46871961Y-75094225D01*
X46871961Y-75094224D01*
X46874284Y-75089243D01*
X46894976Y-75012022D01*
X46932119Y-74873402D01*
X46932119Y-74873400D01*
X46933543Y-74868087D01*
X46953019Y-74645475D01*
X49327483Y-74645475D01*
X49346472Y-74862519D01*
X49348375Y-74873312D01*
X49404764Y-75083761D01*
X49408510Y-75094053D01*
X49500586Y-75291511D01*
X49506069Y-75301006D01*
X49542509Y-75353048D01*
X49552988Y-75361424D01*
X49566434Y-75354356D01*
X50267978Y-74652812D01*
X50275592Y-74638868D01*
X50275461Y-74637035D01*
X50271210Y-74630420D01*
X49565713Y-73924923D01*
X49553938Y-73918493D01*
X49541923Y-73927789D01*
X49506069Y-73978994D01*
X49500586Y-73988489D01*
X49408510Y-74185947D01*
X49404764Y-74196239D01*
X49348375Y-74406688D01*
X49346472Y-74417481D01*
X49327483Y-74634525D01*
X49327483Y-74645475D01*
X46953019Y-74645475D01*
X46953498Y-74640000D01*
X46933543Y-74411913D01*
X46931501Y-74404293D01*
X46875707Y-74196067D01*
X46875706Y-74196065D01*
X46874284Y-74190757D01*
X46860591Y-74161392D01*
X46779849Y-73988238D01*
X46779846Y-73988233D01*
X46777523Y-73983251D01*
X46681557Y-73846198D01*
X46649357Y-73800211D01*
X46649355Y-73800208D01*
X46646198Y-73795700D01*
X46484300Y-73633802D01*
X46479792Y-73630645D01*
X46479789Y-73630643D01*
X46368886Y-73552988D01*
X49918576Y-73552988D01*
X49925644Y-73566434D01*
X50627188Y-74267978D01*
X50641132Y-74275592D01*
X50642965Y-74275461D01*
X50649580Y-74271210D01*
X51355077Y-73565713D01*
X51361507Y-73553938D01*
X51352211Y-73541923D01*
X51301006Y-73506069D01*
X51291511Y-73500586D01*
X51094053Y-73408510D01*
X51083761Y-73404764D01*
X50873312Y-73348375D01*
X50862519Y-73346472D01*
X50645475Y-73327483D01*
X50634525Y-73327483D01*
X50417481Y-73346472D01*
X50406688Y-73348375D01*
X50196239Y-73404764D01*
X50185947Y-73408510D01*
X49988489Y-73500586D01*
X49978994Y-73506069D01*
X49926952Y-73542509D01*
X49918576Y-73552988D01*
X46368886Y-73552988D01*
X46301258Y-73505634D01*
X46301256Y-73505633D01*
X46296749Y-73502477D01*
X46292326Y-73500415D01*
X46243466Y-73449171D01*
X46230031Y-73379457D01*
X46256418Y-73313546D01*
X46261802Y-73307150D01*
X46379040Y-73176944D01*
X46474527Y-73011556D01*
X46533542Y-72829928D01*
X46539859Y-72769831D01*
X46552814Y-72646565D01*
X46553504Y-72640000D01*
X46533542Y-72450072D01*
X46474527Y-72268444D01*
X46379040Y-72103056D01*
X46359113Y-72080925D01*
X46328397Y-72016919D01*
X46337161Y-71946465D01*
X46382623Y-71891934D01*
X46441768Y-71871095D01*
X46453765Y-71870045D01*
X46528087Y-71863543D01*
X46533400Y-71862119D01*
X46533402Y-71862119D01*
X46743933Y-71805707D01*
X46743935Y-71805706D01*
X46749243Y-71804284D01*
X46791012Y-71784807D01*
X46951762Y-71709849D01*
X46951767Y-71709846D01*
X46956749Y-71707523D01*
X47109055Y-71600877D01*
X47139789Y-71579357D01*
X47139792Y-71579355D01*
X47144300Y-71576198D01*
X47306198Y-71414300D01*
X47437523Y-71226749D01*
X47439846Y-71221767D01*
X47439849Y-71221762D01*
X47455805Y-71187543D01*
X47502722Y-71134258D01*
X47570999Y-71114797D01*
X47638959Y-71135339D01*
X47684195Y-71187543D01*
X47700151Y-71221762D01*
X47700154Y-71221767D01*
X47702477Y-71226749D01*
X47833802Y-71414300D01*
X47995700Y-71576198D01*
X48000208Y-71579355D01*
X48000211Y-71579357D01*
X48030945Y-71600877D01*
X48183251Y-71707523D01*
X48188233Y-71709846D01*
X48188238Y-71709849D01*
X48348988Y-71784807D01*
X48390757Y-71804284D01*
X48396065Y-71805706D01*
X48396067Y-71805707D01*
X48606598Y-71862119D01*
X48606600Y-71862119D01*
X48611913Y-71863543D01*
X48840000Y-71883498D01*
X49068087Y-71863543D01*
X49073400Y-71862119D01*
X49073402Y-71862119D01*
X49283933Y-71805707D01*
X49283935Y-71805706D01*
X49289243Y-71804284D01*
X49331012Y-71784807D01*
X49491762Y-71709849D01*
X49491767Y-71709846D01*
X49496749Y-71707523D01*
X49649055Y-71600877D01*
X49679789Y-71579357D01*
X49679792Y-71579355D01*
X49684300Y-71576198D01*
X49846198Y-71414300D01*
X49977523Y-71226749D01*
X49979846Y-71221767D01*
X49979849Y-71221762D01*
X49996081Y-71186951D01*
X50042998Y-71133666D01*
X50111275Y-71114205D01*
X50179235Y-71134747D01*
X50224471Y-71186951D01*
X50240586Y-71221511D01*
X50246069Y-71231007D01*
X50371028Y-71409467D01*
X50378084Y-71417875D01*
X50532125Y-71571916D01*
X50540533Y-71578972D01*
X50718993Y-71703931D01*
X50728489Y-71709414D01*
X50925947Y-71801490D01*
X50936239Y-71805236D01*
X51108503Y-71851394D01*
X51122599Y-71851058D01*
X51126000Y-71843116D01*
X51126000Y-69302033D01*
X51122027Y-69288502D01*
X51113478Y-69287273D01*
X50936239Y-69334764D01*
X50925947Y-69338510D01*
X50728489Y-69430586D01*
X50718993Y-69436069D01*
X50540533Y-69561028D01*
X50532125Y-69568084D01*
X50378084Y-69722125D01*
X50371028Y-69730533D01*
X50246069Y-69908993D01*
X50240586Y-69918489D01*
X50224471Y-69953049D01*
X50177554Y-70006334D01*
X50109277Y-70025795D01*
X50041317Y-70005253D01*
X49996081Y-69953049D01*
X49979849Y-69918238D01*
X49979846Y-69918233D01*
X49977523Y-69913251D01*
X49846198Y-69725700D01*
X49684300Y-69563802D01*
X49679792Y-69560645D01*
X49679789Y-69560643D01*
X49512911Y-69443794D01*
X49496749Y-69432477D01*
X49491767Y-69430154D01*
X49491762Y-69430151D01*
X49294225Y-69338039D01*
X49294224Y-69338039D01*
X49289243Y-69335716D01*
X49283935Y-69334294D01*
X49283933Y-69334293D01*
X49073402Y-69277881D01*
X49073400Y-69277881D01*
X49068087Y-69276457D01*
X48840000Y-69256502D01*
X48611913Y-69276457D01*
X48606600Y-69277881D01*
X48606598Y-69277881D01*
X48396067Y-69334293D01*
X48396065Y-69334294D01*
X48390757Y-69335716D01*
X48385776Y-69338039D01*
X48385775Y-69338039D01*
X48188238Y-69430151D01*
X48188233Y-69430154D01*
X48183251Y-69432477D01*
X48167089Y-69443794D01*
X48000211Y-69560643D01*
X48000208Y-69560645D01*
X47995700Y-69563802D01*
X47833802Y-69725700D01*
X47702477Y-69913251D01*
X47700154Y-69918233D01*
X47700151Y-69918238D01*
X47684195Y-69952457D01*
X47637278Y-70005742D01*
X47569001Y-70025203D01*
X47501041Y-70004661D01*
X47455805Y-69952457D01*
X47439849Y-69918238D01*
X47439846Y-69918233D01*
X47437523Y-69913251D01*
X47306198Y-69725700D01*
X47144300Y-69563802D01*
X47139792Y-69560645D01*
X47139789Y-69560643D01*
X46972911Y-69443794D01*
X46956749Y-69432477D01*
X46951767Y-69430154D01*
X46951762Y-69430151D01*
X46754225Y-69338039D01*
X46754224Y-69338039D01*
X46749243Y-69335716D01*
X46743935Y-69334294D01*
X46743933Y-69334293D01*
X46533402Y-69277881D01*
X46533400Y-69277881D01*
X46528087Y-69276457D01*
X46300000Y-69256502D01*
X46071913Y-69276457D01*
X46066600Y-69277881D01*
X46066598Y-69277881D01*
X45856067Y-69334293D01*
X45856065Y-69334294D01*
X45850757Y-69335716D01*
X45845776Y-69338039D01*
X45845775Y-69338039D01*
X45648238Y-69430151D01*
X45648233Y-69430154D01*
X45643251Y-69432477D01*
X45627089Y-69443794D01*
X45460211Y-69560643D01*
X45460208Y-69560645D01*
X45455700Y-69563802D01*
X45293802Y-69725700D01*
X45162477Y-69913251D01*
X45160154Y-69918233D01*
X45160151Y-69918238D01*
X45144195Y-69952457D01*
X45097278Y-70005742D01*
X45029001Y-70025203D01*
X44961041Y-70004661D01*
X44915805Y-69952457D01*
X44899849Y-69918238D01*
X44899846Y-69918233D01*
X44897523Y-69913251D01*
X44766198Y-69725700D01*
X44604300Y-69563802D01*
X44599792Y-69560645D01*
X44599789Y-69560643D01*
X44432911Y-69443794D01*
X44416749Y-69432477D01*
X44411767Y-69430154D01*
X44411762Y-69430151D01*
X44214225Y-69338039D01*
X44214224Y-69338039D01*
X44209243Y-69335716D01*
X44203935Y-69334294D01*
X44203933Y-69334293D01*
X43993402Y-69277881D01*
X43993400Y-69277881D01*
X43988087Y-69276457D01*
X43760000Y-69256502D01*
X43531913Y-69276457D01*
X43526600Y-69277881D01*
X43526598Y-69277881D01*
X43316067Y-69334293D01*
X43316065Y-69334294D01*
X43310757Y-69335716D01*
X43305776Y-69338039D01*
X43305775Y-69338039D01*
X43108238Y-69430151D01*
X43108233Y-69430154D01*
X43103251Y-69432477D01*
X43087089Y-69443794D01*
X42920211Y-69560643D01*
X42920208Y-69560645D01*
X42915700Y-69563802D01*
X42753802Y-69725700D01*
X42622477Y-69913251D01*
X42620154Y-69918233D01*
X42620151Y-69918238D01*
X42604195Y-69952457D01*
X42557278Y-70005742D01*
X42489001Y-70025203D01*
X42421041Y-70004661D01*
X42375805Y-69952457D01*
X42359849Y-69918238D01*
X42359846Y-69918233D01*
X42357523Y-69913251D01*
X42226198Y-69725700D01*
X42064300Y-69563802D01*
X42059792Y-69560645D01*
X42059789Y-69560643D01*
X41892911Y-69443794D01*
X41876749Y-69432477D01*
X41871767Y-69430154D01*
X41871762Y-69430151D01*
X41674225Y-69338039D01*
X41674224Y-69338039D01*
X41669243Y-69335716D01*
X41663935Y-69334294D01*
X41663933Y-69334293D01*
X41453402Y-69277881D01*
X41453400Y-69277881D01*
X41448087Y-69276457D01*
X41220000Y-69256502D01*
X40991913Y-69276457D01*
X40986600Y-69277881D01*
X40986598Y-69277881D01*
X40776067Y-69334293D01*
X40776065Y-69334294D01*
X40770757Y-69335716D01*
X40765776Y-69338039D01*
X40765775Y-69338039D01*
X40568238Y-69430151D01*
X40568233Y-69430154D01*
X40563251Y-69432477D01*
X40547089Y-69443794D01*
X40380211Y-69560643D01*
X40380208Y-69560645D01*
X40375700Y-69563802D01*
X40213802Y-69725700D01*
X40082477Y-69913251D01*
X40080154Y-69918233D01*
X40080151Y-69918238D01*
X40064195Y-69952457D01*
X40017278Y-70005742D01*
X39949001Y-70025203D01*
X39881041Y-70004661D01*
X39835805Y-69952457D01*
X39819849Y-69918238D01*
X39819846Y-69918233D01*
X39817523Y-69913251D01*
X39686198Y-69725700D01*
X39524300Y-69563802D01*
X39519792Y-69560645D01*
X39519789Y-69560643D01*
X39352911Y-69443794D01*
X39336749Y-69432477D01*
X39331767Y-69430154D01*
X39331762Y-69430151D01*
X39134225Y-69338039D01*
X39134224Y-69338039D01*
X39129243Y-69335716D01*
X39123935Y-69334294D01*
X39123933Y-69334293D01*
X38913402Y-69277881D01*
X38913400Y-69277881D01*
X38908087Y-69276457D01*
X38680000Y-69256502D01*
X38451913Y-69276457D01*
X38446600Y-69277881D01*
X38446598Y-69277881D01*
X38236067Y-69334293D01*
X38236065Y-69334294D01*
X38230757Y-69335716D01*
X38225776Y-69338039D01*
X38225775Y-69338039D01*
X38028238Y-69430151D01*
X38028233Y-69430154D01*
X38023251Y-69432477D01*
X38007089Y-69443794D01*
X37840211Y-69560643D01*
X37840208Y-69560645D01*
X37835700Y-69563802D01*
X37673802Y-69725700D01*
X37542477Y-69913251D01*
X37540154Y-69918233D01*
X37540151Y-69918238D01*
X37524195Y-69952457D01*
X37477278Y-70005742D01*
X37409001Y-70025203D01*
X37341041Y-70004661D01*
X37295805Y-69952457D01*
X37279849Y-69918238D01*
X37279846Y-69918233D01*
X37277523Y-69913251D01*
X37146198Y-69725700D01*
X36984300Y-69563802D01*
X36979792Y-69560645D01*
X36979789Y-69560643D01*
X36812911Y-69443794D01*
X36796749Y-69432477D01*
X36791767Y-69430154D01*
X36791762Y-69430151D01*
X36594225Y-69338039D01*
X36594224Y-69338039D01*
X36589243Y-69335716D01*
X36583935Y-69334294D01*
X36583933Y-69334293D01*
X36373402Y-69277881D01*
X36373400Y-69277881D01*
X36368087Y-69276457D01*
X36140000Y-69256502D01*
X35911913Y-69276457D01*
X35906600Y-69277881D01*
X35906598Y-69277881D01*
X35696067Y-69334293D01*
X35696065Y-69334294D01*
X35690757Y-69335716D01*
X35685776Y-69338039D01*
X35685775Y-69338039D01*
X35488238Y-69430151D01*
X35488233Y-69430154D01*
X35483251Y-69432477D01*
X35467089Y-69443794D01*
X35300211Y-69560643D01*
X35300208Y-69560645D01*
X35295700Y-69563802D01*
X35133802Y-69725700D01*
X35002477Y-69913251D01*
X35000154Y-69918233D01*
X35000151Y-69918238D01*
X34959348Y-70005742D01*
X34905716Y-70120757D01*
X34904294Y-70126065D01*
X34904293Y-70126067D01*
X34885171Y-70197430D01*
X34846457Y-70341913D01*
X34826502Y-70570000D01*
X34846457Y-70798087D01*
X34847881Y-70803400D01*
X34847881Y-70803402D01*
X34891649Y-70966743D01*
X34905716Y-71019243D01*
X34908039Y-71024224D01*
X34908039Y-71024225D01*
X35000151Y-71221762D01*
X35000154Y-71221767D01*
X35002477Y-71226749D01*
X35133802Y-71414300D01*
X35295700Y-71576198D01*
X35300208Y-71579355D01*
X35300211Y-71579357D01*
X35330945Y-71600877D01*
X35483251Y-71707523D01*
X35488236Y-71709847D01*
X35488242Y-71709851D01*
X35683116Y-71800721D01*
X35736402Y-71847638D01*
X35755863Y-71915915D01*
X35735321Y-71983875D01*
X35695233Y-72022635D01*
X35670893Y-72037405D01*
X35662517Y-72044802D01*
X35662493Y-72044775D01*
X35659499Y-72047430D01*
X35656268Y-72050132D01*
X35650148Y-72054144D01*
X35645116Y-72059456D01*
X35596872Y-72110383D01*
X35594494Y-72112825D01*
X34983669Y-72723650D01*
X34920772Y-72757801D01*
X34864176Y-72769831D01*
X34864167Y-72769834D01*
X34857712Y-72771206D01*
X34851682Y-72773891D01*
X34851681Y-72773891D01*
X34689278Y-72846197D01*
X34689276Y-72846198D01*
X34683248Y-72848882D01*
X34528747Y-72961134D01*
X34400960Y-73103056D01*
X34305473Y-73268444D01*
X34246458Y-73450072D01*
X34245768Y-73456633D01*
X34245768Y-73456635D01*
X34236257Y-73547128D01*
X34226496Y-73640000D01*
X30648000Y-73640000D01*
X30648000Y-69640000D01*
X31726496Y-69640000D01*
X31727186Y-69646565D01*
X31735128Y-69722125D01*
X31746458Y-69829928D01*
X31805473Y-70011556D01*
X31900960Y-70176944D01*
X31905378Y-70181851D01*
X31905379Y-70181852D01*
X31929096Y-70208192D01*
X32028747Y-70318866D01*
X32183248Y-70431118D01*
X32189276Y-70433802D01*
X32189278Y-70433803D01*
X32351681Y-70506109D01*
X32357712Y-70508794D01*
X32451112Y-70528647D01*
X32538056Y-70547128D01*
X32538061Y-70547128D01*
X32544513Y-70548500D01*
X32735487Y-70548500D01*
X32741939Y-70547128D01*
X32741944Y-70547128D01*
X32828888Y-70528647D01*
X32922288Y-70508794D01*
X32928319Y-70506109D01*
X33090722Y-70433803D01*
X33090724Y-70433802D01*
X33096752Y-70431118D01*
X33251253Y-70318866D01*
X33350904Y-70208192D01*
X33374621Y-70181852D01*
X33374622Y-70181851D01*
X33379040Y-70176944D01*
X33474527Y-70011556D01*
X33533542Y-69829928D01*
X33550907Y-69664706D01*
X33577920Y-69599050D01*
X33587122Y-69588782D01*
X34553234Y-68622670D01*
X38272160Y-68622670D01*
X38277887Y-68630320D01*
X38449042Y-68735205D01*
X38457837Y-68739687D01*
X38667988Y-68826734D01*
X38677373Y-68829783D01*
X38898554Y-68882885D01*
X38908301Y-68884428D01*
X39135070Y-68902275D01*
X39144930Y-68902275D01*
X39371699Y-68884428D01*
X39381446Y-68882885D01*
X39602627Y-68829783D01*
X39612012Y-68826734D01*
X39822163Y-68739687D01*
X39830958Y-68735205D01*
X39998445Y-68632568D01*
X40007400Y-68622670D01*
X44772160Y-68622670D01*
X44777887Y-68630320D01*
X44949042Y-68735205D01*
X44957837Y-68739687D01*
X45167988Y-68826734D01*
X45177373Y-68829783D01*
X45398554Y-68882885D01*
X45408301Y-68884428D01*
X45635070Y-68902275D01*
X45644930Y-68902275D01*
X45871699Y-68884428D01*
X45881446Y-68882885D01*
X46102627Y-68829783D01*
X46112012Y-68826734D01*
X46322163Y-68739687D01*
X46330958Y-68735205D01*
X46498445Y-68632568D01*
X46507400Y-68622670D01*
X48522160Y-68622670D01*
X48527887Y-68630320D01*
X48699042Y-68735205D01*
X48707837Y-68739687D01*
X48917988Y-68826734D01*
X48927373Y-68829783D01*
X49148554Y-68882885D01*
X49158301Y-68884428D01*
X49385070Y-68902275D01*
X49394930Y-68902275D01*
X49621699Y-68884428D01*
X49631446Y-68882885D01*
X49852627Y-68829783D01*
X49862012Y-68826734D01*
X50072163Y-68739687D01*
X50080958Y-68735205D01*
X50248445Y-68632568D01*
X50257907Y-68622110D01*
X50254124Y-68613334D01*
X49402812Y-67762022D01*
X49388868Y-67754408D01*
X49387035Y-67754539D01*
X49380420Y-67758790D01*
X48528920Y-68610290D01*
X48522160Y-68622670D01*
X46507400Y-68622670D01*
X46507907Y-68622110D01*
X46504124Y-68613334D01*
X45652812Y-67762022D01*
X45638868Y-67754408D01*
X45637035Y-67754539D01*
X45630420Y-67758790D01*
X44778920Y-68610290D01*
X44772160Y-68622670D01*
X40007400Y-68622670D01*
X40007907Y-68622110D01*
X40004124Y-68613334D01*
X39152812Y-67762022D01*
X39138868Y-67754408D01*
X39137035Y-67754539D01*
X39130420Y-67758790D01*
X38278920Y-68610290D01*
X38272160Y-68622670D01*
X34553234Y-68622670D01*
X35780974Y-67394930D01*
X37627725Y-67394930D01*
X37645572Y-67621699D01*
X37647115Y-67631446D01*
X37700217Y-67852627D01*
X37703266Y-67862012D01*
X37790313Y-68072163D01*
X37794795Y-68080958D01*
X37897432Y-68248445D01*
X37907890Y-68257907D01*
X37916666Y-68254124D01*
X38767978Y-67402812D01*
X38774356Y-67391132D01*
X39504408Y-67391132D01*
X39504539Y-67392965D01*
X39508790Y-67399580D01*
X40360290Y-68251080D01*
X40372670Y-68257840D01*
X40380320Y-68252113D01*
X40485205Y-68080958D01*
X40489687Y-68072163D01*
X40576734Y-67862012D01*
X40579783Y-67852627D01*
X40632885Y-67631446D01*
X40634428Y-67621699D01*
X40652275Y-67394930D01*
X44127725Y-67394930D01*
X44145572Y-67621699D01*
X44147115Y-67631446D01*
X44200217Y-67852627D01*
X44203266Y-67862012D01*
X44290313Y-68072163D01*
X44294795Y-68080958D01*
X44397432Y-68248445D01*
X44407890Y-68257907D01*
X44416666Y-68254124D01*
X45267978Y-67402812D01*
X45274356Y-67391132D01*
X46004408Y-67391132D01*
X46004539Y-67392965D01*
X46008790Y-67399580D01*
X46860290Y-68251080D01*
X46872670Y-68257840D01*
X46880320Y-68252113D01*
X46985205Y-68080958D01*
X46989687Y-68072163D01*
X47076734Y-67862012D01*
X47079783Y-67852627D01*
X47132885Y-67631446D01*
X47134428Y-67621699D01*
X47152275Y-67394930D01*
X47877725Y-67394930D01*
X47895572Y-67621699D01*
X47897115Y-67631446D01*
X47950217Y-67852627D01*
X47953266Y-67862012D01*
X48040313Y-68072163D01*
X48044795Y-68080958D01*
X48147432Y-68248445D01*
X48157890Y-68257907D01*
X48166666Y-68254124D01*
X49017978Y-67402812D01*
X49024356Y-67391132D01*
X49754408Y-67391132D01*
X49754539Y-67392965D01*
X49758790Y-67399580D01*
X50610290Y-68251080D01*
X50622670Y-68257840D01*
X50630320Y-68252113D01*
X50735205Y-68080958D01*
X50739687Y-68072163D01*
X50826734Y-67862012D01*
X50829783Y-67852627D01*
X50882885Y-67631446D01*
X50884428Y-67621699D01*
X50902275Y-67394930D01*
X50902275Y-67385070D01*
X50884428Y-67158301D01*
X50882885Y-67148554D01*
X50829783Y-66927373D01*
X50826734Y-66917988D01*
X50739687Y-66707837D01*
X50735205Y-66699042D01*
X50632568Y-66531555D01*
X50622110Y-66522093D01*
X50613334Y-66525876D01*
X49762022Y-67377188D01*
X49754408Y-67391132D01*
X49024356Y-67391132D01*
X49025592Y-67388868D01*
X49025461Y-67387035D01*
X49021210Y-67380420D01*
X48169710Y-66528920D01*
X48157330Y-66522160D01*
X48149680Y-66527887D01*
X48044795Y-66699042D01*
X48040313Y-66707837D01*
X47953266Y-66917988D01*
X47950217Y-66927373D01*
X47897115Y-67148554D01*
X47895572Y-67158301D01*
X47877725Y-67385070D01*
X47877725Y-67394930D01*
X47152275Y-67394930D01*
X47152275Y-67385070D01*
X47134428Y-67158301D01*
X47132885Y-67148554D01*
X47079783Y-66927373D01*
X47076734Y-66917988D01*
X46989687Y-66707837D01*
X46985205Y-66699042D01*
X46882568Y-66531555D01*
X46872110Y-66522093D01*
X46863334Y-66525876D01*
X46012022Y-67377188D01*
X46004408Y-67391132D01*
X45274356Y-67391132D01*
X45275592Y-67388868D01*
X45275461Y-67387035D01*
X45271210Y-67380420D01*
X44419710Y-66528920D01*
X44407330Y-66522160D01*
X44399680Y-66527887D01*
X44294795Y-66699042D01*
X44290313Y-66707837D01*
X44203266Y-66917988D01*
X44200217Y-66927373D01*
X44147115Y-67148554D01*
X44145572Y-67158301D01*
X44127725Y-67385070D01*
X44127725Y-67394930D01*
X40652275Y-67394930D01*
X40652275Y-67385070D01*
X40634428Y-67158301D01*
X40632885Y-67148554D01*
X40579783Y-66927373D01*
X40576734Y-66917988D01*
X40489687Y-66707837D01*
X40485205Y-66699042D01*
X40382568Y-66531555D01*
X40372110Y-66522093D01*
X40363334Y-66525876D01*
X39512022Y-67377188D01*
X39504408Y-67391132D01*
X38774356Y-67391132D01*
X38775592Y-67388868D01*
X38775461Y-67387035D01*
X38771210Y-67380420D01*
X37919710Y-66528920D01*
X37907330Y-66522160D01*
X37899680Y-66527887D01*
X37794795Y-66699042D01*
X37790313Y-66707837D01*
X37703266Y-66917988D01*
X37700217Y-66927373D01*
X37647115Y-67148554D01*
X37645572Y-67158301D01*
X37627725Y-67385070D01*
X37627725Y-67394930D01*
X35780974Y-67394930D01*
X36297247Y-66878657D01*
X36305537Y-66871113D01*
X36312018Y-66867000D01*
X36358659Y-66817332D01*
X36361413Y-66814491D01*
X36381134Y-66794770D01*
X36383612Y-66791575D01*
X36391318Y-66782553D01*
X36416158Y-66756101D01*
X36421586Y-66750321D01*
X36431346Y-66732568D01*
X36442199Y-66716045D01*
X36443356Y-66714553D01*
X36454613Y-66700041D01*
X36472176Y-66659457D01*
X36477383Y-66648827D01*
X36498695Y-66610060D01*
X36500666Y-66602383D01*
X36500668Y-66602378D01*
X36503732Y-66590442D01*
X36510138Y-66571730D01*
X36515033Y-66560419D01*
X36518181Y-66553145D01*
X36519421Y-66545317D01*
X36519423Y-66545310D01*
X36525099Y-66509476D01*
X36527505Y-66497856D01*
X36536528Y-66462711D01*
X36536528Y-66462710D01*
X36538500Y-66455030D01*
X36538500Y-66434776D01*
X36540051Y-66415065D01*
X36541980Y-66402886D01*
X36543220Y-66395057D01*
X36539059Y-66351038D01*
X36538500Y-66339181D01*
X36538500Y-64976752D01*
X36558502Y-64908631D01*
X36609068Y-64863601D01*
X36616316Y-64860050D01*
X36624043Y-64856265D01*
X36624047Y-64856263D01*
X36628684Y-64853991D01*
X36632888Y-64850993D01*
X36632892Y-64850990D01*
X36748617Y-64768444D01*
X36817243Y-64719494D01*
X36981303Y-64556005D01*
X36991490Y-64541829D01*
X37026969Y-64492454D01*
X37116458Y-64367917D01*
X37130974Y-64338547D01*
X37216784Y-64164922D01*
X37216785Y-64164920D01*
X37219078Y-64160280D01*
X37286408Y-63938671D01*
X37316640Y-63709041D01*
X37317479Y-63674702D01*
X37318245Y-63643365D01*
X37318245Y-63643361D01*
X37318327Y-63640000D01*
X37309779Y-63536034D01*
X37299773Y-63414318D01*
X37299772Y-63414312D01*
X37299349Y-63409167D01*
X37255411Y-63234242D01*
X37244184Y-63189544D01*
X37244183Y-63189540D01*
X37242925Y-63184533D01*
X37240866Y-63179797D01*
X37152630Y-62976868D01*
X37152628Y-62976865D01*
X37150570Y-62972131D01*
X37024764Y-62777665D01*
X36868887Y-62606358D01*
X36864836Y-62603159D01*
X36864832Y-62603155D01*
X36691177Y-62466011D01*
X36691172Y-62466008D01*
X36687123Y-62462810D01*
X36682607Y-62460317D01*
X36682604Y-62460315D01*
X36488879Y-62353373D01*
X36488875Y-62353371D01*
X36484355Y-62350876D01*
X36479486Y-62349152D01*
X36479482Y-62349150D01*
X36270903Y-62275288D01*
X36270899Y-62275287D01*
X36266028Y-62273562D01*
X36260935Y-62272655D01*
X36260932Y-62272654D01*
X36043095Y-62233851D01*
X36043089Y-62233850D01*
X36038006Y-62232945D01*
X35971415Y-62232132D01*
X35903544Y-62211299D01*
X35857710Y-62157080D01*
X35848465Y-62086688D01*
X35878744Y-62022472D01*
X35883859Y-62017046D01*
X36032253Y-61868652D01*
X36040539Y-61861112D01*
X36047018Y-61857000D01*
X36093644Y-61807348D01*
X36096398Y-61804507D01*
X36116135Y-61784770D01*
X36118615Y-61781573D01*
X36126320Y-61772551D01*
X36151159Y-61746100D01*
X36156586Y-61740321D01*
X36160405Y-61733375D01*
X36160407Y-61733372D01*
X36166348Y-61722566D01*
X36177199Y-61706047D01*
X36184758Y-61696301D01*
X36189614Y-61690041D01*
X36192759Y-61682772D01*
X36192762Y-61682768D01*
X36207174Y-61649463D01*
X36212391Y-61638813D01*
X36233695Y-61600060D01*
X36238733Y-61580437D01*
X36245137Y-61561734D01*
X36250033Y-61550420D01*
X36250033Y-61550419D01*
X36253181Y-61543145D01*
X36254420Y-61535322D01*
X36254423Y-61535312D01*
X36260099Y-61499476D01*
X36262505Y-61487856D01*
X36271528Y-61452711D01*
X36271528Y-61452710D01*
X36273500Y-61445030D01*
X36273500Y-61424776D01*
X36275051Y-61405065D01*
X36276980Y-61392886D01*
X36278220Y-61385057D01*
X36274059Y-61341038D01*
X36273500Y-61329181D01*
X36273500Y-60192885D01*
X36293502Y-60124764D01*
X36347158Y-60078271D01*
X36417432Y-60068167D01*
X36481332Y-60097075D01*
X36497117Y-60110557D01*
X36505101Y-60116357D01*
X36699042Y-60235205D01*
X36707837Y-60239687D01*
X36917988Y-60326734D01*
X36927373Y-60329783D01*
X37148554Y-60382885D01*
X37158301Y-60384428D01*
X37385070Y-60402275D01*
X37394930Y-60402275D01*
X37621699Y-60384428D01*
X37631446Y-60382885D01*
X37852627Y-60329783D01*
X37862012Y-60326734D01*
X38072163Y-60239687D01*
X38080955Y-60235207D01*
X38083567Y-60233606D01*
X38084695Y-60233301D01*
X38085364Y-60232960D01*
X38085436Y-60233101D01*
X38152100Y-60215068D01*
X38219777Y-60236525D01*
X38265110Y-60291164D01*
X38273706Y-60361638D01*
X38269234Y-60379975D01*
X38268128Y-60383380D01*
X38246458Y-60450072D01*
X38245768Y-60456633D01*
X38245768Y-60456635D01*
X38239996Y-60511556D01*
X38226496Y-60640000D01*
X38227186Y-60646565D01*
X38242321Y-60790562D01*
X38246458Y-60829928D01*
X38305473Y-61011556D01*
X38308776Y-61017278D01*
X38308777Y-61017279D01*
X38321399Y-61039141D01*
X38400960Y-61176944D01*
X38405378Y-61181851D01*
X38405379Y-61181852D01*
X38500610Y-61287617D01*
X38527738Y-61317745D01*
X38527739Y-61317747D01*
X38528747Y-61318866D01*
X38528542Y-61319050D01*
X38563985Y-61376583D01*
X38562631Y-61447567D01*
X38523116Y-61506550D01*
X38490653Y-61526178D01*
X38457618Y-61539862D01*
X38457613Y-61539865D01*
X38453037Y-61541760D01*
X38448817Y-61544346D01*
X38254798Y-61663241D01*
X38254792Y-61663245D01*
X38250584Y-61665824D01*
X38070031Y-61820031D01*
X37915824Y-62000584D01*
X37913245Y-62004792D01*
X37913241Y-62004798D01*
X37801884Y-62186516D01*
X37791760Y-62203037D01*
X37789867Y-62207607D01*
X37789865Y-62207611D01*
X37702789Y-62417833D01*
X37700895Y-62422406D01*
X37685601Y-62486109D01*
X37654223Y-62616811D01*
X37645465Y-62653289D01*
X37626835Y-62890000D01*
X37645465Y-63126711D01*
X37646619Y-63131518D01*
X37646620Y-63131524D01*
X37665870Y-63211705D01*
X37700895Y-63357594D01*
X37702788Y-63362165D01*
X37702789Y-63362167D01*
X37789864Y-63572385D01*
X37791760Y-63576963D01*
X37794346Y-63581183D01*
X37913241Y-63775202D01*
X37913245Y-63775208D01*
X37915824Y-63779416D01*
X38070031Y-63959969D01*
X38250584Y-64114176D01*
X38254792Y-64116755D01*
X38254798Y-64116759D01*
X38416400Y-64215789D01*
X38453037Y-64238240D01*
X38457607Y-64240133D01*
X38457611Y-64240135D01*
X38618945Y-64306961D01*
X38672406Y-64329105D01*
X38711735Y-64338547D01*
X38857223Y-64373476D01*
X38918792Y-64408828D01*
X38951475Y-64471855D01*
X38944894Y-64542546D01*
X38921445Y-64580305D01*
X38900960Y-64603056D01*
X38805473Y-64768444D01*
X38746458Y-64950072D01*
X38745768Y-64956633D01*
X38745768Y-64956635D01*
X38740656Y-65005271D01*
X38726496Y-65140000D01*
X38727186Y-65146565D01*
X38740848Y-65276548D01*
X38746458Y-65329928D01*
X38805473Y-65511556D01*
X38808776Y-65517278D01*
X38808777Y-65517279D01*
X38826803Y-65548500D01*
X38900960Y-65676944D01*
X38921827Y-65700119D01*
X38952543Y-65764125D01*
X38943779Y-65834579D01*
X38898317Y-65889110D01*
X38857604Y-65906947D01*
X38677373Y-65950217D01*
X38667988Y-65953266D01*
X38457837Y-66040313D01*
X38449042Y-66044795D01*
X38281555Y-66147432D01*
X38272093Y-66157890D01*
X38275876Y-66166666D01*
X39127188Y-67017978D01*
X39141132Y-67025592D01*
X39142965Y-67025461D01*
X39149580Y-67021210D01*
X40001080Y-66169710D01*
X40007534Y-66157890D01*
X44772093Y-66157890D01*
X44775876Y-66166666D01*
X45627188Y-67017978D01*
X45641132Y-67025592D01*
X45642965Y-67025461D01*
X45649580Y-67021210D01*
X46501080Y-66169710D01*
X46507534Y-66157890D01*
X48522093Y-66157890D01*
X48525876Y-66166666D01*
X49377188Y-67017978D01*
X49391132Y-67025592D01*
X49392965Y-67025461D01*
X49399580Y-67021210D01*
X50251080Y-66169710D01*
X50257840Y-66157330D01*
X50252113Y-66149680D01*
X50080958Y-66044795D01*
X50072163Y-66040313D01*
X49862012Y-65953266D01*
X49852627Y-65950217D01*
X49631446Y-65897115D01*
X49621699Y-65895572D01*
X49394930Y-65877725D01*
X49385070Y-65877725D01*
X49158301Y-65895572D01*
X49148554Y-65897115D01*
X48927373Y-65950217D01*
X48917988Y-65953266D01*
X48707837Y-66040313D01*
X48699042Y-66044795D01*
X48531555Y-66147432D01*
X48522093Y-66157890D01*
X46507534Y-66157890D01*
X46507840Y-66157330D01*
X46502113Y-66149680D01*
X46330958Y-66044795D01*
X46322163Y-66040313D01*
X46112012Y-65953266D01*
X46102627Y-65950217D01*
X45881446Y-65897115D01*
X45871699Y-65895572D01*
X45644930Y-65877725D01*
X45635070Y-65877725D01*
X45408301Y-65895572D01*
X45398554Y-65897115D01*
X45177373Y-65950217D01*
X45167988Y-65953266D01*
X44957837Y-66040313D01*
X44949042Y-66044795D01*
X44781555Y-66147432D01*
X44772093Y-66157890D01*
X40007534Y-66157890D01*
X40007840Y-66157330D01*
X39997676Y-66143752D01*
X39972866Y-66077232D01*
X39987958Y-66007858D01*
X40038161Y-65957656D01*
X40047297Y-65953137D01*
X40090719Y-65933805D01*
X40090726Y-65933801D01*
X40096752Y-65931118D01*
X40102700Y-65926797D01*
X40244312Y-65823909D01*
X40251253Y-65818866D01*
X40255668Y-65813963D01*
X40260580Y-65809540D01*
X40261705Y-65810789D01*
X40315014Y-65777949D01*
X40348200Y-65773500D01*
X40561232Y-65773500D01*
X40572415Y-65774027D01*
X40579908Y-65775702D01*
X40587834Y-65775453D01*
X40587835Y-65775453D01*
X40647985Y-65773562D01*
X40651944Y-65773500D01*
X40679855Y-65773500D01*
X40683790Y-65773003D01*
X40683855Y-65772995D01*
X40695692Y-65772062D01*
X40727950Y-65771048D01*
X40731969Y-65770922D01*
X40739888Y-65770673D01*
X40759342Y-65765021D01*
X40778699Y-65761013D01*
X40790929Y-65759468D01*
X40790930Y-65759468D01*
X40798796Y-65758474D01*
X40806167Y-65755555D01*
X40806169Y-65755555D01*
X40839911Y-65742196D01*
X40851141Y-65738351D01*
X40885982Y-65728229D01*
X40885983Y-65728229D01*
X40893592Y-65726018D01*
X40900411Y-65721985D01*
X40900416Y-65721983D01*
X40911027Y-65715707D01*
X40928775Y-65707012D01*
X40947616Y-65699552D01*
X40957283Y-65692529D01*
X40983386Y-65673564D01*
X40993306Y-65667048D01*
X41024534Y-65648580D01*
X41024537Y-65648578D01*
X41031361Y-65644542D01*
X41045682Y-65630221D01*
X41060716Y-65617380D01*
X41070693Y-65610131D01*
X41077106Y-65605472D01*
X41105297Y-65571395D01*
X41113287Y-65562616D01*
X43914455Y-62761449D01*
X43976767Y-62727423D01*
X44047583Y-62732488D01*
X44104418Y-62775035D01*
X44129229Y-62841555D01*
X44129162Y-62860429D01*
X44126835Y-62890000D01*
X44145465Y-63126711D01*
X44146619Y-63131518D01*
X44146620Y-63131524D01*
X44165870Y-63211705D01*
X44200895Y-63357594D01*
X44202788Y-63362165D01*
X44202789Y-63362167D01*
X44289864Y-63572385D01*
X44291760Y-63576963D01*
X44294346Y-63581183D01*
X44413241Y-63775202D01*
X44413245Y-63775208D01*
X44415824Y-63779416D01*
X44570031Y-63959969D01*
X44750584Y-64114176D01*
X44754792Y-64116755D01*
X44754798Y-64116759D01*
X44916400Y-64215789D01*
X44953037Y-64238240D01*
X44957607Y-64240133D01*
X44957611Y-64240135D01*
X45118945Y-64306961D01*
X45172406Y-64329105D01*
X45252609Y-64348360D01*
X45398476Y-64383380D01*
X45398482Y-64383381D01*
X45403289Y-64384535D01*
X45611615Y-64400931D01*
X45630344Y-64402405D01*
X45640000Y-64403165D01*
X45649657Y-64402405D01*
X45668385Y-64400931D01*
X45876711Y-64384535D01*
X45881518Y-64383381D01*
X45881524Y-64383380D01*
X46009051Y-64352763D01*
X46089737Y-64333392D01*
X46160644Y-64336939D01*
X46218378Y-64378259D01*
X46244608Y-64444232D01*
X46244460Y-64469081D01*
X46236814Y-64541829D01*
X46226496Y-64640000D01*
X46227186Y-64646565D01*
X46242727Y-64794425D01*
X46246458Y-64829928D01*
X46305473Y-65011556D01*
X46400960Y-65176944D01*
X46405378Y-65181851D01*
X46405379Y-65181852D01*
X46524325Y-65313955D01*
X46528747Y-65318866D01*
X46683248Y-65431118D01*
X46689276Y-65433802D01*
X46689278Y-65433803D01*
X46849799Y-65505271D01*
X46857712Y-65508794D01*
X46951112Y-65528647D01*
X47038056Y-65547128D01*
X47038061Y-65547128D01*
X47044513Y-65548500D01*
X47235487Y-65548500D01*
X47241939Y-65547128D01*
X47241944Y-65547128D01*
X47328888Y-65528647D01*
X47422288Y-65508794D01*
X47430201Y-65505271D01*
X47590722Y-65433803D01*
X47590724Y-65433802D01*
X47596752Y-65431118D01*
X47751253Y-65318866D01*
X47755675Y-65313955D01*
X47874621Y-65181852D01*
X47874622Y-65181851D01*
X47879040Y-65176944D01*
X47974527Y-65011556D01*
X48033542Y-64829928D01*
X48037274Y-64794425D01*
X48052814Y-64646565D01*
X48053504Y-64640000D01*
X48043186Y-64541829D01*
X48034232Y-64456635D01*
X48034232Y-64456633D01*
X48033542Y-64450072D01*
X47974527Y-64268444D01*
X47915381Y-64166000D01*
X47898500Y-64103001D01*
X47898500Y-63789946D01*
X47918502Y-63721825D01*
X47972158Y-63675332D01*
X48042432Y-63665228D01*
X48107012Y-63694722D01*
X48131933Y-63724110D01*
X48165824Y-63779416D01*
X48320031Y-63959969D01*
X48500584Y-64114176D01*
X48504792Y-64116755D01*
X48504798Y-64116759D01*
X48666400Y-64215789D01*
X48703037Y-64238240D01*
X48707607Y-64240133D01*
X48707611Y-64240135D01*
X48868945Y-64306961D01*
X48922406Y-64329105D01*
X49002609Y-64348360D01*
X49148476Y-64383380D01*
X49148482Y-64383381D01*
X49153289Y-64384535D01*
X49361615Y-64400931D01*
X49380344Y-64402405D01*
X49390000Y-64403165D01*
X49399657Y-64402405D01*
X49418385Y-64400931D01*
X49626711Y-64384535D01*
X49631518Y-64383381D01*
X49631524Y-64383380D01*
X49777391Y-64348360D01*
X49857594Y-64329105D01*
X49911055Y-64306961D01*
X50072389Y-64240135D01*
X50072393Y-64240133D01*
X50076963Y-64238240D01*
X50113600Y-64215789D01*
X50275202Y-64116759D01*
X50275208Y-64116755D01*
X50279416Y-64114176D01*
X50459969Y-63959969D01*
X50614176Y-63779416D01*
X50616755Y-63775208D01*
X50616759Y-63775202D01*
X50734133Y-63583665D01*
X50786781Y-63536034D01*
X50841566Y-63523500D01*
X54438434Y-63523500D01*
X54506555Y-63543502D01*
X54545867Y-63583665D01*
X54663241Y-63775202D01*
X54663245Y-63775208D01*
X54665824Y-63779416D01*
X54820031Y-63959969D01*
X55000584Y-64114176D01*
X55004792Y-64116755D01*
X55004798Y-64116759D01*
X55166400Y-64215789D01*
X55203037Y-64238240D01*
X55207607Y-64240133D01*
X55207611Y-64240135D01*
X55368945Y-64306961D01*
X55422406Y-64329105D01*
X55502609Y-64348360D01*
X55648476Y-64383380D01*
X55648482Y-64383381D01*
X55653289Y-64384535D01*
X55861615Y-64400931D01*
X55880344Y-64402405D01*
X55890000Y-64403165D01*
X55899657Y-64402405D01*
X55918385Y-64400931D01*
X56126711Y-64384535D01*
X56131518Y-64383381D01*
X56131524Y-64383380D01*
X56324963Y-64336939D01*
X56333039Y-64335000D01*
X56403947Y-64338547D01*
X56461681Y-64379867D01*
X56487911Y-64445840D01*
X56474309Y-64515522D01*
X56456089Y-64541829D01*
X56417473Y-64584717D01*
X56400960Y-64603056D01*
X56305473Y-64768444D01*
X56246458Y-64950072D01*
X56245768Y-64956633D01*
X56245768Y-64956635D01*
X56240656Y-65005271D01*
X56226496Y-65140000D01*
X56227186Y-65146565D01*
X56240848Y-65276548D01*
X56246458Y-65329928D01*
X56305473Y-65511556D01*
X56308776Y-65517278D01*
X56308777Y-65517279D01*
X56326803Y-65548500D01*
X56400960Y-65676944D01*
X56456251Y-65738351D01*
X56456680Y-65738827D01*
X56487397Y-65802835D01*
X56478632Y-65873288D01*
X56433169Y-65927819D01*
X56365441Y-65949114D01*
X56333629Y-65945656D01*
X56131446Y-65897115D01*
X56121699Y-65895572D01*
X55894930Y-65877725D01*
X55885070Y-65877725D01*
X55658301Y-65895572D01*
X55648554Y-65897115D01*
X55427373Y-65950217D01*
X55417988Y-65953266D01*
X55207837Y-66040313D01*
X55199042Y-66044795D01*
X55031555Y-66147432D01*
X55022093Y-66157890D01*
X55025876Y-66166666D01*
X55877188Y-67017978D01*
X55891132Y-67025592D01*
X55892965Y-67025461D01*
X55899580Y-67021210D01*
X56751080Y-66169710D01*
X56757534Y-66157890D01*
X58772093Y-66157890D01*
X58775876Y-66166666D01*
X59627188Y-67017978D01*
X59641132Y-67025592D01*
X59642965Y-67025461D01*
X59649580Y-67021210D01*
X60501080Y-66169710D01*
X60507840Y-66157330D01*
X60502113Y-66149680D01*
X60330958Y-66044795D01*
X60322163Y-66040313D01*
X60112012Y-65953266D01*
X60102627Y-65950217D01*
X59881446Y-65897115D01*
X59871699Y-65895572D01*
X59644930Y-65877725D01*
X59635070Y-65877725D01*
X59408301Y-65895572D01*
X59398554Y-65897115D01*
X59177373Y-65950217D01*
X59167988Y-65953266D01*
X58957837Y-66040313D01*
X58949042Y-66044795D01*
X58781555Y-66147432D01*
X58772093Y-66157890D01*
X56757534Y-66157890D01*
X56758694Y-66155766D01*
X56758440Y-66152212D01*
X56773531Y-66082837D01*
X56823733Y-66032635D01*
X56893107Y-66017543D01*
X56910316Y-66019976D01*
X57038047Y-66047127D01*
X57038060Y-66047128D01*
X57044513Y-66048500D01*
X57235487Y-66048500D01*
X57241939Y-66047128D01*
X57241944Y-66047128D01*
X57329697Y-66028475D01*
X57422288Y-66008794D01*
X57468166Y-65988368D01*
X57590722Y-65933803D01*
X57590724Y-65933802D01*
X57596752Y-65931118D01*
X57602700Y-65926797D01*
X57707246Y-65850839D01*
X57751253Y-65818866D01*
X57792548Y-65773003D01*
X57874621Y-65681852D01*
X57874625Y-65681847D01*
X57879040Y-65676944D01*
X57953197Y-65548500D01*
X57971223Y-65517279D01*
X57971224Y-65517278D01*
X57974527Y-65511556D01*
X58033542Y-65329928D01*
X58039153Y-65276548D01*
X58052814Y-65146565D01*
X58053504Y-65140000D01*
X58039344Y-65005271D01*
X58034232Y-64956635D01*
X58034232Y-64956633D01*
X58033542Y-64950072D01*
X57974527Y-64768444D01*
X57879040Y-64603056D01*
X57805863Y-64521785D01*
X57775147Y-64457779D01*
X57773500Y-64437476D01*
X57773500Y-64218767D01*
X57774027Y-64207584D01*
X57775702Y-64200091D01*
X57773562Y-64132000D01*
X57773500Y-64128043D01*
X57773500Y-64100144D01*
X57772996Y-64096153D01*
X57772063Y-64084311D01*
X57770923Y-64048036D01*
X57770674Y-64040111D01*
X57768462Y-64032497D01*
X57768461Y-64032492D01*
X57765023Y-64020659D01*
X57761012Y-64001295D01*
X57759467Y-63989064D01*
X57758474Y-63981203D01*
X57755557Y-63973836D01*
X57755556Y-63973831D01*
X57742198Y-63940092D01*
X57738354Y-63928865D01*
X57728230Y-63894022D01*
X57726018Y-63886407D01*
X57715707Y-63868972D01*
X57707012Y-63851224D01*
X57699552Y-63832383D01*
X57673564Y-63796613D01*
X57667048Y-63786693D01*
X57648580Y-63755465D01*
X57648578Y-63755462D01*
X57644542Y-63748638D01*
X57630221Y-63734317D01*
X57617380Y-63719283D01*
X57610131Y-63709306D01*
X57605472Y-63702893D01*
X57571395Y-63674702D01*
X57562616Y-63666712D01*
X57364364Y-63468460D01*
X57330338Y-63406148D01*
X57330940Y-63349951D01*
X57383380Y-63131524D01*
X57383381Y-63131518D01*
X57384535Y-63126711D01*
X57403165Y-62890000D01*
X57384535Y-62653289D01*
X57375778Y-62616811D01*
X57344399Y-62486109D01*
X57329105Y-62422406D01*
X57308726Y-62373206D01*
X57301137Y-62302618D01*
X57332916Y-62239131D01*
X57393974Y-62202903D01*
X57425135Y-62198989D01*
X58104865Y-62198989D01*
X58172986Y-62218991D01*
X58219479Y-62272647D01*
X58229583Y-62342921D01*
X58221274Y-62373205D01*
X58200895Y-62422406D01*
X58185601Y-62486109D01*
X58154223Y-62616811D01*
X58145465Y-62653289D01*
X58126835Y-62890000D01*
X58145465Y-63126711D01*
X58146619Y-63131518D01*
X58146620Y-63131524D01*
X58165870Y-63211705D01*
X58200895Y-63357594D01*
X58202788Y-63362165D01*
X58202789Y-63362167D01*
X58289864Y-63572385D01*
X58291760Y-63576963D01*
X58294346Y-63581183D01*
X58413241Y-63775202D01*
X58413245Y-63775208D01*
X58415824Y-63779416D01*
X58570031Y-63959969D01*
X58750584Y-64114176D01*
X58754792Y-64116755D01*
X58754798Y-64116759D01*
X58916400Y-64215789D01*
X58953037Y-64238240D01*
X58957607Y-64240133D01*
X58957611Y-64240135D01*
X59118945Y-64306961D01*
X59172406Y-64329105D01*
X59252609Y-64348360D01*
X59398476Y-64383380D01*
X59398482Y-64383381D01*
X59403289Y-64384535D01*
X59611615Y-64400931D01*
X59630344Y-64402405D01*
X59640000Y-64403165D01*
X59649657Y-64402405D01*
X59668385Y-64400931D01*
X59876711Y-64384535D01*
X59881518Y-64383381D01*
X59881524Y-64383380D01*
X60027391Y-64348360D01*
X60107594Y-64329105D01*
X60161055Y-64306961D01*
X60322389Y-64240135D01*
X60322393Y-64240133D01*
X60326963Y-64238240D01*
X60363600Y-64215789D01*
X60525202Y-64116759D01*
X60525208Y-64116755D01*
X60529416Y-64114176D01*
X60709969Y-63959969D01*
X60864176Y-63779416D01*
X60866755Y-63775208D01*
X60866759Y-63775202D01*
X60984133Y-63583665D01*
X61036781Y-63536034D01*
X61091566Y-63523500D01*
X64306406Y-63523500D01*
X64374527Y-63543502D01*
X64421020Y-63597158D01*
X64431124Y-63667432D01*
X64401630Y-63732012D01*
X64395501Y-63738595D01*
X62883560Y-65250536D01*
X62845714Y-65276548D01*
X62689278Y-65346197D01*
X62689276Y-65346198D01*
X62683248Y-65348882D01*
X62677907Y-65352762D01*
X62677906Y-65352763D01*
X62666188Y-65361277D01*
X62528747Y-65461134D01*
X62524326Y-65466044D01*
X62524325Y-65466045D01*
X62429468Y-65571395D01*
X62400960Y-65603056D01*
X62355470Y-65681847D01*
X62309046Y-65762256D01*
X62305473Y-65768444D01*
X62246458Y-65950072D01*
X62245768Y-65956633D01*
X62245768Y-65956635D01*
X62233827Y-66070249D01*
X62226496Y-66140000D01*
X62227186Y-66146565D01*
X62241306Y-66280906D01*
X62246458Y-66329928D01*
X62305473Y-66511556D01*
X62308776Y-66517278D01*
X62308777Y-66517279D01*
X62311595Y-66522160D01*
X62400960Y-66676944D01*
X62405378Y-66681851D01*
X62405379Y-66681852D01*
X62504239Y-66791647D01*
X62528747Y-66818866D01*
X62683248Y-66931118D01*
X62689276Y-66933802D01*
X62689278Y-66933803D01*
X62835442Y-66998879D01*
X62857712Y-67008794D01*
X62936124Y-67025461D01*
X63038056Y-67047128D01*
X63038061Y-67047128D01*
X63044513Y-67048500D01*
X63235487Y-67048500D01*
X63241939Y-67047128D01*
X63241944Y-67047128D01*
X63343876Y-67025461D01*
X63422288Y-67008794D01*
X63444558Y-66998879D01*
X63590722Y-66933803D01*
X63590724Y-66933802D01*
X63596752Y-66931118D01*
X63751253Y-66818866D01*
X63775761Y-66791647D01*
X63874621Y-66681852D01*
X63874622Y-66681851D01*
X63879040Y-66676944D01*
X63968405Y-66522160D01*
X63971223Y-66517279D01*
X63971224Y-66517278D01*
X63974527Y-66511556D01*
X64033542Y-66329928D01*
X64038695Y-66280906D01*
X64051624Y-66157890D01*
X65272093Y-66157890D01*
X65275876Y-66166666D01*
X66127188Y-67017978D01*
X66141132Y-67025592D01*
X66142965Y-67025461D01*
X66149580Y-67021210D01*
X67001080Y-66169710D01*
X67007840Y-66157330D01*
X67002113Y-66149680D01*
X66830958Y-66044795D01*
X66822163Y-66040313D01*
X66612012Y-65953266D01*
X66602627Y-65950217D01*
X66381446Y-65897115D01*
X66371699Y-65895572D01*
X66144930Y-65877725D01*
X66135070Y-65877725D01*
X65908301Y-65895572D01*
X65898554Y-65897115D01*
X65677373Y-65950217D01*
X65667988Y-65953266D01*
X65457837Y-66040313D01*
X65449042Y-66044795D01*
X65281555Y-66147432D01*
X65272093Y-66157890D01*
X64051624Y-66157890D01*
X64052814Y-66146565D01*
X64053504Y-66140000D01*
X64034335Y-65957619D01*
X64047107Y-65887781D01*
X64070550Y-65855354D01*
X65561540Y-64364364D01*
X65623852Y-64330338D01*
X65680049Y-64330940D01*
X65898476Y-64383380D01*
X65898482Y-64383381D01*
X65903289Y-64384535D01*
X66111615Y-64400931D01*
X66130344Y-64402405D01*
X66140000Y-64403165D01*
X66149657Y-64402405D01*
X66168385Y-64400931D01*
X66376711Y-64384535D01*
X66381518Y-64383381D01*
X66381524Y-64383380D01*
X66527391Y-64348360D01*
X66607594Y-64329105D01*
X66661055Y-64306961D01*
X66822389Y-64240135D01*
X66822393Y-64240133D01*
X66826963Y-64238240D01*
X66863600Y-64215789D01*
X67025202Y-64116759D01*
X67025208Y-64116755D01*
X67029416Y-64114176D01*
X67209969Y-63959969D01*
X67364176Y-63779416D01*
X67366755Y-63775208D01*
X67366759Y-63775202D01*
X67485654Y-63581183D01*
X67488240Y-63576963D01*
X67490135Y-63572389D01*
X67490137Y-63572385D01*
X67508619Y-63527764D01*
X67553167Y-63472482D01*
X67620530Y-63450061D01*
X67689321Y-63467619D01*
X67714123Y-63486886D01*
X68295084Y-64067847D01*
X68329110Y-64130159D01*
X68331989Y-64156942D01*
X68331989Y-65941722D01*
X68331462Y-65952905D01*
X68329787Y-65960398D01*
X68330036Y-65968324D01*
X68330036Y-65968325D01*
X68331927Y-66028475D01*
X68331989Y-66032434D01*
X68331989Y-66060345D01*
X68332486Y-66064279D01*
X68332486Y-66064280D01*
X68332494Y-66064345D01*
X68333427Y-66076182D01*
X68334816Y-66120378D01*
X68338610Y-66133436D01*
X68340467Y-66139828D01*
X68344476Y-66159189D01*
X68347015Y-66179286D01*
X68349934Y-66186657D01*
X68349934Y-66186659D01*
X68363293Y-66220401D01*
X68367138Y-66231631D01*
X68379471Y-66274082D01*
X68383504Y-66280901D01*
X68383506Y-66280906D01*
X68389782Y-66291517D01*
X68398477Y-66309265D01*
X68405937Y-66328106D01*
X68410599Y-66334522D01*
X68410599Y-66334523D01*
X68431925Y-66363876D01*
X68438441Y-66373796D01*
X68446348Y-66387165D01*
X68460947Y-66411851D01*
X68475268Y-66426172D01*
X68488108Y-66441205D01*
X68500017Y-66457596D01*
X68506123Y-66462647D01*
X68534094Y-66485787D01*
X68542873Y-66493777D01*
X68789778Y-66740682D01*
X68823804Y-66802994D01*
X68822100Y-66863448D01*
X68800989Y-66939570D01*
X68800441Y-66944700D01*
X68800440Y-66944704D01*
X68792610Y-67017978D01*
X68777251Y-67161695D01*
X68777548Y-67166848D01*
X68777548Y-67166851D01*
X68787889Y-67346197D01*
X68790110Y-67384715D01*
X68791247Y-67389761D01*
X68791248Y-67389767D01*
X68791556Y-67391132D01*
X68839222Y-67602639D01*
X68923266Y-67809616D01*
X68950686Y-67854362D01*
X69013737Y-67957251D01*
X69039987Y-68000088D01*
X69186250Y-68168938D01*
X69358126Y-68311632D01*
X69551000Y-68424338D01*
X69759692Y-68504030D01*
X69764760Y-68505061D01*
X69764763Y-68505062D01*
X69859862Y-68524410D01*
X69978597Y-68548567D01*
X69983772Y-68548757D01*
X69983774Y-68548757D01*
X70196673Y-68556564D01*
X70196677Y-68556564D01*
X70201837Y-68556753D01*
X70206957Y-68556097D01*
X70206959Y-68556097D01*
X70418288Y-68529025D01*
X70418289Y-68529025D01*
X70423416Y-68528368D01*
X70428366Y-68526883D01*
X70632429Y-68465661D01*
X70632434Y-68465659D01*
X70637384Y-68464174D01*
X70837994Y-68365896D01*
X71019860Y-68236173D01*
X71178096Y-68078489D01*
X71237594Y-67995689D01*
X71308453Y-67897077D01*
X71309640Y-67897930D01*
X71356960Y-67854362D01*
X71426897Y-67842145D01*
X71492338Y-67869678D01*
X71520166Y-67901511D01*
X71577694Y-67995388D01*
X71583777Y-68003699D01*
X71723213Y-68164667D01*
X71730580Y-68171883D01*
X71894434Y-68307916D01*
X71902881Y-68313831D01*
X72086756Y-68421279D01*
X72096042Y-68425729D01*
X72295001Y-68501703D01*
X72304899Y-68504579D01*
X72408250Y-68525606D01*
X72422299Y-68524410D01*
X72426000Y-68514065D01*
X72426000Y-68513517D01*
X72934000Y-68513517D01*
X72938064Y-68527359D01*
X72951478Y-68529393D01*
X72958184Y-68528534D01*
X72968262Y-68526392D01*
X73172255Y-68465191D01*
X73181842Y-68461433D01*
X73373095Y-68367739D01*
X73381945Y-68362464D01*
X73555328Y-68238792D01*
X73563200Y-68232139D01*
X73714052Y-68081812D01*
X73720730Y-68073965D01*
X73845003Y-67901020D01*
X73850313Y-67892183D01*
X73944670Y-67701267D01*
X73948469Y-67691672D01*
X74010377Y-67487910D01*
X74012555Y-67477837D01*
X74013986Y-67466962D01*
X74011775Y-67452778D01*
X73998617Y-67449000D01*
X72952115Y-67449000D01*
X72936876Y-67453475D01*
X72935671Y-67454865D01*
X72934000Y-67462548D01*
X72934000Y-68513517D01*
X72426000Y-68513517D01*
X72426000Y-67067000D01*
X72446002Y-66998879D01*
X72499658Y-66952386D01*
X72552000Y-66941000D01*
X73998344Y-66941000D01*
X74011875Y-66937027D01*
X74013180Y-66927947D01*
X73971214Y-66760875D01*
X73967894Y-66751124D01*
X73882972Y-66555814D01*
X73878105Y-66546739D01*
X73762426Y-66367926D01*
X73756136Y-66359757D01*
X73612806Y-66202240D01*
X73605273Y-66195215D01*
X73438139Y-66063222D01*
X73429556Y-66057520D01*
X73392602Y-66037120D01*
X73342631Y-65986687D01*
X73327859Y-65917245D01*
X73352975Y-65850839D01*
X73380327Y-65824232D01*
X73403797Y-65807491D01*
X73559860Y-65696173D01*
X73579157Y-65676944D01*
X73647565Y-65608774D01*
X73718096Y-65538489D01*
X73741966Y-65505271D01*
X73845435Y-65361277D01*
X73848453Y-65357077D01*
X73865115Y-65323365D01*
X73945136Y-65161453D01*
X73945137Y-65161451D01*
X73947430Y-65156811D01*
X74012370Y-64943069D01*
X74041529Y-64721590D01*
X74043156Y-64655000D01*
X74024852Y-64432361D01*
X73970431Y-64215702D01*
X73881354Y-64010840D01*
X73796439Y-63879581D01*
X73762822Y-63827617D01*
X73762820Y-63827614D01*
X73760014Y-63823277D01*
X73609670Y-63658051D01*
X73605619Y-63654852D01*
X73605615Y-63654848D01*
X73438414Y-63522800D01*
X73438410Y-63522798D01*
X73434359Y-63519598D01*
X73393053Y-63496796D01*
X73343084Y-63446364D01*
X73328312Y-63376921D01*
X73353428Y-63310516D01*
X73380780Y-63283909D01*
X73424603Y-63252650D01*
X73559860Y-63156173D01*
X73594377Y-63121777D01*
X73714435Y-63002137D01*
X73718096Y-62998489D01*
X73848453Y-62817077D01*
X73869232Y-62775035D01*
X73945136Y-62621453D01*
X73945137Y-62621451D01*
X73947430Y-62616811D01*
X74012370Y-62403069D01*
X74041529Y-62181590D01*
X74041611Y-62178240D01*
X74043074Y-62118365D01*
X74043074Y-62118361D01*
X74043156Y-62115000D01*
X74024852Y-61892361D01*
X73970431Y-61675702D01*
X73881354Y-61470840D01*
X73830923Y-61392886D01*
X73762822Y-61287617D01*
X73762820Y-61287614D01*
X73760014Y-61283277D01*
X73609670Y-61118051D01*
X73605619Y-61114852D01*
X73605615Y-61114848D01*
X73438414Y-60982800D01*
X73438410Y-60982798D01*
X73434359Y-60979598D01*
X73406629Y-60964290D01*
X73370710Y-60944462D01*
X73238789Y-60871638D01*
X73233920Y-60869914D01*
X73233916Y-60869912D01*
X73033087Y-60798795D01*
X73033083Y-60798794D01*
X73028212Y-60797069D01*
X73023119Y-60796162D01*
X73023116Y-60796161D01*
X72813373Y-60758800D01*
X72813367Y-60758799D01*
X72808284Y-60757894D01*
X72734452Y-60756992D01*
X72590081Y-60755228D01*
X72590079Y-60755228D01*
X72584911Y-60755165D01*
X72364091Y-60788955D01*
X72151756Y-60858357D01*
X71953607Y-60961507D01*
X71949474Y-60964610D01*
X71949471Y-60964612D01*
X71779100Y-61092530D01*
X71774965Y-61095635D01*
X71697265Y-61176944D01*
X71694283Y-61180064D01*
X71632759Y-61215494D01*
X71561846Y-61212037D01*
X71504060Y-61170791D01*
X71485207Y-61137243D01*
X71443767Y-61026703D01*
X71440615Y-61018295D01*
X71353261Y-60901739D01*
X71236705Y-60814385D01*
X71100316Y-60763255D01*
X71038134Y-60756500D01*
X69241866Y-60756500D01*
X69179684Y-60763255D01*
X69043295Y-60814385D01*
X68926739Y-60901739D01*
X68839385Y-61018295D01*
X68788255Y-61154684D01*
X68781500Y-61216866D01*
X68781500Y-62458263D01*
X68761498Y-62526384D01*
X68707842Y-62572877D01*
X68637568Y-62582981D01*
X68572988Y-62553487D01*
X68566405Y-62547358D01*
X67983035Y-61963987D01*
X67192284Y-61173236D01*
X67184744Y-61164950D01*
X67180632Y-61158471D01*
X67130980Y-61111845D01*
X67128139Y-61109091D01*
X67108402Y-61089354D01*
X67105205Y-61086874D01*
X67096183Y-61079169D01*
X67069732Y-61054330D01*
X67063953Y-61048903D01*
X67057007Y-61045084D01*
X67057004Y-61045082D01*
X67046198Y-61039141D01*
X67029679Y-61028290D01*
X67021826Y-61022199D01*
X67013673Y-61015875D01*
X67006404Y-61012730D01*
X67006400Y-61012727D01*
X66973095Y-60998315D01*
X66962445Y-60993098D01*
X66923692Y-60971794D01*
X66904069Y-60966756D01*
X66885366Y-60960352D01*
X66874052Y-60955456D01*
X66874051Y-60955456D01*
X66866777Y-60952308D01*
X66858954Y-60951069D01*
X66858944Y-60951066D01*
X66823108Y-60945390D01*
X66811488Y-60942984D01*
X66776343Y-60933961D01*
X66776342Y-60933961D01*
X66768662Y-60931989D01*
X66748408Y-60931989D01*
X66728697Y-60930438D01*
X66716518Y-60928509D01*
X66708689Y-60927269D01*
X66667972Y-60931118D01*
X66664671Y-60931430D01*
X66652813Y-60931989D01*
X54190083Y-60931989D01*
X54121962Y-60911987D01*
X54100988Y-60895084D01*
X52364193Y-59158289D01*
X52330167Y-59095977D01*
X52335232Y-59025162D01*
X52377779Y-58968326D01*
X52442306Y-58943674D01*
X52552595Y-58934024D01*
X52552601Y-58934023D01*
X52558087Y-58933543D01*
X52563400Y-58932119D01*
X52563402Y-58932119D01*
X52773933Y-58875707D01*
X52773935Y-58875706D01*
X52779243Y-58874284D01*
X52784225Y-58871961D01*
X52981762Y-58779849D01*
X52981767Y-58779846D01*
X52986749Y-58777523D01*
X53157127Y-58658223D01*
X53169789Y-58649357D01*
X53169792Y-58649355D01*
X53174300Y-58646198D01*
X53336198Y-58484300D01*
X53348981Y-58466045D01*
X53394098Y-58401611D01*
X53467523Y-58296749D01*
X53469846Y-58291767D01*
X53469849Y-58291762D01*
X53561961Y-58094225D01*
X53561961Y-58094224D01*
X53564284Y-58089243D01*
X53623543Y-57868087D01*
X53643498Y-57640000D01*
X58636502Y-57640000D01*
X58656457Y-57868087D01*
X58715716Y-58089243D01*
X58718039Y-58094224D01*
X58718039Y-58094225D01*
X58810151Y-58291762D01*
X58810154Y-58291767D01*
X58812477Y-58296749D01*
X58885902Y-58401611D01*
X58931020Y-58466045D01*
X58943802Y-58484300D01*
X59105700Y-58646198D01*
X59110208Y-58649355D01*
X59110211Y-58649357D01*
X59122873Y-58658223D01*
X59293251Y-58777523D01*
X59298233Y-58779846D01*
X59298238Y-58779849D01*
X59495775Y-58871961D01*
X59500757Y-58874284D01*
X59506065Y-58875706D01*
X59506067Y-58875707D01*
X59716598Y-58932119D01*
X59716600Y-58932119D01*
X59721913Y-58933543D01*
X59950000Y-58953498D01*
X60178087Y-58933543D01*
X60183400Y-58932119D01*
X60183402Y-58932119D01*
X60393933Y-58875707D01*
X60393935Y-58875706D01*
X60399243Y-58874284D01*
X60404225Y-58871961D01*
X60601762Y-58779849D01*
X60601767Y-58779846D01*
X60606749Y-58777523D01*
X60777127Y-58658223D01*
X60789789Y-58649357D01*
X60789792Y-58649355D01*
X60794300Y-58646198D01*
X60956198Y-58484300D01*
X60968981Y-58466045D01*
X61014098Y-58401611D01*
X61087523Y-58296749D01*
X61089846Y-58291767D01*
X61089849Y-58291762D01*
X61181961Y-58094225D01*
X61181961Y-58094224D01*
X61184284Y-58089243D01*
X61243543Y-57868087D01*
X61263498Y-57640000D01*
X67826502Y-57640000D01*
X67846457Y-57868087D01*
X67905716Y-58089243D01*
X67908039Y-58094224D01*
X67908039Y-58094225D01*
X68000151Y-58291762D01*
X68000154Y-58291767D01*
X68002477Y-58296749D01*
X68075902Y-58401611D01*
X68121020Y-58466045D01*
X68133802Y-58484300D01*
X68295700Y-58646198D01*
X68300208Y-58649355D01*
X68300211Y-58649357D01*
X68312873Y-58658223D01*
X68483251Y-58777523D01*
X68488233Y-58779846D01*
X68488238Y-58779849D01*
X68685775Y-58871961D01*
X68690757Y-58874284D01*
X68696065Y-58875706D01*
X68696067Y-58875707D01*
X68906598Y-58932119D01*
X68906600Y-58932119D01*
X68911913Y-58933543D01*
X69140000Y-58953498D01*
X69368087Y-58933543D01*
X69373400Y-58932119D01*
X69373402Y-58932119D01*
X69583933Y-58875707D01*
X69583935Y-58875706D01*
X69589243Y-58874284D01*
X69594225Y-58871961D01*
X69791762Y-58779849D01*
X69791767Y-58779846D01*
X69796749Y-58777523D01*
X69967127Y-58658223D01*
X69979789Y-58649357D01*
X69979792Y-58649355D01*
X69984300Y-58646198D01*
X70146198Y-58484300D01*
X70158981Y-58466045D01*
X70204098Y-58401611D01*
X70277523Y-58296749D01*
X70279846Y-58291767D01*
X70279849Y-58291762D01*
X70371961Y-58094225D01*
X70371961Y-58094224D01*
X70374284Y-58089243D01*
X70433543Y-57868087D01*
X70453498Y-57640000D01*
X70433543Y-57411913D01*
X70429445Y-57396620D01*
X70375707Y-57196067D01*
X70375706Y-57196065D01*
X70374284Y-57190757D01*
X70330000Y-57095789D01*
X70279849Y-56988238D01*
X70279846Y-56988233D01*
X70277523Y-56983251D01*
X70178985Y-56842524D01*
X70149357Y-56800211D01*
X70149355Y-56800208D01*
X70146198Y-56795700D01*
X69984300Y-56633802D01*
X69979792Y-56630645D01*
X69979789Y-56630643D01*
X69860517Y-56547128D01*
X69796749Y-56502477D01*
X69791767Y-56500154D01*
X69791762Y-56500151D01*
X69594225Y-56408039D01*
X69594224Y-56408039D01*
X69589243Y-56405716D01*
X69583935Y-56404294D01*
X69583933Y-56404293D01*
X69373402Y-56347881D01*
X69373400Y-56347881D01*
X69368087Y-56346457D01*
X69140000Y-56326502D01*
X68911913Y-56346457D01*
X68906600Y-56347881D01*
X68906598Y-56347881D01*
X68696067Y-56404293D01*
X68696065Y-56404294D01*
X68690757Y-56405716D01*
X68685776Y-56408039D01*
X68685775Y-56408039D01*
X68488238Y-56500151D01*
X68488233Y-56500154D01*
X68483251Y-56502477D01*
X68419483Y-56547128D01*
X68300211Y-56630643D01*
X68300208Y-56630645D01*
X68295700Y-56633802D01*
X68133802Y-56795700D01*
X68130645Y-56800208D01*
X68130643Y-56800211D01*
X68101015Y-56842524D01*
X68002477Y-56983251D01*
X68000154Y-56988233D01*
X68000151Y-56988238D01*
X67950000Y-57095789D01*
X67905716Y-57190757D01*
X67904294Y-57196065D01*
X67904293Y-57196067D01*
X67850555Y-57396620D01*
X67846457Y-57411913D01*
X67826502Y-57640000D01*
X61263498Y-57640000D01*
X61243543Y-57411913D01*
X61239445Y-57396620D01*
X61185707Y-57196067D01*
X61185706Y-57196065D01*
X61184284Y-57190757D01*
X61140000Y-57095789D01*
X61089849Y-56988238D01*
X61089846Y-56988233D01*
X61087523Y-56983251D01*
X60988985Y-56842524D01*
X60959357Y-56800211D01*
X60959355Y-56800208D01*
X60956198Y-56795700D01*
X60794300Y-56633802D01*
X60789792Y-56630645D01*
X60789789Y-56630643D01*
X60670517Y-56547128D01*
X60606749Y-56502477D01*
X60601767Y-56500154D01*
X60601762Y-56500151D01*
X60404225Y-56408039D01*
X60404224Y-56408039D01*
X60399243Y-56405716D01*
X60393935Y-56404294D01*
X60393933Y-56404293D01*
X60183402Y-56347881D01*
X60183400Y-56347881D01*
X60178087Y-56346457D01*
X59950000Y-56326502D01*
X59721913Y-56346457D01*
X59716600Y-56347881D01*
X59716598Y-56347881D01*
X59506067Y-56404293D01*
X59506065Y-56404294D01*
X59500757Y-56405716D01*
X59495776Y-56408039D01*
X59495775Y-56408039D01*
X59298238Y-56500151D01*
X59298233Y-56500154D01*
X59293251Y-56502477D01*
X59229483Y-56547128D01*
X59110211Y-56630643D01*
X59110208Y-56630645D01*
X59105700Y-56633802D01*
X58943802Y-56795700D01*
X58940645Y-56800208D01*
X58940643Y-56800211D01*
X58911015Y-56842524D01*
X58812477Y-56983251D01*
X58810154Y-56988233D01*
X58810151Y-56988238D01*
X58760000Y-57095789D01*
X58715716Y-57190757D01*
X58714294Y-57196065D01*
X58714293Y-57196067D01*
X58660555Y-57396620D01*
X58656457Y-57411913D01*
X58636502Y-57640000D01*
X53643498Y-57640000D01*
X53623543Y-57411913D01*
X53619445Y-57396620D01*
X53565707Y-57196067D01*
X53565706Y-57196065D01*
X53564284Y-57190757D01*
X53520000Y-57095789D01*
X53469849Y-56988238D01*
X53469846Y-56988233D01*
X53467523Y-56983251D01*
X53368985Y-56842524D01*
X53339357Y-56800211D01*
X53339355Y-56800208D01*
X53336198Y-56795700D01*
X53174300Y-56633802D01*
X53169792Y-56630645D01*
X53169789Y-56630643D01*
X53050517Y-56547128D01*
X52986749Y-56502477D01*
X52981767Y-56500154D01*
X52981762Y-56500151D01*
X52784225Y-56408039D01*
X52784224Y-56408039D01*
X52779243Y-56405716D01*
X52773935Y-56404294D01*
X52773933Y-56404293D01*
X52563402Y-56347881D01*
X52563400Y-56347881D01*
X52558087Y-56346457D01*
X52330000Y-56326502D01*
X52101913Y-56346457D01*
X52096600Y-56347881D01*
X52096598Y-56347881D01*
X51886067Y-56404293D01*
X51886065Y-56404294D01*
X51880757Y-56405716D01*
X51875776Y-56408039D01*
X51875775Y-56408039D01*
X51678238Y-56500151D01*
X51678233Y-56500154D01*
X51673251Y-56502477D01*
X51609483Y-56547128D01*
X51490211Y-56630643D01*
X51490208Y-56630645D01*
X51485700Y-56633802D01*
X51323802Y-56795700D01*
X51320645Y-56800208D01*
X51320643Y-56800211D01*
X51243213Y-56910793D01*
X51187756Y-56955121D01*
X51117137Y-56962430D01*
X51053776Y-56930399D01*
X51036787Y-56910793D01*
X50959357Y-56800211D01*
X50959355Y-56800208D01*
X50956198Y-56795700D01*
X50794300Y-56633802D01*
X50789792Y-56630645D01*
X50789789Y-56630643D01*
X50670517Y-56547128D01*
X50606749Y-56502477D01*
X50474316Y-56440723D01*
X50421031Y-56393806D01*
X50401570Y-56325529D01*
X50422112Y-56257569D01*
X50438471Y-56237433D01*
X51532253Y-55143651D01*
X51540539Y-55136111D01*
X51547018Y-55131999D01*
X51593644Y-55082347D01*
X51596398Y-55079506D01*
X51616135Y-55059769D01*
X51618615Y-55056572D01*
X51626320Y-55047550D01*
X51651159Y-55021099D01*
X51656586Y-55015320D01*
X51660405Y-55008374D01*
X51660407Y-55008371D01*
X51666348Y-54997565D01*
X51677199Y-54981046D01*
X51684758Y-54971300D01*
X51689614Y-54965040D01*
X51692759Y-54957771D01*
X51692762Y-54957767D01*
X51707174Y-54924462D01*
X51712391Y-54913812D01*
X51733695Y-54875059D01*
X51738733Y-54855436D01*
X51745137Y-54836733D01*
X51750031Y-54825423D01*
X51753181Y-54818144D01*
X51754421Y-54810315D01*
X51756309Y-54803818D01*
X51794525Y-54743984D01*
X51859022Y-54714309D01*
X51929324Y-54724215D01*
X51970939Y-54754663D01*
X52028747Y-54818866D01*
X52183248Y-54931118D01*
X52189276Y-54933802D01*
X52189278Y-54933803D01*
X52332491Y-54997565D01*
X52357712Y-55008794D01*
X52451113Y-55028647D01*
X52538056Y-55047128D01*
X52538061Y-55047128D01*
X52544513Y-55048500D01*
X52735487Y-55048500D01*
X52741939Y-55047128D01*
X52741944Y-55047128D01*
X52828887Y-55028647D01*
X52922288Y-55008794D01*
X52947509Y-54997565D01*
X53090722Y-54933803D01*
X53090724Y-54933802D01*
X53096752Y-54931118D01*
X53251253Y-54818866D01*
X53255675Y-54813955D01*
X53374621Y-54681852D01*
X53374622Y-54681851D01*
X53379040Y-54676944D01*
X53474527Y-54511556D01*
X53529387Y-54342714D01*
X53560125Y-54292556D01*
X57566159Y-50286522D01*
X67857273Y-50286522D01*
X67904764Y-50463761D01*
X67908510Y-50474053D01*
X68000586Y-50671511D01*
X68006069Y-50681007D01*
X68131028Y-50859467D01*
X68138084Y-50867875D01*
X68292125Y-51021916D01*
X68300533Y-51028972D01*
X68478993Y-51153931D01*
X68488489Y-51159414D01*
X68685947Y-51251490D01*
X68696239Y-51255236D01*
X68868503Y-51301394D01*
X68882599Y-51301058D01*
X68886000Y-51293116D01*
X68886000Y-51287967D01*
X69394000Y-51287967D01*
X69397973Y-51301498D01*
X69406522Y-51302727D01*
X69583761Y-51255236D01*
X69594053Y-51251490D01*
X69791511Y-51159414D01*
X69801007Y-51153931D01*
X69979467Y-51028972D01*
X69987875Y-51021916D01*
X70141916Y-50867875D01*
X70148972Y-50859467D01*
X70273931Y-50681007D01*
X70279414Y-50671511D01*
X70371490Y-50474053D01*
X70375236Y-50463761D01*
X70421394Y-50291497D01*
X70421058Y-50277401D01*
X70413116Y-50274000D01*
X69412115Y-50274000D01*
X69396876Y-50278475D01*
X69395671Y-50279865D01*
X69394000Y-50287548D01*
X69394000Y-51287967D01*
X68886000Y-51287967D01*
X68886000Y-50292115D01*
X68881525Y-50276876D01*
X68880135Y-50275671D01*
X68872452Y-50274000D01*
X67872033Y-50274000D01*
X67858502Y-50277973D01*
X67857273Y-50286522D01*
X57566159Y-50286522D01*
X58104178Y-49748503D01*
X67858606Y-49748503D01*
X67858942Y-49762599D01*
X67866884Y-49766000D01*
X68867885Y-49766000D01*
X68883124Y-49761525D01*
X68884329Y-49760135D01*
X68886000Y-49752452D01*
X68886000Y-49747885D01*
X69394000Y-49747885D01*
X69398475Y-49763124D01*
X69399865Y-49764329D01*
X69407548Y-49766000D01*
X70407967Y-49766000D01*
X70421498Y-49762027D01*
X70422727Y-49753478D01*
X70375236Y-49576239D01*
X70371490Y-49565947D01*
X70279414Y-49368489D01*
X70273931Y-49358993D01*
X70148972Y-49180533D01*
X70141916Y-49172125D01*
X69987875Y-49018084D01*
X69979467Y-49011028D01*
X69801007Y-48886069D01*
X69791511Y-48880586D01*
X69594053Y-48788510D01*
X69583761Y-48784764D01*
X69411497Y-48738606D01*
X69397401Y-48738942D01*
X69394000Y-48746884D01*
X69394000Y-49747885D01*
X68886000Y-49747885D01*
X68886000Y-48752033D01*
X68882027Y-48738502D01*
X68873478Y-48737273D01*
X68696239Y-48784764D01*
X68685947Y-48788510D01*
X68488489Y-48880586D01*
X68478993Y-48886069D01*
X68300533Y-49011028D01*
X68292125Y-49018084D01*
X68138084Y-49172125D01*
X68131028Y-49180533D01*
X68006069Y-49358993D01*
X68000586Y-49368489D01*
X67908510Y-49565947D01*
X67904764Y-49576239D01*
X67858606Y-49748503D01*
X58104178Y-49748503D01*
X61017274Y-46835407D01*
X69219774Y-46835407D01*
X69229589Y-47047466D01*
X69230993Y-47053291D01*
X69230993Y-47053292D01*
X69240817Y-47094053D01*
X69279326Y-47253842D01*
X69281808Y-47259300D01*
X69281809Y-47259304D01*
X69327782Y-47360415D01*
X69367191Y-47447090D01*
X69490013Y-47620237D01*
X69643360Y-47767035D01*
X69648395Y-47770286D01*
X69816662Y-47878935D01*
X69816665Y-47878936D01*
X69821699Y-47882187D01*
X69827262Y-47884429D01*
X70013037Y-47959299D01*
X70013040Y-47959300D01*
X70018596Y-47961539D01*
X70024475Y-47962687D01*
X70024478Y-47962688D01*
X70118629Y-47981074D01*
X70226945Y-48002226D01*
X70232547Y-48002500D01*
X71597036Y-48002500D01*
X71755326Y-47987398D01*
X71959026Y-47927639D01*
X71964354Y-47924895D01*
X72142420Y-47833185D01*
X72142423Y-47833183D01*
X72147751Y-47830439D01*
X72219689Y-47773931D01*
X72309974Y-47703012D01*
X72309978Y-47703008D01*
X72314691Y-47699306D01*
X72453823Y-47538970D01*
X72560126Y-47355219D01*
X72629764Y-47154681D01*
X72645310Y-47047466D01*
X72659365Y-46950533D01*
X72659365Y-46950530D01*
X72660226Y-46944593D01*
X72650411Y-46732534D01*
X72600674Y-46526158D01*
X72554581Y-46424781D01*
X72515289Y-46338365D01*
X72512809Y-46332910D01*
X72389987Y-46159763D01*
X72236640Y-46012965D01*
X72134192Y-45946815D01*
X72063338Y-45901065D01*
X72063335Y-45901064D01*
X72058301Y-45897813D01*
X72052738Y-45895571D01*
X71866963Y-45820701D01*
X71866960Y-45820700D01*
X71861404Y-45818461D01*
X71855525Y-45817313D01*
X71855522Y-45817312D01*
X71761371Y-45798926D01*
X71653055Y-45777774D01*
X71647453Y-45777500D01*
X70282964Y-45777500D01*
X70124674Y-45792602D01*
X69920974Y-45852361D01*
X69915647Y-45855105D01*
X69915646Y-45855105D01*
X69737580Y-45946815D01*
X69737577Y-45946817D01*
X69732249Y-45949561D01*
X69727534Y-45953265D01*
X69570026Y-46076988D01*
X69570022Y-46076992D01*
X69565309Y-46080694D01*
X69426177Y-46241030D01*
X69319874Y-46424781D01*
X69250236Y-46625319D01*
X69249375Y-46631254D01*
X69249375Y-46631256D01*
X69233822Y-46738524D01*
X69219774Y-46835407D01*
X61017274Y-46835407D01*
X64276886Y-43575795D01*
X69922700Y-43575795D01*
X69939315Y-43773660D01*
X69994046Y-43964530D01*
X70084808Y-44141133D01*
X70108561Y-44171102D01*
X70204315Y-44291915D01*
X70204319Y-44291920D01*
X70208144Y-44296745D01*
X70359357Y-44425436D01*
X70406524Y-44451797D01*
X70527307Y-44519302D01*
X70527313Y-44519305D01*
X70532685Y-44522307D01*
X70721528Y-44583665D01*
X70918693Y-44607176D01*
X70924828Y-44606704D01*
X70924830Y-44606704D01*
X71110528Y-44592415D01*
X71110533Y-44592414D01*
X71116669Y-44591942D01*
X71122599Y-44590286D01*
X71122601Y-44590286D01*
X71179340Y-44574444D01*
X71307916Y-44538545D01*
X71340062Y-44522307D01*
X71479649Y-44451797D01*
X71479651Y-44451796D01*
X71485150Y-44449018D01*
X71641618Y-44326772D01*
X71724932Y-44230252D01*
X71767333Y-44181130D01*
X71767334Y-44181128D01*
X71771362Y-44176462D01*
X71776219Y-44167913D01*
X71866393Y-44009176D01*
X71869440Y-44003813D01*
X71932116Y-43815403D01*
X71957002Y-43618407D01*
X71957399Y-43590000D01*
X71938023Y-43392386D01*
X71880632Y-43202299D01*
X71830904Y-43108774D01*
X71790307Y-43032422D01*
X71790305Y-43032419D01*
X71787413Y-43026980D01*
X71661917Y-42873106D01*
X71596080Y-42818641D01*
X71513672Y-42750467D01*
X71513669Y-42750465D01*
X71508922Y-42746538D01*
X71334258Y-42652097D01*
X71144576Y-42593381D01*
X71138451Y-42592737D01*
X71138450Y-42592737D01*
X70953232Y-42573270D01*
X70953230Y-42573270D01*
X70947103Y-42572626D01*
X70863970Y-42580192D01*
X70755497Y-42590063D01*
X70755494Y-42590064D01*
X70749358Y-42590622D01*
X70743452Y-42592360D01*
X70743448Y-42592361D01*
X70604226Y-42633337D01*
X70558876Y-42646684D01*
X70382910Y-42738677D01*
X70228163Y-42863096D01*
X70224205Y-42867813D01*
X70224203Y-42867815D01*
X70149158Y-42957251D01*
X70100530Y-43015203D01*
X70004873Y-43189204D01*
X70003012Y-43195071D01*
X70003011Y-43195073D01*
X69978860Y-43271206D01*
X69944834Y-43378471D01*
X69922700Y-43575795D01*
X64276886Y-43575795D01*
X66467276Y-41385405D01*
X66529588Y-41351379D01*
X66556371Y-41348500D01*
X70222598Y-41348500D01*
X70290719Y-41368502D01*
X70304261Y-41378546D01*
X70352405Y-41419519D01*
X70359357Y-41425436D01*
X70446021Y-41473872D01*
X70527307Y-41519302D01*
X70527313Y-41519305D01*
X70532685Y-41522307D01*
X70721528Y-41583665D01*
X70918693Y-41607176D01*
X70924828Y-41606704D01*
X70924830Y-41606704D01*
X71110528Y-41592415D01*
X71110533Y-41592414D01*
X71116669Y-41591942D01*
X71122599Y-41590286D01*
X71122601Y-41590286D01*
X71179340Y-41574444D01*
X71307916Y-41538545D01*
X71470071Y-41456635D01*
X71479649Y-41451797D01*
X71479651Y-41451796D01*
X71485150Y-41449018D01*
X71641618Y-41326772D01*
X71686540Y-41274729D01*
X71767333Y-41181130D01*
X71767334Y-41181128D01*
X71771362Y-41176462D01*
X71869440Y-41003813D01*
X71932116Y-40815403D01*
X71957002Y-40618407D01*
X71957399Y-40590000D01*
X71938023Y-40392386D01*
X71880632Y-40202299D01*
X71877739Y-40196858D01*
X71790307Y-40032422D01*
X71790305Y-40032419D01*
X71787413Y-40026980D01*
X71722335Y-39947186D01*
X71665811Y-39877880D01*
X71665809Y-39877878D01*
X71661917Y-39873106D01*
X71578016Y-39803697D01*
X71513672Y-39750467D01*
X71513669Y-39750465D01*
X71508922Y-39746538D01*
X71334258Y-39652097D01*
X71144576Y-39593381D01*
X71138451Y-39592737D01*
X71138450Y-39592737D01*
X70953232Y-39573270D01*
X70953230Y-39573270D01*
X70947103Y-39572626D01*
X70863970Y-39580192D01*
X70755497Y-39590063D01*
X70755494Y-39590064D01*
X70749358Y-39590622D01*
X70743452Y-39592360D01*
X70743448Y-39592361D01*
X70604226Y-39633337D01*
X70558876Y-39646684D01*
X70382910Y-39738677D01*
X70378110Y-39742537D01*
X70378109Y-39742537D01*
X70302041Y-39803697D01*
X70236418Y-39830793D01*
X70223089Y-39831500D01*
X66257070Y-39831500D01*
X66238120Y-39830067D01*
X66223885Y-39827901D01*
X66223881Y-39827901D01*
X66216651Y-39826801D01*
X66209359Y-39827394D01*
X66209356Y-39827394D01*
X66163982Y-39831085D01*
X66153767Y-39831500D01*
X66145707Y-39831500D01*
X66142073Y-39831924D01*
X66142067Y-39831924D01*
X66129042Y-39833443D01*
X66117480Y-39834791D01*
X66113132Y-39835221D01*
X66040364Y-39841140D01*
X66033403Y-39843395D01*
X66027463Y-39844582D01*
X66021588Y-39845971D01*
X66014319Y-39846818D01*
X65945670Y-39871736D01*
X65941542Y-39873153D01*
X65879064Y-39893393D01*
X65879062Y-39893394D01*
X65872101Y-39895649D01*
X65865846Y-39899445D01*
X65860372Y-39901951D01*
X65854942Y-39904670D01*
X65848063Y-39907167D01*
X65841943Y-39911180D01*
X65841942Y-39911180D01*
X65787024Y-39947186D01*
X65783320Y-39949523D01*
X65720893Y-39987405D01*
X65712516Y-39994803D01*
X65712492Y-39994776D01*
X65709500Y-39997429D01*
X65706267Y-40000132D01*
X65700148Y-40004144D01*
X65678515Y-40026980D01*
X65646872Y-40060383D01*
X65644494Y-40062825D01*
X52483669Y-53223650D01*
X52420772Y-53257801D01*
X52364176Y-53269831D01*
X52364167Y-53269834D01*
X52357712Y-53271206D01*
X52351682Y-53273891D01*
X52351681Y-53273891D01*
X52189278Y-53346197D01*
X52189276Y-53346198D01*
X52183248Y-53348882D01*
X52028747Y-53461134D01*
X52024326Y-53466044D01*
X52024325Y-53466045D01*
X51993136Y-53500684D01*
X51932690Y-53537924D01*
X51861706Y-53536572D01*
X51802722Y-53497059D01*
X51774464Y-53431928D01*
X51773500Y-53416374D01*
X51773500Y-44842524D01*
X51793502Y-44774403D01*
X51805858Y-44758221D01*
X51879040Y-44676944D01*
X51974527Y-44511556D01*
X52033542Y-44329928D01*
X52053504Y-44140000D01*
X52033542Y-43950072D01*
X51974527Y-43768444D01*
X51879040Y-43603056D01*
X51870457Y-43593523D01*
X51755675Y-43466045D01*
X51755674Y-43466044D01*
X51751253Y-43461134D01*
X51596752Y-43348882D01*
X51590724Y-43346198D01*
X51590722Y-43346197D01*
X51428319Y-43273891D01*
X51428318Y-43273891D01*
X51422288Y-43271206D01*
X51235487Y-43231500D01*
X51232824Y-43231500D01*
X51168519Y-43205041D01*
X51127890Y-43146819D01*
X51125189Y-43075874D01*
X51158253Y-43017651D01*
X51590499Y-42585405D01*
X51652811Y-42551379D01*
X51679594Y-42548500D01*
X51735487Y-42548500D01*
X51741939Y-42547128D01*
X51741944Y-42547128D01*
X51828887Y-42528647D01*
X51922288Y-42508794D01*
X51928319Y-42506109D01*
X52090722Y-42433803D01*
X52090724Y-42433802D01*
X52096752Y-42431118D01*
X52251253Y-42318866D01*
X52379040Y-42176944D01*
X52474527Y-42011556D01*
X52533542Y-41829928D01*
X52553504Y-41640000D01*
X52550054Y-41607176D01*
X52534232Y-41456635D01*
X52534232Y-41456633D01*
X52533542Y-41450072D01*
X52474527Y-41268444D01*
X52379040Y-41103056D01*
X52251253Y-40961134D01*
X52096752Y-40848882D01*
X52090724Y-40846198D01*
X52090722Y-40846197D01*
X51928319Y-40773891D01*
X51928318Y-40773891D01*
X51922288Y-40771206D01*
X51735487Y-40731500D01*
X51732830Y-40731500D01*
X51668526Y-40705048D01*
X51627893Y-40646829D01*
X51625186Y-40575884D01*
X51658253Y-40517652D01*
X53915500Y-38260405D01*
X53977812Y-38226379D01*
X54004595Y-38223500D01*
X70089180Y-38223500D01*
X70157301Y-38243502D01*
X70187926Y-38271236D01*
X70208144Y-38296745D01*
X70359357Y-38425436D01*
X70406524Y-38451797D01*
X70527307Y-38519302D01*
X70527313Y-38519305D01*
X70532685Y-38522307D01*
X70721528Y-38583665D01*
X70918693Y-38607176D01*
X70924828Y-38606704D01*
X70924830Y-38606704D01*
X71110528Y-38592415D01*
X71110533Y-38592414D01*
X71116669Y-38591942D01*
X71122599Y-38590286D01*
X71122601Y-38590286D01*
X71179340Y-38574444D01*
X71307916Y-38538545D01*
X71346011Y-38519302D01*
X71479649Y-38451797D01*
X71479651Y-38451796D01*
X71485150Y-38449018D01*
X71641618Y-38326772D01*
X71671706Y-38291915D01*
X71767333Y-38181130D01*
X71767334Y-38181128D01*
X71771362Y-38176462D01*
X71869440Y-38003813D01*
X71932116Y-37815403D01*
X71957002Y-37618407D01*
X71957399Y-37590000D01*
X71938023Y-37392386D01*
X71880632Y-37202299D01*
X71859828Y-37163173D01*
X71790307Y-37032422D01*
X71790305Y-37032419D01*
X71787413Y-37026980D01*
X71731104Y-36957938D01*
X71665811Y-36877880D01*
X71665809Y-36877878D01*
X71661917Y-36873106D01*
X71596080Y-36818641D01*
X71513672Y-36750467D01*
X71513669Y-36750465D01*
X71508922Y-36746538D01*
X71334258Y-36652097D01*
X71144576Y-36593381D01*
X71138451Y-36592737D01*
X71138450Y-36592737D01*
X70953232Y-36573270D01*
X70953230Y-36573270D01*
X70947103Y-36572626D01*
X70863970Y-36580192D01*
X70755497Y-36590063D01*
X70755494Y-36590064D01*
X70749358Y-36590622D01*
X70743452Y-36592360D01*
X70743448Y-36592361D01*
X70640030Y-36622799D01*
X70558876Y-36646684D01*
X70382910Y-36738677D01*
X70228163Y-36863096D01*
X70219764Y-36873106D01*
X70187555Y-36911491D01*
X70128445Y-36950818D01*
X70091033Y-36956500D01*
X53768767Y-36956500D01*
X53757584Y-36955973D01*
X53750091Y-36954298D01*
X53742165Y-36954547D01*
X53742164Y-36954547D01*
X53682014Y-36956438D01*
X53678055Y-36956500D01*
X53650144Y-36956500D01*
X53646210Y-36956997D01*
X53646209Y-36956997D01*
X53646144Y-36957005D01*
X53634307Y-36957938D01*
X53602049Y-36958952D01*
X53598030Y-36959078D01*
X53590111Y-36959327D01*
X53570657Y-36964979D01*
X53551300Y-36968987D01*
X53539070Y-36970532D01*
X53539069Y-36970532D01*
X53531203Y-36971526D01*
X53523832Y-36974445D01*
X53523830Y-36974445D01*
X53490088Y-36987804D01*
X53478858Y-36991649D01*
X53444017Y-37001771D01*
X53444016Y-37001771D01*
X53436407Y-37003982D01*
X53429588Y-37008015D01*
X53429583Y-37008017D01*
X53418972Y-37014293D01*
X53401224Y-37022988D01*
X53382383Y-37030448D01*
X53375967Y-37035110D01*
X53375966Y-37035110D01*
X53346613Y-37056436D01*
X53336693Y-37062952D01*
X53305465Y-37081420D01*
X53305462Y-37081422D01*
X53298638Y-37085458D01*
X53284317Y-37099779D01*
X53269284Y-37112619D01*
X53252893Y-37124528D01*
X53247842Y-37130634D01*
X53224702Y-37158605D01*
X53216712Y-37167384D01*
X47689500Y-42694595D01*
X47627188Y-42728621D01*
X47600405Y-42731500D01*
X47544513Y-42731500D01*
X47538061Y-42732872D01*
X47538056Y-42732872D01*
X47473765Y-42746538D01*
X47357712Y-42771206D01*
X47351682Y-42773891D01*
X47351681Y-42773891D01*
X47189278Y-42846197D01*
X47189276Y-42846198D01*
X47183248Y-42848882D01*
X47177907Y-42852762D01*
X47177906Y-42852763D01*
X47163684Y-42863096D01*
X47028747Y-42961134D01*
X47024326Y-42966044D01*
X47024325Y-42966045D01*
X46975205Y-43020599D01*
X46900960Y-43103056D01*
X46805473Y-43268444D01*
X46746458Y-43450072D01*
X46726496Y-43640000D01*
X46727186Y-43646565D01*
X46739899Y-43767519D01*
X46746458Y-43829928D01*
X46805473Y-44011556D01*
X46900960Y-44176944D01*
X47028747Y-44318866D01*
X47127843Y-44390864D01*
X47169932Y-44421443D01*
X47183248Y-44431118D01*
X47189276Y-44433802D01*
X47189278Y-44433803D01*
X47349799Y-44505271D01*
X47357712Y-44508794D01*
X47544513Y-44548500D01*
X47547176Y-44548500D01*
X47611481Y-44574959D01*
X47652110Y-44633181D01*
X47654811Y-44704126D01*
X47621747Y-44762349D01*
X43025102Y-49358993D01*
X38747747Y-53636348D01*
X38739461Y-53643888D01*
X38732982Y-53648000D01*
X38727557Y-53653777D01*
X38686357Y-53697651D01*
X38683602Y-53700493D01*
X38663865Y-53720230D01*
X38661385Y-53723427D01*
X38653682Y-53732447D01*
X38623414Y-53764679D01*
X38619595Y-53771625D01*
X38619593Y-53771628D01*
X38613652Y-53782434D01*
X38602801Y-53798953D01*
X38590386Y-53814959D01*
X38587241Y-53822228D01*
X38587238Y-53822232D01*
X38572826Y-53855537D01*
X38567609Y-53866187D01*
X38546305Y-53904940D01*
X38544334Y-53912615D01*
X38544334Y-53912616D01*
X38541267Y-53924562D01*
X38534863Y-53943266D01*
X38526819Y-53961855D01*
X38525580Y-53969678D01*
X38525577Y-53969688D01*
X38519901Y-54005524D01*
X38517495Y-54017144D01*
X38506500Y-54059970D01*
X38506500Y-54080224D01*
X38504949Y-54099934D01*
X38501780Y-54119943D01*
X38502526Y-54127835D01*
X38505941Y-54163961D01*
X38506500Y-54175819D01*
X38506500Y-57587115D01*
X38486498Y-57655236D01*
X38432842Y-57701729D01*
X38362568Y-57711833D01*
X38298668Y-57682925D01*
X38282883Y-57669443D01*
X38274899Y-57663643D01*
X38080958Y-57544795D01*
X38072163Y-57540313D01*
X37862012Y-57453266D01*
X37852627Y-57450217D01*
X37631446Y-57397115D01*
X37621699Y-57395572D01*
X37394930Y-57377725D01*
X37385070Y-57377725D01*
X37158301Y-57395572D01*
X37148554Y-57397115D01*
X36927373Y-57450217D01*
X36917988Y-57453266D01*
X36707837Y-57540313D01*
X36699042Y-57544795D01*
X36505101Y-57663643D01*
X36497117Y-57669443D01*
X36481332Y-57682925D01*
X36416542Y-57711957D01*
X36346342Y-57701353D01*
X36293019Y-57654479D01*
X36273500Y-57587115D01*
X36273500Y-56842524D01*
X36293502Y-56774403D01*
X36305858Y-56758221D01*
X36379040Y-56676944D01*
X36453197Y-56548500D01*
X36471223Y-56517279D01*
X36471224Y-56517278D01*
X36474527Y-56511556D01*
X36533542Y-56329928D01*
X36537371Y-56293502D01*
X36552814Y-56146565D01*
X36553504Y-56140000D01*
X36533542Y-55950072D01*
X36474527Y-55768444D01*
X36379040Y-55603056D01*
X36251253Y-55461134D01*
X36096752Y-55348882D01*
X36090724Y-55346198D01*
X36090722Y-55346197D01*
X35928319Y-55273891D01*
X35928318Y-55273891D01*
X35922288Y-55271206D01*
X35828888Y-55251353D01*
X35741944Y-55232872D01*
X35741939Y-55232872D01*
X35735487Y-55231500D01*
X35544513Y-55231500D01*
X35538061Y-55232872D01*
X35538056Y-55232872D01*
X35451113Y-55251353D01*
X35357712Y-55271206D01*
X35351682Y-55273891D01*
X35351681Y-55273891D01*
X35189278Y-55346197D01*
X35189276Y-55346198D01*
X35183248Y-55348882D01*
X35028747Y-55461134D01*
X34900960Y-55603056D01*
X34805473Y-55768444D01*
X34746458Y-55950072D01*
X34726496Y-56140000D01*
X34727186Y-56146565D01*
X34742630Y-56293502D01*
X34746458Y-56329928D01*
X34805473Y-56511556D01*
X34808776Y-56517278D01*
X34808777Y-56517279D01*
X34826803Y-56548500D01*
X34900960Y-56676944D01*
X34974137Y-56758215D01*
X35004853Y-56822221D01*
X35006500Y-56842524D01*
X35006500Y-61050406D01*
X34986498Y-61118527D01*
X34969595Y-61139501D01*
X33914500Y-62194595D01*
X33852188Y-62228621D01*
X33825405Y-62231500D01*
X32416866Y-62231500D01*
X32354684Y-62238255D01*
X32218295Y-62289385D01*
X32101739Y-62376739D01*
X32014385Y-62493295D01*
X31963255Y-62629684D01*
X31956500Y-62691866D01*
X31956500Y-64588134D01*
X31963255Y-64650316D01*
X32014385Y-64786705D01*
X32101739Y-64903261D01*
X32218295Y-64990615D01*
X32354684Y-65041745D01*
X32416866Y-65048500D01*
X34313134Y-65048500D01*
X34375316Y-65041745D01*
X34511705Y-64990615D01*
X34628261Y-64903261D01*
X34715615Y-64786705D01*
X34740180Y-64721178D01*
X34782822Y-64664414D01*
X34849383Y-64639714D01*
X34918732Y-64654921D01*
X34938647Y-64668464D01*
X35002638Y-64721590D01*
X35094349Y-64797730D01*
X35207073Y-64863600D01*
X35209070Y-64864767D01*
X35257794Y-64916405D01*
X35271500Y-64973555D01*
X35271500Y-66060405D01*
X35251498Y-66128526D01*
X35234595Y-66149500D01*
X32689500Y-68694595D01*
X32627188Y-68728621D01*
X32600405Y-68731500D01*
X32544513Y-68731500D01*
X32538061Y-68732872D01*
X32538056Y-68732872D01*
X32451112Y-68751353D01*
X32357712Y-68771206D01*
X32351682Y-68773891D01*
X32351681Y-68773891D01*
X32189278Y-68846197D01*
X32189276Y-68846198D01*
X32183248Y-68848882D01*
X32028747Y-68961134D01*
X32024326Y-68966044D01*
X32024325Y-68966045D01*
X31910285Y-69092700D01*
X31900960Y-69103056D01*
X31894605Y-69114064D01*
X31809859Y-69260848D01*
X31805473Y-69268444D01*
X31746458Y-69450072D01*
X31745768Y-69456633D01*
X31745768Y-69456635D01*
X31735641Y-69552988D01*
X31726496Y-69640000D01*
X30648000Y-69640000D01*
X30648000Y-58890000D01*
X31376835Y-58890000D01*
X31395465Y-59126711D01*
X31396619Y-59131518D01*
X31396620Y-59131524D01*
X31420952Y-59232872D01*
X31450895Y-59357594D01*
X31452788Y-59362165D01*
X31452789Y-59362167D01*
X31531604Y-59552443D01*
X31541760Y-59576963D01*
X31544346Y-59581183D01*
X31663241Y-59775202D01*
X31663245Y-59775208D01*
X31665824Y-59779416D01*
X31820031Y-59959969D01*
X32000584Y-60114176D01*
X32004792Y-60116755D01*
X32004798Y-60116759D01*
X32186678Y-60228215D01*
X32203037Y-60238240D01*
X32207607Y-60240133D01*
X32207611Y-60240135D01*
X32417833Y-60327211D01*
X32422406Y-60329105D01*
X32502609Y-60348360D01*
X32648476Y-60383380D01*
X32648482Y-60383381D01*
X32653289Y-60384535D01*
X32890000Y-60403165D01*
X33126711Y-60384535D01*
X33131518Y-60383381D01*
X33131524Y-60383380D01*
X33277391Y-60348360D01*
X33357594Y-60329105D01*
X33362167Y-60327211D01*
X33572389Y-60240135D01*
X33572393Y-60240133D01*
X33576963Y-60238240D01*
X33593322Y-60228215D01*
X33775202Y-60116759D01*
X33775208Y-60116755D01*
X33779416Y-60114176D01*
X33959969Y-59959969D01*
X34114176Y-59779416D01*
X34116755Y-59775208D01*
X34116759Y-59775202D01*
X34235654Y-59581183D01*
X34238240Y-59576963D01*
X34248397Y-59552443D01*
X34327211Y-59362167D01*
X34327212Y-59362165D01*
X34329105Y-59357594D01*
X34359048Y-59232872D01*
X34383380Y-59131524D01*
X34383381Y-59131518D01*
X34384535Y-59126711D01*
X34403165Y-58890000D01*
X34384535Y-58653289D01*
X34329105Y-58422406D01*
X34298651Y-58348882D01*
X34240135Y-58207611D01*
X34240133Y-58207607D01*
X34238240Y-58203037D01*
X34165253Y-58083933D01*
X34116759Y-58004798D01*
X34116755Y-58004792D01*
X34114176Y-58000584D01*
X33959969Y-57820031D01*
X33779416Y-57665824D01*
X33775208Y-57663245D01*
X33775202Y-57663241D01*
X33581183Y-57544346D01*
X33576963Y-57541760D01*
X33572393Y-57539867D01*
X33572389Y-57539865D01*
X33362167Y-57452789D01*
X33362165Y-57452788D01*
X33357594Y-57450895D01*
X33277391Y-57431640D01*
X33131524Y-57396620D01*
X33131518Y-57396619D01*
X33126711Y-57395465D01*
X32890000Y-57376835D01*
X32653289Y-57395465D01*
X32648482Y-57396619D01*
X32648476Y-57396620D01*
X32502609Y-57431640D01*
X32422406Y-57450895D01*
X32417835Y-57452788D01*
X32417833Y-57452789D01*
X32207611Y-57539865D01*
X32207607Y-57539867D01*
X32203037Y-57541760D01*
X32198817Y-57544346D01*
X32004798Y-57663241D01*
X32004792Y-57663245D01*
X32000584Y-57665824D01*
X31820031Y-57820031D01*
X31665824Y-58000584D01*
X31663245Y-58004792D01*
X31663241Y-58004798D01*
X31614747Y-58083933D01*
X31541760Y-58203037D01*
X31539867Y-58207607D01*
X31539865Y-58207611D01*
X31481349Y-58348882D01*
X31450895Y-58422406D01*
X31395465Y-58653289D01*
X31376835Y-58890000D01*
X30648000Y-58890000D01*
X30648000Y-52390000D01*
X31376835Y-52390000D01*
X31395465Y-52626711D01*
X31450895Y-52857594D01*
X31452788Y-52862165D01*
X31452789Y-52862167D01*
X31539772Y-53072163D01*
X31541760Y-53076963D01*
X31544346Y-53081183D01*
X31663241Y-53275202D01*
X31663245Y-53275208D01*
X31665824Y-53279416D01*
X31820031Y-53459969D01*
X32000584Y-53614176D01*
X32004792Y-53616755D01*
X32004798Y-53616759D01*
X32178851Y-53723419D01*
X32203037Y-53738240D01*
X32207607Y-53740133D01*
X32207611Y-53740135D01*
X32417833Y-53827211D01*
X32422406Y-53829105D01*
X32502609Y-53848360D01*
X32648476Y-53883380D01*
X32648482Y-53883381D01*
X32653289Y-53884535D01*
X32890000Y-53903165D01*
X33126711Y-53884535D01*
X33131518Y-53883381D01*
X33131524Y-53883380D01*
X33277391Y-53848360D01*
X33357594Y-53829105D01*
X33362167Y-53827211D01*
X33572389Y-53740135D01*
X33572393Y-53740133D01*
X33576963Y-53738240D01*
X33601149Y-53723419D01*
X33765556Y-53622670D01*
X36522160Y-53622670D01*
X36527887Y-53630320D01*
X36699042Y-53735205D01*
X36707837Y-53739687D01*
X36917988Y-53826734D01*
X36927373Y-53829783D01*
X37148554Y-53882885D01*
X37158301Y-53884428D01*
X37385070Y-53902275D01*
X37394930Y-53902275D01*
X37621699Y-53884428D01*
X37631446Y-53882885D01*
X37852627Y-53829783D01*
X37862012Y-53826734D01*
X38072163Y-53739687D01*
X38080958Y-53735205D01*
X38248445Y-53632568D01*
X38257907Y-53622110D01*
X38254124Y-53613334D01*
X37402812Y-52762022D01*
X37388868Y-52754408D01*
X37387035Y-52754539D01*
X37380420Y-52758790D01*
X36528920Y-53610290D01*
X36522160Y-53622670D01*
X33765556Y-53622670D01*
X33775202Y-53616759D01*
X33775208Y-53616755D01*
X33779416Y-53614176D01*
X33959969Y-53459969D01*
X34114176Y-53279416D01*
X34116755Y-53275208D01*
X34116759Y-53275202D01*
X34235654Y-53081183D01*
X34238240Y-53076963D01*
X34240229Y-53072163D01*
X34327211Y-52862167D01*
X34327212Y-52862165D01*
X34329105Y-52857594D01*
X34384535Y-52626711D01*
X34402777Y-52394930D01*
X35877725Y-52394930D01*
X35895572Y-52621699D01*
X35897115Y-52631446D01*
X35950217Y-52852627D01*
X35953266Y-52862012D01*
X36040313Y-53072163D01*
X36044795Y-53080958D01*
X36147432Y-53248445D01*
X36157890Y-53257907D01*
X36166666Y-53254124D01*
X37017978Y-52402812D01*
X37024356Y-52391132D01*
X37754408Y-52391132D01*
X37754539Y-52392965D01*
X37758790Y-52399580D01*
X38610290Y-53251080D01*
X38622670Y-53257840D01*
X38630320Y-53252113D01*
X38735205Y-53080958D01*
X38739687Y-53072163D01*
X38826734Y-52862012D01*
X38829783Y-52852627D01*
X38882885Y-52631446D01*
X38884428Y-52621699D01*
X38902275Y-52394930D01*
X38902275Y-52385070D01*
X38884428Y-52158301D01*
X38882885Y-52148554D01*
X38829783Y-51927373D01*
X38826734Y-51917988D01*
X38739687Y-51707837D01*
X38735205Y-51699042D01*
X38632568Y-51531555D01*
X38622110Y-51522093D01*
X38613334Y-51525876D01*
X37762022Y-52377188D01*
X37754408Y-52391132D01*
X37024356Y-52391132D01*
X37025592Y-52388868D01*
X37025461Y-52387035D01*
X37021210Y-52380420D01*
X36169710Y-51528920D01*
X36157330Y-51522160D01*
X36149680Y-51527887D01*
X36044795Y-51699042D01*
X36040313Y-51707837D01*
X35953266Y-51917988D01*
X35950217Y-51927373D01*
X35897115Y-52148554D01*
X35895572Y-52158301D01*
X35877725Y-52385070D01*
X35877725Y-52394930D01*
X34402777Y-52394930D01*
X34403165Y-52390000D01*
X34384535Y-52153289D01*
X34329105Y-51922406D01*
X34327211Y-51917833D01*
X34240135Y-51707611D01*
X34240133Y-51707607D01*
X34238240Y-51703037D01*
X34235654Y-51698817D01*
X34116759Y-51504798D01*
X34116755Y-51504792D01*
X34114176Y-51500584D01*
X33959969Y-51320031D01*
X33937755Y-51301058D01*
X33879718Y-51251490D01*
X33779416Y-51165824D01*
X33775208Y-51163245D01*
X33775202Y-51163241D01*
X33766470Y-51157890D01*
X36522093Y-51157890D01*
X36525876Y-51166666D01*
X37377188Y-52017978D01*
X37391132Y-52025592D01*
X37392965Y-52025461D01*
X37399580Y-52021210D01*
X38251080Y-51169710D01*
X38257840Y-51157330D01*
X38252113Y-51149680D01*
X38080958Y-51044795D01*
X38072163Y-51040313D01*
X37862012Y-50953266D01*
X37852627Y-50950217D01*
X37631446Y-50897115D01*
X37621699Y-50895572D01*
X37394930Y-50877725D01*
X37385070Y-50877725D01*
X37158301Y-50895572D01*
X37148554Y-50897115D01*
X36927373Y-50950217D01*
X36917988Y-50953266D01*
X36707837Y-51040313D01*
X36699042Y-51044795D01*
X36531555Y-51147432D01*
X36522093Y-51157890D01*
X33766470Y-51157890D01*
X33581183Y-51044346D01*
X33576963Y-51041760D01*
X33572393Y-51039867D01*
X33572389Y-51039865D01*
X33362167Y-50952789D01*
X33362165Y-50952788D01*
X33357594Y-50950895D01*
X33277391Y-50931640D01*
X33131524Y-50896620D01*
X33131518Y-50896619D01*
X33126711Y-50895465D01*
X32890000Y-50876835D01*
X32653289Y-50895465D01*
X32648482Y-50896619D01*
X32648476Y-50896620D01*
X32502609Y-50931640D01*
X32422406Y-50950895D01*
X32417835Y-50952788D01*
X32417833Y-50952789D01*
X32207611Y-51039865D01*
X32207607Y-51039867D01*
X32203037Y-51041760D01*
X32198817Y-51044346D01*
X32004798Y-51163241D01*
X32004792Y-51163245D01*
X32000584Y-51165824D01*
X31900282Y-51251490D01*
X31842246Y-51301058D01*
X31820031Y-51320031D01*
X31665824Y-51500584D01*
X31663245Y-51504792D01*
X31663241Y-51504798D01*
X31544346Y-51698817D01*
X31541760Y-51703037D01*
X31539867Y-51707607D01*
X31539865Y-51707611D01*
X31452789Y-51917833D01*
X31450895Y-51922406D01*
X31395465Y-52153289D01*
X31376835Y-52390000D01*
X30648000Y-52390000D01*
X30648000Y-47488134D01*
X32831500Y-47488134D01*
X32838255Y-47550316D01*
X32889385Y-47686705D01*
X32976739Y-47803261D01*
X33093295Y-47890615D01*
X33229684Y-47941745D01*
X33291866Y-47948500D01*
X34988134Y-47948500D01*
X35050316Y-47941745D01*
X35186705Y-47890615D01*
X35303261Y-47803261D01*
X35361119Y-47726062D01*
X35918493Y-47726062D01*
X35927789Y-47738077D01*
X35978994Y-47773931D01*
X35988489Y-47779414D01*
X36185947Y-47871490D01*
X36196239Y-47875236D01*
X36406688Y-47931625D01*
X36417481Y-47933528D01*
X36634525Y-47952517D01*
X36645475Y-47952517D01*
X36862519Y-47933528D01*
X36873312Y-47931625D01*
X37083761Y-47875236D01*
X37094053Y-47871490D01*
X37291511Y-47779414D01*
X37301006Y-47773931D01*
X37353048Y-47737491D01*
X37361424Y-47727012D01*
X37354356Y-47713566D01*
X36652812Y-47012022D01*
X36638868Y-47004408D01*
X36637035Y-47004539D01*
X36630420Y-47008790D01*
X35924923Y-47714287D01*
X35918493Y-47726062D01*
X35361119Y-47726062D01*
X35390615Y-47686705D01*
X35441745Y-47550316D01*
X35448500Y-47488134D01*
X35448500Y-47484815D01*
X35472153Y-47417890D01*
X35518156Y-47382196D01*
X35517141Y-47380266D01*
X35528000Y-47374558D01*
X35528245Y-47374368D01*
X35528403Y-47374347D01*
X35566434Y-47354356D01*
X36267978Y-46652812D01*
X36274356Y-46641132D01*
X37004408Y-46641132D01*
X37004539Y-46642965D01*
X37008790Y-46649580D01*
X37714287Y-47355077D01*
X37726062Y-47361507D01*
X37738077Y-47352211D01*
X37773931Y-47301006D01*
X37779414Y-47291511D01*
X37871490Y-47094053D01*
X37875236Y-47083761D01*
X37931625Y-46873312D01*
X37933528Y-46862519D01*
X37952517Y-46645475D01*
X37952517Y-46634525D01*
X37933528Y-46417481D01*
X37931625Y-46406688D01*
X37875236Y-46196239D01*
X37871490Y-46185947D01*
X37779414Y-45988489D01*
X37773931Y-45978994D01*
X37737491Y-45926952D01*
X37727012Y-45918576D01*
X37713566Y-45925644D01*
X37012022Y-46627188D01*
X37004408Y-46641132D01*
X36274356Y-46641132D01*
X36275592Y-46638868D01*
X36275461Y-46637035D01*
X36271210Y-46630420D01*
X35565713Y-45924923D01*
X35523971Y-45902129D01*
X35513971Y-45899953D01*
X35463773Y-45849747D01*
X35448549Y-45796186D01*
X35448500Y-45795281D01*
X35448500Y-45791866D01*
X35441745Y-45729684D01*
X35390615Y-45593295D01*
X35360407Y-45552988D01*
X35918576Y-45552988D01*
X35925644Y-45566434D01*
X36627188Y-46267978D01*
X36641132Y-46275592D01*
X36642965Y-46275461D01*
X36649580Y-46271210D01*
X37355077Y-45565713D01*
X37361507Y-45553938D01*
X37352211Y-45541923D01*
X37301006Y-45506069D01*
X37291511Y-45500586D01*
X37094053Y-45408510D01*
X37083761Y-45404764D01*
X36873312Y-45348375D01*
X36862519Y-45346472D01*
X36645475Y-45327483D01*
X36634525Y-45327483D01*
X36417481Y-45346472D01*
X36406688Y-45348375D01*
X36196239Y-45404764D01*
X36185947Y-45408510D01*
X35988489Y-45500586D01*
X35978994Y-45506069D01*
X35926952Y-45542509D01*
X35918576Y-45552988D01*
X35360407Y-45552988D01*
X35303261Y-45476739D01*
X35186705Y-45389385D01*
X35050316Y-45338255D01*
X34988134Y-45331500D01*
X33291866Y-45331500D01*
X33229684Y-45338255D01*
X33093295Y-45389385D01*
X32976739Y-45476739D01*
X32889385Y-45593295D01*
X32838255Y-45729684D01*
X32831500Y-45791866D01*
X32831500Y-47488134D01*
X30648000Y-47488134D01*
X30648000Y-35772703D01*
X31530743Y-35772703D01*
X31568268Y-36057734D01*
X31644129Y-36335036D01*
X31645813Y-36338984D01*
X31754049Y-36592737D01*
X31756923Y-36599476D01*
X31904561Y-36846161D01*
X32084313Y-37070528D01*
X32292851Y-37268423D01*
X32526317Y-37436186D01*
X32530112Y-37438195D01*
X32530113Y-37438196D01*
X32551869Y-37449715D01*
X32780392Y-37570712D01*
X33050373Y-37669511D01*
X33331264Y-37730755D01*
X33359841Y-37733004D01*
X33554282Y-37748307D01*
X33554291Y-37748307D01*
X33556739Y-37748500D01*
X33712271Y-37748500D01*
X33714407Y-37748354D01*
X33714418Y-37748354D01*
X33922548Y-37734165D01*
X33922554Y-37734164D01*
X33926825Y-37733873D01*
X33931020Y-37733004D01*
X33931022Y-37733004D01*
X34067584Y-37704723D01*
X34208342Y-37675574D01*
X34479343Y-37579607D01*
X34734812Y-37447750D01*
X34738313Y-37445289D01*
X34738317Y-37445287D01*
X34852417Y-37365096D01*
X34970023Y-37282441D01*
X35093839Y-37167384D01*
X35177479Y-37089661D01*
X35177481Y-37089658D01*
X35180622Y-37086740D01*
X35362713Y-36864268D01*
X35512927Y-36619142D01*
X35523436Y-36595203D01*
X35626757Y-36359830D01*
X35628483Y-36355898D01*
X35707244Y-36079406D01*
X35739429Y-35853261D01*
X35747146Y-35799036D01*
X35747146Y-35799034D01*
X35747751Y-35794784D01*
X35747845Y-35776951D01*
X35749096Y-35538134D01*
X47981500Y-35538134D01*
X47988255Y-35600316D01*
X48039385Y-35736705D01*
X48126739Y-35853261D01*
X48243295Y-35940615D01*
X48379684Y-35991745D01*
X48441866Y-35998500D01*
X50238134Y-35998500D01*
X50300316Y-35991745D01*
X50436705Y-35940615D01*
X50553261Y-35853261D01*
X50640615Y-35736705D01*
X50676868Y-35640000D01*
X50684798Y-35618848D01*
X50727440Y-35562084D01*
X50794001Y-35537384D01*
X50863350Y-35552592D01*
X50898017Y-35580580D01*
X50923218Y-35609673D01*
X50930580Y-35616883D01*
X51094434Y-35752916D01*
X51102881Y-35758831D01*
X51286756Y-35866279D01*
X51296042Y-35870729D01*
X51495001Y-35946703D01*
X51504899Y-35949579D01*
X51608250Y-35970606D01*
X51622299Y-35969410D01*
X51626000Y-35959065D01*
X51626000Y-35958517D01*
X52134000Y-35958517D01*
X52138064Y-35972359D01*
X52151478Y-35974393D01*
X52158184Y-35973534D01*
X52168262Y-35971392D01*
X52372255Y-35910191D01*
X52381842Y-35906433D01*
X52573095Y-35812739D01*
X52581945Y-35807464D01*
X52755328Y-35683792D01*
X52763200Y-35677139D01*
X52914052Y-35526812D01*
X52920730Y-35518965D01*
X53048022Y-35341819D01*
X53049279Y-35342722D01*
X53096373Y-35299362D01*
X53166311Y-35287145D01*
X53231751Y-35314678D01*
X53259579Y-35346511D01*
X53319987Y-35445088D01*
X53466250Y-35613938D01*
X53638126Y-35756632D01*
X53831000Y-35869338D01*
X54039692Y-35949030D01*
X54044760Y-35950061D01*
X54044763Y-35950062D01*
X54139862Y-35969410D01*
X54258597Y-35993567D01*
X54263772Y-35993757D01*
X54263774Y-35993757D01*
X54476673Y-36001564D01*
X54476677Y-36001564D01*
X54481837Y-36001753D01*
X54486957Y-36001097D01*
X54486959Y-36001097D01*
X54698288Y-35974025D01*
X54698289Y-35974025D01*
X54703416Y-35973368D01*
X54708366Y-35971883D01*
X54912429Y-35910661D01*
X54912434Y-35910659D01*
X54917384Y-35909174D01*
X55117994Y-35810896D01*
X55299860Y-35681173D01*
X55458096Y-35523489D01*
X55474000Y-35501357D01*
X55588453Y-35342077D01*
X55589776Y-35343028D01*
X55636645Y-35299857D01*
X55706580Y-35287625D01*
X55772026Y-35315144D01*
X55799875Y-35346994D01*
X55859987Y-35445088D01*
X56006250Y-35613938D01*
X56178126Y-35756632D01*
X56371000Y-35869338D01*
X56579692Y-35949030D01*
X56584760Y-35950061D01*
X56584763Y-35950062D01*
X56679862Y-35969410D01*
X56798597Y-35993567D01*
X56803772Y-35993757D01*
X56803774Y-35993757D01*
X57016673Y-36001564D01*
X57016677Y-36001564D01*
X57021837Y-36001753D01*
X57026957Y-36001097D01*
X57026959Y-36001097D01*
X57238288Y-35974025D01*
X57238289Y-35974025D01*
X57243416Y-35973368D01*
X57248366Y-35971883D01*
X57452429Y-35910661D01*
X57452434Y-35910659D01*
X57457384Y-35909174D01*
X57657994Y-35810896D01*
X57839860Y-35681173D01*
X57998096Y-35523489D01*
X58014000Y-35501357D01*
X58125435Y-35346277D01*
X58128453Y-35342077D01*
X58130746Y-35337437D01*
X58132446Y-35334608D01*
X58184674Y-35286518D01*
X58240451Y-35273500D01*
X58325406Y-35273500D01*
X58393527Y-35293502D01*
X58414501Y-35310405D01*
X58692878Y-35588782D01*
X58726904Y-35651094D01*
X58729092Y-35664703D01*
X58746458Y-35829928D01*
X58805473Y-36011556D01*
X58900960Y-36176944D01*
X59028747Y-36318866D01*
X59183248Y-36431118D01*
X59189276Y-36433802D01*
X59189278Y-36433803D01*
X59351681Y-36506109D01*
X59357712Y-36508794D01*
X59451113Y-36528647D01*
X59538056Y-36547128D01*
X59538061Y-36547128D01*
X59544513Y-36548500D01*
X59735487Y-36548500D01*
X59741939Y-36547128D01*
X59741944Y-36547128D01*
X59828887Y-36528647D01*
X59922288Y-36508794D01*
X59928319Y-36506109D01*
X60090722Y-36433803D01*
X60090724Y-36433802D01*
X60096752Y-36431118D01*
X60251253Y-36318866D01*
X60379040Y-36176944D01*
X60474527Y-36011556D01*
X60533542Y-35829928D01*
X60535543Y-35810896D01*
X60552814Y-35646565D01*
X60553504Y-35640000D01*
X60542719Y-35537384D01*
X60534232Y-35456635D01*
X60534232Y-35456633D01*
X60533542Y-35450072D01*
X60474527Y-35268444D01*
X60466544Y-35254616D01*
X60401415Y-35141811D01*
X60379040Y-35103056D01*
X60329143Y-35047639D01*
X60255675Y-34966045D01*
X60255674Y-34966044D01*
X60251253Y-34961134D01*
X60096752Y-34848882D01*
X60090724Y-34846198D01*
X60090722Y-34846197D01*
X59928319Y-34773891D01*
X59928318Y-34773891D01*
X59922288Y-34771206D01*
X59828888Y-34751353D01*
X59741944Y-34732872D01*
X59741939Y-34732872D01*
X59735487Y-34731500D01*
X59679595Y-34731500D01*
X59611474Y-34711498D01*
X59590499Y-34694595D01*
X59231312Y-34335407D01*
X69219774Y-34335407D01*
X69229589Y-34547466D01*
X69230993Y-34553291D01*
X69230993Y-34553292D01*
X69273942Y-34731500D01*
X69279326Y-34753842D01*
X69281808Y-34759300D01*
X69281809Y-34759304D01*
X69327782Y-34860415D01*
X69367191Y-34947090D01*
X69490013Y-35120237D01*
X69573955Y-35200594D01*
X69638854Y-35262721D01*
X69643360Y-35267035D01*
X69648395Y-35270286D01*
X69816662Y-35378935D01*
X69816665Y-35378936D01*
X69821699Y-35382187D01*
X69827262Y-35384429D01*
X70013037Y-35459299D01*
X70013040Y-35459300D01*
X70018596Y-35461539D01*
X70024475Y-35462687D01*
X70024478Y-35462688D01*
X70118067Y-35480964D01*
X70226945Y-35502226D01*
X70232547Y-35502500D01*
X71597036Y-35502500D01*
X71755326Y-35487398D01*
X71959026Y-35427639D01*
X71964354Y-35424895D01*
X72142420Y-35333185D01*
X72142423Y-35333183D01*
X72147751Y-35330439D01*
X72220238Y-35273500D01*
X72309974Y-35203012D01*
X72309978Y-35203008D01*
X72314691Y-35199306D01*
X72364583Y-35141811D01*
X72449891Y-35043501D01*
X72453823Y-35038970D01*
X72560126Y-34855219D01*
X72629764Y-34654681D01*
X72645310Y-34547466D01*
X72659365Y-34450533D01*
X72659365Y-34450530D01*
X72660226Y-34444593D01*
X72650411Y-34232534D01*
X72606449Y-34050121D01*
X72602080Y-34031991D01*
X72602079Y-34031989D01*
X72600674Y-34026158D01*
X72597830Y-34019901D01*
X72545683Y-33905213D01*
X72512809Y-33832910D01*
X72404118Y-33679684D01*
X72393453Y-33664649D01*
X72393452Y-33664648D01*
X72389987Y-33659763D01*
X72260817Y-33536109D01*
X72240970Y-33517110D01*
X72236640Y-33512965D01*
X72134192Y-33446815D01*
X72063338Y-33401065D01*
X72063335Y-33401064D01*
X72058301Y-33397813D01*
X72018444Y-33381750D01*
X71866963Y-33320701D01*
X71866960Y-33320700D01*
X71861404Y-33318461D01*
X71855525Y-33317313D01*
X71855522Y-33317312D01*
X71761371Y-33298926D01*
X71653055Y-33277774D01*
X71647453Y-33277500D01*
X70282964Y-33277500D01*
X70124674Y-33292602D01*
X69920974Y-33352361D01*
X69915647Y-33355105D01*
X69915646Y-33355105D01*
X69737580Y-33446815D01*
X69737577Y-33446817D01*
X69732249Y-33449561D01*
X69727534Y-33453265D01*
X69570026Y-33576988D01*
X69570022Y-33576992D01*
X69565309Y-33580694D01*
X69561378Y-33585224D01*
X69561377Y-33585225D01*
X69500291Y-33655621D01*
X69426177Y-33741030D01*
X69319874Y-33924781D01*
X69296257Y-33992792D01*
X69258056Y-34102801D01*
X69250236Y-34125319D01*
X69249375Y-34131254D01*
X69249375Y-34131256D01*
X69233822Y-34238524D01*
X69219774Y-34335407D01*
X59231312Y-34335407D01*
X59143647Y-34247742D01*
X59136113Y-34239463D01*
X59132000Y-34232982D01*
X59082348Y-34186356D01*
X59079507Y-34183602D01*
X59059770Y-34163865D01*
X59056573Y-34161385D01*
X59047551Y-34153680D01*
X59015321Y-34123414D01*
X59008375Y-34119595D01*
X59008372Y-34119593D01*
X58997566Y-34113652D01*
X58981047Y-34102801D01*
X58980583Y-34102441D01*
X58965041Y-34090386D01*
X58957772Y-34087241D01*
X58957768Y-34087238D01*
X58924463Y-34072826D01*
X58913813Y-34067609D01*
X58875060Y-34046305D01*
X58855437Y-34041267D01*
X58836734Y-34034863D01*
X58825420Y-34029967D01*
X58825419Y-34029967D01*
X58818145Y-34026819D01*
X58810322Y-34025580D01*
X58810312Y-34025577D01*
X58774476Y-34019901D01*
X58762856Y-34017495D01*
X58727711Y-34008472D01*
X58727710Y-34008472D01*
X58720030Y-34006500D01*
X58699776Y-34006500D01*
X58680065Y-34004949D01*
X58667886Y-34003020D01*
X58660057Y-34001780D01*
X58652165Y-34002526D01*
X58616039Y-34005941D01*
X58604181Y-34006500D01*
X58236805Y-34006500D01*
X58168684Y-33986498D01*
X58131013Y-33948940D01*
X58042822Y-33812617D01*
X58042820Y-33812614D01*
X58040014Y-33808277D01*
X57889670Y-33643051D01*
X57885619Y-33639852D01*
X57885615Y-33639848D01*
X57718414Y-33507800D01*
X57718410Y-33507798D01*
X57714359Y-33504598D01*
X57678028Y-33484542D01*
X57614659Y-33449561D01*
X57518789Y-33396638D01*
X57513920Y-33394914D01*
X57513916Y-33394912D01*
X57313087Y-33323795D01*
X57313083Y-33323794D01*
X57308212Y-33322069D01*
X57303119Y-33321162D01*
X57303116Y-33321161D01*
X57093373Y-33283800D01*
X57093367Y-33283799D01*
X57088284Y-33282894D01*
X57014452Y-33281992D01*
X56870081Y-33280228D01*
X56870079Y-33280228D01*
X56864911Y-33280165D01*
X56644091Y-33313955D01*
X56431756Y-33383357D01*
X56397739Y-33401065D01*
X56309855Y-33446815D01*
X56233607Y-33486507D01*
X56229474Y-33489610D01*
X56229471Y-33489612D01*
X56059100Y-33617530D01*
X56054965Y-33620635D01*
X55900629Y-33782138D01*
X55793201Y-33939621D01*
X55738293Y-33984621D01*
X55667768Y-33992792D01*
X55604021Y-33961538D01*
X55583324Y-33937054D01*
X55502822Y-33812617D01*
X55502820Y-33812614D01*
X55500014Y-33808277D01*
X55349670Y-33643051D01*
X55345619Y-33639852D01*
X55345615Y-33639848D01*
X55178414Y-33507800D01*
X55178410Y-33507798D01*
X55174359Y-33504598D01*
X55138028Y-33484542D01*
X55074659Y-33449561D01*
X54978789Y-33396638D01*
X54973920Y-33394914D01*
X54973916Y-33394912D01*
X54773087Y-33323795D01*
X54773083Y-33323794D01*
X54768212Y-33322069D01*
X54763119Y-33321162D01*
X54763116Y-33321161D01*
X54553373Y-33283800D01*
X54553367Y-33283799D01*
X54548284Y-33282894D01*
X54474452Y-33281992D01*
X54330081Y-33280228D01*
X54330079Y-33280228D01*
X54324911Y-33280165D01*
X54104091Y-33313955D01*
X53891756Y-33383357D01*
X53857739Y-33401065D01*
X53769855Y-33446815D01*
X53693607Y-33486507D01*
X53689474Y-33489610D01*
X53689471Y-33489612D01*
X53519100Y-33617530D01*
X53514965Y-33620635D01*
X53360629Y-33782138D01*
X53357720Y-33786403D01*
X53357714Y-33786411D01*
X53319928Y-33841804D01*
X53253204Y-33939618D01*
X53252898Y-33940066D01*
X53197987Y-33985069D01*
X53127462Y-33993240D01*
X53063715Y-33961986D01*
X53043018Y-33937502D01*
X52962426Y-33812926D01*
X52956136Y-33804757D01*
X52812806Y-33647240D01*
X52805273Y-33640215D01*
X52638139Y-33508222D01*
X52629552Y-33502517D01*
X52443117Y-33399599D01*
X52433705Y-33395369D01*
X52232959Y-33324280D01*
X52222988Y-33321646D01*
X52151837Y-33308972D01*
X52138540Y-33310432D01*
X52134000Y-33324989D01*
X52134000Y-35958517D01*
X51626000Y-35958517D01*
X51626000Y-33323102D01*
X51622082Y-33309758D01*
X51607806Y-33307771D01*
X51569324Y-33313660D01*
X51559288Y-33316051D01*
X51356868Y-33382212D01*
X51347359Y-33386209D01*
X51158463Y-33484542D01*
X51149738Y-33490036D01*
X50979433Y-33617905D01*
X50971726Y-33624748D01*
X50894478Y-33705584D01*
X50832954Y-33741014D01*
X50762042Y-33737557D01*
X50704255Y-33696311D01*
X50685402Y-33662763D01*
X50643767Y-33551703D01*
X50640615Y-33543295D01*
X50553261Y-33426739D01*
X50436705Y-33339385D01*
X50300316Y-33288255D01*
X50238134Y-33281500D01*
X48441866Y-33281500D01*
X48379684Y-33288255D01*
X48243295Y-33339385D01*
X48126739Y-33426739D01*
X48039385Y-33543295D01*
X47988255Y-33679684D01*
X47981500Y-33741866D01*
X47981500Y-35538134D01*
X35749096Y-35538134D01*
X35749235Y-35511583D01*
X35749235Y-35511576D01*
X35749257Y-35507297D01*
X35748626Y-35502500D01*
X35725973Y-35330439D01*
X35711732Y-35222266D01*
X35635871Y-34944964D01*
X35562902Y-34773891D01*
X35524763Y-34684476D01*
X35524761Y-34684472D01*
X35523077Y-34680524D01*
X35375439Y-34433839D01*
X35195687Y-34209472D01*
X35015837Y-34038801D01*
X34990258Y-34014527D01*
X34990255Y-34014525D01*
X34987149Y-34011577D01*
X34753683Y-33843814D01*
X34731843Y-33832250D01*
X34679351Y-33804457D01*
X34499608Y-33709288D01*
X34267567Y-33624373D01*
X34233658Y-33611964D01*
X34233656Y-33611963D01*
X34229627Y-33610489D01*
X33948736Y-33549245D01*
X33917685Y-33546801D01*
X33725718Y-33531693D01*
X33725709Y-33531693D01*
X33723261Y-33531500D01*
X33567729Y-33531500D01*
X33565593Y-33531646D01*
X33565582Y-33531646D01*
X33357452Y-33545835D01*
X33357446Y-33545836D01*
X33353175Y-33546127D01*
X33348980Y-33546996D01*
X33348978Y-33546996D01*
X33326249Y-33551703D01*
X33071658Y-33604426D01*
X32800657Y-33700393D01*
X32796848Y-33702359D01*
X32642279Y-33782138D01*
X32545188Y-33832250D01*
X32541687Y-33834711D01*
X32541683Y-33834713D01*
X32536487Y-33838365D01*
X32309977Y-33997559D01*
X32286933Y-34018973D01*
X32106807Y-34186357D01*
X32099378Y-34193260D01*
X31917287Y-34415732D01*
X31767073Y-34660858D01*
X31765347Y-34664791D01*
X31765346Y-34664792D01*
X31679474Y-34860415D01*
X31651517Y-34924102D01*
X31650342Y-34928229D01*
X31650341Y-34928230D01*
X31642074Y-34957251D01*
X31572756Y-35200594D01*
X31532249Y-35485216D01*
X31532227Y-35489505D01*
X31532226Y-35489512D01*
X31530765Y-35768417D01*
X31530743Y-35772703D01*
X30648000Y-35772703D01*
X30648000Y-32774000D01*
X30668002Y-32705879D01*
X30721658Y-32659386D01*
X30774000Y-32648000D01*
X74506000Y-32648000D01*
X74574121Y-32668002D01*
G37*
%TD.AperFunction*%
%TD*%
M02*
